<?xml version="1.0" standalone="no"?>
<!DOCTYPE svg PUBLIC "-//W3C//DTD SVG 1.1//EN" "http://www.w3.org/Graphics/SVG/1.1/DTD/svg11.dtd">
<svg xmlns="http://www.w3.org/2000/svg"><metadata>This SVG WebFont was generated by YouWorkForThem.
Copyright (c) 2008 by YouWorkForThem. All rights reserved.</metadata><defs><font horiz-adv-x="1152" id="ywftsvg"><font-face ascent="800" bbox="-118.571 -200 1845.4 888.571" cap-height="704.5" descent="-200" font-family="" font-stretch="expanded" font-weight="400" panose-1="2 0 0 0 0 0 0 0 0 0" underline-position="0" underline-thickness="0" unicode-range="U+0020-FB02" units-per-em="1000" x-height="701"/><missing-glyph horiz-adv-x="300"/><glyph glyph-name=".notdef" horiz-adv-x="300"/><glyph glyph-name="glyph1" horiz-adv-x="0"/><glyph glyph-name="glyph2" horiz-adv-x="333"/><glyph glyph-name="space" horiz-adv-x="300" unicode=" "/><glyph d="M68 366q0 9 -1 54t0 55l3 48q-1 8 0 22t1 21l-3 45q-1 20 -1 65q0 18 2 22q2 0 4 2q4 0 9.5 -2t6.5 -2q0 -57 1 -86q0 -6 1.5 -18t1.5 -18q2 -36 -1 -64q-4 -48 -4 -77q0 -6 1.5 -19.5t1.5 -20.5q0 -1 -1 -3v-2q0 -31 2 -45q0 -1 -0.5 -1t-0.5 -1q0 -4 0.5 -12t0.5 -12 t1 -11.5t1 -10.5v-31.5t2 -36.5q0 -3 1 -9.5t1.5 -11.5t0.5 -7q0 -4 0.5 -10t0.5 -10.5t-3 -7.5q-14 -3 -23 6q-1 3 -1 27q0 56 -3 92q-2 46 -2 70zM76 76q3 5 11.5 5t12.5 -5q-4 -34 -3 -55q0 -17 -4 -20q-14 0 -18 4q-1 7 0 37t1 34z" glyph-name="exclam" horiz-adv-x="167" unicode="!"/><glyph d="M88 625q-3 -3 -5 -6q-1 -1 -3.5 -5t-3.5 -5q0 -1 -1 -2t-1 -2q-2 -3 -6 -7q-1 -1 -2.5 -4l-2.5 -5q-2 -3 -7 -8q-3 -6 -10 -13q-1 -1 -2 -3q-3 -5 -6 -6q-4 0 -10 3q-6 8 -6 9q0 4 5 9t6 7q2 2 5.5 7.5t6.5 7.5q1 3 5 7.5t5 8.5q3 2 6.5 7.5t5.5 7.5q6 11 20 33 q3 6 9.5 17t9.5 16h1q2 2 4 2q7 0 10 -3l3 -2q3 -2 3 -4q0 -4 -1.5 -7.5t-4 -6.5t-3.5 -5l-6 -9t-6 -8q0 -1 -1.5 -2t-1.5 -2q-1 -1 -1 -2q-1 -2 -1 -3q-2 -2 -3 -4q-4 -3 -5 -8q0 -1 -0.5 -2.5t-1.5 -2.5t-3 -5zM183 698q9 0 13 -12q-2 -5 -9.5 -13.5t-9.5 -16.5l-6 -6 q-5 -6 -7 -6q-6 -15 -34 -49q-12 -19 -17 -23q-1 -1 -3 -5t-3 -5q-2 0 -2 -1q-7 -14 -18 -11l-3 3q-7 5 -7 6q0 5 6 11q2 0 3 1v1q0 2 1 2q11 11 19 23q11 18 27 37q8 18 26 39q0 2 2.5 5.5t2.5 6.5q4 2 9.5 7t6.5 6h3z" glyph-name="quotedbl" horiz-adv-x="218" unicode="&quot;"/><glyph d="M196 525q1 -7 -0.5 -14.5t-4 -17t-3.5 -14.5q-2 -9 -4.5 -25t-3.5 -24q1 0 58 -3q8 -1 25 -1h27h2l1 -1q1 0 1 0.5t1 0.5q39 -1 120 -1q2 16 8.5 46t9.5 46q6 3 19 -2q0 -16 -7 -43.5t-7 -45.5q14 -2 40.5 -3t34.5 -2q1 -1 8.5 -3.5t8.5 -6.5q-8 -10 -12 -10q-41 7 -55 8 h-26q-2 -2 -5 -20q-3 -14 -7.5 -39.5t-6.5 -33.5q0 -1 -1 -8t-2 -11q0 -2 -1.5 -4.5t-1.5 -3.5q-1 -4 -2.5 -13t-2.5 -14q-3 -13 -2 -16h69q32 0 36 -9q1 -3 -1 -5t-2 -4q-1 -3 -16.5 -1t-17.5 2q-21 0 -24 1q-5 -1 -17 -1l-1 1q-3 -3 -15 0q-3 -2 -8 -2h-6l-6 -32 q-4 -22 -5 -33q-1 -5 -2.5 -17t-2.5 -17q-2 -22 -8 -27q-11 -3 -18 6q0 5 4 26t2 34q1 1 1.5 5t1.5 5q-1 12 3 29.5t4 21.5q-10 1 -30 1t-28 1q-15 3 -17 4q-8 -2 -34 0l-1 -1q-9 2 -10 2h-1q-1 -1 -2 -1q-20 1 -43 0h-8q-40 0 -62 -1q-2 -4 -4 -12q0 -2 -1 -6.5t-1 -7.5 q-2 -18 -4 -27q0 -4 -2 -12.5t-3 -12.5q-2 -18 -4 -27q-11 -8 -23 0q-1 3 2 16q2 10 4 16q1 19 9 57q2 10 2 16q-13 1 -38 -0.5t-33 -1.5q-11 9 -10 12q0 4 11 4q48 4 73 4q2 2 3.5 9t2.5 9q1 6 12 59.5t18 80.5q-1 2 -5 2t-5 1q-48 -3 -67 -2q-2 0 -7.5 0.5t-7.5 0.5 t-6.5 0.5t-7 1.5t-5 2.5t-4 4t-2.5 5.5q6 4 29 2q28 -1 91 1q4 9 5 18q0 3 3 20v7q2 4 2 5q1 4 2.5 12.5t2.5 12.5q6 16 7 23q3 3 9 2.5t8 -4.5zM176 410q-6 -32 -17 -80q-1 -6 -3.5 -19t-4.5 -20q-7 -33 -7 -39q14 -2 60.5 -1.5t59.5 0.5q12 -1 39.5 -3t39 -2h38.5 q3 6 5.5 19.5t4.5 19.5q15 77 22 123q-22 5 -48 1q-3 1 -25 1q-4 0 -13 0.5t-14 0.5h-20q-1 0 -3.5 -0.5t-3.5 -0.5l-14 1q-15 1 -15 -1q-11 2 -25 2.5t-26 0t-27 0.5q-3 -1 -3 -3z" glyph-name="numbersign" horiz-adv-x="563" unicode="#"/><glyph d="M316 704q32 0 47 -3q17 -2 42 -10q22 -5 37 -17q5 -2 15.5 -9t18.5 -9q2 -3 9 -8.5t9 -9.5q14 -10 15 -22q-4 -7 -13.5 -6t-11.5 7q-3 5 -10 12l-9 9q-5 3 -13.5 9t-11.5 8q0 1 -1 1h-1l-1 1q-1 1 -2 1q-2 2 -8 4q-14 7 -22 9q-8 3 -24 7q-4 1 -13 3t-13 3q-29 3 -39 2 q-4 -4 -1 -14q0 -13 4 -39l3 -27t2 -26q0 -9 0.5 -18.5t1.5 -21t1 -17.5q1 -15 1 -46v-45q0 -72 1 -86q3 -4 15.5 -6.5t15.5 -3.5q11 -2 39 -14q5 -1 15 -5q3 0 5 -1q1 0 4 -2t5 -2t5 -1t5 -1l2 -2q18 -5 28 -13q1 -1 4 -2t5.5 -2.5t4.5 -2.5l1 -1l2 -2t3 -1h2l15 -9 q4 -5 13 -12t10 -8q4 -3 10 -10t10 -10q0 -1 5 -9q1 -1 1 -3q1 -2 1 -3q2 -2 5 -8q7 -10 8 -13q1 -6 3 -20q2 -23 -3 -36q0 -2 -2 -6q-2 -10 -8 -30q-2 -7 -20 -43q-8 -8 -38 -31q-55 -22 -76 -27q-9 -2 -25.5 -3t-21.5 -2q-30 -2 -45 -5l3 -22q-1 -4 -0.5 -15.5t-2.5 -13.5 q-9 -7 -23 0q-1 4 -0.5 12.5t-1.5 11.5q1 10 -1 26q-7 3 -23 3q-4 0 -13 0.5t-13 1.5q-24 3 -47 9q-10 3 -13 4q-13 3 -14 3t-2 2q-2 2 -3 2q-8 2 -13 4q-3 1 -6.5 2.5t-8 3.5t-6.5 3q-1 0 -3 2t-4 3q-10 5 -11 6q-1 0 -3 2q-1 2 -6 3q-2 1 -8 5q-24 17 -67 60q-9 12 -16 26 l-2 2q-1 1 -1.5 2.5t1.5 4.5q10 4 19 -5q1 -4 4.5 -9t4.5 -8q19 -20 59 -56q3 -2 11 -7.5t12 -8.5q6 -2 17.5 -8.5t18.5 -9.5q2 -1 5 -2t5 -1q3 0 5 -2q32 -9 48 -12q37 -8 73 -7q1 15 0 43t-1 37v79q-1 27 -1 81v81q-2 2 -20 7q-3 1 -10 3t-10 3q-20 6 -30 11 q-2 0 -6.5 2.5t-8.5 3.5q-1 0 -4 1.5l-5 2.5q-35 17 -54 33q-31 27 -44 63q-11 24 -12 41q-2 16 -2 25q-3 30 6 56q1 1 2.5 3.5t1.5 4.5q1 2 2.5 6.5t2.5 6.5q3 3 3 4q3 2 5 8q20 31 58 54q51 21 112 30q1 5 1 26q1 6 -1.5 14t0.5 10q2 2 4 2q15 0 16 -3l2 -2l2 -2 q0 -1 -1 -3t-1 -3q0 -4 0.5 -12.5t1 -15t1.5 -10.5zM304 432q0 86 -2 112q-3 59 -4 74q-1 4 -1.5 13.5t-0.5 13.5q0 1 -1 3.5t-1 4.5q-1 2 -1.5 13t-0.5 13q-2 5 -5 6q-1 0 -3 -1h-1q-61 -12 -98 -29q-3 -3 -9 -7l-9 -6t-7 -8q-7 -5 -8 -9q-7 -5 -15 -20.5t-9 -16.5l-9 -33 q-2 -11 1 -33.5t3 -28.5q10 -29 24 -56q3 -3 9 -9.5t11 -11.5t10 -9q10 -9 36 -23q47 -22 90 -31q3 25 1 79zM328 323q0 -29 1 -87.5t1 -87.5v-65v-31t2 -38q3 -1 19 1q14 0 19 4q7 0 14 0.5t15.5 1.5t13.5 1q5 1 13.5 3.5t11.5 3.5q4 1 13 4q2 2 3 2q2 1 5 1.5t4 0.5 q2 1 5 3t6 3t6 1q2 2 9 6t10 8q5 2 11.5 9t7.5 8q0 1 2 3q10 14 18 39q1 2 2 6t2 6q0 2 2 5.5t2 5.5q6 17 4 41q0 9 -2 15l-3 6t-3 5q-1 2 -3.5 5t-3.5 5q-1 5 -5 8q0 2 -1 3q-1 2 -4 5t-4 5q-5 4 -17 15t-20 16q-9 4 -24 12.5t-22 12.5q-18 4 -53 16.5t-55 17.5 q-2 -2 -2 -5z" glyph-name="dollar" horiz-adv-x="594" unicode="$"/><glyph d="M500 129q1 0 1 -2q1 -8 0 -20.5t-1 -18.5q1 -5 -2.5 -14.5t-3.5 -15.5q0 -4 -5 -11t-6 -9q-2 -2 -6 -9t-7 -10l-4 -4l-5 -5l-12 -9q-15 -11 -34 -15q-10 0 -22.5 1t-18.5 1q-5 0 -16 6l-10 6l-12 9l-1 1q-2 1 -3 2q-30 22 -37 45q-3 9 -5 22q-2 30 0 44q0 5 3.5 15 t3.5 15q0 1 1.5 4t1.5 6q0 16 17 33l8 8q2 1 3 2.5t2.5 3l2.5 2.5q3 2 9.5 8t10.5 9q21 9 30 10q3 0 11 -0.5t12 -0.5q11 0 20 -3q12 -5 18 -11q1 -1 3.5 -2.5t3.5 -2.5q4 -2 10 -10q3 -3 10 -8t12 -10t7 -11q7 -16 7 -23q0 -5 0.5 -9.5t1.5 -9.5t1 -9zM466 172q-2 3 -5.5 7 t-4.5 5q-4 5 -12.5 10.5t-12.5 9.5q-8 8 -14 10q-10 2 -14.5 2t-14.5 -2t-15 -2q-7 -2 -15 -8q-2 -2 -7 -6t-7 -7q-6 -8 -13 -25q-20 -38 -16 -81q1 -2 1.5 -8t2.5 -10q1 -2 4 -6.5t4 -6.5t8 -14q1 -3 13 -12q1 -1 5.5 -5t7.5 -6q31 -21 58 -9q12 5 31 24q0 1 5 8q6 10 9 16 q2 6 4 9q7 37 7 68q0 23 -9 39zM514 738q-1 -5 -7.5 -11t-7.5 -10q-3 -4 -7.5 -11t-7.5 -11q-10 -24 -24 -49q-2 -7 -6 -11q-4 -10 -7 -12q-6 -12 -28 -45q-4 -10 -13 -23q-1 -4 -6 -11.5t-7 -12.5l-30 -51q-14 -22 -62 -102l-30 -51q-3 -3 -7.5 -11t-7.5 -11 q-6 -17 -13 -24q-3 -3 -5 -8q-4 -6 -11 -17q-2 -3 -7 -11.5t-8 -13.5q0 -1 -1 -2l-2 -2q0 -1 -5 -8q-2 -2 -5 -8t-6 -9q-1 -1 -4 -5t-5 -7q-3 -6 -11.5 -20.5t-13.5 -22.5l-21 -33q-2 -2 -6 -8q-1 -1 -2.5 -4.5t-2.5 -4.5q-5 -9 -11 -16q-2 -4 -16 -25q-2 -2 -3.5 -6.5 t-3.5 -6.5q0 -1 -3 -4l-2.5 -5t-2.5 -4l-3 -3q-5 -10 -8 -13q-2 -13 -5 -17q-6 -8 -9 -11q-17 -15 -26 -4q-5 20 9 28q2 1 3 3t2.5 4.5t2.5 3.5q2 3 4.5 7t5.5 9t5 8t6 8.5t5 8.5q10 15 12 17q2 5 5.5 10t8 11t6.5 10q2 3 6 11l5 5q0 3 2 5q2 3 6.5 10t6.5 11q6 8 16 26 q1 1 1 3q1 1 3 1q1 2 2.5 6t2.5 6q1 1 3.5 4t3.5 5q15 21 26 41q4 6 11 17.5t9 14.5q1 0 2 2l1 2q0 1 1 3t1 3l1 1q1 1 2 1q1 2 10 16.5t13 22.5q2 2 3.5 6t2.5 5q1 2 4 5.5t3 4.5q4 7 10.5 20.5t13 24.5t14.5 18q1 1 5 9q1 1 4.5 6.5t4.5 8.5q6 10 14 24q2 4 7.5 12t7.5 11 q2 4 6.5 12t7.5 12l4 8t5 9t5 8q10 20 28 48q1 1 6.5 10.5t7.5 14.5q5 6 15 24q3 3 7.5 11.5t7.5 11.5q3 7 12 24t13 27q2 4 7 12t7 12q8 10 8 11q0 10 7 11q15 5 21 -5q0 -1 0.5 -2.5t0.5 -2.5zM279 601q1 1 1 -1q-6 -53 -6 -55q-2 -8 -10 -29q-2 -1 -2 -2v-3 q-5 -11 -14 -20l-4 -4t-5 -4q-15 -13 -19 -14q-8 -4 -17 -7q-1 0 -7.5 -3t-12.5 -3q-57 0 -90 31q-17 23 -20 43q-6 33 -6 42q0 6 2 19t2 20q1 2 2 7t2 7q1 1 3 4q2 14 4 19q1 3 5 9l4 8q2 3 5.5 10t6 11.5t6 9.5t8 7.5t9.5 2.5t14 2.5t13 2.5h19q3 0 18 -5q3 -1 8.5 -3.5 t7.5 -3.5t5 -1t4 -1l1 -1q2 -1 3 -1q2 -1 4 -1q2 -1 7.5 -3t7.5 -4q5 -4 23 -29q2 -6 7.5 -18.5t7.5 -18.5q0 -1 3 -20zM226 502q6 6 12 18q0 2 2 5t2 4q4 9 6 20q7 31 6 48q-2 40 -15 55q-5 4 -6 9l-2 1l-2 4q-2 2 -14 12q-6 1 -17.5 5.5t-18.5 5.5q-8 1 -19 -0.5t-16 -1.5 q-9 0 -16.5 -7t-10 -12t-7.5 -18q-2 -5 -5.5 -14.5t-5.5 -14.5q-1 -5 -3 -17q-1 -3 -2.5 -8.5t-1.5 -8.5q-2 -29 6 -57q3 -12 14 -26q10 -13 24 -20q26 -14 51 -6q2 0 8 2q1 2 2 2q14 6 19 9q6 5 10 11z" glyph-name="percent" horiz-adv-x="547" unicode="%"/><glyph d="M242 428q0 -10 6 -14q0 -2 6 -13l9 -21q6 -11 11 -18q1 -2 3.5 -6.5t3.5 -6.5q1 -5 6 -13t6 -13q5 -5 13 -17l3 -6q1 -2 4 -6t4 -6l6 -8q2 -1 3 -3.5t3 -3.5q1 -1 2 -3.5t2 -3.5q2 -4 7 -9v-1q0 -2 1 -2l2 -2q0 -1 1 -2l4 -4q1 -1 1 -3q12 -17 21 -28q1 -2 3.5 -4t3.5 -4 l6 -9l15 -15q4 -6 7 -8q1 -1 3 -4t4 -4q3 2 4.5 7.5t3.5 7.5q1 3 3.5 8l3.5 7l22 66q2 4 4 11t4.5 12t6.5 8q17 -4 18 -10q1 -4 -0.5 -7t-4 -7t-3.5 -6q-1 -9 -9 -23q0 -4 -1.5 -9t-1.5 -8q-9 -18 -15 -39q-9 -19 -16 -36q0 -4 7 -9q1 -2 3.5 -4.5t3.5 -4.5q3 -2 8 -8t8 -8 l27 -36q19 -22 27 -37q3 -2 8 -8t8 -8q0 -5 5.5 -10t5.5 -10l-3.5 -3.5t-4.5 -3.5q-4 0 -7.5 3t-6 6.5t-5.5 5.5q-1 1 -3 2.5t-3 2.5q-3 6 -10.5 15t-9.5 13q-5 4 -11.5 13.5t-10.5 13.5q-4 6 -12.5 16.5t-9.5 11.5t-17 20q-5 5 -7 5q-3 -1 -4.5 -6.5t-3.5 -6.5 q-1 -2 -4.5 -6t-5.5 -6q-6 -8 -8 -12q-6 -9 -18 -25q-3 -2 -6.5 -6t-5.5 -5q-3 -2 -8 -5t-7 -5l-6 -6q-2 -2 -9 -7t-10 -8q-18 -9 -35 -15q-2 -2 -3 -2h-4q-3 -1 -7 -3t-6 -2q-40 -11 -69 -9q-16 1 -62 19q-10 5 -50 30q-3 4 -10.5 11.5t-12.5 14t-9 13.5q-2 1 -3 4t-2 4 q-3 2 -6 8t-5 8q-3 14 -9 24q-1 7 -8 32q0 6 -0.5 16t-0.5 15q-1 10 1 28q1 8 11 51q14 26 33 55q4 3 21 23q3 2 6 6.5t4 5.5q2 2 5.5 6t4.5 5q2 1 4 2.5t4 2.5q4 4 10 8q3 3 8.5 7.5t8.5 6.5q25 20 36 25q10 3 16 7q2 2 7.5 4t7.5 5q-1 5 -8 17q-4 17 -16 49q-7 18 -11 33 q-2 4 -4.5 12.5t-3.5 13.5q-1 4 -2.5 13.5t-2.5 13.5q1 18 7 48q4 9 12 25q9 12 11 15q3 1 6.5 4.5l4.5 4.5q7 4 14 7q3 1 11.5 7.5t14.5 8.5q9 3 25 4.5t21 2.5q3 0 9 0.5t10 -0.5q5 0 13 -2t11 -2q30 -11 54 -31q2 -3 7 -8q0 -1 0.5 -2.5t1.5 -2.5q0 -1 3 -4q1 -1 1 -2 q1 -2 1 -3q2 -2 5 -8q0 -1 2 -6.5t3 -7.5q7 -21 6 -32q0 -4 -1 -11t-1 -11q-1 -4 -2.5 -8.5t-3.5 -10t-3 -8.5q-4 -5 -10 -15q-3 -2 -6.5 -8t-4.5 -7l-6 -6q-13 -15 -16 -18l-11 -11t-12 -13q-5 -2 -12.5 -7t-11.5 -7q-3 -2 -29 -14q-1 0 -2.5 -1t-2.5 -2q-2 -1 -8 -5 l-14 -7q-2 -1 -6 -2.5t-7 -3t-5 -3.5zM255 457q2 1 3.5 2.5t2.5 1.5l4 2t4 1q2 1 9.5 4t11.5 5q7 5 8 5l3 3q1 1 3 2l2 1l3 3q4 3 12 7q5 6 16.5 16t16.5 16q23 28 23 29q5 8 8 20q10 24 8 41q-1 5 -11 33q-1 0 -3 5q-1 2 -4 5q-4 8 -7 12q-5 5 -21 15q-21 12 -40 16h-18 q-3 0 -9 -2t-9 -2q-3 -2 -6.5 -2.5t-9 -1.5t-10.5 -3q-17 -5 -34 -22q-13 -18 -17 -30q-1 -5 -3.5 -15.5t-3.5 -16.5q0 -2 1 -6v-4l-1 -1q-1 -4 2 -14q1 -2 1 -6v-6l3 -9q6 -22 8 -28q6 -12 8 -17q0 -1 4.5 -11t4.5 -15q0 -6 3 -18q1 -3 4 -9t4 -9q1 0 2 -3t3 -3q4 2 11.5 5 t9.5 4zM184 401q-4 -2 -10 -7.5t-9 -7.5q-3 -3 -13.5 -9.5t-15.5 -11.5q-2 -1 -5 -4l-4 -4q-13 -13 -16 -18q-30 -27 -55 -81q-10 -48 -10 -62q0 -4 2 -13.5t1 -15.5q1 -2 2 -6.5t2 -6.5q0 -1 1 -3q3 -12 5 -18q1 -2 2 -5.5t1.5 -5.5t1.5 -4v-2l2 -1q0 -2 1 -4.5t2 -3.5 q10 -18 16 -25q3 -5 10 -12q1 -1 2 -3t2 -3t3 -2l3 -2q1 0 3 -2l3 -3h2q0 -2 1 -2l4 -2q16 -12 26 -17l5 -2.5t7 -3t7 -2.5l20 -10q2 -1 6 -1.5t6 -0.5l12 -3q12 -1 25 0.5t21 4t22 7t19 5.5q5 4 14.5 8.5t12.5 6.5l3 3l2 3q3 0 4 1l1 1q1 2 2 3t5 3q1 1 6.5 6t9.5 7 q24 32 26 35q1 2 6 8.5t8 9.5q0 4 4 10.5t5 11.5q-3 7 -12.5 16.5t-12.5 14.5q-5 5 -14 15.5t-13 14.5q-3 3 -7.5 9.5t-5.5 7.5q-1 2 -4.5 6.5t-4.5 6.5q-1 0 -1 2t-1 2q-2 1 -3 2q1 1 0 2t-2 1q-2 3 -11 15q-13 18 -30 46q-2 2 -16 27q-1 3 -3.5 6.5t-4 6.5l-3.5 7t-4 7 q-1 1 -3.5 5.5t-3.5 7.5q-4 7 -22 43h-2q-24 -8 -35 -15z" glyph-name="ampersand" horiz-adv-x="553" unicode="&amp;"/><glyph d="M77 699q5 3 13.5 2t9.5 -7q-1 -10 -10 -28q-2 -4 -2 -12q0 -3 -2 -6.5t-4.5 -7t-3.5 -5.5q-1 -9 -8 -25.5t-8 -27.5q-4 -6 -5 -12q-1 -1 -3 -5t-3 -5q-7 -20 -13 -22q-11 -1 -16 7q0 3 3 9t3 7q2 4 3 7q0 1 2.5 7.5t4.5 8.5q5 26 12 45l9.5 19t8.5 26q0 16 9 25z" glyph-name="quotesingle" horiz-adv-x="122" unicode="'"/><glyph d="M260 674q-22 -10 -53 -41q-4 -5 -17.5 -21t-21.5 -24q-7 -14 -40 -61q-3 -6 -19 -37t-22 -50l-1 -4q-8 -34 -9 -42q-2 -10 -6 -32q-8 -59 1 -136q2 -15 3 -17q2 -13 13 -51l1 -1q1 -1 1 -2v-4q4 -8 7 -12q22 -36 28 -45q1 -1 2 -2.5t2 -2.5l4 -4q1 -1 3.5 -5t4.5 -6 t7.5 -6.5t7.5 -6.5l2 -2q4 -2 12 -8q1 -1 2.5 -2t2.5 -2t3 -1q1 -1 9 -7l21 -9l39 -18q2 -1 7 -2.5t7 -2.5q17 -4 43 -7q29 -3 88 1q12 -4 13 -11q0 -10 -14 -12q-1 0 -19 2q-5 0 -14.5 -0.5t-14.5 -0.5q-9 0 -25 2q-46 2 -64 8q-5 0 -7 2q-1 1 -3 1h-3l-2 2q-1 0 -4 1t-5 1 q-1 0 -4 2t-5 3q-1 1 -3 1h-3t-2 1.5t-2 1.5q-4 2 -13 5q-2 1 -8.5 4.5t-10.5 5.5q-5 5 -15.5 11.5t-13.5 9.5q-14 9 -28 23q-6 8 -17 22.5t-17 21.5q-15 24 -24 51q-11 37 -14 61q-6 35 -6 71q0 5 0.5 13t0.5 13v28q0 6 2.5 19t3.5 16q2 22 5 32q10 45 16 60q5 14 31 56 q4 8 13 20q10 15 12 17q2 4 7.5 13.5t7.5 16.5q1 3 7 7t8 7q2 2 6.5 7t7.5 7q1 3 4.5 9t4.5 9q6 5 19 16.5t19 17.5q30 18 46 27q4 1 10 4t9 4h3.5t3.5 1q3 1 18 4.5t24 4.5q2 0 6 -1t5 -1q4 0 14 2q2 0 7 0.5l10 1t10 0t8 -2.5t3 -6q0 -7 -29 -9q-5 0 -19 -1t-19 -2 q-1 -1 -5 -1t-5 -1q-1 0 -2 -1t-2 -1h-5q-9 -3 -11 -3q-18 -8 -39 -20z" glyph-name="parenleft" horiz-adv-x="416" unicode="("/><glyph d="M76 6q0 3 2.5 4.5t7.5 1.5h6q10 2 20 5q14 5 38 13q44 24 48 28q30 25 49 48q2 1 8 10l4 4q1 5 6 10q1 1 2.5 3.5t3 4.5t2.5 4l7 7q0 1 0.5 2.5t1.5 2.5q0 1 1 2.5t2 2.5q10 14 15 28q2 1 4 6t3 6q3 7 8.5 20.5t8.5 19.5q5 11 20 66q5 18 8 35l3 6v7q0 2 1.5 6t1.5 5 q0 8 1 14q5 37 5 51q0 40 -13 77l-3 6q0 1 -1 3.5t-1 3.5l-3 6q-7 18 -13 26q0 1 -26 29q-24 26 -47 40q-9 8 -43 28q-8 5 -25 12.5t-22 10.5q-2 0 -16 3.5t-23 4.5q-8 1 -22 1q-10 3 -21 3q-18 1 -45 -3h-22q-7 5 -7 17q3 7 13 7.5t18 -1.5q8 -1 27.5 -1h28.5t27 -2.5 t26 -2.5q5 -2 15 -5t15 -5q4 -1 13.5 -5.5t14.5 -6.5q68 -38 95 -64q12 -9 33 -34q10 -12 14 -19q1 -1 1 -3q1 -2 6 -7q1 -1 2.5 -4.5t2.5 -5.5q26 -50 26 -108q-1 -49 -18 -116q-12 -56 -32 -101q-6 -14 -18.5 -38t-16.5 -32q-8 -9 -19 -26q-2 -2 -5 -6t-5 -6 q-1 -2 -4 -5.5t-4 -6.5q-18 -16 -30 -31q-10 -8 -18 -14q-2 -2 -7 -6.5t-8 -6.5l-21 -12l-6 -3q-2 -2 -15 -8q-13 -5 -34 -10q-2 0 -5 -1t-5.5 -1.5t-4.5 -0.5l-3 -2q-31 -8 -34 9z" glyph-name="parenright" horiz-adv-x="433" unicode=")"/><glyph d="M258 531q-8 -1 -19 10q-16 13 -16 14q-3 1 -10 8q-3 1 -6.5 4t-5.5 4t-5.5 4t-5.5 4q-14 12 -23 16q-1 -5 -1.5 -15.5t-0.5 -15.5q0 -20 -2 -23q-7 -3 -14 0t-9 9q-1 4 4 15v41q-2 1 -11 -5q-2 -1 -5 -3.5t-5 -3.5q-4 -2 -10.5 -7.5t-9.5 -8.5q-7 -5 -19 -15l-8 -7 q-7 -7 -11 -9q-11 3 -15 13q1 3 4 5t4 3t4 3.5t4 3.5q12 10 16 14q4 2 9.5 6.5t7.5 6.5q14 12 15 15q-29 2 -57 0q-1 1 -3 1.5t-3 0.5l-3 3t-3 4.5t-1 6.5q3 6 20 4h42q-1 4 -13 13q-2 1 -7 5t-8 5q-18 14 -29 20q0 2 -2.5 5.5t-0.5 5.5q1 4 12 4q5 -1 11.5 -6.5t9.5 -6.5 q3 -2 9.5 -7.5t11.5 -7.5q3 -3 10.5 -7.5t10.5 -6.5q2 -1 6 -4.5t8 -5.5t9 -2q2 2 2.5 6.5t0 9.5t0.5 11q0 2 0.5 5t0.5 4q0 3 -0.5 7t-0.5 6.5t0.5 5t2 3.5t4.5 1q4 0 5.5 -1.5t3 -5.5t2.5 -6q-1 -6 0 -16t1 -13q4 -1 7 2.5t6 3.5q4 5 10 7q1 3 5 6.5t5 4.5q16 13 18 14 q16 3 21 -12q-3 -7 -8 -12q-2 0 -4 -2q-11 -8 -14 -10t-9 -4q-14 -9 -18 -18q12 -5 33 0q2 -2 11.5 -1t13.5 1q1 0 8 -3q0 -2 2 -4.5t2 -4.5t-7 -11q-9 -1 -70 2q-2 -2 1 -4q2 -1 2 -2q12 -12 31 -24q1 -1 3 -1q0 -2 1 -3q2 0 3 -1l5 -5q2 0 4 -2q1 -1 3 -4q1 -1 3.5 -2.5 t4.5 -3t4 -2.5q0 -2 2.5 -3t2.5 -2q1 0 2 -2.5t3 -1.5q2 -2 5 -5.5t4 -5.5q0 -1 1 -3q1 -1 -1 -1q1 -3 -4 -8z" glyph-name="asterisk" horiz-adv-x="308" unicode="*"/><glyph d="M279 567q0 -20 2 -64v-19.5v-24v-20.5q0 -87 1 -126q25 -3 57 1q6 2 10 2h1l2 -1l15 3t14 2t31.5 1.5t30.5 -2.5q5 0 8 -2l1 -2l3 -3q-3 -8 -8 -10q-3 -2 -15 -2q-9 -1 -27.5 -1t-29.5 -1q-40 -5 -42 -6q-6 0 -17.5 0.5t-19.5 0.5t-14 -1q-1 -41 0 -88q0 -5 0.5 -14 t0.5 -13q0 -9 -2 -27q-1 -9 -1 -28v-29q0 -17 -3 -25q-13 -8 -23 2v27q0 2 1 5.5t1 6.5q1 1 0 3t-1 3q3 24 3 57q1 28 -1 120q-8 1 -29.5 4t-33.5 4q-5 0 -15.5 -1t-16.5 -1q-82 -5 -97 -5q-2 1 -7 2t-7 3q-1 1 -3.5 3t-3 3.5t0.5 4.5q0 3 10 3q26 -2 71.5 1.5t61.5 3.5 q12 0 35 -2.5t34 -2.5q1 14 1 131q0 7 1 21.5t2 22.5q0 10 -0.5 21t-1.5 24t-1 21q0 15 4 19q8 4 17 -5z" glyph-name="plus" horiz-adv-x="499" unicode="+"/><glyph d="M139 42q9 1 15 -5q0 -12 -1 -13l-4 -4q-1 -1 -1 -3q-1 -1 -2.5 -3.5t-2.5 -3.5q-3 -3 -7 -10t-7 -10q-2 -2 -6.5 -8.5t-7.5 -9.5q-3 -7 -7 -11q-3 -5 -10 -14t-10 -14q-1 -3 -6 -9t-7 -10q-1 -2 -3 -5t-4 -5q-6 -9 -6 -10q-3 -1 -7 -8t-8 -8q-8 -1 -14 8q0 1 6 10 q5 11 20 28q2 4 6.5 11t5.5 9q6 9 7 10q1 2 3.5 4.5l3.5 3.5q1 0 1 1v2l4 4q5 11 7 13l3.5 3.5t3.5 4.5l1 1q1 1 1 2t2 3l3 3q4 6 12 20l2 2q1 2 4 9t5 9h1q2 2 4 3z" glyph-name="comma" horiz-adv-x="188" unicode=","/><glyph d="M383 294l-9 -11q-4 -1 -18 2q-6 0 -18 -0.5t-18 -0.5t-18.5 0.5t-18.5 0.5h-19q-3 -1 -8.5 0t-7.5 1q-8 -2 -11 -2q-18 -2 -32 -1q-28 -1 -140 -1h-10.5h-10.5q-8 3 -11 11q2 6 5 7q9 1 29.5 1.5t26.5 0.5q62 0 218 3q10 -1 47 1q20 2 24 -12z" glyph-name="hyphen" horiz-adv-x="416" unicode="-"/><glyph d="M65 -8q-3 -2 -12 0q-9 4 -9 19v33q0 3 0.5 9.5t0.5 9.5q1 3 0 9t0 9q5 3 11 2t8 -4q2 -4 2 -12v-20q0 -3 1.5 -8t1.5 -8q1 -9 0 -17q-2 -20 -4 -22z" glyph-name="period" horiz-adv-x="114" unicode="."/><glyph d="M423 704q14 0 17 -10q1 -9 -5 -18q0 -1 -1 -2.5t-1.5 -3t-1.5 -2.5t-7 -8t-8 -12l-4 -6q-3 -5 -4 -9l-6 -18q-1 -7 -7 -16q-3 -5 -8.5 -15t-7.5 -15q-16 -28 -16 -29q-7 -14 -18.5 -40t-15.5 -35q0 -1 -0.5 -2.5t-1.5 -2.5t-2 -2.5t-1 -2.5q-1 -1 -4 -11l-5 -10 q-17 -37 -32 -61q-3 -4 -7 -12.5t-7 -12.5q-2 -4 -8 -12q-6 -14 -10 -20q-1 -2 -4.5 -7t-5.5 -8q-3 -3 -8 -13.5t-6 -13.5q-12 -22 -21 -38q-6 -12 -10 -19q-1 -2 -4 -5q-2 -2 -4 -7t-2 -6l-2 -1q-1 0 -1 -1l-1 -1q0 -2 -1 -2q-8 -14 -11 -17q-5 -9 -14.5 -24.5t-12.5 -19.5 q-1 -3 -4 -8t-4 -7t-3.5 -6t-4.5 -7t-4 -5q-4 -6 -12.5 -19t-12.5 -19q-3 -4 -8.5 -10.5t-10 -12t-8.5 -10.5q-5 -7 -15 -23q-2 -6 -9.5 -8t-12.5 2q-1 4 0 7.5t4.5 8t4.5 6.5l18 24q15 17 18 22l4 6q12 20 28 42q5 8 13.5 22.5t10.5 17.5q13 24 24 40q5 6 13 19.5t12 20.5 q14 28 21 43q3 7 11.5 20t11.5 20q7 8 24 40q1 1 4.5 9.5t7.5 12.5q1 4 5 10q10 15 24 49q3 7 11 23.5t12 25.5q7 15 19 45q16 31 21 40q3 7 7 11q5 9 15 32q9 27 20 42q1 2 3.5 8.5t4.5 8.5t4 9.5t3 9.5q0 1 4 3q1 0 2 2l1 2q2 2 3 2z" glyph-name="slash" horiz-adv-x="474" unicode="/"/><glyph d="M475 74l-9 -9l-17 -17q-7 -9 -15 -15q-4 -3 -11.5 -6.5t-9.5 -4.5q-3 -2 -19 -10q-10 -4 -29.5 -7t-22.5 -4q-24 -7 -28 -7q-11 0 -29 -2q-29 -3 -61 2q-6 2 -27 8.5t-31 11.5q-20 9 -24 14q-1 2 -4 5.5t-5 5.5q-3 7 -9 12q-5 3 -12 12t-9 11q-4 12 -14.5 33t-14.5 31 q-2 8 -4 9q-1 7 -5 24q-6 16 -5 24q0 1 -3 11q0 1 -2 4.5t-2 5.5q-1 2 -1.5 7t-0.5 6q0 3 -2 5q-1 3 -1.5 11t-0.5 12q0 11 -1 17q0 24 -2 30q3 13 1 31q0 1 -0.5 3l-0.5 2q0 2 1 5t1 5v12q0 40 2 58q3 21 6 45v24q1 5 8 25q0 2 0.5 5t1.5 5t5.5 14t6.5 18q1 2 1 5 q1 3 3.5 7.5t5.5 10t4 8.5q5 12 7 15q1 1 8 13q2 4 5.5 7.5t8.5 7.5t7 6q12 16 19 22q17 14 32 20q1 1 17 9q14 8 16 9q3 2 9 3t8 2q3 1 8 3t8 3q4 1 16 5t19 5q2 1 7.5 1h8.5q2 0 7 1t8 1q2 0 6.5 -1t6.5 -1q33 -5 38 -7q7 -1 21 -7q2 -1 7 -2.5t7 -2.5q1 0 4.5 -1.5 t5.5 -2.5l9 -6l1 -2q4 -2 14 -8q3 -3 9 -10q1 -1 5 -3.5t6 -4.5q1 -1 4 -4.5t5 -5.5q2 -1 4 -5t4 -5q8 -9 13 -23q1 -1 3 -10q1 -3 4.5 -11.5t5.5 -13.5q1 -3 2.5 -9.5t2.5 -9.5l2 -4q1 -6 3 -15q14 -42 18 -77q1 -8 2 -25t2 -26q0 -5 1 -13t1 -13q0 -17 1 -26q0 -2 0.5 -11 t0.5 -12q0 -4 -0.5 -10.5t-0.5 -9.5q0 -2 0.5 -6.5t0.5 -6.5q0 -4 -1.5 -12.5t-1.5 -13.5q-1 -16 -5 -53q0 -1 -1 -7.5t-2 -11.5q0 -3 -2 -5l-1 -11q-1 -11 -2 -16q0 -1 -0.5 -3t-1.5 -4.5t-1 -3.5q-5 -25 -8 -32q-1 -1 -1.5 -4t-0.5 -4q-2 -4 -2 -5q-7 -19 -9 -22 q-2 -2 -4 -6t-3 -5q-3 -4 -3.5 -8.5t-2.5 -7.5zM457 83q2 2 6.5 10t5.5 9q4 4 7.5 15t5.5 14l12 45q1 9 3.5 25.5t3.5 24.5q3 14 4.5 32t2.5 40t2 33q-1 5 -1.5 16.5t-0.5 17.5q0 20 -1 31q-1 8 -2.5 24t-1.5 21q0 11 -1 17q-2 15 -11 55q-1 3 -1 8q-1 3 -3 10t-3 10t-2.5 7 t-1.5 6q-2 8 -4 13q-5 12 -11 34l-15 30q-4 5 -8.5 9.5t-10.5 10t-9 8.5q-23 21 -32 25q-12 6 -26 10q-2 0 -5.5 1t-5.5 1q-6 2 -10 2q-1 0 -4 1.5t-4 1.5q-22 3 -23 3q-23 2 -63 -11q-20 -8 -30 -11q-16 -11 -34 -18q-2 -2 -7 -5t-8 -5q-1 -3 -6.5 -6.5t-6.5 -5.5 q-12 -9 -25 -26q-2 -2 -4.5 -6t-5 -6.5l-4.5 -4.5q-5 -5 -17 -28q-23 -59 -24 -65q-3 -12 -8 -57q0 -4 -1.5 -14t-2.5 -15t-1 -15v-15q-2 -13 0 -42q2 -28 4 -41q-2 -7 -2 -15t1 -18.5t1 -16.5q1 -4 2.5 -13t1.5 -10q0 -3 2 -11t2 -14q2 -2 4 -16q1 -2 1 -4q1 -1 2 -1t2 -1 q1 -2 0 -6t0 -6q3 -3 3 -11q1 -3 3.5 -9t4.5 -9q-1 -3 0.5 -6.5t1.5 -6.5q1 -3 5 -13t8 -14q2 -2 4.5 -6t4.5 -6q1 -3 4 -7.5t4 -6.5q2 -5 8 -12.5t8 -10.5q8 -6 12 -10q9 -9 11 -10q3 -3 9.5 -6.5t8.5 -5.5q5 -2 14.5 -5t14.5 -5q6 0 17 -3.5t13 -3.5q24 -1 62 2q4 0 9 0.5 t11.5 1.5t9.5 1q2 2 5 2h8q14 2 18 3q1 0 12 5.5t17 6.5q2 2 8 4.5t8 5.5q10 5 15 7q0 2 1 2q1 1 4 3t4 4q3 2 9 10q2 2 5.5 8t6.5 9z" glyph-name="zero" horiz-adv-x="572" unicode="0"/><glyph d="M184 -2q-10 -4 -15 0q-3 3 -3.5 7.5t0.5 11.5t1 10q1 7 1.5 20.5t0.5 20.5q0 17 -1 56.5t0 61.5q0 11 -0.5 38.5t0.5 39.5t1 38t1 39q0 4 3 80q2 40 0 82q0 19 -1.5 51.5t-2 49t0.5 51.5q0 7 -2 25q-4 4 -9 5t-14.5 0.5t-10.5 -0.5h-25q-6 0 -17.5 1t-15.5 1 q-2 0 -9.5 -1t-11.5 0q-20 2 -28 2q-4 -1 -7.5 -1t-6 3t-2.5 7q1 4 4.5 5t7 0t7.5 0q26 -1 31 -1h54h42q25 0 28 -5q7 -7 6 -11q-5 -69 -3 -98q0 -4 -1 -23t0 -29q0 -17 1 -27q0 -15 2 -31q0 -1 -0.5 -1t-0.5 -1v-32q-1 -8 -1.5 -25t-0.5 -25q-1 -9 -1 -26.5v-30.5 q-1 -11 -0.5 -38.5t-0.5 -41.5t0.5 -42.5t1.5 -40.5q0 -4 0.5 -11.5t0.5 -10.5q2 -21 0 -49q0 -1 -0.5 -3.5t-0.5 -3.5t1 -3v-2q-2 -47 -2 -55q0 -4 0.5 -11t0.5 -10l-1 -2v-3q0 -10 -2 -11z" glyph-name="one" horiz-adv-x="258" unicode="1"/><glyph d="M548 8q0 -8 -11 -10q-2 -2 -9 -0.5t-8 1.5h-16q-1 0 -2.5 -0.5t-2.5 -0.5q-2 0 -9 0.5t-11 0.5q-9 -1 -24.5 0t-20.5 1h-4l-2 -1q-1 0 -3 0.5t-3 0.5h-1q-1 -1 -2 -1q-42 2 -75 2q-4 0 -11.5 -1t-10.5 -1h-70q-15 0 -45.5 1t-46.5 1q-3 0 -13 -1t-16 -1t-16 0.5t-14 0.5 q-5 0 -15 -1t-16 -1h-15t-15 -1t-12 7q1 1 0 3t-1 3q0 5 3.5 8.5t10 6.5t8.5 4q5 4 29 24q28 23 30 25q38 30 56 48q37 30 71 62q12 12 17 18q3 4 12 11q4 2 5 3q12 11 34 33q9 12 14 14q1 4 5.5 8t5.5 6q10 7 27 26q42 40 54 53q2 2 6 7t6 7q3 4 9 10q0 2 2 4q0 1 2 2t2 2 l3 6q1 1 4.5 6t4.5 8q1 1 1 4q3 7 10 18q1 2 2.5 6t2.5 6q1 1 3 5l3 6v4t1 4q8 29 10 38q0 6 2.5 18.5t2.5 20.5v1v2v3q1 4 1 7.5t-1 5.5q0 1 -0.5 2t-0.5 2v8q-3 9 -5 18q-11 26 -27 38q0 1 -1.5 3t-1.5 3q-1 0 -1 2t-2 2q-3 5 -8 8q-2 4 -9 9t-9 7q-6 8 -19 11 q-16 9 -25 11q-2 1 -5.5 1.5t-5.5 0.5q-3 1 -9.5 2.5t-8.5 1.5q-4 1 -11 2t-11 2h-23q-42 0 -62 -5q-6 -1 -18.5 -2t-18.5 -2q-23 -2 -39 -7q-3 -1 -8.5 -3t-9.5 -2q-3 0 -8 -2.5t-8 -2.5q-8 -2 -24 -11q-4 -2 -12.5 -5.5t-12.5 -5.5q-8 -4 -13 -6q-8 -4 -11 -6l-9 -9 q-1 0 -4 -3t-5 -3q-3 -2 -6.5 -6t-5.5 -5q-1 -4 -7 -5t-8 2q-1 6 -0.5 8.5t4.5 6t5 5.5l7 6q7 7 11 9q6 5 20 13t22 12q30 12 45 19q28 5 50 13q61 10 96 13q41 4 79 -4q17 -3 31 -9q4 -2 8.5 -4t10 -4.5t8.5 -3.5q8 -3 25 -12q11 -6 30 -31q2 -3 6.5 -8.5t7.5 -8.5 q3 -4 12 -17q2 -3 3.5 -9t2.5 -7t2 -6.5t3 -7.5q3 -29 0 -54q0 -9 -1 -14q0 -2 -2 -6q0 -1 -2 -12t-2 -17q-2 -2 -3.5 -9t-2.5 -10q-3 -9 -12 -26t-12 -28q-4 -3 -8.5 -11t-7.5 -11t-4 -7q-4 -3 -11.5 -12.5t-13.5 -13.5q-5 -7 -23 -25q-2 -2 -6 -7t-7 -7q-2 -1 -6 -5t-7 -5 q-1 -3 -7 -7l-2 -2q-1 -1 -2 -1q-1 -1 -1 -2q-1 -2 -1 -3q-4 -3 -11 -10q-4 -5 -14 -13l-3.5 -3.5t-3.5 -4.5q0 -2 -3 -5t-10.5 -9.5t-10.5 -9.5q0 -1 -2 -2.5t-2 -3.5q-8 -5 -14 -11q-2 -1 -6.5 -5.5t-7.5 -5.5q-2 -3 -7 -7.5t-6 -6.5q-1 -1 -4.5 -5t-7.5 -5 q-3 -4 -9.5 -10.5t-8.5 -9.5q-2 -1 -5.5 -4t-5.5 -5q-6 -6 -10 -9l-8 -8q-1 -1 -3 -2t-3 -2l-3 -3h-1q-2 0 -2 -1q-3 -2 -9.5 -8t-10.5 -9q-8 -9 -26.5 -23.5t-26.5 -22.5q-3 -2 -9 -7.5t-8 -7.5q-12 -8 -17 -13q-1 -1 -8 -6q0 -1 -2.5 -2.5t-3.5 -3.5q-5 -5 -5 -6 q8 -1 47 -1q47 1 138 -1h22q49 0 72 2h45h133q3 0 8 0.5t7 0.5q11 0 12 -4q2 0 4 -3z" glyph-name="two" horiz-adv-x="559" unicode="2"/><glyph d="M28 147q11 1 17 -8q2 -2 3 -5.5l2 -7t2 -5.5q2 -3 26 -33q16 -16 33 -30q23 -16 81 -42q54 -10 68 -12q42 -2 64 3q26 3 56 15q22 6 49 22q2 3 6.5 6.5t5.5 4.5l2 2q1 2 2 3q0 3 2 3q0 1 3 1q0 3 1 4l2 2q0 2 2 3q1 1 3.5 4t3.5 5q2 2 4 8q9 14 12 22q1 2 5.5 14t5.5 19 q4 21 0 56q-7 19 -11 34q-2 4 -6 10q-1 3 -5 9q-3 6 -11 18q-4 5 -13.5 12.5t-13.5 11.5q-15 8 -38 18q-14 0 -21 4t-6 14q2 4 9 7q2 1 6.5 1.5t6.5 1.5q0 2 4 4t5 5q8 4 11 6q2 2 9 7.5t11 7.5q0 2 6 8q2 4 8 10t8 11q1 1 14 41q8 34 8 55v4l1 4q1 4 0 11t-1 9v6q0 1 -1 6 t-1 7q-1 3 -1.5 6t-1 7t-0.5 6q-3 5 -6.5 15t-4.5 13q-1 4 -13 23q-2 5 -8.5 12t-8.5 10q-12 10 -13 11t-6.5 5t-6.5 7l-18 9q-1 0 -6.5 3.5t-8.5 4.5q-8 3 -26 7q-15 4 -51 8q-13 1 -34 1h-34q-2 0 -27 -5.5t-37 -9.5q-1 -1 -5 -2.5t-6 -2.5q-1 0 -5 -4h-3.5t-3.5 -1 q-5 -5 -9 -7t-11.5 -9.5t-12.5 -10.5q-2 -7 -12 -17q-2 -2 -3.5 -5t-2.5 -4q-2 0 -5.5 -1.5t-6.5 -0.5q-4 3 -5.5 8t3.5 7q3 4 8.5 12t8.5 12q17 17 18 19q1 0 3 1.5t4 1.5q1 1 2.5 2t2.5 2t4.5 3.5t5.5 4.5q42 13 50 14q16 3 41 7q8 1 48 1q6 1 22 -1q4 0 13 -0.5t13 -1.5 q3 0 19.5 -3t25.5 -4q3 -1 8.5 -3.5t9.5 -3.5l12 -6t12 -7q19 -12 22 -14q31 -31 39 -48l3 -6t4 -7t5 -4q0 -9 6 -19q11 -50 11 -59q0 -8 -0.5 -24.5t-1.5 -24.5q-10 -55 -20 -74q-1 -1 -13 -20q-3 -5 -16 -15l-2 -2q-1 -2 -2 -3q-7 -7 -11 -10l-5 -3q-4 -3 -5 -6 q-9 -2 -11 -7q0 -2 4 -4l4 -2q4 -1 10 -4q3 -2 10 -9q10 -4 12 -7q15 -8 38 -37q2 -3 6.5 -11t7.5 -11q6 -25 11 -32q1 -16 4 -26q0 -65 -22 -99q-12 -20 -19 -31q-2 -2 -5.5 -6.5t-5.5 -6.5q-5 -4 -11 -12q-24 -13 -65 -28q-27 -8 -75 -14q-9 1 -27.5 1h-28.5 q-11 1 -33 6.5t-33 6.5l-4 2q-4 2 -7 2q-4 2 -11.5 5t-10.5 5q-4 3 -12 5q-5 5 -10 6q-4 3 -12 5q-2 4 -3 5q-9 4 -23 15q-5 3 -12 10t-12 10q-5 6 -14 17t-14 16q-1 2 -3.5 6t-4.5 7t-4 5q-5 2 -4.5 10t5.5 11z" glyph-name="three" horiz-adv-x="542" unicode="3"/><glyph d="M448 705q-2 -17 -2 -48.5t-1 -43.5q-2 -20 -2 -30q0 -3 0.5 -8t0.5 -8t-0.5 -8.5t-0.5 -8.5l1 -1v-1v-3v-5v-4q0 -2 -0.5 -4t-0.5 -4q0 -11 1 -38.5t1 -41.5q0 -33 -2 -107q0 -2 -0.5 -4.5t-0.5 -3.5t0.5 -4t0.5 -5q-3 -12 -3 -14t0.5 -5t0.5 -5q0 -26 2 -31 q-4 -32 -1 -68q2 -21 0 -43v-2q-1 -1 -1 -2v-20q0 -7 0.5 -21.5t0.5 -21.5q0 -5 -1 -21.5t0 -25.5q0 -3 1 -6v-16v-23q-13 -6 -20 1q-2 4 0 11t1 11q-1 17 0 47.5t1 40.5q0 16 -1 49.5t-1 50.5t-0.5 51t-0.5 52q-3 2 -8.5 0.5t-8.5 -0.5q-16 5 -36 6q-2 -1 -4 -1q-2 1 -4 1 q-3 1 -9 1q-12 2 -19 2q-3 1 -9 0t-8 -1t-8 1t-9 0q-5 0 -15.5 -1t-16.5 -1h-32q-2 0 -7.5 -0.5t-8.5 -0.5q-8 0 -23 0.5t-23 0.5q-55 3 -66 2q-21 0 -31 -1q-24 -3 -28 0q-1 1 -1 16q1 20 1 61v26v30.5v25.5v40q2 24 2 37q2 86 1 132q0 2 -0.5 5.5t0 6t2.5 3.5q9 3 16 -6 v-76q0 -7 0.5 -19.5t0.5 -18.5q0 -3 -1.5 -18t0.5 -17q-3 -23 -3.5 -52t0.5 -69t1 -54q0 -33 5 -39q12 -1 38 -1h38q26 -1 79 -1q13 0 39 1t38 1q3 0 8 0.5t7 0.5q1 0 6 -0.5t8 -0.5l1 1h1h2q3 -1 5 -1h16l1 1q2 -2 16 -2q7 0 19 2q7 1 29 -1q3 21 3 43q1 13 1 38 q0 2 -0.5 3t-0.5 2q2 30 1 85t0 88q1 19 1.5 56t0.5 49q0 2 -0.5 5t0 5t2.5 3q5 2 11 -0.5t7 -6.5z" glyph-name="four" horiz-adv-x="514" unicode="4"/><glyph d="M62 92h5q5 -1 5 -5q2 -7 6 -11q2 0 4.5 -3t4.5 -4q3 -4 7 -8t10.5 -8t8.5 -6q42 -19 63 -24q22 -5 27 -6q3 -1 9 -1q40 -5 72 2q3 0 3 2h4q17 3 21 4q5 2 14 6.5t13 5.5q2 4 6 7t9 5.5t8 4.5q1 1 5.5 6t8.5 6q11 7 23 23q4 5 17 18q2 8 10 22q1 2 2 6t2 6q0 1 2 4.5 t3 5.5q4 9 7 25q4 9 5 11t1 6.5t1 6.5q7 44 8 55q3 46 -5 77q0 2 -2 5.5t-2 5.5v5q-1 3 -3.5 8l-3.5 7q-1 1 -1.5 4t-0.5 4q-1 1 -1 3.5t-1 3.5q-1 3 -4 8.5t-4 7.5q0 1 -13 20q-2 2 -4 5.5t-4 5.5q-1 1 -3.5 4t-3.5 5q-35 35 -49 42q-20 12 -33 15q-2 2 -9 3t-8 2 q-28 9 -76 11q-16 2 -25 2q-11 1 -31 -1.5t-24 -2.5h-8h-2l-1 -1h-9q-1 0 -3 0.5t-3 0.5q-3 0 -7.5 -0.5t-6.5 -0.5q-27 0 -30 -1q-6 -2 -8 -3q-8 -5 -14 -3l-3 1q-7 4 -7 16t4 20q1 11 2 32t2 32q0 10 2 32l3 33q0 4 -2.5 11.5t-0.5 11.5q0 4 9 3t11 0q10 3 43 5h20h25.5 h22.5q1 0 1 0.5t1 0.5q1 -1 2 -1q14 1 82 1h8.5h9.5h7h8h51q8 2 14 1q7 0 24.5 0.5t25.5 -0.5q12 -4 11 -16q-4 -7 -20 -5q-1 1 -2 1q-11 -1 -45 1q-8 -2 -17 -2.5t-20 0.5t-16 1q-8 0 -25.5 -0.5t-26.5 -0.5h-25q-1 0 -3.5 0.5t-3.5 0.5h-11l-2 -1h-3q-4 0 -13 0.5t-14 0.5 q-4 0 -12 -0.5t-12 -0.5h-43q-34 -2 -40 -4l-3 -54q-1 -5 -3 -13q0 -29 -1 -43q0 -4 -1 -11.5t-0.5 -14t2.5 -11.5q5 -3 23 0q13 -3 51 -1h14q2 0 6 1t6 1h25q37 0 54 -2q7 -1 23 -4t25 -4l27 -9q3 -1 7.5 -3t8.5 -3.5t8 -2.5q11 -8 22 -12q1 -1 34 -31q2 -4 7.5 -9.5 t7.5 -8.5q2 -1 4 -4.5t3 -4.5q1 -2 8.5 -12.5t9.5 -16.5l12 -21q2 -8 4.5 -16t5.5 -17.5t5 -14.5q1 -6 2 -19t2 -20q-2 -63 -11 -105q-13 -44 -33 -86q-1 0 -1 -2l-1 -1l-6.5 -6.5t-6.5 -7.5q-4 -4 -6 -7t-11 -12q-13 -13 -26 -22q-38 -27 -72 -37q-6 -1 -16.5 -1.5 t-19 -1.5t-15.5 -3q-7 1 -26.5 2t-28.5 4q-2 1 -6 1q-3 1 -5 1q-5 1 -18 5t-20 5q-3 2 -13.5 6.5t-15.5 7.5q-15 4 -28 15q-5 2 -11.5 10t-11.5 11q-1 1 -5 4.5t-5 6.5q0 16 6 16z" glyph-name="five" horiz-adv-x="508" unicode="5"/><glyph d="M69 414q2 -2 5 4q2 0 4 5q0 1 3 5t6 5q4 3 9 11t7 10q6 6 18 14q12 10 18 14q7 3 19 13q2 2 9.5 5.5t9.5 6.5q5 1 12.5 5t10.5 5q16 4 25 7q7 2 24 6.5t26 7.5q5 0 20 1t23 0q6 0 17 -2t14 -2q25 -2 31 -4q9 -2 52 -18q7 -7 18 -10q3 -3 18 -10q3 -4 18 -9q10 -8 30 -22 q17 -17 26 -25q19 -38 20 -41q2 -3 4.5 -11.5t3.5 -10.5q1 -4 4 -11t4 -11q2 -6 3.5 -17.5t2.5 -17.5l1 -1q1 -1 1 -2v-35q0 -35 -7 -63q-1 -2 -2 -6.5t-2 -6.5v-9q0 -2 -2 -6q-1 -2 -7 -17.5t-5 -24.5q-4 -8 -10 -13q-2 -10 -7 -14q-2 -6 -8.5 -15.5t-7.5 -11.5 q-2 -2 -6 -5.5t-6 -5.5q-1 -1 -5 -7t-8 -9q-6 -4 -10 -8q-5 -4 -13 -14q-5 0 -9 -2t-8.5 -6t-6.5 -5q-4 -2 -7 -3q-1 -1 -3 -2.5t-3 -1.5q-3 -2 -10 -3.5t-9 -1.5q-5 -3 -39 -16q-65 -5 -81 -5q-18 0 -26 1q-4 1 -10 3t-9 2h-6l-2 1q-1 1 -2 1q-9 3 -39 20q-1 1 -3.5 2 t-4.5 2t-3 3q-2 1 -5.5 3.5t-5.5 3.5q-1 1 -3.5 2t-5 2.5t-3.5 3.5q-39 33 -40 34q-4 2 -9 8.5t-9 9.5q-2 4 -8.5 10.5t-8.5 10.5q-5 7 -19 34q0 1 -2.5 7t-4.5 9q0 1 -5 13q-1 3 -4 14q-2 4 -5.5 14t-4.5 14q-11 49 -9 138q0 10 -3 13q0 3 2 5.5t2 4.5q7 68 11 83 q1 6 3.5 19t4.5 19q2 7 5.5 19.5t4.5 17.5q6 24 15 44q1 1 2.5 3.5t1.5 3.5q4 12 6 17q1 2 4 7t4 8l24 45q5 9 11 16q10 12 15 10q5 -1 7 -5.5t-1 -8.5q-1 -2 -5 -6.5t-5 -7.5q-11 -16 -18 -31q-3 -3 -5.5 -9.5t-3.5 -9.5q-1 -1 -2 -2.5t-2 -2.5q-2 -4 -6 -12.5t-6 -12.5 q-2 -5 -5.5 -14t-4.5 -13q-4 -11 -10 -35l-2 -3v-4q-4 -11 -5 -14q-1 -1 -1.5 -4t-0.5 -4q-1 -6 -5.5 -24t-7 -32.5t-2.5 -28.5zM560 352q-1 3 -4.5 11.5t-4.5 11.5v5q-2 6 -7.5 17l-6.5 13q-1 1 -2 3t-1.5 4.5t-1.5 3.5q-3 6 -11 15t-11 13q-25 18 -29 21q-4 2 -26 14 q-3 1 -8 3.5t-9.5 5t-8.5 4.5l-27 12q-3 1 -8 2.5t-8 2.5q-14 4 -31 7q-11 0 -16 1q-22 2 -34 2q-1 0 -19 -3q-4 -1 -10 -1q-1 0 -3 -1q-4 -2 -6 -2q-3 -1 -10 -1q-1 0 -3.5 -1.5t-4.5 -1.5l-18 -6q-16 -3 -63 -29q-4 -3 -13 -8.5t-14 -9.5q-2 -2 -6 -5t-6 -5q-9 -9 -10 -13 q-5 -2 -11 -12q-2 -2 -5 -6.5t-5 -6.5q-8 -6 -10 -13q-1 -2 -5 -6t-5 -8q-1 -2 -2.5 -7.5t-2.5 -7.5q1 -4 -3.5 -7t-4.5 -7v-35t1 -36q0 -8 1.5 -17t3 -19t2.5 -15q17 -53 26 -73q12 -28 21 -35q19 -29 55 -58q5 -2 13 -8.5t13 -8.5q4 -4 14 -9t13 -8q44 -22 66 -23 q4 0 11 0.5t10 0.5q32 1 61 6q5 2 15 4t15 4q2 0 13 6q3 1 8 2.5t7 2.5l21 12q6 5 20 13q1 3 4 5t4 3l3 4q4 3 6 5q3 3 8.5 9t7.5 8q8 11 13 20q2 3 6 10t7 10q1 5 4.5 12.5t4.5 11.5q1 3 4.5 11.5t4.5 13.5q2 4 4 13.5t3 14.5q0 2 2 6q1 9 3 15q0 1 0.5 3.5t0.5 4.5 q2 20 2 66q0 1 -1 1q-5 40 -6 43z" glyph-name="six" horiz-adv-x="630" unicode="6"/><glyph d="M579 683q-2 -4 -7 -9.5t-6 -7.5q-10 -32 -17 -47q-3 -7 -9 -21.5t-10 -20.5q-1 -3 -5 -10.5t-5 -12.5q-2 -2 -4.5 -10t-5.5 -10l-18 -42q-3 -10 -8 -21q-1 -3 -5 -13.5t-7 -15.5q-1 -1 -2 -4t-2 -4q0 -1 -2 -1q0 -1 -1 -5t-2 -6q-3 -7 -9 -21.5t-10 -21.5 q-14 -28 -20 -42q-1 -1 -5 -9t-5 -13q-2 -3 -5 -10.5t-6 -10.5q-12 -28 -37.5 -77t-34.5 -69q-3 -3 -5 -11l-10 -20q-5 -10 -6 -11q-1 -2 -2.5 -6t-3.5 -7.5t-4 -6.5q-2 -8 -5 -15.5t-7 -16t-6 -13.5q0 -5 -3 -9q-1 -1 -1.5 -4.5t-0.5 -4.5l-2 -2v-4q0 -1 -1 -2q-2 -2 -2 -3 t-0.5 -4t-1.5 -5q-2 -4 -6 -5q-5 -2 -10.5 1t-7.5 8q-1 5 3 13l5 10q3 4 15 31q2 3 7 14.5t8 17.5q4 13 20 42q3 9 10.5 23t9.5 20q8 14 22 42.5t22 42.5q4 6 10 20t9 20q3 7 9.5 21t9.5 21q8 15 45 97q11 27 13 33l5 10q1 1 2 3.5t1 3.5q5 14 11 27q7 14 15 33t15 32 q3 9 10 24t9 20q2 3 4.5 11.5t3.5 10.5q7 18 5 24q-2 3 -24 3q-31 0 -38 -2q-6 1 -38 1q-26 2 -38 2q-14 0 -38 2q-14 2 -19 2q-3 0 -9 -0.5t-10 -0.5q-79 0 -118 -1q-77 0 -92 -1q-1 0 -3 1t-4 0q-4 0 -6 -1q-6 -1 -19.5 -1.5t-19.5 -0.5q-5 0 -14.5 -1.5t-13.5 -1.5 q-21 0 -31 2q-7 17 -5 20t12 1t14 -1q10 1 32 0t34 0q7 0 21 1t21 1q3 0 11 0.5t11 0.5t9.5 -0.5t10.5 -0.5q33 1 108 1h88q28 -2 43 -2q34 -2 40 -2q3 0 8.5 1t7.5 1q3 0 9 -0.5t10 -0.5q2 0 8 0.5t9 0.5h27q4 -1 10.5 3t10.5 3q4 0 12 -5l1 -2h2q2 -2 2 -9q2 -2 2 -4z" glyph-name="seven" horiz-adv-x="583" unicode="7"/><glyph d="M143 390q1 3 -3 3q-1 1 -2 1q-2 0 -3 2t-2 2q-19 7 -53 39q-1 1 -6.5 9t-7.5 14q-3 3 -5 7l-4.5 9l-3.5 7q-11 18 -7 70q0 2 1.5 6t2.5 7v8q1 5 5.5 16t5.5 14q3 11 13 21q1 2 6.5 9t8.5 10q10 10 22 16q4 2 11 4.5t12.5 5t9.5 5.5q1 1 3 2q1 0 2 0.5t2 0.5q11 7 13 7 q21 8 31 8q5 0 16.5 4.5t18.5 4.5q8 0 21.5 1.5t17.5 1.5q5 0 17 -0.5t16 -0.5q34 0 67 -13q1 -1 13 -4t18 -7q14 -6 28 -15q17 -12 30 -29q9 -8 13 -19q1 -3 3 -6t3 -5q1 -1 2.5 -4t2.5 -4q7 -9 7 -29q0 -5 1 -13t1 -12q0 -10 -1 -15v-15q0 -4 -1 -14t-2 -14q0 -4 -3 -11 t-3 -12q0 -6 -13 -27q-3 -5 -10.5 -12t-9.5 -9q-6 -4 -8 -6q0 -1 -1 -1l-2 -1q0 -2 -1 -2q-2 -1 -6.5 -4.5t-6.5 -4.5q-2 -2 -12 -5q-1 0 -4 -2l-7 -4h1q16 -3 28 -2q16 1 53 -13q27 -22 33 -28q5 -10 14 -15q10 -10 13 -15q5 -8 4 -14q2 -2 4 -11q1 -2 4.5 -8t4.5 -11 q4 -27 5 -39q0 -5 -0.5 -15t-0.5 -15q0 -4 -2 -19t0 -20q-1 -3 -4 -23q-3 -1 -3 -9q0 -3 -2 -6t-2 -5q-1 -4 -13 -39q-3 -4 -6 -12t-5 -12q-1 -2 -4 -4t-4 -4q-3 -4 -9.5 -8.5t-7.5 -6.5q-10 -6 -14 -9q-8 -4 -14 -4q-10 -2 -14 -6q-1 -1 -4 -2t-4 -2q-6 -1 -16.5 -5.5 t-15.5 -5.5q-7 0 -11 -2q-4 0 -27 -5q-33 -1 -76 2q-1 0 -9 1t-11 2q-34 0 -43 2q-28 4 -41 6q-5 1 -18 3t-20 4q-6 2 -15 5.5t-12 4.5q-6 1 -15 7q-1 1 -2 1t-2 1l-1 1q-1 1 -7 4.5t-9 4.5q-5 7 -11 9q1 2 -1 3t-2 2q-1 0 -2 2.5t-2 2.5q-30 33 -39 67q-10 43 -9 80 q0 5 1 15.5t1 16.5q0 11 5 18q0 3 1 5.5t2.5 6t2.5 5.5q2 6 7.5 17t7.5 17q1 0 2 3t2 3q1 2 2.5 4t2.5 4q1 1 1 4q1 1 5 7q12 21 24 30q5 5 10 6q1 1 2.5 1h2.5q1 1 3.5 5t4.5 5q1 1 2 1q2 2 8.5 5t8.5 6zM515 86q10 15 15 43q4 10 4 14l3 18q0 4 2.5 16t2.5 18v6v7.5v6.5 q4 28 -6 44q0 1 -0.5 3t-1 3.5t-1.5 2.5q1 4 -3 14q-1 3 -3 10t-4 10q-1 1 -11 21q-6 10 -14 16q-3 3 -8.5 5.5t-8.5 4.5q-2 0 -7 3t-8 4q-10 5 -13 5q-1 0 -23 3q-1 0 -31 4t-49 3q-7 1 -23 1q-24 -4 -71 0q-6 1 -19 1.5t-19 1.5q-1 0 -7 1t-10 2q-1 0 -7.5 1t-9.5 0 q-16 0 -34 -8q-2 -1 -6.5 -2.5t-7.5 -3t-5 -3.5q-3 -4 -7 -6q-1 -1 -8.5 -10t-12.5 -12q0 -2 -4 -6q-1 0 -1 -1l-2 -1l-1 -2q-1 -1 -1 -2q-4 -6 -4 -7q-4 -4 -6 -4l-15 -36q-1 -4 -6 -16.5t-7 -20.5q-3 -31 0 -60q2 -5 2.5 -19t1.5 -20q15 -43 27 -59q6 -8 8 -11q3 -1 4 -4 q1 -2 4.5 -5t5.5 -6q1 0 7 -6q21 -13 22 -14q2 -1 11 -4t13 -5q5 -1 11.5 -2.5t15 -3t13.5 -2.5q16 -1 43 -7q5 0 14.5 -0.5t17 -1t14.5 -1.5q8 0 23 -2t22 -2q50 4 81 11q5 3 14 5.5t11 3.5l4 4q1 1 5 1.5t6 2.5q3 1 8 5t9 5q2 1 16 10q3 2 5.5 5.5t4.5 4.5q9 11 15 25z M459 603q-2 3 -5.5 8t-6 8.5t-5.5 6.5q-5 5 -12 12.5t-10 10.5q-5 5 -14 8q-3 1 -6 3.5t-6 3.5q-26 10 -29 11q-17 6 -32 7q-30 5 -55 5q-29 0 -44 -4q-4 -1 -11 -2.5t-8 -1.5t-4 -3q-4 -1 -12.5 -3.5t-10.5 -2.5q-10 -5 -20 -5q-1 0 -17 -10q-5 -3 -17 -6.5t-17 -7.5 q-24 -17 -34 -41q-5 -12 -5 -13q-6 -8 -9 -25l-2 -4q0 -20 -2 -31l3 -30q14 -34 28 -50l6.5 -6.5t6.5 -7.5q3 -2 8.5 -7t8.5 -7q15 -10 20 -12q15 -5 22 -7q4 -1 13 -3.5t12 -2.5q31 -7 54 -7q6 0 18 -0.5t16 -1.5q5 0 7 -1q20 -1 59 4q4 1 9.5 2t6.5 1q2 1 8 3l9 3 q5 2 47 24l9 9q1 1 5 5.5t6 6.5q2 5 6 8q3 6 13 39q0 8 2 24t2.5 24t-1.5 22q0 10 -5 26.5t-5 17.5z" glyph-name="eight" horiz-adv-x="597" unicode="8"/><glyph d="M113 7q-1 2 2 3l2 1l2 2t2 1q2 2 5.5 4t4.5 3q6 8 14 14q4 4 10 12l3 3q1 1 1 3l3 2l3 3q0 2 1 3q0 1 2 1q0 3 1 3q0 1 2 1q2 3 5 9l4 8q43 53 49 62q2 2 5 7t5 7q1 1 2.5 4t2.5 4t2.5 3.5t3 4.5t2.5 4q5 8 11 18q1 1 2.5 3.5t2.5 3.5q3 4 41 84q1 2 4 6t4.5 7t2.5 6h-4 q0 -1 -2.5 -1t-3.5 -2q-2 0 -3.5 -1t-3.5 -2.5t-3 -2.5q-4 -3 -12.5 -9t-13.5 -9q-3 0 -5 -1q-1 0 -3 -2q-10 -3 -30.5 -7t-27.5 -6q-38 0 -65 8q-9 3 -17.5 8t-18 11.5t-14.5 9.5q-20 12 -27 21q-3 4 -13 21q-2 4 -5.5 12t-5.5 12q-9 60 -8 76q0 3 2 8.5t2 8.5q0 7 2 19 q2 18 8 31q5 12 14.5 32.5t11.5 24.5q2 2 5 13q20 27 27 33q6 9 20.5 24t18.5 19q4 2 11 7t12 7q4 3 11 7t10 6q16 8 23 13q13 9 25 9q9 0 24.5 4t23.5 3q15 -2 43 -11q7 -3 18.5 -11t15.5 -11q5 -5 13 -16.5t12 -15.5l1 -1q0 -2 1 -2q4 -4 7 -10q1 -1 1 -3q2 -2 4 -6 q1 -2 3.5 -7.5t3.5 -8.5q3 -10 7 -32q7 -31 -1 -83q-4 -28 -21 -76q-12 -34 -26 -67q-6 -11 -16 -32.5t-15 -31.5q-3 -5 -8 -16t-8 -16q0 -1 -1.5 -2t-1.5 -2q-1 -1 -1 -5q-6 -10 -9 -16l-3 -8q-1 -2 -3 -4.5t-3 -3.5t-2 -4l-2 -2l-4 -8q-1 -1 -2.5 -3.5t-2.5 -3.5l-3 -6 l-1 -1q-1 -1 -1 -2l-1 -2q-1 -2 -2 -2q0 -2 -1 -3v-3l-2 -2q-2 -2 -2 -3q-1 -2 -2.5 -4t-2.5 -4q-31 -43 -43 -55q-16 -23 -22 -29q-4 -5 -11 -14.5t-11 -14.5q-5 -10 -22 -27q-6 -8 -19 -17q-1 0 -2.5 -1t-3.5 -2l-2 -1q-4 0 -9.5 3t-8.5 4zM389 495q1 9 1 26q2 33 1 49 q-1 4 -2.5 16.5t-4.5 18.5q-4 9 -5 11q-1 3 -4 13q-1 3 -3.5 6t-6 6.5l-5.5 5.5v2t-1 2l-2 2q-1 2 -5.5 6.5t-6.5 7.5q-5 3 -12.5 8.5t-11.5 7.5q-13 7 -31 12q-18 0 -27 -1q-5 -1 -12.5 -3.5t-11.5 -2.5q-4 -2 -13 -8t-15 -9q-4 -3 -14.5 -8t-14.5 -8q-20 -13 -35 -30 q-2 -2 -5.5 -6t-5.5 -6q-2 -1 -5 -5t-5 -5q0 -1 -1 -1l-2 -1q0 -2 -2 -4q-18 -25 -22 -34q-20 -37 -27 -60q-2 -6 -9 -44q-4 -32 -3 -48q0 -1 1.5 -9t2.5 -13q5 -22 6 -23q2 -4 6 -13t5 -13q13 -14 28 -25q11 -8 13 -8q6 -3 9 -5q5 -3 15 -8q2 -1 7 -2t7 -2t18 -5 q40 -3 90 16q24 16 29 20q3 2 8.5 6.5t9 7t8 6.5t7.5 8t5 9l2 1q3 3 7 9q2 2 5.5 8.5t5.5 8.5q5 5 7 10q10 30 14 46q1 9 6.5 27t6.5 27z" glyph-name="nine" horiz-adv-x="452" unicode="9"/><glyph d="M71 329q-10 -7 -18 3q-3 54 -2 101q0 11 3 12q9 1 16 -2q2 -3 2 -25q1 -13 1 -46q2 -34 -2 -43zM79 27q0 -21 -2 -24q-10 -5 -17 -2q-3 2 -3 17q-3 80 -2 99q0 5 11 5q2 0 4.5 -1.5t3.5 -1.5q0 -1 3 -30q0 -10 2 -30v-10.5v-12v-9.5z" glyph-name="colon" horiz-adv-x="130" unicode=":"/><glyph d="M115 80q0 -8 -2 -14.5t-5.5 -13.5t-4.5 -11q-2 -3 -4 -12.5t-5 -13.5q1 -3 0 -8t-1 -7q-5 -8 -10.5 -27.5t-8.5 -26.5q-5 -17 -6 -18q-13 -4 -17 2l3 19q1 2 2.5 8t3.5 8q0 5 1.5 9.5t3 10t2.5 8.5q2 19 6 27l12 54q1 1 4 5t5 5q3 0 6 1t5 1q6 0 10 -6zM82 375q0 45 1 54 q0 14 3 16q14 4 21 -7q-3 -49 -3 -55q0 -5 0.5 -13.5t0.5 -12.5v-16q0 -3 1 -8.5t0.5 -9.5t-2.5 -8q-13 -5 -20 4q-1 3 -1 8.5v9.5t-0.5 20t-0.5 18z" glyph-name="semicolon" horiz-adv-x="165" unicode=";"/><glyph d="M419 519q8 -7 10 -18l-85 -28q-4 -1 -12.5 -3.5t-10.5 -2.5q-1 -1 -3.5 -1t-3.5 -1l-2 -2h-4q-14 -4 -44 -15t-45 -15l-4 -1q-13 -4 -38 -13t-34 -12q-7 -3 -53 -19t-53 -18q14 -3 66.5 -21t68.5 -21q27 -11 85.5 -25t82.5 -23q6 -2 20.5 -5.5t21.5 -5.5q8 -2 26.5 -3.5 t30 -4t11.5 -6.5q0 -21 -4 -21h-2q-8 3 -51.5 12.5t-51.5 12.5q-5 0 -10 3q-8 2 -18 5q-4 1 -11 2.5t-10 2.5q-8 2 -33 8t-38 10q-36 10 -54 16q-4 1 -48.5 13.5t-61.5 19.5q-4 1 -10.5 3t-10.5 3q-21 5 -23 11q-1 6 0 11q1 3 0 8t-1 7q6 4 48 16.5t47 15.5q8 3 22 8.5 t21 7.5q9 3 26 10t26 10q22 6 33 10q64 23 86 28q18 7 98 31z" glyph-name="less" horiz-adv-x="494" unicode="&lt;"/><glyph d="M50 346q24 1 112 -1q9 0 28 0.5t28 0.5q10 0 28 -0.5t27 -0.5q8 2 13 2q6 0 19.5 -0.5t20.5 -0.5h56q38 -2 78 3h3q18 0 19 -12q0 -12 -11 -12q-1 -1 -9 2q-20 0 -70 -1.5t-77 -0.5q-32 1 -99 1q-9 0 -31 -2l-66 3q-10 0 -32.5 0.5t-33.5 0.5q-1 1 -3.5 4t-3 5t0.5 7 q0 2 3 2zM416 405q-15 -2 -25 0t-27 2q-9 0 -28 -0.5t-28 -0.5q-10 0 -24.5 -1.5t-23.5 -1.5q-2 -1 -10 0.5t-10 1.5q-6 0 -19.5 0.5t-20.5 0.5q-9 0 -19 0.5t-20 0.5q-8 0 -30.5 0.5t-37.5 1.5q-2 0 -8.5 -0.5l-13 -1t-13 -0.5t-10.5 2t-4 6q0 12 11 12q1 1 13 1t25.5 -0.5 t26.5 -1.5h12q21 0 30.5 -0.5t20.5 -1t30 -0.5q18 -1 50 0.5t47 1.5q9 0 31 2l66 -3q6 0 28 -1t38 0q3 0 6 -5t0 -11q0 -3 -63 -3z" glyph-name="equal" horiz-adv-x="526" unicode="="/><glyph d="M75 221q-8 7 -10 18l85 28q4 1 12.5 3.5t10.5 2.5q1 1 3.5 1t3.5 1l2 2h4q14 4 44 15t45 15l4 1q13 4 38 13t34 12q7 3 52.5 19t53.5 18q-14 3 -66.5 21t-68.5 21q-27 11 -85.5 25t-82.5 23q-6 2 -20.5 5.5t-21.5 5.5q-8 2 -26.5 3.5t-30 4t-11.5 6.5q0 21 4 21h2 q8 -3 51.5 -13t51.5 -12q5 0 10 -3q7 -2 18 -5q4 -1 11 -2.5t10 -2.5q8 -2 33 -8t38 -10q36 -10 54 -16q4 -1 48.5 -13.5t61.5 -19.5q4 0 10.5 -2.5t10.5 -3.5q21 -5 23 -11q1 -6 0 -11q-1 -3 0 -8t1 -7q-6 -4 -48 -16.5t-47 -15.5q-7 -2 -21.5 -8t-21.5 -8q-9 -3 -26 -10 t-26 -10q-22 -6 -33 -10q-64 -23 -86 -28q-18 -7 -98 -31z" glyph-name="greater" horiz-adv-x="494" unicode=">"/><glyph d="M406 575q5 -36 -6 -66q-4 -7 -5 -13q-1 -1 -2 -6.5t-3 -7.5q-4 -14 -8 -17q-4 -11 -18 -31q-18 -23 -23 -27l-1 -1h-2q-1 0 -3 -2l-3 -3q-6 -4 -8 -6q-1 0 -26 -19l-7 -3.5t-7 -4.5l-3 -3l-8 -8q-34 -24 -61 -55q-3 -6 -10.5 -19t-11.5 -24.5t-5 -24.5q-4 -14 -7 -79 q0 -10 -3 -13q-8 -3 -19 1q-1 3 -1 17q0 3 0.5 9.5t0.5 9.5v26q0 5 2 14.5t2 13.5q1 3 3.5 17t4.5 20q4 12 23 39q3 4 8.5 9.5l7.5 7.5q2 1 4.5 4.5t3.5 4.5q5 5 7 8q10 6 26 19.5t23 18.5q16 12 25 19q3 2 11.5 8t13.5 9q7 7 21 23q7 9 8 13q3 5 11 19q2 4 6 14.5t6 14.5 q8 21 10 34q10 41 -8 69q0 5 -4 13q-12 24 -29 36q0 1 -1 1h-1q-14 13 -54 27q-52 11 -94 6q-4 -1 -13 -2.5t-12 -1.5q-4 -1 -12 -2.5t-12 -2.5q-6 -2 -29 -11q-3 0 -7 -2q-2 -1 -4.5 -2.5t-4.5 -1.5q-25 -18 -33 -27q-2 -1 -15 -14q-1 -1 -6 -7.5t-10 -7.5q-1 2 -5.5 3 t-5.5 4q-1 4 1 7t5.5 6.5t4.5 5.5q12 10 17 16q3 2 8.5 7t8.5 7q3 4 9.5 8t8.5 7q3 1 9.5 4t11.5 4q1 1 5.5 1.5t5.5 2.5q9 4 25 7q20 6 53 10q2 0 10.5 0.5t12.5 0.5q2 0 4 -0.5t3 -0.5q2 0 5 0.5t4 0.5q5 0 17 -1.5t17 -2.5q26 -4 59 -19q6 -3 16.5 -10.5t14.5 -10.5l9 -9 q1 -3 4 -4q3 -3 7 -9q2 -2 8 -10q3 -6 4 -7q1 -2 4 -7t4 -8q5 -15 7 -33zM158 78q3 5 11.5 5t12.5 -5q-4 -34 -3 -55q0 -17 -4 -20q-14 0 -18 4q-1 7 0 37t1 34z" glyph-name="question" horiz-adv-x="452" unicode="?"/><glyph d="M474 239q-3 -3 -3.5 -7.5t-1.5 -6.5l-3 -3h-1q-1 0 -1 -1l-2 -6q-2 -2 -4 -8q-2 -1 -8 -7t-10 -9q-7 -3 -12 -4l-10 -5q-5 -4 -14.5 -5.5t-12.5 -2.5q-12 -5 -28 -5q-3 0 -9.5 1t-11.5 1.5t-9 0.5l-1 1q-1 -1 -4.5 0.5t-7.5 3.5t-6 2l-2 1h-3q-2 2 -3 2l-8 3q-2 1 -5 3 t-5.5 3.5t-4.5 2.5q-4 2 -9 6t-7 5q-6 9 -12 13q-22 26 -26 44q-3 10 -5 29q0 21 3 39q1 5 4 14.5t3 11.5l5 25q1 3 3 9.5t4 9.5l7 14q5 10 20 22q2 3 5.5 5.5t4.5 4.5q3 1 5 5.5t5 6.5l6.5 6.5l6.5 6.5q4 4 12.5 7.5t9.5 4.5q2 1 7 4.5t8 4.5q1 0 1 1l2 1l2 2q6 0 9 1 q42 10 61 8q39 -2 68 -9q2 0 15 -8q4 0 6 -2t4 -5t3 -4q0 -3 -3 -32q1 -1 0.5 -4t-0.5 -4q1 -2 3 -9q-3 -19 -7 -63q-2 -19 -1 -26q0 -3 -2.5 -5.5t-1.5 -5.5q-2 -3 -0.5 -7.5t1.5 -6.5q-5 -24 -4 -34q0 -5 2 -16.5t1 -16.5l2 -4q1 -4 2 -5q0 -2 3 -5t2 -5q6 -8 6 -9 q7 -5 8 -8q5 -3 13 -10t10 -8q4 -1 11.5 -4t11.5 -5q23 0 35 -3q2 0 6 1t7 0q28 9 66 39q3 4 9 11t9 11q2 2 5.5 7t6.5 8q0 1 2 5q0 1 1 1l2 2q1 1 2 4t3 5q0 1 5 8q6 10 9 27q7 26 10 63q2 39 -1 56q-15 45 -19 52l-3 6t-3 7q0 2 -2.5 6t-3.5 7q-5 5 -15 22q-6 9 -22 27 q-7 10 -12 12q-6 6 -14 10q-1 4 -5 10q-5 5 -10 8q-6 5 -20 14t-20 13q-2 1 -19 11.5t-25 16.5q-17 11 -29 15q-4 2 -14 6q-22 7 -52 12q0 1 -7 1q-6 2 -35 7l-2 -1q-1 -1 -3 -1q-16 5 -35 2q-22 0 -49 -5q-1 -1 -3 -1q-2 -1 -5.5 -1t-5.5 -1q-4 -1 -11.5 -3.5l-10.5 -3.5 q-4 -4 -20 -7q-6 -6 -21.5 -12.5t-17.5 -7.5q-3 -2 -6 -5t-5.5 -6t-4.5 -5q-16 -9 -35 -30q-2 -2 -6 -6.5t-6 -6.5q-5 -5 -7 -10q-2 -2 -2 -4l-4 -4q-3 -4 -16 -25q-1 -1 -6 -9t-7 -13q-10 -22 -10 -23q-1 -3 -5.5 -9.5t-5.5 -11.5q-2 -7 -7 -18q0 -3 -3 -10.5t-4 -9.5 t-1 -5q-2 -8 -7.5 -23t-7.5 -22q-2 -8 -4.5 -24.5t-3.5 -23.5q-9 -42 -9 -85q2 -5 4.5 -19t5.5 -21q1 -8 6 -20.5t6 -15.5q7 -6 9 -16q5 -2 5 -8q2 -2 3.5 -4t3.5 -5.5t3 -5.5q11 -17 14 -23q3 -2 7 -5.5t5 -4.5q1 -2 5.5 -5t5.5 -6q13 -10 21 -19q4 -2 11 -6.5t12 -6.5 q10 -13 37.5 -29t34.5 -22q9 -3 22.5 -10.5t18.5 -9.5q7 -2 22.5 -9t23.5 -9q1 0 9.5 -1t12.5 -2q3 -1 9.5 -2.5t9.5 -1.5q3 -1 8.5 0t7.5 1h9q3 1 12 1.5t13 0.5q2 0 14 1t18 2h4.5t3.5 1q3 0 5.5 0.5t5 1.5t4.5 1t5.5 1t5.5 1q22 5 53 14q3 0 7 2q6 0 8 1q3 1 12 5t14 6 q10 4 26 12q6 2 16 8q1 2 5 4t6 4l3.5 3.5t4.5 3.5q12 5 18 3q9 -2 12 -8q1 -10 -9 -16q-1 -3 -7 -5.5t-7 -3.5q-3 -4 -16 -8q-2 -1 -6 -4.5t-6 -4.5q-6 -1 -15 -6.5t-13 -6.5q-22 -6 -26 -8q-6 -1 -18 -6.5t-17 -4.5q-4 1 -11 -0.5t-10 -1.5q-2 -1 -28 -7q-3 -1 -12.5 -3 t-14.5 -3q-30 -4 -88 -2l-27 6q-30 5 -35 7q-1 0 -2 1t-2 1q-2 1 -7 2t-7 2l-2 2q-3 2 -9.5 4.5t-9.5 3.5q-4 2 -10 6q-15 7 -32 17q-19 11 -24 14q-2 1 -5.5 4t-6.5 4q-2 1 -5 2t-4.5 2t-1.5 3q-3 1 -6 3t-5 2l-10 5q-1 2 -5 3t-5 4q-2 0 -11 12l-6 6q0 2 -1 2 q-12 8 -18 15q-8 8 -13 10q-7 10 -10 11q-2 5 -8 12t-7 8q-4 8 -8 11q-6 10 -15 23q-4 14 -21 45q-6 14 -10 53q0 2 -1 9.5t0 11.5q0 3 2 11q-2 6 -2 9q0 7 2.5 20.5t2.5 18.5q17 77 20 87q6 24 17 46q8 20 12 29l5.5 11t5.5 10q0 3 1 5l2 2q1 2 4 6.5t4 6.5q2 10 6 13 q4 10 14.5 24t14.5 22q7 6 28 32q13 14 35 30q2 1 7 2t8 2l1 1q1 2 2 3q5 0 7 1q1 0 3.5 1t3.5 2q2 1 7.5 4t9.5 5l5 4q5 5 8 6q5 3 14.5 4.5t12.5 3.5q7 0 42 8q47 7 93 0q54 -8 61 -10q8 -2 24 -9q1 0 6 -1.5t8 -1.5q24 -12 27 -13q7 -3 17 -11q2 -1 4 -3t4 -3q1 0 5 -2 t5 -2l17 -14q7 -8 18 -12q26 -14 37 -23q5 -4 15 -21q8 -5 14 -11.5t13 -15.5t11 -14q2 -4 6.5 -11t5.5 -9q1 -1 2 -4t3 -4q3 -3 3 -6q1 -2 4 -7t5 -7q10 -26 14 -31l4 -12t4 -15q1 -4 2 -14t3 -15v-33q2 -12 -2.5 -29.5t-5.5 -22.5q-3 -22 -13 -48q-1 -3 -4 -7.5t-4 -6.5 q-3 -4 -14 -19q-1 -3 -2 -3l-2 -3q-2 -3 -3 -4l-2 -1q-4 -4 -10 -13.5t-11 -14.5q-19 -17 -38 -26q-14 -9 -35 -15q-16 -4 -26 -3q-4 1 -44 8q-24 6 -33 14q-2 1 -5.5 5t-5.5 5l-6 4t-5 4q-3 2 -5 4.5t-4 5.5t-3 5q-11 14 -13 15q0 7 -5 10zM424 487q-3 -1 -9 -1h-9 q-4 -1 -12 -2.5t-10 -1.5q-5 -1 -14.5 -3.5t-14.5 -4.5q-9 -6 -24 -15q-5 -4 -14 -11.5t-16 -14t-12 -13.5q-25 -29 -27 -50q-1 -6 -4.5 -17.5t-4.5 -17.5q-1 -3 -1 -9t-1 -9q0 -1 -2 -11q0 -8 2 -18q2 -20 4 -25q0 -2 1 -3q0 -1 1 -2.5l2 -3t2 -3.5q0 -1 2 -5q6 -13 13 -22 q4 -2 11 -7t12 -8q1 -1 11 -6q3 -2 7 -3.5t5 -2.5q26 -5 42 -6q10 4 24 6q16 4 22 7q3 1 5 3t4 4.5t4 3.5q3 2 5 4.5t4.5 5l4.5 4.5q5 5 14 23q1 2 6 14t7 18q3 10 5 34q1 4 2.5 12t1.5 13q2 12 2 14q0 4 0.5 9.5t1.5 12t1 10.5q0 5 0.5 10.5t1.5 12.5t1 11q0 5 -1 13t-1 12 q0 19 -3 28q-8 2 -26 5t-26 6z" glyph-name="at" horiz-adv-x="817" unicode="@"/><glyph d="M1149 6q-3 -3 -2 -5.5t0 -2.5q-2 0 -4.5 -0.5t-3.5 -0.5t-2.5 -1t-2.5 -1q0 3 -3 5q-7 3 -8 6q-1 2 -3.5 5t-3.5 5q-2 2 -5 5.5t-5 5.5q-14 16 -31 39q-4 4 -11 13t-11 13l-2 4l-2 1q-1 0 -1 1q-2 2 -2 4l-2 1q-3 5 -11 13q-2 3 -6.5 10.5t-7.5 10.5l-2 1v2l-2 1 q-1 2 -3 4.5t-5 5.5t-4 5l-9 12q-2 3 -7.5 10t-8.5 11q-2 1 -4 5l-3 6l-2 2q-2 1 -3 2q-2 4 -3 5q-6 5 -9 10q-1 1 -3.5 5t-4.5 6q-7 9 -23 29t-25 32q-1 1 -6.5 8.5t-10.5 9.5q-3 1 -7 -1t-5 -2q-2 0 -14.5 1t-18.5 0q-4 -1 -22 2q-9 1 -47 -2h-34q-1 0 -2.5 0.5t-2.5 0.5 t-5 -1t-7 0q-2 2 -4 2q-2 1 -6.5 0t-5.5 -1q-2 0 -6 0.5t-6 0.5t-5 -0.5t-4 -0.5q-3 0 -11 1t-13 0q-5 0 -14 -1t-17 -1t-15 2q-7 -3 -18 -3q-7 -1 -19 1q-14 3 -48 1q-24 0 -40 -4q-5 -1 -13 0t-11 1t-9 -0.5t-8 -0.5t-6.5 1t-7.5 1q-11 1 -50 -1l-24 -3t-24 -2q0 -1 -23 0 h-22q-2 0 -8 0.5t-8 0.5q-3 0 -4.5 -1.5t-4 -5.5t-3.5 -5q-8 -6 -14 -15q-10 -13 -11 -14q-2 -3 -5.5 -8t-5.5 -7q-2 -5 -8.5 -12t-8.5 -11q-19 -23 -25 -34q-1 -2 -5 -8l-6 -9q-4 -7 -27 -28q-5 -5 -12 -16.5t-10 -15.5q-7 -9 -25 -27.5t-26 -30.5q-1 -2 -6.5 -8.5 t-7.5 -10.5q-1 -2 -3.5 -3t-3.5 -2q-1 -2 -4.5 -5t-4.5 -5q-2 -2 -6 -8q-5 -7 -5 -8q-1 -1 -2.5 -3.5t-3 -4t-4.5 -1.5q-12 -4 -16 6q-2 3 3 7q1 2 2 3q6 9 7 9q3 4 9 10t8 9q4 5 11.5 15.5t11.5 15.5q6 8 32 36q15 15 18 20q10 12 15 19q14 16 31 39q4 8 29 40q2 3 7 8t6 7 t4 5t4 5q2 2 2 3q1 1 4 5.5t4 6.5l9 9q2 4 4.5 7.5t5.5 7.5t5 6q3 3 7 9q18 21 31 40q7 10 22 30.5t23 30.5q1 1 3 4t3 4t2 4t2 4q1 2 4.5 8t5.5 8q14 22 21 32q1 2 13 23q8 14 13 21q3 5 13 19.5t16 22.5q14 18 26 35q3 3 8 8.5t7 8.5l6 9q4 6 6 8q4 4 10 12t8 11 q10 14 26 33q1 2 4 5q2 6 3 7l3 3t2 3l1 1q1 1 1 2l4 5q4 5 7 7q1 0 2 1t3 0q8 1 16 -7q2 -1 13 -10q3 -2 8.5 -9t8.5 -9q0 -1 1 -1h2q3 -2 8 -7t8 -7l5 -5l12 -12q12 -10 17 -17q15 -19 45 -51t41 -44q10 -13 11 -14q2 -2 5.5 -6t4.5 -6q4 -5 12 -13t10 -11q35 -43 42 -50 q11 -15 39.5 -49t41.5 -52q1 -1 6 -2t6 -3q4 -9 3 -15q4 -3 9.5 -9.5t7.5 -8.5q1 -2 6.5 -9t7.5 -12q4 -5 13 -15.5t14 -16.5q1 -1 5 -7q3 -3 4 -5q1 -1 4.5 -6.5t5.5 -7.5q5 -5 7 -9q0 -1 3 -4t4 -5q4 -3 11 -15l2 -1q2 -1 3 -2q1 0 2 -5l6 -6q1 -1 2.5 -4t2.5 -4 q7 -8 16 -21q2 -2 7 -8.5t8 -11.5q2 -2 31 -37q6 -7 17 -20t15 -17l15 -18q2 -3 7.5 -7.5t7 -6.5t-0.5 -7zM527 664q-1 -1 -6 -8t-9 -9q-1 -1 -13 -18q-6 -8 -9 -11q-5 -8 -7 -9q-3 -2 -6 -9.5t-7 -9.5q-2 -2 -4 -5t-4 -5q-2 -1 -7 -9q-3 -4 -8.5 -10t-7.5 -8l-6 -9 q-4 -6 -16 -23t-18 -27q-4 -5 -12.5 -19t-13.5 -21q-2 -2 -5.5 -9.5t-6.5 -10.5l-6 -12l-3 -3q-4 -6 -5 -8q-1 -1 -2.5 -4.5t-2.5 -4.5l-6 -6l-1 -2l-1 -2q-6 -8 -8 -10q-1 -2 -3.5 -4t-2.5 -3v-2.5t-1 -2.5l-3 -3q-1 -1 -1 -4l-2 -2t-2 -1q-5 -8 -10 -13q-5 -4 -11 -14 q-1 -2 -5 -6.5t-3 -9.5q9 1 28 1t29 1q6 0 17 2t14 2q6 0 19.5 -0.5t20.5 0.5q3 0 9 0.5t9 0.5t9 -1t9 -1q4 0 9.5 0.5t8.5 0.5h25q8 0 26 2q8 1 26 1q4 0 12.5 1.5t13.5 1.5q3 0 9.5 -1.5t9.5 -1.5q21 -1 70 0.5t72 -0.5q22 -1 69 -1q39 0 68 5q0 6 -8 14q-1 2 -5 4.5 t-6 5.5q-1 2 -3.5 6t-4.5 6q-3 4 -10 11q-1 2 -3.5 4t-4.5 4t-2 4q0 1 -5 6q0 2 -1 3t-4 3q-1 1 -1 2t-1 1q0 2 -2 2q-1 1 -3.5 4t-3.5 5q-1 1 -2 2.5t-3 3t-3 2.5q-63 77 -76 92q-83 102 -143 152q-4 6 -12 9q-10 10 -14 10q-3 -3 -8.5 -10.5t-8.5 -11.5z" glyph-name="A" unicode="A"/><glyph d="M433 393q-1 0 2 -1q5 -1 6 -2q8 -2 10 -2q7 -2 19 -4q1 -1 7 -5l2 -2q3 -2 12 -5q3 -2 9 -8l3.5 -3.5t4.5 -3.5q1 -1 5 -3t5 -3l3.5 -3.5t4.5 -3.5q1 -1 4 -5.5t6 -5.5l6 -9q12 -17 13 -19q9 -9 16 -23q1 -1 2 -3.5t1 -3.5l2 -2v-1l4 -8t5 -9l6 -9q4 -6 6 -13t4 -15 l3 -12q4 -24 3 -37q-1 -6 -10 -40q-5 -16 -7 -20q-9 -23 -12 -26q-1 -2 -13 -16q-2 0 -2 -1q-2 -4 -5 -7q-1 -1 -3 -2.5t-5 -3.5t-4 -3t-6 -4l-1 -2l-1 -2h-3q-1 0 -1 -2t-1 -2q-3 0 -4 -1q-1 0 -1 -1l-1 -2q-2 0 -3 -1q-2 -1 -6 -4t-6 -4q-3 -2 -11 -4q-2 -1 -11 -4 q-2 -1 -8 -1q-10 -5 -17 -5q-9 0 -26 -3t-21 -4q-7 0 -23.5 -1.5t-24.5 -2.5h-5q-14 -1 -45 -1q-18 0 -50 2q-8 1 -25 1t-25 1h-13t-13 1q-13 1 -39 0t-35 -1q-41 0 -49 3q0 1 -1.5 3t-1.5 3q-1 2 -0.5 12t0.5 13q-2 24 0 100v15q0 4 0.5 10t0.5 12l-1 3q0 6 1 8t1 9 q1 19 1 61t2 69q1 9 0 25t-1 24q0 7 2 19.5t2 18.5q0 1 1.5 17t1.5 24q1 15 1.5 38.5t0.5 31.5q0 5 -1 15.5t-1 17.5q0 1 1 2t1 2h-1q-1 0 -1 1q0 6 1 22t2 23q0 1 -1 3t0 3v9q-1 1 0 2t1 2q-3 61 -3 62q2 4 6 6q3 3 8 2q3 0 8.5 1.5t8.5 1.5h4.5h4h3.5h4q7 -1 20.5 -1h18.5 t18.5 0.5t20.5 -0.5q1 0 64 3q22 2 34 2q7 1 23.5 0t21.5 -1q17 0 41 -6q28 -8 37 -11q7 -2 23 -13l8 -4q9 -3 27 -19q13 -12 24 -24q15 -17 21 -27q15 -25 15 -37q0 -3 1.5 -10t1.5 -11q1 -9 -1 -29q0 -3 -8 -23q-3 -11 -4 -14q0 -1 -1.5 -3t-2.5 -3q-1 -2 -2.5 -5.5 t-2.5 -5.5q-2 0 -2 -1q-3 -6 -5 -8l-10 -10q-6 -8 -9 -11q-20 -12 -31 -17q-5 -3 -16.5 -8t-17.5 -7zM148 22q7 0 21.5 1t22.5 0q29 -2 93 -4q49 -2 137 6l27 3q2 0 5 1.5t5 1.5h6q1 0 2 1t2 1q3 1 7 2.5t6 2.5t6 1q8 4 13 6q16 9 34 24q3 3 23 30q3 4 7 12.5t5 10.5 q0 2 1.5 5.5t1.5 4.5q10 26 13 43q-1 27 -6 40q-4 10 -6 16q-12 28 -30 58q-4 4 -11 12.5t-10 12.5q-1 1 -9 10.5t-14 13.5q-4 2 -10.5 6t-10.5 6t-11 4.5t-9 3.5q-29 14 -51 12q-5 -1 -11.5 2t-9.5 3t-10 -0.5t-11 -0.5q-2 0 -6.5 1.5t-8.5 0.5q-11 -2 -32.5 -4.5 t-27.5 -3.5q-24 -4 -34 -5q-1 0 -7.5 -0.5t-7.5 -0.5q-42 -2 -120 -2q-7 0 -11 -1h-14q0 -11 -1.5 -31t-1.5 -30v-18q0 -4 -0.5 -12t-0.5 -10t0.5 -4t0.5 -3q0 -11 -2 -47v-5q0 -1 -0.5 -9t-0.5 -10t-0.5 -5t-0.5 -3.5v-2.5v-5v-6v-5q0 -9 -0.5 -18.5t-0.5 -17.5 q0 -1 0.5 -2.5t0.5 -2.5q0 -4 -0.5 -10t-0.5 -9q0 -5 1 -13t1 -13q-2 -28 -1 -42q0 -4 9.5 -4.5t25.5 0.5t23 1zM167 383q37 -2 74 0q6 0 20 2l21 3q28 4 41 5q28 4 40 7l21 3q11 1 25 6q4 1 10 3.5t8 3.5q4 2 12 4q9 4 11 5q10 4 30 19q14 11 19 20q2 2 5 7t4 6 q2 3 3.5 8.5t2.5 8.5l3.5 7t3.5 8q2 7 3 14v1l-1 2l1 2v2q0 5 -1 14t-1 15q-1 2 -5 13.5t-7 15.5l-6 6t-6 7t-7.5 8.5t-6.5 7.5l-2 3q-1 2 -2 3q-3 4 -11 10t-10 8q-10 6 -20 10l-19 11q-4 1 -16 5t-18 5t-18.5 2t-17.5 2q-4 0 -11.5 1t-11.5 1q-7 0 -24.5 0.5t-25.5 -0.5 q-4 0 -12.5 -2t-12.5 -2q-6 0 -17.5 -0.5t-17.5 -0.5h-33l-8 -1q-9 0 -9 1q-27 0 -56 3l-1 -1q-2 -1 -3 0q-2 -2 -4 -1q-1 0 -1.5 -2t0 -4t-0.5 -4q1 -13 1 -71q0 -7 -0.5 -23t-0.5 -24q0 -3 1 -9.5t1 -9.5q2 -31 -1 -79q0 -5 -1.5 -15.5t-1.5 -15.5t-0.5 -16t-0.5 -17h34 t35 -1z" glyph-name="B" horiz-adv-x="641" unicode="B"/><glyph d="M622 110q0 -4 -1 -7q-2 -8 -6 -11q-2 -1 -4 -4t-3 -4q-10 -8 -18 -18q-3 -3 -10 -6.5l-9 -4.5l-2 -2q-4 -3 -12 -8.5t-12 -8.5q-41 -21 -53 -27q-34 -13 -50 -17q-55 -9 -116 6q-11 2 -35 6q-22 6 -38 10q-2 0 -5.5 2t-5.5 2q-2 1 -6.5 2t-6.5 2l-10 5q-3 1 -10 4.5 l-11 5.5q-3 1 -6.5 4t-5.5 4q-12 5 -21 13q-2 -1 -3 1.5t-3 2.5q-1 2 -5 5t-6 4l-12 9q-2 3 -8.5 8.5t-9.5 10.5q-1 1 -1 3l-1 1q-2 0 -3 2q0 1 -8 9q-4 3 -9 12t-7 12q-1 3 -3 7.5t-4 6.5q-13 18 -20 37q0 2 -2 6.5t-3 7.5t-2 8.5t-1 7.5t-2 6.5t-2 6.5q-2 10 -2 16 q-8 48 0 127q2 33 7 52q1 5 3.5 13t3.5 10q1 3 2 7t2.5 8t2.5 6l2.5 7.5t2.5 6.5t8 14q8 23 11 29q8 16 37 54q3 4 12.5 16.5t16.5 20.5t15 14q5 3 11 7.5t8 5.5q5 5 9 7q0 1 1 1t2 1t3 2t3 2q1 0 5.5 4t7.5 6q1 0 2.5 0.5t2.5 1.5l2 2q2 1 6 3.5t6 3.5l2 1q2 1 3 2 q13 7 28 11q11 3 20 4q39 10 50 11q101 7 191 -32q20 -8 34 -19q7 -5 3 -12q-8 -13 -17 -3q-2 1 -7 4t-7 5q-14 9 -16 10q-3 1 -9 3.5t-9 3.5q-19 7 -39 12q-56 12 -59 12h-35q-5 -1 -15.5 -1h-15.5q-10 -2 -14 -3h-8q-11 -3 -14 -4q-14 -2 -24 -6q-9 -2 -11 -3 q-12 -4 -23 -10q-4 -2 -10 -6q-1 -1 -4 -2.5t-4 -2.5q-14 -10 -20 -16q-10 -6 -15 -10t-13 -12q-1 0 -2 -2t-3 -3q-5 -2 -8 -8q-4 -6 -12.5 -14t-11.5 -13q-4 -6 -5 -7q-17 -21 -34 -52q-3 -6 -7.5 -18t-6.5 -17q-5 -14 -7 -19q-2 -7 -9 -27t-9 -31q-9 -68 -5 -135 q1 -5 3 -17q0 -3 1 -9t1 -9q3 -18 11 -31q10 -26 24 -56q5 -6 13 -18q1 -2 3.5 -4t3.5 -4l6 -9q8 -6 13 -10q2 -2 8.5 -9t9.5 -10q5 -3 13.5 -9t11.5 -8q30 -19 52 -28q27 -10 63 -18q47 -12 88 -13h9h17q37 6 41 7q1 1 3 2.5t3 1.5t3.5 1t3.5 1l12 6l10 2l12 6q9 3 17 7 q1 1 6 3q2 1 9 6t10 7q2 1 7 5t8 5q7 5 14 11q2 2 3.5 5l2.5 5q8 6 10 11q13 27 28 13q3 -3 3 -4z" glyph-name="C" horiz-adv-x="655" unicode="C"/><glyph d="M259 700q2 0 50.5 -1t58.5 -3q22 -3 57 -12q70 -18 127 -60q12 -8 22 -16q3 -2 9 -9.5t10 -10.5q2 -1 5 -4.5t6 -4.5q1 -1 4 -4.5t5 -5.5q2 -3 8.5 -10t9.5 -12q2 -4 7 -11.5t7 -13.5q10 -21 12 -25t5.5 -13.5t5.5 -14.5q14 -46 16 -61q1 -8 3.5 -21t3.5 -20q5 -48 1 -85 q-1 -28 -11 -67q-1 -3 -3.5 -15t-4.5 -18q-2 -3 -5 -10t-5 -11q-6 -17 -33 -55q-6 -6 -18 -22q-7 -6 -21 -20t-22 -20q-30 -21 -32 -22l-1 -1l-2 -1q-1 0 -1 -1l-8 -4q0 -2 -1 -2t-5 -2q-16 -5 -17 -6q-10 0 -18 -3q-9 0 -22.5 -1t-23.5 -1q-8 0 -22 -2t-21 -2h-44 q-2 0 -5 0.5t-6 0.5q-4 0 -12 -2q-12 2 -41 2.5t-40 2.5q-25 0 -37 -1q-41 -4 -70 -1h-15q-13 0 -16 1q-16 -2 -22 -2l-8 4q-1 0 -5 0.5t-5 1.5q-2 14 -2 24q0 14 3 20q1 2 -1 9t-1 10q2 7 2 21v35.5t1 35.5q0 11 -0.5 33t0.5 34v7q1 10 1.5 28t0.5 28v17q0 48 1 73 q1 24 0.5 73.5t0.5 74.5q3 33 1 74q0 7 1 24t0.5 30.5t-2.5 24.5q-3 10 1 18q1 1 15 1h14q7 1 57 1q16 1 48.5 0.5t48.5 0.5zM266 681q-13 -1 -39 -1h-29.5t-29.5 -1q-4 0 -10.5 1t-9.5 1q-3 -1 -16 0t-16 0q-4 -1 -10.5 -1t-10.5 -1v-63q0 -3 -0.5 -9t-0.5 -8q0 -5 1 -19 t0 -22q-2 -28 -2 -39q0 -12 2 -39t1 -42q0 -7 -0.5 -21.5t-1 -26t-1.5 -19.5q0 -1 1 -5t0 -6q0 -2 -1 -8t-1 -10q0 -1 0.5 -2t0.5 -3l-1 -1v-69q0 -9 -1 -25t-1 -23q0 -1 0.5 -4.5t0.5 -5.5q-1 -6 -1 -18.5v-18.5q0 -3 1 -9t1 -9q-1 -19 0 -51.5t1 -42.5v-22q0 -9 10 -17 q0 -3 9 -2t12 1q1 0 2.5 -0.5t2.5 -0.5q4 -1 59 -1q6 0 19.5 1t19.5 1q67 -4 88 -3q3 0 7 1t6 1q4 0 11 -0.5t9 -0.5q13 -1 41 1q9 1 29 1t30 1l9 3q2 -2 4 -2q3 0 11.5 1.5t12.5 2.5q2 1 10.5 2.5t11.5 3.5q14 4 21 8q11 6 30 23l13 13q5 4 14 14q4 5 12.5 13.5t12.5 13.5 q17 18 24 29q9 12 18 36q2 5 6 19.5t7 21.5q1 7 3.5 17.5t2.5 14.5q1 2 4 37v9.5v9.5v7q1 0 1 1q-1 1 -1 2q0 33 -13 94q0 4 -4 18q-2 14 -4 19q-1 3 -3.5 11.5t-4.5 11.5q0 2 -1.5 4t-1.5 3q-1 2 -1.5 4t-0.5 3q-1 2 -3 6.5t-3 6.5q-1 3 -4 8t-4 8l-15 21q-1 2 -2 4.5 t-2 3.5q-28 34 -49 50q-4 3 -11.5 8t-11.5 8q-17 13 -36 21.5t-48.5 18t-45.5 16.5q-24 8 -44 8q-5 0 -46.5 2.5t-49.5 1.5z" glyph-name="D" horiz-adv-x="738" unicode="D"/><glyph d="M622 691q0 -12 -7 -16q-5 -2 -24 0q-5 1 -14.5 0.5t-13.5 -0.5q-43 3 -54 2q-4 0 -12.5 -1t-12.5 -1t-12 0.5t-13 0.5h-24t-23 1q-21 2 -63 2t-60 1q-17 1 -49.5 0t-46.5 -1h-5h-5h-7.5h-6.5q-16 2 -24 2h-24.5t-24.5 1q-3 -4 -3 -19q-1 -11 -2 -28.5t-1 -28.5 q0 -4 2 -12q0 -2 -1 -6t-1 -5q2 -8 2 -12q0 -8 -2 -32q0 -7 -2 -21q0 -8 2.5 -24.5t2.5 -25.5q0 -2 -0.5 -4t-0.5 -3q1 -10 0.5 -28t-0.5 -27q0 -16 3 -32q6 -3 32 -2t31 1q22 -2 31 -2q25 -2 78 -2t83 -1q41 0 62 -1q32 -1 93.5 0.5t90.5 0.5q8 -4 10 -8q5 -7 4 -12 q-5 -6 -11 -8q-1 0 -3 -0.5t-3 -0.5h-6.5h-7h-5.5q-4 1 -11.5 2t-10.5 1q-4 0 -11 -1t-10 -1t-5.5 0.5t-5 1.5t-4.5 1h-43q-4 0 -9.5 -1t-8.5 -1q-4 0 -12 1.5t-10 1.5t-10.5 -1t-12.5 0q-15 0 -43 2q-29 2 -81 1.5t-83 0.5q-6 0 -20 2q-15 2 -89 -1q0 -10 0.5 -50.5 t-1.5 -52.5q-2 -25 0.5 -75.5t2.5 -67.5q0 -27 -1 -41q-2 -28 2 -38q12 -1 32 1q50 5 130 1h47q32 0 48 -1q30 -3 31 -3q5 0 16 0.5t17 0.5q5 0 15 -1t15 -1h83q23 -2 46 1q1 0 3.5 0.5t4.5 0.5h21q6 0 12 -6q6 -8 4 -14q-2 -8 -23 -8q-3 1 -12 1.5t-13 0.5q-8 1 -70 1h-70 q-1 0 -27.5 1t-39.5 2h-70h-28q-18 2 -26 2h-1l-2 -1q-11 2 -50 2h-55q-5 0 -16 -1.5t-17 -2t-17 0.5q-4 0 -10 4q-2 1 -7 11q-2 5 1 16.5t3 12.5q1 7 1.5 21.5t0.5 18.5q0 12 1 18q0 2 -1 8t0 9q0 6 -1 18.5t-1 18.5v39q0 4 -1 17.5t0 20.5q1 34 1 109q0 3 -1 17.5t0 16.5 q1 3 0 16.5t-1 16.5v3l1 2q0 2 -0.5 3.5t-0.5 2.5q0 7 2 21q0 4 -0.5 12t-0.5 12q0 10 -1 42.5t0 50.5v86v27t2 33q10 1 27 -0.5t23 -1.5q5 0 14 0.5t13 0.5q5 0 13.5 -0.5t12.5 -0.5q10 -1 28 0.5t25 1.5q15 0 51 -2h27h27q9 -1 25 -0.5t24 0.5q9 0 26.5 1t26.5 0 q16 -2 24 -2q5 0 13 0.5t13 0.5q9 0 31 -1t34 -1q2 0 5 0.5t4 0.5h14q2 0 4 -0.5t3 -0.5q4 0 11.5 0.5t11.5 1t8.5 -1t6.5 -5.5q3 -1 4 -4z" glyph-name="E" horiz-adv-x="667" unicode="E"/><glyph d="M621 696q5 -8 -11 -13q-11 -2 -16 -1q-4 2 -27 0t-29 -2q-31 0 -44 -2q-10 0 -16 -1q-8 2 -13 2q-1 0 -3 -1q-16 1 -56 1q-4 0 -15 2t-15 2q-19 1 -54 -1t-48 -2q-19 0 -87 1.5t-90 -1.5q-2 -3 -2 -9v-7q-1 -16 -1 -96v-4q1 -2 1 -3q0 -3 -1 -8t-1 -8q0 -5 0.5 -16.5 t0.5 -17.5q-1 -11 -1 -35q0 -2 -1 -8t0 -9v-25.5t-1 -24.5q-1 -2 0 -4.5t1 -3.5q0 -25 2 -28q4 -4 27 -1h30q5 0 14 1.5t14 1.5h30q9 1 27.5 1h28.5q9 0 27 -0.5t27 -0.5q5 0 14.5 1.5t12.5 1.5q13 1 40 -1t40 0q21 3 40 3t47 -1.5t41 -1.5q17 2 23 1q4 0 10 -6q4 -4 4 -8 q-2 -8 -6 -8q-6 -7 -25 -3l-7 2q-17 -1 -30 0q-18 0 -26 1q-26 2 -72 -2q-6 0 -20.5 1.5t-21.5 0.5q-8 -1 -56 -1q-4 -1 -11 -1q-38 1 -113 -1.5t-109 -2.5q-2 -2 -2 -20q-2 -18 -2 -85q2 -45 -1 -82q-2 -47 1 -85q0 -1 -0.5 -2.5t-0.5 -2.5q0 -3 2 -15q3 -26 3 -28 q5 -20 -3 -28q-6 -5 -16 -1q-7 5 -5 28q0 4 -1.5 23t-0.5 29q-2 28 -2 41l3 36q0 1 -1 2v2q-1 7 0 21.5t1 18.5l-1 22q0 22 1 22q0 41 2 129v85q1 14 1 42v43q1 18 1 106q3 22 -1 28l-2 1q-2 2 -1 4q-3 9 -1 13q5 8 27 2q39 2 161 0q4 0 12 0.5t12 0.5q2 0 4 -0.5t3 -0.5 q33 3 67 3q16 0 49 1t50 0q25 -3 31 -2q44 0 66 2q35 3 63 2q2 0 8 -9z" glyph-name="F" horiz-adv-x="656" unicode="F"/><glyph d="M549 668q-2 -5 -13 0t-12 5q-3 1 -8.5 5t-7.5 5q-1 1 -3 1t-3 1q-3 1 -14 5.5t-16 6.5q-7 3 -38 7q-4 1 -9.5 2t-7.5 1q-3 0 -10 0.5t-11 0.5q-25 1 -47 -4q-4 -1 -11.5 -3t-10.5 -2q-1 0 -12.5 -3.5t-18.5 -6.5q-3 0 -5 -2q-3 -2 -11 -5t-11 -4q-25 -9 -37 -17 q-48 -36 -60 -49q-3 -3 -8.5 -10t-7.5 -10q-4 -6 -6 -8q-2 -4 -4 -6q-4 -2 -8 -11q0 -1 -2 -3q0 -2 -1 -2l-2 -4q-1 -1 -4 -9q-10 -16 -32 -71q-2 -5 -4.5 -18t-4.5 -18q-1 -3 -3 -14.5t-4 -18.5q-1 -6 -3 -17.5t-3 -17.5q0 -3 -4 -31.5t-5 -44.5q0 -8 2 -12l-2 -5 q1 -21 7 -57q4 -26 7 -35q1 -6 4 -17.5t4 -16.5q2 -4 12 -28q9 -16 16 -26q15 -15 22 -23q23 -18 36 -24q7 -3 21 -10q1 0 3 -1t3 -1q2 -1 26 -9q8 -4 28.5 -8.5t23.5 -5.5t13 -3q35 -5 44 -5q3 0 9 0.5t10 0.5q3 0 9 -0.5t9 -0.5q8 0 30 2q52 2 66 6q5 2 21 8q9 4 19 12 q7 3 12 8q1 0 3 1t4 3.5t4 3.5q1 1 4.5 2.5t4.5 2.5q3 3 6 6.5t6.5 8t5.5 6.5q2 3 5 10t5 10q3 3 3 4t1 1l1 2q7 10 9 12q0 5 2 9.5t4.5 9t3.5 7.5t9 26q10 38 14 65q0 1 2.5 17.5t2.5 27.5q0 1 0.5 7.5t-0.5 6.5q0 1 2 11q1 9 1 29q0 8 -1 10q-3 3 -12 3q-5 1 -15 1h-9.5 h-11.5h-8t-7 1t-7 2h-77q-2 0 -9.5 -1t-12.5 0q-8 0 -26 2h-24q-25 0 -48 -4q-32 0 -84 -2q-2 0 -6 0.5t-5 0.5q-4 0 -10.5 -1t-11 -1t-7.5 3q-2 14 -2 17q1 3 16 5q7 1 18 1q2 0 7 -1.5t7 -1.5q4 -1 13 0t12 1h24q2 0 6.5 1t7.5 1q1 0 4 -0.5t4 -0.5t3.5 0.5t3.5 0.5 q73 3 89 1h27t28 -1q48 0 58 2q2 0 16 -1.5t20 -2.5q12 -2 21 -3q1 0 4 -0.5t4 -0.5q15 2 19 1q14 -2 15 -12q1 -4 -2 -8.5t-3 -7.5t-1.5 -13.5t-1.5 -17.5q0 -2 0.5 -6t0.5 -5q0 -3 -1.5 -6.5t-1.5 -4.5v-17q0 -1 -1.5 -7.5t-1.5 -9.5q0 -2 -1 -9t-1 -10q0 -9 -5 -26 t-5 -24q0 -2 -2 -7t-2 -8q0 -4 -12 -28q-1 -2 -1.5 -8t-0.5 -7q-3 -1 -3 -8q0 -2 -1.5 -4.5t-3.5 -4t-5 -4t-4 -3.5q-3 -9 -3 -10q0 -2 -3 -4.5t-4 -4.5q-1 -4 -12 -19q-5 -7 -11 -10q-2 -1 -4.5 -5t-5.5 -6q-2 -1 -5.5 -2t-5.5 -2q-1 -1 -1 -2t-1 -2q-2 -2 -10 -8 q-3 0 -5 -2l-6 -6q-3 -1 -24 -11l-3 -1q-24 -6 -54 -9q-2 0 -7 -1t-7 -1t-15.5 -0.5t-21.5 -0.5q-14 0 -22 -1q0 -1 -1 -1q-34 0 -48 2q-24 2 -38 6q-9 3 -36 7q-6 1 -16.5 4.5t-15.5 4.5q-6 2 -59 27q-40 22 -50 36l-7.5 12.5t-5.5 9.5q-2 4 -8 14q-3 5 -16 42 q-2 7 -6.5 22.5t-6.5 23.5q-8 46 -8 51v37q0 27 1 40q0 2 1.5 6t1.5 7q5 43 6 50q1 6 4 17t4 16l6 24t5 22q1 3 1 7q0 1 2 2.5t2 2.5t0.5 4t1.5 4q0 2 2.5 10.5t3.5 12.5q11 29 18 40q2 2 6 9t7 10q8 8 13 17q18 26 25 33q5 5 16.5 14.5t16.5 14.5q1 0 5.5 4t7.5 6t7 4.5 t9 5.5t8 5q13 9 55 28q7 2 24.5 6t24.5 7l18 3q26 2 31 3q6 1 33 -2q11 0 14 -1q10 -2 14 -2q1 0 7 -1t9 -2q3 0 7 -2q14 -3 30 -9q6 -1 23 -11q2 -1 9 -5t12 -7l2 -2q1 -2 2 -3q5 0 6 -2q0 -2 1 -3q4 -4 2 -7z" glyph-name="G" horiz-adv-x="702" unicode="G"/><glyph d="M512 697q0 -3 -1.5 -9.5t-1.5 -9.5t1 -9t1 -10q0 -3 -0.5 -9.5t-0.5 -9.5q0 -25 -1 -38q-3 -46 -1 -106v-9.5v-11.5v-10t1 -15t1 -15q2 -47 -3 -137t-4 -136q0 -10 1 -40.5t0 -44.5v-7q0 -29 3 -41q0 -1 1 -3q2 -4 2 -6q0 -8 -5 -20q-15 -7 -26 2q-2 4 -2 9.5t1 12.5t1 9 q0 6 -0.5 17.5t-0.5 16.5q0 3 0.5 9t0.5 9q0 13 -1 42t-1 44q0 107 5 180h-19q-14 2 -23 2q-20 0 -58 -2q-4 0 -14 0.5t-15 0.5t-14 -0.5t-14 -0.5h-58q-19 0 -29 1h-25q-18 2 -27 2q-11 0 -32.5 0.5t-31.5 0.5q-1 0 -3.5 -0.5t-3.5 -0.5h-12q-2 -2 -2 -17q0 -87 -2 -167 q-1 -34 0 -69q0 -1 -1 -3v-22q0 -2 0.5 -5t0.5 -4q0 -4 -1 -16.5t0 -19.5q0 -3 2 -10.5t1 -11.5q-2 -5 -14 -9q-10 -3 -15 2q-5 9 -5 13t3 13.5t3 13.5v82q0 2 3 80v38.5t1 38.5l-1 2v3q2 14 2 74q0 16 1 49t1 48v21q0 16 0.5 58.5t-0.5 58.5q0 7 -0.5 19t-0.5 18q2 26 1 39 q0 2 -3 14.5t2 13.5q14 5 20 -9q1 -7 1.5 -20.5t0.5 -20.5v-39q0 -6 1 -17t1 -16q1 -60 -1 -196q1 -5 33.5 -3.5t36.5 1.5t11.5 -1t11.5 -1q3 0 7 1t7 1q1 0 4 -0.5t4 -0.5q6 0 19.5 -1.5t16.5 -1.5h59q61 0 93 1q3 0 7 0.5t7 0.5q23 0 27 1q12 3 14 3q4 1 11.5 1h11.5 q2 10 2 44v35q0 30 -1 44q0 7 -0.5 22t-0.5 22q1 24 1 38q0 1 1 2.5t0 2.5v35v17v20v17q1 4 -3 10t0 10q3 7 14 5.5t14 -6.5q2 -2 2 -3z" glyph-name="H" horiz-adv-x="578" unicode="H"/><glyph d="M100 4q-2 -9 -22 -3q-2 0 -2 2t1 4.5t1 3.5q2 12 0 26q-2 3 -1 32.5t1 34.5q0 13 1 39.5t1 39.5q2 27 2 81q1 28 -2 62q-2 19 -3 40.5t-2 40.5q-1 6 0 39.5t1 39.5t0.5 18t0.5 18q0 3 -0.5 8t-0.5 6v3l1 2q0 21 -4 27q-3 5 -4 8q-1 4 1 15q2 28 2 35q1 3 -1 6t-2 5 q1 2 0 15t-1 15q0 3 -1 10.5t-0.5 13.5t3.5 10l8 3q5 3 10 0.5t5 -5.5q2 -27 2 -83q0 -2 -0.5 -12.5t0.5 -13.5q4 -48 4 -84q0 -7 -1.5 -24t-0.5 -26q0 -31 1 -47v-27q0 -2 1 -5t0 -6v-15.5t1 -15.5q0 -4 1.5 -12.5t2.5 -12.5q2 -19 2 -27q0 -48 -2 -78q0 -13 -1 -23 q-1 -5 -1 -15v-17q-2 -32 -2 -56q0 -1 -0.5 -4t-0.5 -4q1 -7 0 -17t-1 -17q0 -1 3 -25q1 -10 -1 -28z" glyph-name="I" horiz-adv-x="173" unicode="I"/><glyph d="M3 195q5 2 7 1.5t6.5 -2t6.5 -1.5q3 -7 6 -21t4 -18q1 -2 2.5 -6t1.5 -5q1 -3 2 -8t1 -6t1.5 -2.5t1.5 -2.5q1 0 1 -1t1 -2q0 -1 1 -4l2 -6t2 -5q0 -1 1 -2q2 -2 2 -3q5 -11 28 -34q5 -3 14.5 -9t13.5 -9q50 -19 52 -20q77 -24 170 -17q6 0 15.5 2.5t11.5 2.5q6 1 14 2.5 t12 2.5q16 2 29 4q16 3 36 19q23 21 28 27q2 2 5 6.5t4 6.5t4.5 6t4.5 5q10 14 21 50q6 25 7 29q3 13 7 69l1 4l-1 4q0 3 0.5 10.5t0.5 10.5q0 1 -0.5 5t-0.5 5v20q0 1 0.5 4t0.5 5q0 4 -1 10t-1 10q0 7 1 21t1 21q0 6 -0.5 17t-0.5 16q0 2 0.5 5.5t0.5 4.5q0 3 -1 10t-1 11 q-1 11 -1 33.5v33.5v21.5t-1 21.5q-1 11 -3 37l1 4q-1 7 -1 21v20q-1 7 -2 19.5t-2 19.5q-2 23 4 27q7 3 14 1.5t10 -7.5q2 -4 2 -29q1 -2 0 -5t-1 -4v-33q1 -2 0 -4.5t-1 -3.5q0 -17 1 -27q0 -1 3 -34q0 -12 -0.5 -35.5t0.5 -36.5q0 -1 0.5 -3.5t0.5 -4.5q0 -1 -0.5 -3.5 t-0.5 -4.5q0 -4 2 -16v-35t1 -35q5 -56 -1 -151q-1 -7 -2.5 -21t-1.5 -20l-6 -39q-5 -14 -8 -25q-2 -5 -5.5 -13t-5.5 -12q-7 -16 -15 -26q-2 -2 -4.5 -6t-4 -7t-4.5 -6.5t-6 -5.5t-7 -5.5t-5 -4.5t-5 -3q-3 -1 -10.5 -7.5t-12.5 -8.5q-7 -4 -14 -5q-1 -1 -5.5 -2.5 t-5.5 -2.5q-3 -1 -9 -1.5t-9 -0.5q-7 -2 -23 -4t-23 -4q-3 -3 -37.5 -2.5t-39.5 0.5q-1 0 -1 -0.5t-1 -0.5t-1 0.5t-1 0.5q-22 0 -25 1q-47 1 -97 15q-24 8 -40 16l-12 6l-13 6.5l-11 5.5q-2 1 -5.5 4t-4.5 3t-3 2.5t-4 3.5q-2 0 -3 1l-5 5q-11 9 -17 19q-1 1 -2 3t-2 3 q-9 13 -9 14q-3 7 -7 21q-6 17 -17 64q-5 5 -1 9z" glyph-name="J" horiz-adv-x="623" unicode="J"/><glyph d="M181 407q-7 -2 -13.5 -10.5t-9.5 -10.5q-7 -5 -17.5 -17.5t-13.5 -15.5q-9 -9 -10 -11q-1 -1 -1.5 -3.5t-1.5 -3.5q-2 0 -6 -5t-6 -6q-1 -1 -3 -1.5t-3 -2.5q1 -17 -2 -161v-41v-39t1 -38q3 -15 5 -35q0 -5 -6 -7t-13.5 0t-9.5 6q-1 5 -0.5 7.5t2 8t1.5 8.5q1 9 0 25 t-1 22q0 2 0.5 8t0.5 8q0 12 -1 37t-1 36q-1 1 0 2.5t1 2.5q0 2 -0.5 8t-0.5 9v45.5t-1 46.5q-1 15 0 44.5t1 43.5v47q1 9 0 24.5t-1 19.5q2 26 0 56q0 1 -0.5 3t-0.5 3v3l1 2q0 17 -1 25q0 51 -2 77q0 7 0.5 25t-0.5 25q-2 18 -2 27q5 4 13.5 3t11.5 -6q1 -8 1 -78v-21 q0 -14 2 -50v-2l-1 -1q0 -1 0.5 -4.5t0.5 -6.5v-77q0 -4 0.5 -12.5t0.5 -13.5v-51q0 -19 2 -24q3 0 5 2t4 4.5t3 3.5l15 15q2 2 7 8t8 9l31 31q4 5 14.5 15.5t15.5 16.5l20 20q5 4 14 13q1 1 3.5 3t4.5 4t6 6.5t7.5 8t7.5 6.5q15 11 53 49q6 6 19.5 18.5t20.5 19.5 q2 3 6 7.5t6 6.5q1 1 9 8t13 11q4 4 10.5 11t9.5 10q2 2 9.5 8.5t11.5 11.5q18 21 22 23q11 7 18 -8q1 -3 -1 -12q-1 -1 -3 -4t-3 -4q-2 -1 -4 -3t-5 -4q-16 -11 -27 -25q-2 -2 -7 -6.5t-8 -7.5l-10 -10q-1 0 -2 -1t-2 -1l-6 -6l-16 -16q-1 -2 -4.5 -6t-5.5 -5 q-18 -18 -27 -26q-10 -10 -30.5 -29t-31.5 -28q-1 -1 -4 -3l-1 -2q0 -2 -1 -2q-1 -1 -3.5 -3t-3.5 -4q-3 -2 -7 -6t-14 -12q-1 -1 -3 -4q-1 -1 -4.5 -4t-5.5 -5q-2 -1 -4.5 -4.5t-3.5 -5.5q-1 -1 -2 -2.5t-3 -3t-3 -2.5t-2 -3l-1 -2q-1 -1 -3 -1q-1 -1 -1 -2t-1 -2t-2 -1 t-2 -1l-3 -3l-1 -2q2 -5 9.5 -13t8.5 -10q2 -2 5 -7t4 -6l5.5 -5.5t4.5 -5.5q16 -20 26 -30q10 -11 25 -30q3 -3 9 -9.5t9 -10.5q2 -1 5 -5t4 -6q4 -5 11 -14t11 -14q3 -3 9 -11q1 -1 3 -3.5t3 -4.5q1 -1 1 -2q1 -2 1 -3q1 0 1 -1l2 -1q0 -1 3 -4q1 -2 5 -8l5 -5q1 -1 1 -2 v-1q0 -1 2 -2.5t3 -2.5t1 -2q1 -2 1 -3l2 -2q3 -3 7 -9q3 -4 11 -15.5t13 -16.5q1 -1 2 -3q1 -3 2 -3q3 -7 9 -13q3 -6 18 -23q1 -1 1.5 -2.5t1.5 -3t1 -2.5q1 -1 3 -2.5t3 -2.5q7 -10 9 -11q3 -5 10 -13t9 -11q10 -16 18 -24q17 -14 19 -17q4 -4 6 -7q6 -9 7 -11 q-1 -8 -11 -14q-9 -1 -15.5 2t-8.5 5.5t-6.5 11.5t-5.5 10q-5 8 -19 24q-15 18 -127 170q-4 4 -10 12.5t-9 11.5q-24 32 -57 70q-36 39 -40 44l-9 12l-9 12q-18 20 -21 22z" glyph-name="K" horiz-adv-x="551" unicode="K"/><glyph d="M491 -3q-6 1 -19 1h-20q-2 0 -8.5 -1.5t-10.5 -0.5h-9.5t-9.5 1q-12 2 -18 2q-34 2 -106 -2t-108 -1q-10 0 -41.5 1.5t-47.5 0.5h-14q-3 1 -9 5q-7 9 -2 19q0 2 -0.5 8t0.5 9q0 4 -1 21t0 25q0 6 0.5 18t0.5 18q0 51 1 77q1 14 2 40.5t1 39.5v40t1 41q1 0 1 41l-1 40 q0 11 1.5 38.5t0.5 42.5q0 3 -0.5 9.5t-0.5 9.5q-1 20 -1 67.5t-1 71.5q0 4 -1 7q-5 12 -2 17q5 6 20 0q3 -3 6 -24q3 -75 3 -82v-55q3 -45 2 -54q-3 -73 -2 -96v-28q-2 -70 -3 -106q-1 -9 -1 -27v-28q-1 -14 -1 -39.5v-41.5q-1 -10 0 -20q0 -1 -1 -2.5t-1 -2.5q3 -51 3 -55 q2 -7 4 -23q33 -3 121 -3q6 -1 93 2q5 0 15 1t16 1q7 0 22.5 1t23.5 1q4 0 12 -0.5t12 -0.5q3 0 10 -1t11 -1q5 0 14 0.5t13 0.5h10q3 0 10.5 1.5t11.5 0.5q13 -3 17 -12q2 -6 -3.5 -10t-15.5 -3z" glyph-name="L" horiz-adv-x="512" unicode="L"/><glyph d="M904 -2q-3 9 -3 17q0 1 1 4.5t1 5.5q1 7 1 51q0 1 -0.5 4t-0.5 4q0 2 0.5 5t0.5 4v9v51q2 53 2 176q0 113 -6 325q-3 1 -5 -1t-4.5 -6.5t-3.5 -5.5l-3 -3l-2 -1q-10 -20 -41 -76q-2 -7 -10 -20q-2 -2 -4.5 -7.5t-3.5 -6.5q-6 -8 -8 -13q-1 -4 -6 -9q-7 -17 -9 -20 q-4 -6 -11 -18.5t-11 -19.5q-8 -20 -19 -36q-2 -5 -8 -13t-7 -10q-4 -6 -7 -9q-1 -2 -2.5 -7t-2.5 -7q-3 -2 -6.5 -9l-4.5 -9q-1 -5 -6 -11q-1 -2 -4.5 -7.5t-5.5 -9.5q-3 -3 -6 -9.5t-5 -8.5q-3 -8 -12 -19q-3 -3 -13 -25q-1 -1 -1.5 -2.5t-1.5 -3t-1 -2.5q-1 -3 -5 -8 t-6 -8l-1 -2q-1 -1 -1 -2t-1 -1l-2 -1q-3 -8 -4 -9l-1 -1l-1 -1l-1 -2q-1 -2 -3.5 -5.5t-3.5 -6.5q-1 -2 -3.5 -6.5t-4.5 -8t-4 -6.5q-13 -24 -15 -27q-5 -7 -13.5 -18t-11.5 -15q-4 -6 -10.5 -19t-11.5 -19q-15 -17 -26 -32q-1 -1 -2.5 -7t-4.5 -8q-1 -1 -2 -3t-1.5 -4.5 t-1.5 -3.5q-7 -20 -11 -22q-11 -4 -16 -2q-8 3 -10 7q-8 12 -13 23q-1 6 -8 14q-4 6 -7 10l-3 6l-4 4t-4 5q-3 6 -5 8q-1 2 -6 9t-7 11q-1 0 -1 1v2q-2 4 -4 10q-1 2 -4 5.5t-5 5.5q-3 3 -4 5t-3 5q-4 4 -5 6t-4.5 7t-4.5 7q-16 28 -24 41q-18 28 -26 41l-15 24q-4 8 -6 13 q-9 12 -13 18q0 1 -1 2.5l-2 3t-1 2.5q-1 1 -2.5 4l-2.5 5l-5 7l-2.5 5t-2.5 4q-2 5 -5 5q0 1 -0.5 3.5t-1.5 3.5l-3 3q-1 1 -3 8l-3 3q-1 6 -6 12q-2 4 -9.5 14.5t-10.5 16.5q-12 22 -19 32q-6 12 -20 33t-18 29q-2 3 -14.5 27.5t-21.5 36.5l-12 21q-8 11 -12 22 q-1 3 -5 10t-5 12q-3 4 -9.5 15t-10.5 17q-1 1 -1.5 3.5t-1.5 4.5t-3 2q1 -7 2.5 -21t1.5 -19q2 -22 0 -108q0 -3 -0.5 -9.5t-0.5 -8.5v-53q0 -1 -0.5 -3t-0.5 -3q1 -19 -1 -58q-5 -96 -3 -120q0 -3 1 -7.5t1 -6.5v-46q0 -6 0.5 -27.5t1.5 -32.5q2 -8 2 -13q1 -16 1 -44 q0 -3 -0.5 -7.5t-0.5 -6.5q0 -7 1.5 -21.5t1.5 -22.5q0 -18 -4 -20q-7 -6 -21 2l-4 19v36q2 26 1 38q0 6 -1.5 18t-1.5 18v37q0 16 -0.5 34.5t-1.5 41t-1 36.5q0 5 0.5 16.5t0.5 17.5q1 9 1.5 28t0.5 28q2 12 2 16q0 1 -0.5 4.5t-0.5 5.5q1 16 1 50v51q3 33 3 72 q0 3 -0.5 8.5t-0.5 9.5v17q0 11 -2 25q0 17 -2 25q-1 5 -1.5 14t-0.5 12t-1.5 8t-2 7.5t0.5 7.5q1 1 4 2.5t4 2.5q7 3 15 -4q6 -5 16 -20q3 -3 7.5 -10.5t7.5 -10.5q3 -4 4 -8q2 -4 6 -14q4 -8 12.5 -22.5t12.5 -22.5q47 -84 50 -89q2 -4 6 -11t6 -11q11 -16 13 -20t6 -10.5 t6 -9.5q3 -7 8 -13q2 -3 6 -11q1 -1 2 -2.5t2 -2.5l3 -6q1 -2 4.5 -7.5t5.5 -9.5q1 -2 4 -7t5 -7q21 -35 26 -45q3 -3 7.5 -10.5t6.5 -10.5q7 -14 12 -22q18 -28 26 -43q10 -15 27.5 -44t25.5 -41q45 -70 55 -83q8 -15 21 -31q1 -1 2 -3q4 -5 7 -5q5 0 9 9l6 12q8 13 17 23 q2 2 8 11.5t9 14.5q12 20 34 50q4 8 13 22.5t12 19.5q2 5 7 12.5t6 9.5q2 3 5.5 9t5.5 9t5 9.5t5 9.5q7 13 17 27l6 9q7 14 43 75q2 6 10 19q3 7 4 9q1 3 5.5 7.5t5.5 6.5q3 5 24 44q2 6 8 16.5t9 16.5q3 2 5 10q2 2 7 12q3 7 11 19.5t11 17.5q7 11 20 37q15 23 25 42 q1 2 9 19q1 2 2 4.5t2 4t2 3.5l2 4q2 3 5 11q0 2 2 5.5t3 6.5q0 2 3 5t3 6q0 15 17 17q3 1 13 -4q8 -6 9 -8v-24q0 -106 2 -159q4 -106 3 -160v-178q-1 -51 -1 -154q0 -2 2 -8.5t1 -10.5q0 -1 1 -2t1 -2q-2 -10 -12 -11t-17 5z" glyph-name="M" horiz-adv-x="999" unicode="M"/><glyph d="M728 3q-9 -9 -24 -9q-3 0 -5 0.5t-3 1t-3 2t-3 2.5t-6 4t-7 5q-6 8 -10 12q-2 1 -5.5 4t-4.5 5q-13 16 -39 37q-30 30 -38 35q-2 1 -6 7t-6 7q-3 4 -9 10q-3 4 -8.5 9t-7.5 8q-3 4 -13 14q-4 3 -10 11q-54 63 -94 103q-24 26 -38 40q-6 7 -20 21q-1 1 -3.5 4t-3.5 4 t-2 2.5t-2.5 2.5t-2.5 2t-4.5 6t-5.5 7l-8 8q-2 3 -10 11q-8 12 -12 17q-2 3 -9 10t-10 12q-1 1 -8 11q-3 4 -9 10q-7 8 -19 21t-19 21l-18 21q-7 7 -19 21q-16 19 -18 22q-2 4 -8.5 10.5t-8.5 10.5q-3 4 -9.5 11.5t-9.5 10.5q-2 2 -5.5 6.5t-6.5 8t-6 6.5q-6 6 -14 16 q-5 6 -13 16q-4 6 -10 9q0 -11 0.5 -23t1.5 -27.5t1 -23.5q0 -12 0.5 -25t1.5 -29t1 -25v-60.5t1 -59.5q2 -58 2 -96v-17l-1 -40q0 -40 1 -40q0 -22 -0.5 -77.5t0.5 -77.5q0 -2 1 -10t0 -13t-4 -8q-6 -4 -13.5 -1.5t-11.5 8.5q-1 5 0.5 12.5t1.5 9.5q1 14 1 42q1 14 1 43 q0 13 -0.5 41.5t-0.5 42.5q0 7 0.5 21t0.5 21v43q0 29 -2 85q0 15 -2 41q-1 22 0 64.5t0 63.5q-2 28 -2 42q-1 6 -1 19t-1 20q-1 12 -1.5 34t-0.5 29q-3 13 0 17q8 3 11 1q9 -2 9 -5q0 -1 14 -18q20 -22 57 -66t57 -67q2 -3 11 -12q1 -1 4 -5t4 -5t7 -9q1 -1 2 -2.5t2 -2.5 l1 -1q1 -2 2 -3q2 -3 7 -7t7 -7q1 -1 1 -3l2 -2q3 -4 7 -8.5t9 -10t8 -8.5q4 -4 26 -32q2 -2 4 -4.5t3 -3.5q1 -2 3.5 -4.5l3.5 -3.5t6 -8l6 -6q1 -1 8 -9q10 -12 16 -20l8 -8q8 -10 25 -27q2 -1 7 -6l6 -9l14 -14q5 -5 14.5 -15t14.5 -15q2 -2 6.5 -8t7.5 -8q2 -3 7 -7 t7 -7q2 -2 6.5 -7.5t7.5 -8.5q1 -1 2.5 -2t2.5 -2.5t2 -2.5t3 -4t3 -4q2 -2 12.5 -13t15.5 -17t15 -16l14 -14q4 -6 6 -8l7 -7l8 -8l2 -2q4 -5 6 -6q19 -21 56 -51q3 -3 11 -11.5t12 -11.5q2 -2 5.5 -5t5.5 -5q2 -1 4.5 -4t5.5 -4q2 11 0 41q-1 14 -1 43q0 59 1 90l-1 2v3 q2 20 2 35q0 7 0.5 21t0.5 21q0 1 -1 3v2v26q0 2 0.5 5.5t0.5 5.5v131v34q0 1 -0.5 2.5t-0.5 2.5q1 9 -1 45q-1 3 -1 10v11q-3 18 -3 20q-1 6 0 38t1 37v16.5t-2 20.5q-4 8 -1 12q2 2 8.5 3t9.5 -2q6 -1 8 -16q1 -13 1 -41q-1 -2 0 -5.5t1 -4.5q-2 -7 -1 -9q0 -46 4 -82 q2 -28 2 -85v-40v-134q0 -28 -2 -84q-3 -56 3 -164v-2v-3v-4q2 -11 4 -14q5 -6 -1 -14z" glyph-name="N" horiz-adv-x="797" unicode="N"/><glyph d="M713 399q0 -129 -14 -176q-5 -15 -17 -47q-2 -4 -6 -13.5t-7.5 -16t-7.5 -11.5q-6 -11 -15 -18q-3 -5 -19 -21q-3 -3 -9 -10.5t-10 -10.5q-1 -1 -3 -3.5t-3 -3.5q-2 -2 -7 -6.5t-8 -7.5q-5 -5 -9 -8q-2 -2 -5.5 -4t-4.5 -4q-33 -18 -64 -29q-56 -16 -78 -17q-60 -4 -88 0 q-3 1 -10 2.5t-10 1.5q-4 2 -10.5 2t-9.5 1q-2 0 -4 2q-1 0 -5 2q-5 2 -16 4t-12 2q-7 2 -19 6t-17 6q-2 1 -6.5 2.5t-6.5 2.5q-11 4 -17 8q-1 0 -2 1l-5 1l-6 3l-1 1l-2 2h-2t-2 1l-8 4q-6 4 -10 7q-1 0 -4 1.5t-4 3.5q-2 2 -7.5 6.5t-7.5 6.5q-3 2 -8.5 6t-7.5 6 q-7 5 -16 19.5t-9 15.5l-2 2l-1 1q-1 2 -11 19q-7 12 -9 22q-10 19 -16 48q-1 4 -3.5 16.5t-3.5 19.5q-5 70 2 118q11 57 13 64q5 24 12 42q2 5 6 14t6 14q4 12 11 23q2 3 6 9.5t6 9.5q26 44 70 87q10 10 38 26q19 10 42 21q18 8 23 9q57 18 77 21q2 1 5 0.5t5.5 0t3.5 1.5 q1 3 12 1q6 0 14.5 1t14.5 0q12 -1 32 -7q6 -1 16.5 -2.5t15.5 -2.5q4 -1 13.5 -3.5t14.5 -4.5q57 -26 86 -49q15 -15 23 -21q3 -1 6.5 -6t7.5 -8l9 -9q3 -6 6 -10q5 -10 6 -11q2 -3 5.5 -9t5.5 -9q3 -4 4 -5q1 0 2 -1t0 -2t0 -2l2 -2t1 -2q4 -3 5 -10q0 -2 1 -3 q2 -3 4.5 -8.5t3.5 -7.5l4 -4q2 -5 4.5 -16.5t4.5 -17.5q1 -4 3.5 -11.5l3.5 -10.5q2 -9 4 -25q5 -19 5 -30zM685 403q-10 53 -13 63q-14 42 -20 54q-2 3 -28 47q-6 9 -18.5 23t-15.5 18q-24 23 -43 33q-2 1 -10.5 6t-12.5 8q-2 1 -11.5 5.5t-14.5 6.5q-21 9 -28 9 q-11 3 -33 5q-41 7 -68 4q-7 -2 -20.5 -5t-20.5 -5q-3 -1 -10.5 -2.5t-10.5 -2.5q-4 -1 -10.5 -3.5t-8.5 -3.5q-5 -2 -13.5 -5.5t-11.5 -4.5q-32 -16 -45 -25q-2 -2 -7 -6t-7 -6q-3 -3 -11.5 -9.5t-12.5 -10.5q-14 -18 -21 -26q-10 -11 -20 -28q-20 -34 -27 -48 q-19 -40 -29 -85q-12 -53 -12 -102q-2 -75 20 -128q16 -36 30 -56l5 -5q1 -2 3.5 -5.5t3.5 -5.5q15 -15 18 -19q5 -2 13.5 -10t14.5 -10q2 -1 31 -16q1 0 2.5 -1t2.5 -2t2 -1q6 -2 14.5 -5t11.5 -4q27 -11 75 -20q23 -4 50 -6q16 -2 35 0q43 0 80 12q41 13 65 29q12 9 31 28 q4 2 9.5 9t6.5 8t7 6t8 8q35 39 47 75q2 5 5.5 13.5t6 16t4.5 14.5q5 16 9 54q5 62 4 110q0 1 -1 3.5t0 3.5z" glyph-name="O" horiz-adv-x="757" unicode="O"/><glyph d="M100 223q-2 -49 -4 -136q0 -2 1 -9.5t0 -11.5q0 -4 -0.5 -11t-0.5 -10q3 -42 0 -49q-11 -2 -19 1q-5 2 -5 16t0.5 41t0.5 42t1 43t1 42q0 107 -1 127q-1 7 -1 21q-2 10 -2 17q-1 3 -0.5 44.5t0.5 42.5q0 31 -2 87q-2 26 -2 78q0 2 -0.5 5t-0.5 5v44v48q4 3 16.5 2.5 t19.5 0.5q18 2 39.5 2t48.5 -1t42 -1l33 -3q35 -2 61 -7q43 -9 66 -23q2 -2 7 -4.5l7 -3.5l15 -12q25 -17 45 -58q17 -30 25 -74q2 -16 2 -50v-9q-2 -31 -6 -50t-10 -27q-1 -2 -2.5 -5.5t-3.5 -5.5l-1 -3q-2 -4 -3 -5q-2 -5 -7 -11.5t-7 -9.5q-1 -2 -4 -5l-5 -5 q-2 -1 -4 -3.5t-3 -4.5q-5 -7 -10 -10q-7 -3 -19.5 -11t-18.5 -10q-3 -1 -9.5 -4t-9.5 -4q-39 -16 -55 -20q-6 -2 -19.5 -4.5t-21.5 -5.5t-41 -10q-26 -6 -44 -8q-6 -1 -79 -12q-1 0 -5 -0.5t-5 -1.5zM180 256q7 1 34.5 5t41.5 8q7 2 19 5.5t16 4.5q6 2 17.5 5t17.5 5 q34 12 49 19q2 1 7.5 3.5t8.5 3.5q0 1 2 1l1 1q3 2 7.5 5.5t8.5 6.5l8 6q9 9 14 15q16 19 25 44q1 2 2.5 6t2.5 7t1 5q6 24 6 48q1 6 0 16t-1 12v9q0 13 -4 33q-7 40 -29 70q-1 1 -3.5 4.5t-3.5 5.5q-2 3 -6.5 7.5t-6.5 7.5q-5 3 -20 18q-2 0 -3 1q-2 1 -5.5 4t-4.5 4 q-1 0 -3 1t-3 1q-6 4 -16 7q-19 8 -46 14q-18 2 -28 3q-2 0 -6.5 1t-6.5 1h-15q-5 0 -15 1t-14 1q-5 0 -15 0.5t-15 0.5q-7 0 -16 -0.5t-12 -0.5q-5 0 -14 1t-13 1l-27 -3q-3 0 -14 0.5t-14 -1.5q1 -18 0.5 -55t0.5 -55q0 -9 1 -27t1 -27q2 -31 2 -86t1 -78q2 -36 4 -106 q16 0 81 10z" glyph-name="P" horiz-adv-x="524" unicode="P"/><glyph d="M608 67q4 -4 12 -10t11 -9l2 -2q2 -1 3 -2q6 -3 7 -4q1 0 3 -2t4 -3q3 -3 7.5 -6.5t10 -7.5t8.5 -6q0 -1 1 -1t2 -1q3 0 3 -1q7 -5 7 -11q-2 -11 -11 -14q-6 -1 -10.5 3t-8.5 10t-7 8q-26 20 -30 23q-17 14 -29 22q-7 -2 -12 -7q-2 -2 -7 -5t-6 -4q-2 -2 -21 -10 q-45 -20 -67 -25q-4 0 -11 -2t-10 -2q-10 -2 -17 -2q-5 -2 -19 -2q-53 -6 -109 7q-17 2 -28 6q-4 1 -12.5 4t-11.5 5q-4 2 -12.5 4.5t-12.5 4.5q-8 1 -25 10l-12 6q-6 4 -10 6t-10 7t-10 7l-18 15q-14 11 -17 18l-18 18q-2 4 -7 10t-7 10q-3 4 -9.5 14.5t-10.5 15.5 q-1 1 -7 10q-12 23 -24 77q0 2 -1.5 9.5t-2.5 11.5q-2 13 -4 60q0 1 1 2.5t0 2.5q-1 5 2 29q4 32 8 51q3 12 4 17q2 13 7 27q0 2 2 5.5t2 5.5q17 45 19 51q2 4 6 12.5t6 12.5q9 19 12 23q8 12 16 22q3 3 17 22q1 2 5.5 5t5.5 5q6 9 28 27q10 11 44 30q4 1 13.5 5t15.5 6 q5 2 14.5 5t12.5 4q5 2 15.5 2.5t13.5 1.5q24 6 28 6t12 0.5t11 0.5q42 0 73 -5q32 -4 78 -22q17 -6 41 -20q29 -18 34 -26q4 -3 8.5 -8t7.5 -7q2 -2 14 -16q4 -6 13 -17.5t14 -17.5q9 -14 22 -42q4 -4 11 -20q5 -8 11 -23q1 -1 9 -23q3 -5 10 -36q7 -27 9 -40q-1 -16 3 -47 q3 -27 -1 -76q-1 -16 -14 -49q-6 -26 -17 -48q-5 -10 -26 -38l-4 -4l-1 -3l-2 -2q-2 -3 -5.5 -7.5t-5.5 -6.5q-4 -6 -8 -9q-5 -7 -16.5 -17t-14.5 -14zM604 90q4 5 11.5 13.5t11.5 13.5q6 10 11 15q9 9 12 13q2 3 5 8t5 7l9 15q3 6 7 18q7 18 7 19l6 12q0 4 1 7q0 1 1.5 2.5 t1.5 2.5q1 3 2.5 8.5t2.5 10t1 8.5q3 24 1 85q-2 46 -4 56q-4 20 -5 24q-3 12 -12 38q-13 35 -24 56q-23 39 -32 51q-1 1 -11 14l-12 15q0 1 -0.5 2.5t-1.5 2.5l-3 3l-7 7q0 1 -2 1t-2 1q-7 7 -10 11q-16 14 -29 22q-7 4 -19 8t-17 7q-25 11 -35 13q-27 10 -74 10 q-9 1 -16 0q-6 0 -17 -0.5t-16 -0.5t-13 -2q-2 0 -8.5 -1.5t-9.5 -1.5q-42 -1 -79 -19q-19 -7 -33 -18q-10 -8 -27 -27q-11 -12 -26 -31q-14 -16 -30 -40q-4 -5 -9 -18l-6 -9q-2 -4 -9 -26q-13 -33 -20 -57q-21 -87 -15 -144q2 -24 6 -43q4 -21 12 -39q8 -24 10 -28 q0 -1 2 -4.5t2 -5.5q10 -15 11 -17q1 -1 1 -3l3 -3l2 -1q0 -3 1 -4q0 -1 1 -2.5t2 -2.5l1 -3q2 -3 3 -3q0 -1 1 -2t11 -9q1 -1 1 -2v-2l3 -1q1 -1 4 -7q3 -4 9.5 -10.5t9.5 -10.5q46 -44 124 -67q45 -11 52 -12q5 0 14.5 -0.5t14.5 -1.5q56 -3 104 7l24 6q5 2 14 6l9 4 q15 5 34 15q2 1 6 3.5t6 4.5q9 6 10 10q-1 3 -5.5 6.5t-5.5 4.5t-13 10q-10 13 -27 24q-2 1 -5.5 5t-6.5 6q-2 1 -6.5 5t-6.5 5q-9 6 -25 22q-14 12 -19 15q-9 9 -14 10q-1 1 -1 3q-6 2 -12 8q-2 2 -6 8q-2 2 -5 4t-4 3l-18 18q-1 1 -6 4.5t-6 5.5q-1 1 -1 5q0 5 4 9 q4 2 15 -7q4 -3 11.5 -10t11.5 -11q2 -1 4.5 -3.5t5 -4.5t5.5 -4q12 -13 28 -24l2 -2q2 -1 3 -2l1 -2l3 -3q2 0 3 -1l2.5 -2.5l3 -3l2.5 -2.5h1q1 0 2 -1l3 -3l1 -2q3 -2 10 -7.5t10 -8.5q12 -10 27 -21q16 -14 25 -21l12 -12q7 -7 14 -10q3 1 6.5 5t6.5 5z" glyph-name="Q" horiz-adv-x="769" unicode="Q"/><glyph d="M349 189q1 -1 5 -3q3 -3 5 -3q1 -1 3.5 -3t3.5 -2q4 -4 14 -11t14 -10q52 -38 56 -40q10 -6 27 -18t24 -17q18 -11 52 -35q5 -3 13 -9.5t12 -8.5q5 -3 8.5 -4.5t5.5 -2.5q10 -8 12 -10l1 -1q1 -1 1 -2q1 -3 -6 -10q-5 -4 -19 5q-1 1 -6 4t-7 5q-4 5 -13.5 10.5 t-12.5 10.5q-1 1 -10.5 8t-14.5 11q-1 1 -4 2.5l-5 2.5q-28 16 -35 22q-2 2 -7 5t-7 5q-5 4 -15 9.5t-13 7.5q-9 6 -27 20q-5 3 -13.5 10.5t-11.5 9.5q-4 3 -13.5 9t-13.5 10l-15 9q-12 9 -13 10q-10 6 -28 18q-5 2 -14 8.5t-14 9.5q-11 7 -54 38q-18 15 -56 32q-2 1 -59 3 q-3 0 -3.5 -1.5t0.5 -5t1 -5.5q-2 -34 -2 -58q0 -18 -0.5 -55.5t-0.5 -58.5q2 -49 6 -93q0 -14 -1 -15q-7 -5 -15 -4q-8 4 -8 18q1 15 -1 45q-2 35 1 329v39q2 40 -2 116v20t-1 20q-1 6 -1 19t-1 19q-5 65 -4 75q2 3 12 3q2 0 6.5 1t7.5 0q3 1 40 1q27 3 38 2q41 0 60 -2 q22 -1 93 -1t93 -3q16 -2 24 -7q4 -2 11.5 -4.5t9.5 -3.5q12 -5 20 -12q2 -1 6.5 -4t6.5 -5l9 -9q9 -7 13 -11.5t8.5 -12.5t6.5 -11q28 -43 33 -80q4 -30 1 -53q-2 -28 -11 -45q-14 -28 -19 -35q-2 -3 -6.5 -9t-5.5 -8q-2 -2 -3 -4q-2 -4 -4 -6q-8 -9 -38 -32 q-14 -10 -42 -20q-23 -8 -47 -13q-5 -1 -16 -2t-12 -1l-12 -3q-2 0 -6.5 -1t-6.5 -1q-3 -1 -10.5 -1h-10.5q-13 -3 -21 -3h-15q-7 0 -21.5 -2t-20.5 -2q-4 0 -11 -1t-11 -1q-2 0 -5 0.5t-5.5 0.5t-5 0.5t-3.5 -0.5t-1 -2t5 -6q3 -4 10.5 -7.5t8.5 -4.5q14 -10 20 -14 q2 0 3 -1q3 -1 8.5 -5.5t7.5 -6.5q3 -2 9.5 -6.5t9.5 -7.5q18 -10 20 -12q2 -1 9.5 -5.5t10.5 -7.5q2 -3 8.5 -6.5t8.5 -5.5l3 -2l3 -3t4 -2.5t4 -2.5zM141 316q20 -3 45 -1q34 1 90 5q16 1 46 3q6 1 17.5 2.5t14.5 1.5q4 1 11 1q12 2 49 12q3 1 13 4t15 5q8 3 21.5 12.5 t16.5 11.5q2 3 7 7t6 5q11 13 22 28q3 3 5 7l1 2l1 2q3 3 3 4q5 7 10 16q3 6 7 20q1 3 2.5 10.5t2.5 10.5q8 34 -4 75q-2 2 -2 5q-1 2 -2 6.5t-1 5.5q-1 2 -3 5.5t-3 4.5q-4 9 -12 19q-1 1 -2 4t-2 4q-13 18 -27 32q-8 8 -22 15q-24 12 -33 15q-19 6 -68 6q-10 0 -31.5 0.5 t-30.5 0.5q-2 0 -4 -0.5t-4 -0.5q-24 0 -68 4q-64 5 -125 0q-2 -1 -3.5 -0.5t-3.5 0.5t-2 -1h-3q-5 1 -5 -2t2 -20q2 -14 2 -22q3 -31 5 -90q2 -40 2 -115.5t1 -117.5q8 -1 23 -1.5t20 -0.5z" glyph-name="R" horiz-adv-x="618" unicode="R"/><glyph d="M36 121q6 -1 13 -12l11 -11q3 -2 7.5 -8t7.5 -8h1l1 -1q3 -3 5 -3q9 -9 29 -20.5t24 -14.5l24 -9q3 -3 6 -3q18 -6 38 -9q3 -1 9.5 -2.5t13.5 -3t13 -2.5q13 -1 41 -1h24q2 0 7 1.5t7 1.5q4 1 14 1t14 1l15 5q2 1 5.5 2.5t6.5 2.5t6 1q2 1 5.5 1h5.5q1 0 3 1t3 1l4 2 q6 3 11 3q4 3 15 7.5t14 8.5q4 0 6 5q9 5 19 14q2 1 4 4.5t3 3.5q6 4 8 7l3 6q1 3 2 4q1 2 3 4.5t2 3.5q2 5 4.5 13t3.5 10q1 6 1 13l3 7q3 6 4 10q0 3 -0.5 8t-0.5 7q0 1 1 2v1l-2 4q-1 5 0 7q1 0 1 1q-2 4 -2 5l-1 5q0 4 -2 6q2 12 -3 27t-5 16q-1 3 -3.5 8l-3.5 7 q-10 13 -13 15q-5 5 -9 6q-1 1 -5.5 4.5t-5.5 6.5q-1 0 -6 5q-12 5 -19 12q-8 9 -17 13q-16 6 -21 10q-41 32 -66 41q-20 5 -34 12q-31 15 -37 17q-2 1 -10 3q-4 1 -12 5q-1 0 -6 0.5t-8 1.5l-4 2q-3 3 -5 4q-4 2 -16 3.5t-17 2.5q-1 0 -2.5 1t-2.5 1q-1 1 -4 1l-3 3t-3 2 h-2t-2 1q-9 5 -11 5q-4 3 -12.5 6.5t-9.5 3.5q-24 13 -38 19q-9 2 -20 12q-3 3 -10.5 9t-12.5 11.5t-8 11.5q-2 3 -4 11q0 2 -2 6.5t-3 7.5q-1 4 -1 28q0 3 3 10.5t3 11.5q1 3 6 14q0 1 1 4.5t2 5.5q2 4 8.5 11.5t9.5 12.5q2 3 16 20q3 3 8.5 6t7.5 5q3 2 8.5 5.5t7.5 5.5 q0 1 17 10q14 10 21 12q2 0 6.5 2t5.5 2q6 2 9 2q8 3 21 5q14 0 20 1q1 0 5 -0.5t6 -0.5q11 0 34 -1t33 -1q9 0 20 -3.5t17 -3.5q3 0 29 -9q6 -4 24 -12q8 -3 18 -7t18 -7.5t16 -7.5q20 -13 27 -23q9 -12 11 -15q6 -3 8 -6l6 -6q1 -1 3 -5q7 -5 8 -8q1 -1 2 -4l1 -3v-1 q2 -1 1 -5q-1 -9 -10 -12q-13 -4 -25 23q0 1 -2.5 4t-3.5 5l-10 10q-1 0 -1 1q-1 0 -4 3.5t-5 4.5q-2 2 -4 3t-4 3q-3 2 -15 8q-2 1 -5 5t-4 5q-6 5 -15 7q-1 0 -7 3t-10 4q-20 5 -32 9q-6 3 -17 6t-15 5q-11 4 -40 6q-6 2 -18 3q-4 0 -12 0.5t-12 0.5h-14q-3 -1 -10.5 -1.5 t-14.5 -1.5t-12 -4q-15 -4 -20 -7q-3 -3 -11.5 -5t-10.5 -3q-6 -3 -14 -9.5t-13 -8.5q-6 -2 -19 -18q-15 -15 -18 -20q-4 -7 -7 -17q-2 -3 -3.5 -9.5t-2.5 -9.5q-2 -3 -2 -9v-7q-2 -10 4 -27q2 -6 12 -18q2 -1 4 -4t3 -4q5 -7 18 -16t15 -10q2 0 4 -1.5t3 -1.5q3 -2 13 -6 q3 0 7 -2t7 -3q2 0 4.5 -2t3.5 -2q5 -1 13 -6q12 -4 16 -4t10 -4t9 -5t5.5 -2t4.5 -1.5t3 -0.5q2 -1 4.5 -2.5t5 -2.5t5.5 -1q8 -2 10 -3q8 -3 20 -7q8 -1 37 -12q13 -6 14 -9q3 -2 9 -3.5t7 -2.5q7 -3 19 -9l16 -8q3 -2 14 -5.5t15 -7.5q8 -4 18 -14l15 -9q16 -11 22 -13 q1 -1 9.5 -5t13.5 -9q5 -1 17 -11q3 -2 12 -16q2 -3 5 -7t4 -6l2 -1q1 0 1 -1t1 -2q1 -2 2.5 -4.5t2.5 -4.5q3 -3 4 -3q0 -3 2.5 -5.5t2.5 -3.5q2 -1 3 -5t3 -5q-1 -2 2 -12q1 -1 1 -6v-8q1 -3 2.5 -8.5t1.5 -7.5q1 -5 1 -11.5t-0.5 -15.5t-0.5 -15q0 -2 0.5 -4t0.5 -4 t-0.5 -8t-0.5 -12q-2 -1 -3.5 -5.5t-2.5 -5.5q-2 -2 -2.5 -7t-1.5 -7q-3 -4 -7.5 -10.5t-7.5 -10.5q-11 -17 -12 -19q-1 -3 -5.5 -5.5t-5.5 -3.5t-7.5 -8.5t-11.5 -8.5q-3 -1 -5.5 -2.5t-3.5 -1.5l-6.5 -6.5t-7.5 -6.5q-9 -6 -20 -6q-8 0 -18 -7q-2 -1 -8 -1q-1 0 -2.5 -1.5 t-3.5 -2.5q-16 0 -28 -5q-7 2 -17.5 -2.5t-14.5 -4.5q-3 0 -17 2q-11 -2 -14 -3q-82 -2 -111 9q-5 2 -15 5t-13 4q-4 2 -13 4t-15 5q-3 1 -7.5 3.5t-5.5 3.5q-6 6 -9 7q-1 1 -3.5 2t-3.5 2l-6 3q-8 6 -12 7q-2 1 -7 5t-8 6q-6 10 -11 13q0 1 -5 8q-1 2 -4 5q-1 1 -3 2t-3 2 t-2.5 3.5t-3 4t-4.5 1.5q-10 8 -9 15q1 5 13 10z" glyph-name="S" horiz-adv-x="553" unicode="S"/><glyph d="M773 688q-1 -5 -5.5 -6.5t-14 -1.5t-13.5 -1q-5 0 -19 1.5t-18 -0.5q-5 0 -15.5 1t-16.5 0q-5 0 -16.5 -1.5t-18.5 -0.5q-9 1 -30.5 1h-33.5q-31 2 -46 1q-1 0 -2 -1h-1q-2 1 -5 1t-8.5 -1t-8.5 -1t-7.5 0.5t-6.5 0.5q-10 1 -24 0q-2 0 -6 -0.5t-6 -0.5t-6 1t-6 1 q-8 0 -13 -1q-4 0 -13 -0.5t-14 -0.5q-2 -2 -2 -7v-6v-13v-16v-14q1 -12 -2 -62q0 -9 -1 -28t-1 -29v-50l1 -1v-2q0 -18 2 -56q2 -18 2 -56q0 -7 2.5 -35t1.5 -42q0 -2 0.5 -16t-2.5 -15q1 -1 3 -18q0 -2 -0.5 -4t-0.5 -3q0 -56 -2 -86q0 -4 1 -14t1 -14v-27q0 -20 1 -29 q0 -3 1 -12t0 -14q-1 0 -1.5 -3.5t-3.5 -2.5q-1 -2 -5 -2t-6 2q-2 0 -4.5 3t-3.5 4q0 6 -0.5 18.5t-0.5 19.5q-1 17 -1 36.5t0.5 44t0.5 37.5v41v78q-3 30 -3 35q0 13 -1 39.5t-1 39.5q-6 105 -1 158q4 55 1 81q1 6 1 18.5v21.5q-6 1 -53 -2q-8 0 -26 0.5t-28 0.5 q-4 0 -13.5 -0.5t-15.5 -0.5q-1 0 -3 1h-1q-5 0 -18 -0.5t-20 -0.5q-18 0 -47 0.5t-46 0.5h-51q-5 0 -21 0.5t-24 1.5q-4 1 -6 9q0 1 3 12q3 3 12 1h13h22l1 -1q2 1 5 0.5t9 -1t8 -0.5q9 -1 23.5 0t20.5 1q8 0 22.5 -0.5t23.5 -0.5q21 0 64.5 -0.5t65.5 -0.5q16 0 48 1t48 1 q79 0 94 1h48q8 0 24 0.5t23 0.5q16 0 48 -1t47 -1q30 0 45 1q4 0 11.5 -0.5t11.5 -0.5q14 2 21 1q4 -1 9 -10q-1 -1 0 -2t0 -2z" glyph-name="T" horiz-adv-x="775" unicode="T"/><glyph d="M60 703q1 0 7 -3q7 0 8 -2q3 -3 3 -17v-49q-1 -15 -1 -47q-2 -38 0 -78q1 -23 1.5 -83.5t2.5 -92.5q0 -8 2 -24t4 -22q1 -13 7 -33t7 -28q0 -1 2 -3.5t2 -3.5q14 -40 18 -46q16 -34 28 -48q14 -17 38 -37q1 -1 5 -4.5t6 -4.5q10 -8 16 -12q34 -21 71 -32q5 -2 15.5 -4 t15.5 -3t14.5 -4t14.5 -4q18 -5 69 -7q30 -3 72 1q23 2 33 5q5 1 14 4.5t14 4.5q10 8 21 13q5 5 17 15q5 4 22 17l1 1q0 2 1 2l9 9q50 52 66 87q3 2 6 8.5t4 8.5q1 3 4.5 9t4.5 8q23 44 37 123q1 4 5.5 19.5t5.5 24.5q1 5 1 16q1 3 1.5 8t0.5 8q1 6 1 21q1 6 2 17t2 17 q2 13 -1 80q-3 36 2 78q1 14 -0.5 39.5t-1.5 32.5q-2 14 2 17q4 1 11 0q7 -4 9 -9q3 -3 3 -18t2 -19q-1 -1 -0.5 -6.5t0.5 -7.5q0 -4 -2 -14q0 -3 1 -10t1 -11q0 -5 -0.5 -14t-0.5 -13q-1 -4 1 -12.5t-2 -10.5q0 -6 2 -12q0 -2 -1 -5.5t-1 -6.5v-49t-1 -53v-35q0 -5 -2 -15 t-2 -13q-2 -22 -6 -41q0 -2 -1 -5t-2 -5q-2 -3 -4 -14q-2 -4 -2 -6q-1 -1 -3 -13q-3 -3 -3 -5q-2 -3 -4.5 -11.5t-3.5 -11.5q-9 -26 -21 -56q-4 -5 -10 -17q-4 -11 -8 -17q-2 -5 -3 -5q-1 -1 -3.5 -7t-4.5 -8q-6 -11 -18.5 -27t-16.5 -22q-4 -5 -13 -14q-17 -20 -29 -28 q-3 -4 -11 -10t-12 -10l-5 -5q-12 -11 -32 -19q-2 -2 -3 -2q-2 -1 -5.5 -2.5t-5.5 -2.5q-1 -1 -3 -2.5t-3 -1.5q-2 -1 -5 -1t-4 -1q-3 -1 -8 -3t-7 -2h-9t-9 -1q-1 0 -3 -1t-4 -1q-30 -2 -45 -1q-8 0 -32.5 0.5t-37.5 1.5q-23 2 -60 12q-47 13 -58 16q-54 22 -92 55 q-41 34 -65 81q-18 34 -39 110q0 2 -6 47q-4 48 -4 157v112v26t1 26q2 34 0 51q0 15 3 16z" glyph-name="U" horiz-adv-x="843" unicode="U"/><glyph d="M428 -13q-18 4 -19 19q-1 4 -11 24q-5 8 -14.5 25.5t-10.5 18.5q-11 19 -30.5 54t-21.5 38q-2 4 -6 11.5t-6 11.5q-36 63 -38 68q-9 11 -16 22q-1 3 -5.5 10.5t-6.5 13.5q-6 8 -15.5 24t-11.5 19q-29 50 -54 89q-24 38 -28 43q-1 4 -5.5 11.5t-6.5 13.5q-11 16 -32.5 53 t-34.5 57q-8 16 -26 44q-11 13 -15 20q-15 10 -12 21q1 8 13 3q4 -1 6.5 -3.5t5 -7t3.5 -6.5q7 -7 8 -10q7 -7 17.5 -23t11.5 -18q2 -2 6 -8q0 -1 2 -3q1 -2 2.5 -5.5t2.5 -5.5l2 -1q5 -12 9 -19q25 -44 26 -46q6 -8 13 -21q9 -11 13 -21q2 -4 5.5 -10t4.5 -8q17 -23 19 -26 q7 -14 24 -42.5t25 -44.5q2 -3 11 -17.5t14 -22.5v-1q0 -1 1 -2q27 -42 28 -44t10.5 -18.5t14.5 -25.5q21 -32 76 -130q22 -40 24 -46q3 -4 9.5 -16t8.5 -16q1 -1 2 -3t1.5 -3.5t1.5 -3t2 -1.5l7 10q5 9 6 10q1 3 5.5 9.5t6.5 10.5q14 17 27 41q5 9 15 25.5t18 30t15 25.5 q9 18 11 21q1 1 3.5 5.5t3.5 7.5q1 1 2 3.5t2 3.5t2 1q0 3 2 5q1 1 2 2.5t2 2.5q1 3 3 7q1 3 13 19q1 2 6.5 11t8.5 14q1 4 5 11.5t5 12.5q4 5 11 19.5t13 20.5q1 4 5.5 10.5t5.5 10.5q7 11 28 54q3 4 8.5 12.5t7.5 13.5q1 2 5.5 11.5t8.5 14.5q0 4 5 11q11 22 17 33 q19 39 21 43q2 2 12 20q3 7 11 23q2 3 20 35t26 50q3 1 7 8.5t10 8.5q11 -8 11 -12q4 -9 -5 -16q-1 -5 -6 -10q-1 -4 -11 -23q-3 -6 -8 -10q0 -5 -8 -18l-9 -15q-54 -101 -79 -149q-12 -23 -23 -46q-8 -15 -11 -20q0 -1 -1 -2q-2 -2 -2 -3q-1 -2 -5 -8q-3 -7 -7 -14 q-1 -1 -1 -2q-1 -2 -1 -3l-3 -3l-3 -6l-1 -3l-2 -2q-5 -7 -10 -15q-1 -2 -2 -6t-2.5 -6.5t-4.5 -4.5q0 -2 -1 -4t-2.5 -4.5t-2.5 -3.5q-1 -2 -2.5 -6.5t-2.5 -6.5q-2 -4 -4 -6l-4 -4q-5 -10 -6 -11q-2 -7 -6 -13q-1 -1 -3.5 -5.5t-3.5 -7.5q-6 -10 -10 -16q-1 -2 -7 -10.5 t-8 -13.5q-2 -3 -11 -20t-14 -25q-2 -3 -6.5 -10t-6.5 -11l-3 -6q-7 -10 -19 -31t-17 -29l-3 -6q-1 -2 -2.5 -4.5t-4 -5.5t-3.5 -5q-3 -3 -8.5 -10t-6.5 -9q-3 -8 -10 -18.5l-9 -13.5q0 -3 -1.5 -5t-4 -3t-3.5 -2z" glyph-name="V" horiz-adv-x="832" unicode="V"/><glyph d="M807 564q0 -2 -0.5 -5.5t-1.5 -5.5t-3 -7.5t-3 -8.5t-2 -8t-2 -8q-1 -2 -1 -7q0 -1 -2 -6t-2 -8q0 -1 -3 -7q-3 -9 -7 -30.5t-8 -32.5l-3.5 -14t-4.5 -16q-14 -40 -18 -63q-2 -10 -7 -29q-4 -24 -8 -33l-2 -5l-3 -9q-10 -41 -12 -46q-4 -27 -7 -33q-9 -24 -13 -37 q-1 -4 -2.5 -12t-3 -14.5t-3.5 -12.5q-2 -4 -6 -19q-7 -31 -7 -32q0 -2 -1.5 -2.5t-1.5 -2.5l-2 -6t-2 -6.5t-2 -5.5q0 -2 -0.5 -13t-4.5 -16q-5 -7 -15 -5q-7 0 -10 14q-3 6 -3 11v5t-1 6q-1 3 -3.5 8.5t-3.5 8.5q-2 4 -3 9.5t-2 7.5q-9 20 -16.5 43t-15.5 52.5t-13 44.5 q-1 3 -10 29t-12 39q-5 18 -23 69q-1 2 -2 5t-2 4q-1 2 -1.5 7.5t-2.5 8.5q-4 8 -12 28q-5 20 -13 43q-3 1 -3 7q0 2 -2.5 7t-2.5 8q-1 1 -2 3t-2 3q-1 5 -8 22q-2 12 -5 17q-3 8 -6 12q0 6 -2 8q0 1 -2 3t-2 4q0 6 -2 8q-1 3 -1 7q-4 13 -12 26q-1 3 -18 37q-4 6 -7 18 q-6 20 -8 19q-1 0 -1 -1.5t-0.5 -4t-1.5 -4.5q-2 -2 -2 -9q0 -5 -1.5 -11t-1.5 -9q0 -8 -5.5 -22.5t-6.5 -19.5q-1 -3 -3.5 -17t-5.5 -21q-2 -8 -6.5 -21.5l-5.5 -16.5q-1 -4 -3 -11t-3 -10q0 -1 -1 -7.5t-2 -9.5q-2 -8 -5 -21t-4 -18q-2 -12 -9 -34t-8 -25q-1 -5 -3 -16 t-4 -16q-1 -2 -4 -12t-4 -16t-5 -18.5t-5 -19.5t-5 -19.5t-5 -18.5q-2 -7 -6 -19.5t-6 -19.5q-1 -2 -4 -17.5t-6 -23.5q-1 -3 -1.5 -6t-1 -6.5t-0.5 -5.5q-5 -25 -15 -58q-2 -7 -5 -21t-4 -18t-0.5 -8.5t0 -9t-2.5 -6.5q-10 -10 -23 -3q-9 6 -9 30q0 9 -10 44q-10 38 -14 49 q-3 6 -9 33l-2 3q0 1 0.5 2.5t-0.5 3.5q-3 3 -3 6q-4 9 -10 31q-8 29 -24 85q-3 8 -12.5 38t-14.5 47q-6 18 -25.5 76t-29.5 89q-4 15 -14 42t-15 42q-2 4 -4 12.5t-3 12.5q-2 4 -2 7q-1 4 -3.5 14.5t-4.5 16.5q-7 19 3 22q5 1 8 -4q10 -14 14 -34q1 -6 5.5 -19.5t6.5 -20.5 q6 -15 14.5 -43.5t11.5 -38.5q4 -14 7 -22l3 -9q0 -1 1 -2l3 -6q0 -5 1 -7t3 -4q1 -2 1 -5.5t1 -5.5l3 -3q1 -6 5 -17t5 -14q12 -43 21 -67q21 -51 28 -79q3 -12 22 -81q14 -43 50 -167l2 4t1.5 3.5l1.5 4.5t2 5q3 8 7 27.5t7 28.5t7 32t8 34q1 1 2 3.5t2 4.5q0 11 5 21 q0 4 2 7l2 6t2 7t2 6q9 28 23 87.5t23 87.5q2 3 2 8.5t1 7.5q3 9 5 13q1 5 1.5 13.5t2.5 13.5q4 10 8 29.5t7 26.5q4 12 4 15q0 4 2 8t2 5q1 1 3 16q0 2 3.5 12t3.5 16q0 5 5 18t5 19q0 5 1 8q0 3 3 8.5t3 8.5q1 4 1.5 9t1 8t1.5 6.5t3 5t5 1.5q14 0 16 -3q5 -10 5 -17 q0 -10 4 -17q3 -3 3 -6v-1l1 -1q1 0 2 -5q2 -4 5 -16t5 -17q1 -2 3 -5t3 -5q3 -4 3 -11q8 -16 12 -28q1 -2 4 -5.5t3 -4.5q6 -22 15 -41q3 -2 3 -5q0 -4 3 -7q0 -1 3 -7q0 -2 2.5 -12.5t3.5 -16.5q8 -19 10 -25q1 -2 2 -3.5t2 -3.5q0 -1 1 -4.5t1.5 -6.5t1.5 -5l2 -4 q2 -3 3 -5q12 -30 49 -143q3 -6 6 -15.5t5 -13.5q17 -54 25 -81q1 -5 4 -14.5t5 -14.5q7 -17 10 -26t8 -27t8 -27q4 1 4 11t7 29q0 2 3 11q2 3 3.5 8.5t2.5 8.5q3 8 7.5 27.5t8.5 29.5q0 3 2 9q2 4 4.5 13.5t4.5 13.5q12 62 39 155q2 5 4 15l3 15q2 6 12 44q2 12 4 17 q7 26 19 59q6 29 7 32q1 5 4.5 13.5t4.5 13.5q2 5 4 15.5t4 15.5q0 1 0.5 3.5t1.5 3.5q3 3 3 10q0 2 2 6.5t2 5.5q1 1 2.5 3.5t1.5 4.5q0 6 1 7q0 2 2.5 6.5t2.5 6.5q2 4 4.5 17.5t5.5 19.5q3 5 7 5q14 0 16 -12q0 -4 -1.5 -8t-3.5 -9t-3 -7q-4 -9 -9.5 -29t-8.5 -29l-6 -15 q-4 -16 -7 -24z" glyph-name="W" horiz-adv-x="862" unicode="W"/><glyph d="M636 -17q0 -1 -1 -3t-1 -3q-1 0 -2.5 -2.5t-3.5 -1.5q-2 -1 -6 3t-6 4q-1 2 -4 5.5t-4 5.5q-3 2 -19 21q-18 22 -19 22q-4 3 -11.5 12t-13.5 13q-3 5 -4 6q-4 2 -8 10q-5 3 -11 12t-7 11q-3 2 -9 9.5t-10 10.5q-2 3 -5.5 8t-5.5 7l-1 2l-3 3l-2 2q-12 14 -17 23 q-7 7 -19 21q-6 10 -19 25.5t-20 26.5q-4 5 -18.5 21t-21.5 26q-2 2 -8 12t-10 13q-2 1 -4.5 4.5t-5.5 4.5q-1 1 -2 -1l-1 -2l-1 -1q-3 0 -2 -2l-3 -1q-3 -2 -3 -4q-7 -12 -10 -15q-2 -2 -5.5 -6t-5.5 -6q-1 -2 -3.5 -4t-4.5 -3.5t-2 -4.5q-5 -4 -13 -12.5t-12 -12.5 q-8 -10 -9 -14q-3 -1 -7 -5.5t-6 -5.5q-2 -4 -6 -10q-2 -1 -5.5 -4t-5.5 -4q-3 -6 -18 -26l-1 -3l-3 -1l-3 -6q-5 -3 -5 -4q-1 -5 -10 -10l-16 -16q-2 -1 -3 -3t-2.5 -4.5t-2.5 -3.5t-3 -2q-6 -3 -6 -7q-3 -3 -8 -11t-7 -10q-1 -1 -3 -2.5t-3 -2t-2 -2t-1 -2.5q-1 -3 -4 -6 t-4 -5q-1 -1 -6.5 -7.5t-10.5 -8.5q-3 -10 -20 -31q-3 -3 -10 -14t-13 -14q-16 5 -19 7q0 4 6 8.5t6 7.5q7 2 8 8q1 1 8 9t9 13q3 4 9 11t7 9q18 22 19 22q2 3 17 21q5 8 8 10q4 7 10 13q2 4 4 6q3 3 4 5l3 1q3 2 4 3l3 3q3 3 8.5 9t8.5 9q4 5 29 35.5t39 44.5q34 39 35 41 q13 13 18 20q1 1 4.5 4t5.5 5l8 11q0 1 -1.5 3t-4 5t-3.5 5q-26 31 -30 39q-10 10 -24 26q-16 14 -20 26q-10 8 -15 16q-3 2 -8 8t-8 8q-4 6 -16 16q-2 6 -18 22q-3 6 -5 8q-1 1 -4 3.5t-5.5 5t-4.5 5.5q-1 1 -2.5 3.5t-2.5 3.5q-13 11 -17 18q-1 1 -5.5 7.5t-7.5 9.5 q-1 3 -6.5 8.5t-7.5 9.5q-14 16 -23 31q-1 1 -2.5 3.5t-2.5 3.5q0 1 -2.5 3t-4.5 4q-1 1 -3 5t-4 6q-12 15 -15 17q0 4 -2 7t-4.5 6t-3.5 5q-8 7 -15 17l-2 2q-1 2 -2 3q-7 7 -6 16q4 4 9.5 1.5t7.5 -4t6 -6.5t5 -6q4 -3 11 -11t10 -12t14 -24q3 0 3 -1q2 -4 9.5 -12.5 t9.5 -12.5q1 -1 37 -51q12 -15 25 -28q2 -3 10.5 -11t13.5 -14q0 -1 2 -5q11 -11 13 -14q12 -12 13 -17q1 0 1 -1t1 -1t2 -1t2 -1t1 -2t1 -2q2 -2 3 -4q2 -2 6 -6.5t6 -6.5q33 -36 97 -117q4 2 10 9t9 9l1 1q1 1 2 1t1 1.5v2.5l2 1q1 0 1 1q3 2 6.5 6.5t5.5 5.5q11 11 17 23 q37 43 50 63q4 8 15.5 23.5t15.5 22.5q4 6 15.5 21t16.5 23q2 4 14 21.5t18 28.5q4 9 14.5 24.5t14.5 22.5q6 8 8 13q4 4 6 9q2 1 9 14q5 11 7 11q14 -2 16 -9q1 -5 -10 -19q-4 -5 -12 -17q-2 -3 -6 -11t-7 -11l-2 -2q-7 -10 -9 -13q0 -1 -1.5 -2.5t-2.5 -3.5v-2.5t-1 -1.5 q-1 -2 -4 -7.5t-5 -8.5q-11 -22 -39 -60q-4 -2 -5 -5q-1 -1 -2 -3t-2 -3l-7 -10.5t-7 -12.5q-1 -1 -2.5 -2t-3 -2.5t-1.5 -2.5q-1 -1 -2 -4t-2 -4q-4 -4 -7 -4l-1 -3q-1 -3 -2 -4q-5 -7 -6 -10q-1 0 -1 -1v-1l-1 -1q-1 -1 -1 -2l-3 -3l-1 -2q0 -1 -1 -1l-1 -2q0 -1 -1 -1 t-1 -2t-1 -2t-1 -1l-1 -2q-3 -3 -5 -7q-3 -4 -12 -11q0 -2 -1 -2q-2 -2 -7.5 -11t-8.5 -12l-3 -2q-2 -1 -4 -2.5t-2 -5.5q-12 -14 -19 -21q-2 -1 -4.5 -5.5t-5.5 -5.5q-2 -2 -4.5 -6t-4.5 -5l-17 -17q1 -2 2.5 -4.5t3.5 -5.5t3 -5q7 -11 26 -33q6 -7 17 -21.5t17 -21.5 q2 -4 8 -10.5t9 -11.5q9 -9 26 -32.5t28 -33.5q11 -15 35 -43q2 -4 17 -22q4 -6 23 -25q1 -1 5.5 -6.5t7.5 -8.5q2 -3 7 -8l5 -4q1 -1 2.5 -3.5t2.5 -3.5q2 -3 8 -9.5t8 -8.5t6 -6.5t6 -6.5q8 -8 11 -14l1 -1v-2z" glyph-name="X" horiz-adv-x="653" unicode="X"/><glyph d="M747 696q0 -4 -4.5 -7t-5.5 -4q-2 -2 -6.5 -5t-6.5 -5q-1 -1 -11 -8q-2 -1 -5 -4.5t-5 -4.5t-3 -3t-2 -2q0 -2 -3.5 -2.5t-2.5 -3.5q-4 -2 -7 -3q1 -3 -4 -5q-1 -1 -4 -4.5t-6 -4.5q-8 -6 -11 -10q-6 -6 -10 -9q-3 -2 -11 -9t-13 -10q-1 -2 -5 -5t-5 -6q-5 -2 -12 -8.5 t-10 -8.5q-3 -4 -10.5 -10t-9.5 -9q-3 -1 -6.5 -5t-4.5 -5q-5 -5 -11 -8q-8 -9 -21 -19q-4 -5 -11 -12l-10 -10q-4 -2 -9 -6t-7 -5q-1 -1 -2 -1l-15 -15q-1 -1 -4.5 -2.5t-5.5 -3.5q-2 -1 -8 -7t-9 -8q-1 -1 -3 -2.5t-3 -1.5t-9 -8q-2 -2 -8 -6q-2 -1 -8.5 -6t-10.5 -6 q0 -2 -4 -5.5t-5 -7.5q-4 -51 -2 -157q0 -1 -0.5 -4.5t-0.5 -5.5q0 -1 0.5 -2t0.5 -2l-1 -2v-2q2 -60 -1 -106v-7l1 -1q-2 -2 -2 -29v-1q1 -2 1 -3q-2 -28 -2 -41q0 -3 0.5 -9t1 -10t-0.5 -9t-3 -9q-8 -5 -17 1q0 30 2 102t2 107v42.5v49v39.5v38q-1 4 0 13t1 12 q-2 7 -12 13q-16 14 -23 19q-5 3 -13.5 10.5t-13.5 10.5q-1 1 -4 2.5t-4 2.5q-8 6 -13 10q-2 1 -10 7l-3 3q-1 0 -2.5 0.5t-2.5 1.5q0 1 -1 1l-1 2q-1 1 -3.5 2.5t-3.5 2.5q-4 4 -6 5q-18 16 -26 23q-12 7 -26 18q-1 0 -1 1l-1 2q-3 0 -4 1l-3 3q-1 2 -2 2q-8 6 -11 9 q-1 2 -11 9q-1 1 -4 3t-4 3q-2 0 -3 1t-4 4.5t-5 4.5l-2 1q-3 1 -5 2q-1 3 -4 4q-1 1 -8.5 7t-11.5 10q-8 8 -12 11q-1 1 -10 7l-1 2q0 1 -1 1q-1 1 -3 1q0 1 -1 2l-1 2q-2 0 -3 1q-2 0 -2 3h-2t-2 1t-2 2.5t-2.5 2.5t-2.5 2h-1q-1 0 -2 1l-1 2q0 1 -1 1q-1 1 -3 1l-1 2 q0 1 -1 1q-1 1 -3 1q-1 1 -3 2.5t-4.5 3t-3.5 2.5q-1 2 -2 3q-2 0 -3 1q-5 3 -15 11q-4 2 -7 3q0 2 -1 2q-8 4 -9 5q-7 2 -15 8q0 1 -3.5 6.5t0.5 6.5q8 7 23 -5q5 -3 7 -4q3 -2 11.5 -8t12.5 -9q26 -18 47 -36q23 -15 46 -40l12 -9q2 -1 5 -3.5t4 -3.5q20 -15 26 -19 q70 -58 143 -110q4 -3 11.5 -9t11.5 -9l12 -9l5 -4q4 -4 8 -3q6 0 18 12q6 3 6 4q14 8 36 27l3 3q2 0 4 2q4 3 12 11q7 5 8 5l4 2l3 3q2 2 6.5 5.5t6.5 5.5q19 21 25 25l12 9l12 9q5 7 31 28q1 1 2 2.5t2.5 2.5t2.5 2q18 16 23 21q15 13 24 18q3 3 10 9.5t10 9.5q6 5 22 19 t26 21q7 7 16 13q6 6 10 9q9 10 14 8q2 0 4 -1.5t3.5 -4.5t2.5 -4z" glyph-name="Y" horiz-adv-x="748" unicode="Y"/><glyph d="M135 133q-10 -13 -15 -18q-1 -2 -3.5 -5t-3.5 -5q-3 -7 -6 -10.5t-7 -7.5t-7 -8q-2 -2 -5 -5.5t-5 -6.5t-3 -6q-4 -4 -6 -11q-1 -4 -6.5 -9t-6.5 -6t-2.5 -4t-3.5 -5q-6 -3 -4 -9q0 -2 2 -2t5.5 0.5t5.5 0.5q46 3 101 0q4 0 12.5 -0.5t12.5 -0.5q2 0 5 1t4 1t3 -0.5 t3 -0.5q23 0 32 2h40q13 1 34 1h34q15 1 44 1h43q2 0 6 0.5t6 0.5q101 0 114 1q8 2 12 2q13 -2 13 -14q0 -9 -12 -11h-9q-2 0 -7.5 -1.5t-8.5 -0.5q-6 1 -14 0t-12 -1q-2 0 -5 -1.5t-5 -0.5q-8 4 -14 3q-2 0 -6 1t-6 1t-4.5 -2.5t-4.5 -2.5q-8 -1 -23 1.5t-17 2.5 q-11 0 -12 1q-1 0 -3 -2.5t-4 -2.5q-12 4 -17 4q-2 0 -10.5 -2t-10.5 1q-3 0 -5 -1q-1 0 -5.5 -1.5l-7.5 -2.5q-2 -1 -7 3t-9 4q-3 0 -8 -0.5t-8 -1.5q-2 0 -5 0.5t-4 0.5q-6 1 -18 -2t-15 -3h-48q-8 0 -15 -3q-2 0 -7.5 2t-8.5 1q-3 0 -11.5 2t-13.5 1q-9 0 -39 -0.5 t-39 1.5q-3 0 -11.5 -2.5t-10.5 -2.5q-7 -1 -23.5 0t-23.5 1q-13 0 -16.5 1t-6.5 9q-2 4 6 14q1 2 4.5 6t4.5 6q0 1 8 11q4 8 11 14q4 3 11 15q2 3 8.5 14t12.5 17q1 0 3 3.5t4 4.5q1 1 4.5 5t5.5 6q1 1 4.5 6t5.5 8l5 5q1 3 5 7q1 1 2 3t2 3l12 15q10 16 18 23l9 12l9 12 q6 6 14.5 18t11.5 16q2 4 8 12l18 21q32 44 36 48q4 5 14.5 21.5t17.5 24.5q12 19 18.5 27.5t19 20.5t22.5 23q18 16 22 22q2 3 7.5 7.5t7.5 6.5q1 2 3.5 5t4.5 4q1 1 1 2q1 2 1 3q2 0 3 1q0 1 1 2l2 4q0 2 1 3t4 3q0 1 0.5 2.5t1.5 2.5l7 7q0 1 4 5.5t6 7.5q1 1 4.5 4 t5.5 5q8 10 9 11q1 3 6 6.5t6 4.5l18 21q1 1 4 4.5t5 5.5q9 12 10 13q4 4 14 16l2 1q1 0 1 1l12 12q21 22 37 44q-5 2 -10.5 2.5t-12 -0.5t-9.5 -1h-6q-1 0 -2.5 1t-2.5 1l-3 -1h-4q-3 0 -9.5 -0.5t-9.5 -1.5q-7 0 -20 -1t-20 -1q-1 0 -6.5 0.5t-8.5 0.5q-1 0 -5 -1.5 t-6 -1.5q-5 0 -12 -1t-12 -1q-4 0 -16.5 1t-16.5 -1q-3 0 -5 1.5t-3 1.5q-10 0 -15 1q-4 0 -11 -0.5t-13 0t-9 2.5q-1 0 -3.5 -1.5t-4.5 -0.5q-35 4 -58 1q-21 -2 -32 -1q-6 1 -34 -2q-89 -5 -142 6q-6 1 -11.5 6.5t-1.5 10.5q4 3 6 3t7 -2.5t7 -2.5q7 0 27.5 -0.5 t30.5 -1.5h12.5h15h12.5t11 1t10 1q11 1 33.5 1h35.5q58 2 86 1q29 -1 87 -1h10q6 -1 21 0.5t23 1.5q4 0 11 1t10 1h26q24 2 71 2q12 0 12 -10q0 -5 -5 -15q-1 -3 -4 -7t-5 -7q-7 -11 -19 -23q-5 -4 -12.5 -12t-11.5 -11q-3 -3 -18 -23q-1 -1 -3.5 -2.5t-3.5 -2.5 q-3 -3 -9 -11q-4 -5 -14 -16t-11 -12q-7 -8 -20.5 -22.5t-19.5 -22.5q-4 -5 -11 -14.5t-9 -11.5q-1 -3 -4.5 -6.5l-4.5 -4.5t-2.5 -4.5t-3.5 -4.5q0 -5 -5 -8q-4 -4 -7.5 -7t-5 -4.5t-3.5 -3t-3.5 -3t-2.5 -4.5q-1 -2 -4.5 -3.5t-4.5 -3.5q-5 -3 -8 -8q-3 -3 -11 -13 q-2 -2 -5 -7t-6 -7q-20 -13 -28 -30l-1 -2q-1 -2 -2 -2q0 -1 -0.5 -2.5t-1.5 -2.5q-8 -12 -12 -17q-1 -3 -3 -6t-5 -6.5t-4 -5.5t-4.5 -8t-6.5 -9q-1 -2 -3 -4.5t-3 -3.5l-7 -7q-2 -1 -7 -8q-8 -10 -10 -12q-4 -3 -9 -12t-8 -12l-6 -8l-2 -2q-4 -8 -7 -12l-3 -3l-7 -7l-3 -3 t-3 -4q0 -3 -4 -9q0 -1 -4 -5l-3 -6q-1 -2 -4 -4t-4 -4v-1q0 -1 -1 -1t-1 -2t-1 -2q-1 -2 -7 -9t-13 -16t-8 -10z" glyph-name="Z" horiz-adv-x="599" unicode="Z"/><glyph d="M100 710v-32q0 -13 -1 -58.5t0 -69.5q2 -22 2 -32q0 -4 -0.5 -19.5t-0.5 -20.5q0 -62 -2 -91q0 -10 -1 -59.5t-2 -59.5q0 -12 -2 -32t-2 -27l1 -40q0 -1 -0.5 -5t-0.5 -6q0 -6 -1 -21t-1 -23q0 -4 0.5 -13t0.5 -14v-30q0 -5 3 -120q4 -17 3 -27q16 -2 27 -2h42t42 -1 q24 -3 28 -3q9 1 19 0h12.5h19h17.5q36 0 43 -1q28 -2 42 -2q2 0 9.5 0.5t10.5 0.5t7 -2.5t5 -7.5q3 -13 -13 -15h-25q-4 1 -12 2.5t-11 1.5h-22q-9 1 -24 2.5t-22 1.5h-70q-8 0 -24 2q-8 1 -23.5 0t-23.5 0h-8q-6 0 -19 -1.5t-24.5 -1t-19.5 4.5q-9 6 -11 10q-4 2 -1 18 t3 18q2 41 -2 122q-4 88 1 161q1 6 3 17.5t2 17.5q0 19 1 28v65q3 63 3 67q0 12 1 54t0 61q-2 38 -2 53q0 10 1.5 66t-0.5 67q-2 19 2 22q5 1 23 -4q35 -2 52 -1h14h16h13q2 0 6.5 0.5t6.5 0.5q37 0 45 -1q12 -1 40 -1q4 0 11 -1t11 -1q5 -1 11.5 0t8.5 1l15 -3q5 0 15.5 1 t15.5 1h28q4 0 6 -5l1 -2q1 -2 1.5 -4t-0.5 -4q-2 -3 -5 -3.5t-7 0t-6 0.5q-9 -1 -25 -1q-5 0 -14 -0.5t-13 -0.5q-2 0 -6 0.5t-6 0.5t-6 -0.5t-6 -0.5q-5 0 -14 1.5t-13 1.5q-3 0 -11 -1t-12 -1q-16 0 -46 2q-12 1 -43.5 0.5t-44.5 -0.5q-24 2 -42 -1z" glyph-name="bracketleft" horiz-adv-x="443" unicode="["/><glyph d="M402 -6q-6 -1 -16 4q-3 2 -4.5 10t-2.5 10q-4 7 -11 21.5t-9 19.5q-2 2 -2 5l-3 3q-5 8 -8 16q-1 3 -3.5 8.5t-4.5 8.5q-3 6 -11.5 22.5t-12.5 25.5q-8 16 -20 44q-1 2 -3.5 8t-4.5 9q-1 2 -4 7.5t-4 9.5q-2 3 -5.5 13t-6.5 15l-4 4q-6 14 -10 22q-4 6 -6 10 q-1 2 -2.5 5.5t-2.5 5.5t-5.5 9t-6.5 11q-2 2 -3.5 6t-2.5 5q-1 2 -4 6q-1 2 -2 3q-2 3 -5.5 10.5t-5.5 10.5q-4 6 -22 35t-27 46q-9 16 -25 45t-21 37q-16 28 -23 43q-4 7 -12 20.5t-11 20.5q-9 12 -25 40q-3 5 -7.5 16.5t-7.5 16.5q-3 11 0 12h2h3q2 -1 3.5 -0.5t3.5 0.5 t2 -1q4 -1 11 -15q1 -3 3.5 -8.5t3.5 -8.5q30 -52 44 -78q4 -7 19.5 -35.5t24.5 -42.5t24.5 -42.5t19.5 -35.5q24 -38 44 -71q0 -2 2 -4q1 -2 4.5 -8.5t5.5 -9.5t6 -10.5t6 -10.5q3 -4 12 -20q1 -3 3 -6.5t4 -7.5l3 -6q5 -8 11.5 -22.5t8.5 -18.5q12 -28 19 -41 q33 -73 55 -114q1 -1 1 -2.5t1 -2.5q1 -2 6 -11t8 -14q1 -2 5.5 -10t6.5 -13q1 -4 4.5 -8.5t6.5 -10.5q1 -4 -2 -7t-8 -4z" glyph-name="backslash" horiz-adv-x="435" unicode="\"/><glyph d="M29 -91q3 4 21 4q35 2 68 -1q82 -4 123 -4q14 0 21 1q36 4 143 4q1 0 9 0.5t12 1.5q2 12 2 45t2 45q1 10 2.5 43t3.5 45q2 10 2.5 22t0.5 26v21q1 13 1 36q1 4 0 14t-1 15v26q0 114 2 137q3 41 5 149v54v31q0 1 0.5 9.5t0.5 10.5q0 1 -0.5 4t-0.5 4q-1 11 -1 48 q-1 3 -7.5 2.5t-9.5 0.5q-4 0 -9.5 2t-8.5 2q-64 4 -97 5h-28.5h-35h-30.5q-18 0 -50 2h-50h-25q-3 0 -17 -1.5t-23 -2.5h-3l-2 1q-16 -2 -20 0q-4 1 -6 7t2 10q1 6 12 3q13 -1 34 1.5t30 2.5q38 2 54 2q3 0 36 -3h9q8 1 8 0h5.5h7h5.5q6 0 17.5 0.5t16.5 0.5q7 1 19 -1h9.5 h11.5h10q30 -2 44 -3q20 0 29 -1q5 0 14.5 -1t13.5 -1q2 0 12.5 1.5t15.5 1.5q12 0 21 -5q1 -1 4 -3.5t4 -4.5q7 -12 7 -30.5t-3 -41t-3 -33.5v-12q0 -1 1.5 -15t1.5 -15t-0.5 -5.5t-0.5 -6.5q-4 -32 -4 -57q0 -32 -4 -96.5t-4 -90.5q0 -22 4.5 -105.5t-0.5 -101.5 q0 -5 -1.5 -15t-2.5 -16q0 -1 -0.5 -3t-0.5 -3t0.5 -2t0.5 -3q-1 -4 -1 -11v-10q0 -4 -1 -20.5t-1 -20.5q-2 -8 -2 -12v-11q-1 -2 0 -11l1 -9v-21q-2 -21 0 -33q0 -5 -2 -8q-5 -7 -12 -7q-4 0 -8.5 -2.5t-5.5 -2.5q-8 -1 -24 1t-23 2q-63 0 -97 -4q-14 -1 -44 -1 q-9 0 -26.5 1t-25.5 1t-62 3.5t-84 1.5q-14 6 -12 17z" glyph-name="bracketright" horiz-adv-x="542" unicode="]"/><glyph d="M370 429q-14 22 -25 41q-35 57 -74 131q-3 6 -11 21t-13 23q-1 2 -8.5 14t-10.5 18q-3 10 -6 10q-1 0 -2 -1t-3 -4t-2 -4q-5 -6 -6 -10q-2 -7 -7 -12.5t-6 -7.5q-5 -7 -13 -20t-12 -19q-38 -63 -47 -81q-2 -3 -5.5 -9.5t-5.5 -9.5q-2 -2 -4 -6.5t-4 -6.5q-1 -3 -3.5 -7.5 t-3.5 -5.5q-1 -2 -4 -5q-2 -6 -3 -8l-5 -7q-4 -7 -6 -11q-12 -21 -16 -26q0 1 -5 3t-9 5l-5 2q4 8 6 11q2 2 3.5 6.5t3.5 6.5q4 8 7 12q1 3 4 8.5t5 8.5q0 1 6 10t8 14q5 7 13 21.5t12 21.5q2 3 6.5 10t6.5 11l3 6q4 6 16 26.5t19 31.5l3 6q3 4 11 14q8 14 13 20q2 6 9.5 16 t9.5 16q2 5 9 7q15 3 19 -16q1 -3 11 -24q5 -8 14.5 -25.5t10.5 -18.5q17 -30 49 -90q8 -16 13 -23q35 -61 46 -79q4 -8 -12 -15z" glyph-name="asciicircum" horiz-adv-x="428" unicode="^"/><glyph d="M226 -27q8 0 54.5 1.5t54.5 -0.5l48 -3q9 1 24 0t20 -1q42 3 44 3q20 1 65 1q19 0 22 -2l2 -4q0 -14 -4 -15q-10 -5 -45 -3t-41 2l-36 -3q-27 -2 -64 1q-5 0 -33.5 2t-43.5 2q-6 0 -19.5 -1.5t-20.5 -1.5q-1 0 -3 1h-2q-42 -3 -45 -3t-12 -0.5t-13 -0.5h-11.5t-11.5 -1 q-37 0 -48 -2q-5 -1 -15 -2t-12 -1q-21 -4 -28 2q-4 12 5 23q3 1 28 1q10 0 22 0.5t26.5 1.5t22.5 1q46 2 70 2z" glyph-name="underscore" horiz-adv-x="610" unicode="_"/><glyph d="M147 726q2 -9 -7 -11q-7 -1 -16 11l-4 4l-3 6l-4 4q-4 8 -7 11q-4 4 -10 12q0 1 -11 14q-3 4 -9.5 11.5t-9.5 11.5q-2 2 -2.5 3.5t-1.5 2.5l-2.5 2.5t-2.5 3.5t-1 4t1 3.5t2.5 2t2.5 1.5q8 1 14 -6q7 -9 25.5 -31.5t28.5 -36.5q1 -2 8.5 -9.5t8.5 -13.5z" glyph-name="grave" horiz-adv-x="203" unicode="`"/><glyph d="M1 7q0 6 10 13q1 2 5 5t6 6q13 17 22 22q2 1 6 5t7 5q1 2 5 5.5t5 5.5q12 14 19 21l1 1q1 1 1 2q25 27 76 74t71 68q1 1 5 4.5t6 5.5t10 9t12 12q12 8 24 20q7 4 25 20q4 3 11.5 10.5t11.5 10.5q7 7 21 23q5 5 14 11.5t12 9.5q2 2 6.5 5.5t6.5 5.5q3 3 9 8.5t9 8.5 q33 29 43 39q8 7 49 45q11 12 55 51q5 4 14 13q2 2 7 6t7 6q4 2 5 4l1 3l20 20q5 5 18 15.5t19 17.5q8 9 25.5 22.5t24.5 21.5q5 4 13.5 12t10.5 10t6 7.5t5 6.5q0 1 13 9q10 7 20 -5l18 -18q14 -10 21 -14q2 -3 7 -6.5t6 -4.5q3 -2 7.5 -5.5t6.5 -4.5q21 -16 26 -22 q28 -23 50 -44q2 -2 4.5 -3.5t3.5 -1.5q2 -2 8.5 -8t9.5 -9q10 -8 26 -22l27 -21q4 -3 13 -11t13 -11q16 -13 103 -87l24 -20t27 -24q7 -4 13 -12q3 -1 7 -5t7 -5q12 -12 37 -34.5t37 -33.5q3 -1 7 -5t6 -5q8 -4 19 -16t12 -13q11 -10 31 -28q6 -4 26 -22q18 -16 25 -23 q3 -2 12 -10t14 -11l49 -46l24 -20t27 -24q3 -2 8.5 -6t10 -7.5t8.5 -7.5q2 -2 7.5 -4.5t6.5 -4.5q1 -1 4.5 -3.5t5.5 -4.5t2 -6q3 -10 -6 -15t-18 1l-4 4q-1 1 -4 3q-4 3 -14 17q-41 35 -79 70q-26 24 -80 70q-21 20 -71 64.5t-76 69.5q-2 0 -4.5 3.5t-5.5 4.5 q-9 -3 -20 -3q-1 0 -6 1t-7 1t-6 1.5t-7 1.5h-13q-2 1 -6.5 1h-6.5q-3 0 -8 1.5t-6 1.5q-5 1 -15 1h-48q-8 0 -24 2q-4 0 -12.5 0.5t-12.5 1.5q-34 3 -98 5q-32 2 -49 2q-3 0 -9.5 -0.5t-10.5 -0.5t-12.5 1t-13.5 1q-8 1 -25 1q-43 2 -51 2q-15 0 -45 -2q-7 0 -21 -0.5 t-21 -0.5q-14 0 -44 1t-45 1h-47q-7 1 -21.5 2t-21.5 2q-68 2 -88 5q-3 0 -9.5 0.5t-10.5 -0.5t-8 -4t-19.5 -17.5t-24.5 -21.5q-7 -7 -22 -19t-21 -18q-3 -3 -11 -9.5t-11 -10.5q-18 -15 -20 -19q-6 -6 -13 -12.5t-15.5 -14.5t-13.5 -12q-28 -26 -42 -40q-25 -22 -40 -40 q-5 -5 -30 -32q-21 -21 -26 -25q-3 -2 -8 -7t-8 -7q-12 -12 -18 -19l-2 -4q-2 -5 -6 -5q-11 -1 -18 8zM528 349q10 -1 29 -1h28q20 -1 121 -1q7 0 25.5 1.5t28.5 0.5q18 -1 54.5 -3t54.5 -2h28t28 -1q36 -2 54 -2q11 0 38 -2.5t42 -2.5q18 -2 27 -2q20 -2 34 0q5 0 33 -2 q32 -3 38 -2q1 0 1 1q-2 3 -7.5 7.5t-7.5 6.5q-4 3 -10.5 9t-8.5 8q-1 1 -3.5 2.5t-3.5 2.5q-3 2 -7 6l-6 6q-1 1 -13 10q-2 2 -6 6.5t-6 6.5q-11 8 -14 10l-6 6q-1 0 -2 1t-2 1q-1 3 -3 3q-8 7 -53 45q-27 23 -53 44q-1 1 -25 22q-2 1 -6.5 5t-7.5 5q-75 68 -91 80 q-25 19 -28 21q-1 1 -16 13q-1 1 -3.5 2.5t-3.5 2.5q-1 0 -2.5 0.5t-2.5 1.5t-13 11q-2 1 -4.5 3.5t-5 4t-5.5 1.5q-1 -1 -11 -6q-3 -1 -5.5 -4t-4.5 -4q-3 -2 -9 -7.5t-10 -7.5l-8.5 -8.5l-8.5 -8.5q-3 0 -3 -1q-2 -1 -8 -6t-10 -7q-2 -2 -5.5 -7.5t-6.5 -7.5 q-22 -16 -25 -18q-22 -17 -27 -28q-2 -6 -4 -8q-3 -3 -10 -7.5t-9 -6.5t-5.5 -5t-5.5 -4q-15 -12 -28 -25q-11 -10 -40 -35.5t-43 -40.5q-24 -24 -27 -26q-2 -2 -7 -5.5t-7 -5.5q-3 -2 -7 -7t-6 -7q-13 -11 -15 -12l-3 -3t-4 -3q-6 -6 -4 -8q23 1 69 -2.5t60 -3.5z" glyph-name="a" horiz-adv-x="1583" unicode="a"/><glyph d="M699 420q-1 -3 3 -3.5t4 -1.5q3 -1 7 -5q10 -6 14 -9q3 -1 7 -4.5t6 -4.5q20 -20 24 -23q6 -5 11 -11q2 -3 4.5 -7.5t4.5 -7.5q1 -2 5 -6t5 -6q3 -5 6 -13.5t5 -11.5q2 -2 3 -7t2 -6q3 -5 7 -17q1 -7 5 -16q1 -3 4.5 -16t4.5 -19q5 -42 3 -56.5t-13 -45.5q-4 -11 -20 -32 q-21 -25 -34 -35q-25 -21 -40 -28q-7 -4 -33 -13q-5 -2 -59 -10q-16 -3 -63 -3q-1 0 -49 -3q-7 0 -20.5 1t-20.5 1q-7 1 -20 -1q-43 0 -65 -1q-1 0 -5 -0.5t-5 -0.5q-2 0 -5 1t-5 0q-4 0 -10.5 -1t-9.5 -1h-25q-6 0 -22 0.5t-26 -0.5q-4 0 -11 -1t-10 -1q-7 0 -19 1t-18 1 h-18q-71 0 -92 -2q-4 -1 -12 -0.5t-11 -0.5q-21 0 -22 1q-7 7 -4 18q1 2 1.5 9t2.5 10q8 76 9 113q1 7 0 21t-1 18v5q0 1 1 6q2 18 4 115q1 12 -1 34.5t-2 31.5v10q1 8 1 57q2 58 4 88v24v64v13q-2 6 -2 9q-1 4 0 11.5t1 10.5q-3 33 0 38q3 2 11 2t13 1q24 -3 46 -3 q8 -1 23.5 -0.5t22.5 0.5q10 -2 16 -2q7 -1 49 -1q25 -1 80 1q4 0 13 -1.5t15 -1.5q1 0 3.5 0.5t3.5 0.5t6.5 -0.5t6.5 -0.5q2 0 7 1t8 1q6 0 21.5 -0.5t23.5 -0.5q28 -1 56 0h105q8 -1 21 -1q0 1 6 -0.5t11 -2.5q3 -1 12 -3.5t14 -4.5q30 -13 32 -14q5 -4 15 -11t12 -9 q15 -12 24 -23q12 -14 18 -27q13 -28 14 -33v-7.5t1 -6.5q2 -8 2 -11q0 -6 -5 -31q0 -1 -1 -4.5t-1 -5.5q-2 -5 -13 -25q-9 -18 -17 -26q-7 -7 -29 -18q-2 -1 -8 -2.5t-9 -3.5q-1 -1 -7 -2.5t-8 -4.5zM117 18q7 1 22 1h153h23q24 0 66.5 1t61.5 1q6 0 20 1t21 1q9 1 24.5 0 t19.5 -1q33 0 87 4q7 1 20.5 2.5t20.5 2.5q21 5 39 12q3 0 5 1q1 1 3.5 2.5t3.5 1.5q6 2 8 3q1 1 4 2.5t4 1.5q26 15 28 18q4 4 12 14q4 5 17 20.5t19 25.5q11 28 12 43q1 24 -4 51q-7 34 -9 38q-7 20 -12 27q-1 2 -2.5 7t-3.5 7t-3.5 7.5t-2.5 7.5q0 3 -6 9q-1 2 -2.5 3.5 l-2.5 2.5q-1 0 -1 2t-1 2q-1 1 -4 7q-1 1 -2 2.5t-3 3t-3 2.5q-1 0 -3.5 3t-4.5 4l-5 5q0 1 -1 1l-1 2l-2 1q-1 1 -2 1q-8 8 -20 15q-1 0 -3 2q-4 0 -5 1q-1 0 -1 1l-1 2q0 1 -2 1t-2 1q-1 1 -4 2t-4 1q-12 5 -15 5l-20 3q-2 2 -3 2h-6q-10 2 -29 1t-29 1q-13 0 -41 2t-42 2 h-21q-30 0 -45 1q-6 0 -20 2h-22q-14 0 -28 2q-7 1 -21.5 1t-21.5 1q-7 0 -21.5 1.5t-21.5 2.5q-30 2 -46 1q0 1 -1 1q-5 0 -19 -2t-22 -3q-6 -1 -19 -1q-6 -2 -9 -2q-16 -3 -34 -1q-18 0 -23 -2q0 -3 -1 -8.5t-1 -8.5t-0.5 -8t-0.5 -6t0.5 -3t0.5 -3q0 -12 1.5 -40t0.5 -42 q0 -6 -0.5 -19.5t-1.5 -19.5q-2 -28 -3 -53q0 -11 1 -41.5t-1 -40.5q-1 -17 -3.5 -48.5t-3.5 -43.5v-7q0 -6 2 -5q5 -3 19 -1zM124 442q10 -1 62 4q5 0 16 1t17 1q5 0 17 0.5t17 0.5q8 -1 24.5 -2t21.5 -1q9 0 28.5 -2t29.5 -2q12 -2 19 -3q5 0 51 -1t67 -2q1 0 2.5 0.5 t2.5 0.5q5 0 41.5 -2.5t54.5 -1.5h10q2 2 3 2h5q9 1 23 -1q8 2 26.5 4t27.5 5q1 0 7 2t9 4q8 4 11 6q13 6 21 14q11 9 17 20q0 3 1 4q0 1 2 3l3 3q1 2 1 5q5 8 6 10q5 13 5 27q2 21 -2 30q-5 15 -13 26q-18 26 -27 36q-1 0 -5 4l-3 1q-3 1 -4 2q-2 1 -6 4t-6 4q-4 3 -11 5 l-1 2q-16 10 -34 13h-4q-1 0 -2 1t-2 1q-14 3 -31 3q-3 0 -11 -0.5t-12 -0.5q-2 0 -8.5 1.5t-10.5 0.5q-4 1 -10.5 -0.5t-9.5 -1.5q-2 0 -7 1t-8 1q-1 0 -3.5 -0.5t-3.5 -0.5q-12 0 -22 -2l-1 1h-1q-11 0 -17 -1q-12 3 -24 3q-2 0 -5 -0.5t-5 -0.5q-5 0 -17 1t-19 1 q-1 0 -3.5 -0.5t-4.5 -0.5t-4.5 0.5t-3.5 0.5q-8 0 -30 0.5t-32 0.5q-13 0 -37.5 -0.5t-44.5 -0.5t-36 1q-4 0 -16.5 2t-19.5 2q-5 0 -16 -0.5t-17 -0.5q-52 3 -53 3h-3q-2 -1 -0.5 -13.5t1.5 -15.5q2 -22 2 -30q1 -13 0 -28q0 -3 1 -14t0 -17q0 -8 -1 -23t-1 -21q0 -2 1 -7 t0 -8q0 -20 -1 -30v-28q2 -2 8 -3t8 -2z" glyph-name="b" horiz-adv-x="869" unicode="b"/><glyph d="M632 98q-1 -4 -7 -10q-1 -1 -2 -4.5t-3 -5.5q-3 -3 -9 -13q-1 -2 -3 -6.5t-4 -6.5q-14 -14 -33 -25q-5 -3 -27 -11q-5 -2 -12.5 -7t-12.5 -7q-3 -1 -9 -1t-8 -1q-4 -1 -9 -3.5t-7 -2.5t-8 -1t-9 -1q-32 -4 -83 0q-28 2 -97 15q-5 3 -17.5 5.5t-17.5 4.5q-5 0 -13 4 q-4 1 -11.5 4t-11.5 5q-1 0 -3.5 0.5t-3.5 1.5q-4 2 -14 6.5t-15 7.5q-2 0 -3 1q-12 6 -18 10q-11 6 -29 24q-6 6 -25 29q-16 20 -40 66q-3 5 -12 22q-6 19 -7 38q-2 16 -1 25q1 5 0.5 14t-0.5 13q4 50 9 72q9 38 16 65q0 1 1 1l1 2v5l2 3v5q0 2 1 4t2 5.5t2 5.5 q18 50 22 60q1 2 3.5 6t3.5 6v1q0 1 1 1q2 2 4 8q10 18 11 18l1 1q1 1 1 2q2 3 3 4q0 2 2 2l1 3q1 3 2 4q2 2 2.5 3.5t1.5 2.5q5 5 8 11q48 48 56 54q28 23 69 44q12 5 27 9l6 3q1 0 14 3q1 0 3 2t3 2q5 1 15 2t15 2q30 3 31 3q39 0 65 -5q9 -2 46 -14q26 -9 40 -19 q18 -11 22 -16q2 -1 6 -3.5t6 -4.5q9 -7 27 -23q8 -8 24 -26q5 -5 8 -14t-4 -15q-6 -3 -12 3q-1 2 -5 9t-6 9q-1 2 -6.5 6t-7.5 7q-7 9 -16 16q-35 29 -50 35q-15 8 -20 9q-3 1 -16.5 7t-20.5 8q-63 12 -105 8q-2 0 -31 -6q-1 0 -7 -1t-9 -2q-13 -4 -41 -17q-42 -20 -83 -63 q-2 -1 -5.5 -5.5t-6.5 -6.5q-1 -1 -3.5 -2.5t-3.5 -2.5l-1 -2q0 -1 -1 -1q-1 -1 -5.5 -6.5t-6.5 -8.5q-1 -1 -1 -3q-4 -4 -4 -5q-8 -11 -10 -14q-1 -2 -5 -8l-4 -8t-5 -9q-8 -10 -8 -12q-5 -19 -19 -59q-6 -16 -8 -29q-2 -6 -4.5 -16.5t-4.5 -16.5q-6 -17 -8 -30 q-7 -34 -8 -67q-2 -29 -1 -37q0 -1 2.5 -11.5t1.5 -16.5q0 -1 1.5 -1.5t0.5 -2.5q0 -4 3 -8t3 -6q2 -4 4 -18q13 -22 13 -23l12 -21q39 -66 111 -93q49 -23 105 -31q79 -14 123 -11l30 6q13 3 14 3q3 0 14 5q32 11 48 21q6 3 14.5 10.5t12.5 9.5q3 4 8 11t7 11q2 2 7.5 10.5 t8.5 11.5l6 12q0 9 9.5 10.5t13.5 -5.5q0 -1 1 -2.5t1 -2.5q-1 -7 -11 -22z" glyph-name="c" horiz-adv-x="685" unicode="c"/><glyph d="M69 11q-2 4 0 31v9q2 58 2 88v123q-2 14 -2 21t1.5 26.5t2.5 30.5q2 32 2 89.5t1 81.5q0 6 0.5 28t1.5 30v16l-1 2q-1 2 -1 3q2 19 0 90q-4 14 -3 18q3 1 25 1h22h28h25q17 1 49 1h51q1 0 98 -0.5t100 0.5q5 3 32.5 2t33.5 -1q74 2 105 2q6 0 18 -1t15 -1q44 -2 67 -5 l15 -3t14 -3q17 -2 25 -5q1 0 2 -1.5t3 -2.5t6 -2t6 -2q3 -1 14.5 -7t17.5 -8l6 -3q1 0 3 -1l2 -2q1 -1 4 -2t5 -3q1 1 4 -2l3 -3q1 -1 4 -2l3 -1q1 -1 3 -2.5t4.5 -3t3.5 -2.5t3 -2q1 0 4 -5q2 0 3 -1l9 -9q1 -1 3 -2.5t3 -2.5l1 -1q2 -1 8 -6t9 -7q5 -3 10 -10q2 -1 4 -3 t4 -4.5t3 -3.5q3 -5 9.5 -12.5t8.5 -9.5q6 -7 14 -20q1 -3 3.5 -8.5t4.5 -8.5q1 -3 4 -9l6 -15q14 -43 19 -66q3 -11 6 -29q2 -24 2 -30q4 -67 -2 -98q-6 -30 -6 -32q0 -6 -15 -46q-2 -2 -2 -5q-2 -3 -5 -11.5t-6 -12.5q-2 -3 -5 -11.5t-5 -11.5q-3 -6 -11.5 -15t-11.5 -12 q-14 -18 -22 -25t-21.5 -18t-19.5 -16q-17 -17 -43 -30q-8 -4 -26.5 -9t-20.5 -6q-18 -7 -50 -7q-11 0 -30 -2.5t-27 -2.5q-38 -2 -55 -2q-7 0 -21 0.5t-22 0.5q-16 0 -44.5 1.5t-33.5 1.5h-6q-6 0 -42 3q-15 0 -44 -1t-44 -1q-8 0 -30.5 -1t-32.5 0q-3 0 -10.5 1t-11.5 1 t-22 -1.5t-28 -0.5q-5 1 -33 1q-9 0 -26 0.5t-25 0.5q-23 0 -35 -1h-16q-2 0 -7 -1t-8 0q-6 -3 -16 -3q-18 9 -20 13zM111 24h19q3 0 9.5 -1t9.5 0q3 0 9.5 0.5t10.5 0.5q2 0 38 -3q27 0 39 -1q5 0 18 -0.5t20 -0.5q2 1 4 1h12q2 0 8 -0.5t7 -0.5l1 1h3q7 0 18 -1.5t17 -1.5 q11 0 31 0.5t28 0.5q39 2 63 1q69 -3 72 -3q17 0 39 -2q28 0 39 1q75 3 78 3q8 1 34.5 2.5t39.5 4.5q33 5 65 18q26 12 50 34q6 9 19 18q11 10 23 19q19 15 36 46q20 40 24 58q8 20 14 67q2 10 2 16q1 15 1 36v21q-1 38 -16 105q-2 9 -10 31l-5 10q-1 1 -1 2.5v3.5l-3 3 q-4 6 -6 10q-10 17 -11 20q-16 16 -19 20q-1 1 -4 4.5t-5 5.5q-3 2 -10 7.5t-10 8.5q-20 20 -38 31q-4 3 -11 7.5t-10 7.5q-11 9 -27 15q-1 1 -5.5 3.5t-7.5 2.5t-13 5q-5 3 -18 5h-5q-1 0 -2.5 1t-2.5 2q-6 2 -52 9q-35 5 -91 5q-8 0 -55.5 1.5t-57.5 -0.5h-23q-1 0 -2 0.5 t-2 0.5t-3 -0.5t-3 -0.5q-18 -2 -37 -2h-3l-2 1q-22 0 -34 -1q-16 -1 -46 -1h-89h-27.5h-31.5h-26q-17 -1 -48 -1q-35 0 -44 -2q-1 -7 0 -19.5t1 -17.5q1 -38 1 -120q0 -7 -1.5 -34t-0.5 -41q0 -4 0.5 -11t0.5 -10q0 -28 -4 -94q-1 -20 -1 -114q0 -11 -0.5 -31t-0.5 -29 q0 -4 0.5 -10t0.5 -8q0 -7 -0.5 -20t-0.5 -18q0 -4 0.5 -11.5t0.5 -14t-1 -12.5q0 -5 7 -37q4 -2 14 -2z" glyph-name="d" horiz-adv-x="1077" unicode="d"/><glyph d="M1661 687q0 -1 -5 -8q-1 -2 -2.5 -2t-4.5 1t-5 1q-10 1 -83 4h-13q-2 0 -9.5 1t-10.5 0q-18 -1 -53 0.5t-48 1.5q-3 0 -8 0.5t-8 0.5q-7 0 -19.5 -0.5t-18.5 -0.5h-2q-2 1 -3 1l-1 -1h-2t-3 1t-4 1q-3 1 -9.5 0t-8.5 -1q-30 2 -52 -2q-36 1 -73 0q-12 -1 -37.5 -1h-37.5 h-13l-3 1q-39 0 -58 -1q-50 -2 -74 -2q-14 1 -40.5 0t-34.5 -1q-50 0 -74 -1q-17 -1 -57 -0.5t-56 0.5q-17 0 -53.5 1t-56.5 0h-113q-17 0 -55.5 -0.5t-57.5 -0.5q-12 0 -75 -1t-75 0t-38 1h-39q-13 1 -37 0.5t-36 -0.5q-1 -8 1 -35q1 -21 0 -63.5t-1 -54.5q0 -101 -3 -149 q2 -1 23 -1q25 2 36 1h35q34 2 49 2q22 1 71.5 1t71.5 1q16 -1 49.5 -1.5t50.5 -0.5q8 0 24.5 1t24.5 1q24 0 74 -0.5t75 -0.5q12 0 36.5 -0.5t37.5 0.5h20h48q58 2 242 0q33 -1 100 -1q11 0 69.5 -1t66.5 0q2 0 5.5 0.5t5.5 0.5h49q16 0 48.5 0.5t48.5 0.5q33 0 50 1 q0 1 22 0h23h50q38 3 45 0q13 -4 12 -13q-1 -2 -4 -3.5t-4 -2.5q-1 -2 -12 -2h-12.5t-11.5 1q-14 -2 -21 -2q-10 0 -14 1h-5q-1 0 -3 0.5t-3 0.5q-5 0 -17 -2q-5 0 -16 1.5t-18 0.5q-2 0 -7.5 -1t-7.5 0q-3 1 -8.5 0t-7.5 -1l-12 -3q-22 4 -36 4q-6 2 -15 -1q-8 -4 -17 -4 t-21.5 1.5t-19.5 1.5h-35q-2 0 -3.5 0.5t-3.5 1t-5 0.5q-2 0 -5 -2t-5 1q-1 0 -4 -2t-5 -2q-1 0 -4.5 0.5t-5.5 0.5q-1 0 -3 2t-4 1q-7 0 -20 -0.5t-21 0.5q-5 0 -14.5 -0.5t-14.5 -0.5q-4 0 -20.5 -4t-18.5 2q-1 1 -10 1q-13 2 -17 3q-2 0 -7 -1.5t-8 -1.5t-8 2.5t-7 2.5 q-1 1 -2 0l-2 -1q-1 0 -4.5 1t-4.5 0q-3 -1 -22 2q-7 1 -21 -1h-19h-8q-1 0 -3.5 0.5t-4.5 0.5q-6 1 -15 0t-13 -1q-20 2 -25 0q-2 0 -8 1t-9 0q-4 -2 -7 -2h-7q-2 0 -6.5 -0.5t-6.5 -0.5q-5 0 -8 1q-3 3 -4 2q-20 -2 -26 -2q-13 0 -19 -1h-27q-4 0 -13.5 -1.5t-14.5 -0.5 q-13 0 -19 -2t-19.5 0.5t-16.5 2.5h-12q-14 -4 -23 -3q-4 0 -13 2.5t-16 2.5q-5 0 -10.5 -1t-9.5 -1q-15 0 -18 1q-1 4 -7 -1q-2 -1 -4 0t-4 1q-10 -2 -29 0t-28 1q-13 2 -14 1q-3 0 -16.5 0.5t-17.5 -1.5q-22 -3 -53 -1q-2 0 -5 0.5t-4 0.5t-4 -0.5t-5 -0.5h-47.5t-47.5 1 q-18 0 -63 -0.5t-69 0.5q0 1 -3 0l-4 -1q-9 -1 -29 -1h-8l-1 -1q-2 -1 -3 0q-3 1 -10.5 0t-10.5 -1q-1 0 -2 0.5t-2 0.5q-4 0 -31 -1t-40 -2q-2 -9 -2 -43q0 -17 -0.5 -48t-0.5 -56.5t1 -46.5q2 -9 0 -20v-43q0 -1 -0.5 -4.5t-0.5 -5.5q1 -3 1 -10v-61q3 -1 12 0t12 1 q9 0 31 -0.5t35 -0.5q33 0 101.5 -1t102.5 -1q32 0 97.5 1.5t100.5 1.5h198q23 -1 136 -1q27 0 84 -1t101 -0.5t84 2.5h24q16 0 52 2q2 0 6 0.5t6 0.5q3 0 7 -0.5t6 -0.5q8 0 25.5 1t26.5 1q12 0 75.5 -1t75.5 0q14 1 40 0.5t37 -0.5q1 0 3 -0.5t3 -0.5t2.5 0.5t2.5 0.5h11 q2 0 6 1.5t6 1.5q3 0 6.5 -1.5t6.5 -1.5q2 0 9 0.5t7 -0.5q4 -1 8 -6.5t2 -10.5q-1 -3 -4 -3.5t-6 0t-6 -0.5h-58q-14 1 -40.5 0t-34.5 -1q-3 0 -9 0.5t-10 0.5q-3 0 -9 -0.5t-9 -0.5h-18h-20q-6 0 -18.5 0.5t-18.5 1.5l-3 2q-2 1 -6.5 -0.5t-7.5 -1.5q-2 0 -8 1.5t-9 0.5 t-16 -1q-6 2 -14 0q-11 0 -16 -1q-2 0 -4.5 -0.5t-5.5 -1.5t-5 -1t-9.5 1t-10.5 0q-20 0 -30 1q-6 -1 -68 -4q-13 0 -35 -2q-6 0 -17 0.5t-16 0.5q-2 0 -5 -0.5t-4 -0.5q-3 0 -11.5 0.5t-12.5 0.5h-17q-3 0 -7 0.5t-5 0.5h-37q-3 0 -9 -0.5t-9 -0.5q-2 0 -6.5 1.5t-6.5 0.5 q-21 -1 -55.5 -1h-55.5h-6q-8 0 -24.5 1t-24.5 1q-1 0 -3 -0.5t-4 -0.5t-9.5 0.5t-11.5 0.5q-18 0 -28 -1q-1 0 -3 0.5t-4 0.5q-30 0 -40 -1q-5 0 -17 0.5t-17 0.5h-12q-5 1 -14 1q-1 0 -6 -0.5t-6 -0.5h-5q-6 0 -17 0.5t-17 0.5q0 -1 -1 -1h-7l-2 1q-4 0 -12 -2h-29 q-50 -2 -228.5 -1.5t-229.5 0.5q-3 1 -6 3.5t-5 3.5q-2 3 0 10q1 10 1 74q0 178 1 265q0 1 -1 6.5t0 9.5q1 1 1 2v22q0 119 2 175v90q0 5 -1 19t0 22q1 2 11.5 0.5t12.5 -1.5q1 -1 3 0t3 1q2 0 7.5 -1t8.5 -1q8 -1 22 0t19 1q10 0 29.5 -0.5t28.5 -0.5q4 -1 10.5 0t9.5 1 h5.5h7h6.5q11 0 16 -1q51 -1 154 1q26 1 78 1q53 -2 79 -1h80t80 1q18 0 61.5 -0.5t61.5 0.5q7 0 20 0.5t20 0.5q32 0 97 2t99 2h31l2 1h2q2 0 10.5 -0.5t12.5 -0.5q2 1 4 1h32q9 0 46.5 -0.5t49.5 1.5q28 2 84 2q5 0 16.5 -0.5t17.5 -0.5q5 0 16 -0.5t17 -0.5 q28 -1 94 -1.5t104 -3.5q12 0 15 -3q4 -4 4 -6q0 -1 1.5 -3t0.5 -3z" glyph-name="e" horiz-adv-x="1695" unicode="e"/><glyph d="M72 704h36q5 0 17 -2h9q8 1 8 0q5 0 17 -2q9 -1 25 -1.5t25 -0.5q11 0 34.5 0.5t35.5 -0.5q12 0 33.5 -1t32.5 -2q88 -4 133 -1q6 1 100 3h31q50 3 94 2q75 -3 155 -3h78q28 -1 84 -1q3 0 14.5 -1t19.5 0h1l1 1q3 -1 21 -1h20q11 0 31.5 1t30.5 1q54 3 60 3q39 0 123 2 q13 1 41.5 0t36.5 -1q2 0 16.5 1t22.5 0q13 0 14 -1l1 -2q10 -5 7 -14q-3 -8 -21 -4q-36 -2 -52 -1q-4 0 -4 1q-1 0 -2 -1t-2 0q-2 0 -19.5 1.5t-21.5 -0.5q-4 -1 -15 1q-1 0 -3.5 -0.5t-3.5 -0.5q-6 -1 -21 0t-20 1q-6 -1 -17 -1q-21 -2 -45 0q-2 0 -4.5 -1t-3.5 -1 q-2 -1 -4 0t-3 1q-3 0 -8 -0.5t-8 -0.5q-4 -1 -6 1q0 -1 -10 -1q-5 -1 -16 -1q-51 -5 -135 -3q-63 3 -65 3t-7 -1t-7 -1q-10 2 -16 3l-3 -1q-3 -1 -5 0q-5 0 -20 0.5t-20 0.5q-6 -1 -17 -1q-1 0 -2 0.5t-2 0.5q-21 -2 -36 -1h-22q-9 -1 -26 1q-24 0 -38 1q-4 0 -15.5 -1 t-17.5 0q-4 0 -9 0.5t-11.5 1.5t-9.5 1q-5 0 -15 -0.5t-16 -0.5q-46 -2 -59 -5q-57 3 -125 -2q-44 -2 -132 2q-2 0 -64 3q-35 0 -53 1q-1 0 -3 -1h-2l-1 1l-1 -1q-1 -1 -2 0q-20 0 -62 4q-7 0 -27.5 2.5t-31.5 1.5q-5 0 -2 -17q1 -3 1 -8t1 -7q1 -3 1 -9v-9v-53q0 -48 1 -71 q0 -2 1 -8t1 -8q1 -9 -0.5 -27t-1.5 -26q1 -23 3 -67q3 -1 20 -1q25 0 150 5q17 1 48.5 0t41.5 -1q14 0 40 -0.5t48 -1t42 -1.5h4q11 -1 38 -1q58 -4 86 -3q130 3 266 3q4 0 11.5 0.5t10.5 0.5q10 0 32 -0.5t33 -0.5q29 0 88 1t89 1q15 0 61 1t70 0q0 -1 22 0h22q59 0 88 1 q2 0 5.5 -0.5t5.5 -0.5q8 1 26.5 1.5t27.5 0.5q16 0 18 -2q2 0 2.5 -3t1.5 -4q0 -2 1.5 -5t-0.5 -4q1 -2 -3 -2q-2 0 -3 -1q-1 -3 -11 -2t-11 1q-3 1 -8.5 -0.5t-7.5 -1.5t-8 1t-7 0q-18 -5 -31 -3q-4 0 -15.5 -0.5t-16.5 0.5q-2 0 -6.5 0.5t-8.5 1t-6 1.5q-2 -1 -12 -1 q-2 0 -6 -0.5t-6 -0.5q-4 0 -12 1.5t-12 1.5h-24q-4 0 -12 -0.5t-12 -0.5q-18 0 -20 -1q-1 1 -17 0h-16q-2 0 -4.5 0.5t-3.5 0.5q-3 0 -10.5 -1.5t-12.5 -0.5q-14 2 -42 2q-4 0 -11 -0.5t-10 -0.5q-9 0 -28 -0.5t-30 -0.5h-9q-8 0 -22.5 -0.5t-22.5 -0.5q-3 0 -9.5 0.5 t-9.5 0.5h-22h-23q-2 0 -5.5 -0.5t-5.5 -0.5q-22 -1 -65 1h-22q-36 2 -54 0q-7 -1 -19 -1q-4 0 -10 -0.5t-10 -0.5h-39h-19q-9 -1 -31 -1.5t-33 -0.5q-14 -1 -44 1q-15 1 -44 2t-43 2q-15 1 -45 1q-15 0 -43.5 1t-42.5 1q-16 0 -45.5 0.5t-44.5 0.5q-42 0 -84 -3t-85 -3 q0 -27 2 -69q1 -3 -1.5 -8.5t-1.5 -6.5q3 -4 3 -5q0 -5 1 -20t0 -24q0 -3 2 -23q-2 -16 0 -46q0 -2 0.5 -6.5t0.5 -6.5q0 -1 -0.5 -5t-0.5 -6q0 -7 2 -23q0 -1 -0.5 -3t-0.5 -3q0 -2 1 -8t1 -9q0 -2 -1 -9.5t0 -11.5q0 -3 0.5 -10t0.5 -11q0 -2 1 -8.5t0 -11.5q0 -18 -4 -20 q-9 -5 -19 -1q-3 2 -3.5 5t0.5 7.5t1 6.5q1 29 -0.5 85.5t-1.5 72.5q0 8 -0.5 23.5t-0.5 23.5q-3 120 -4 132q-2 14 -3 42.5t-2 43.5q-1 14 0.5 44t0.5 45q0 4 -1 11t-1 10t-0.5 9.5t-0.5 8.5q0 1 1 3v1q0 54 -1 66v13q0 2 -1 5t-1 4q-1 3 -1.5 10.5t-0.5 11.5q-2 14 2 19 q2 2 3 2z" glyph-name="f" horiz-adv-x="1542" unicode="f"/><glyph d="M679 626q-8 -1 -17 2q-2 1 -3 1l-2 2t-2.5 2t-2.5 2t-1 3q-3 2 -12 7t-14 10q-5 1 -31 13q-48 17 -68 20q-7 0 -20 2.5t-18 2.5q-7 0 -20.5 0.5t-19.5 0.5q-18 0 -44 -3l-1 -1h-2q-1 2 -3 0q-2 0 -7.5 -1.5t-8.5 -1.5q-4 0 -12.5 -0.5t-12.5 -1.5q-20 -4 -26 -7 q-1 0 -3.5 -1t-3.5 -2q-8 -7 -15 -9q-14 -1 -27 -9q-15 -6 -24 -9q-26 -18 -36 -27q-2 -1 -4 -5q-2 0 -3 -2q-1 0 -2.5 -1.5t-2.5 -1.5q-2 0 -3 -3q-4 -3 -8.5 -7.5t-9.5 -10t-8 -8.5q-7 -6 -7 -8q-1 -1 -3 -4.5t-4 -5.5h-1q-2 0 -2 -1v-1q0 -1 -1 -2h-2q-1 -1 -1 -2 q-3 -4 -12 -17t-14 -19q-36 -56 -42 -82q-13 -28 -21 -68q0 -3 -3 -10.5t-3 -12.5q0 -27 -1 -41q-5 -55 18 -114q2 -6 6 -16q0 -3 1 -5t2.5 -4.5t2.5 -4.5q2 -2 6 -10q2 -3 5.5 -8.5t5.5 -8.5q5 -9 24 -31q3 -3 8.5 -7.5t8.5 -7.5q12 -6 34 -22q36 -19 41 -23q18 -3 22 -7 l20 -7q6 0 14 -3t11 -3q7 -3 54 -10q14 -4 19 -4q5 -1 15 0t12 1q25 -3 29 -2q15 1 36 6q6 1 18 2.5t18 2.5q39 5 64 17q12 7 23 16q4 3 7.5 6t8 6l7.5 5q6 4 13.5 15t11.5 15q4 7 11 16q8 13 9 16q3 5 7 21l2.5 5t1.5 4q1 1 1 1.5v1.5q1 2 4 18l1 3q1 3 2 7t1 7 q0 2 2.5 11.5t2.5 15.5l-1 3q-1 3 0 5q0 2 2 12.5t3 16.5q0 2 0.5 5.5t1.5 5.5q0 5 1.5 17.5t1.5 18.5q-1 6 -1 23l1 8q2 7 0 10q0 11 -2 14q-3 3 -12 3t-13 1q-10 1 -28.5 -0.5t-26.5 -1.5q-11 -2 -24 0q-12 0 -35 1t-34 1q-9 0 -26 -2t-23 -2h-22.5t-23.5 -1 q-10 -2 -44 -1t-46 1q-7 0 -32.5 -2.5t-40.5 -1.5q-13 -2 -20 5q-7 4 -5 2q-1 1 -1 3q1 5 13 7q1 0 3.5 -0.5t3.5 -0.5q33 0 39 1q16 2 46 3.5t37 1.5q56 -1 111 3q12 1 26.5 1t31.5 -0.5t26 -0.5q5 0 14.5 0.5t14.5 0.5q4 0 13.5 -0.5t14.5 0.5q14 2 22 2q1 0 3 -1 q38 4 44 3q6 -2 10 -4q7 -2 9 -14q0 -5 2 -11t2 -10q1 -3 -1 -8t-2 -6q-1 -13 -3 -33q-1 -9 -1 -17q0 -14 -1 -19t-1 -17q0 -2 -1.5 -9t-2.5 -11q0 -5 -2.5 -15.5t-3.5 -16.5q0 -19 -5 -33q-5 -19 -9 -26l-2 -5q-3 -4 -4 -7q0 -2 -0.5 -4t-1.5 -4t-1 -4q-1 -3 -6 -7t-6 -6 l-4 -6q-2 -2 -2 -4t-1 -4q-2 -5 -5 -8.5t-6 -5.5l-3 -1q0 -1 -1 -1l-1 -2q-2 -1 -3.5 -3t-3.5 -3t-7.5 -6.5t-8.5 -7.5q-15 -13 -35 -27q-6 -4 -41 -14q-13 -3 -39.5 -7.5t-35.5 -6.5q-2 0 -24.5 -3t-32.5 -4q-4 0 -10 1t-10 1q-13 0 -18 3q-9 -1 -21.5 1.5t-18.5 2.5l-36 9 l-21 6q-9 0 -15 2q-1 1 -7 4.5t-11 4.5q-2 1 -8.5 2t-12 3t-8.5 6q-3 3 -5 4q-4 2 -5 3q-4 6 -12 6q0 1 -2 1h-2v1q0 1 -1 1q-2 1 -7 5t-8 5q-2 2 -7 5t-7 5q0 1 -3 2t-3 2q-4 2 -16 14q-16 16 -25 26q-7 7 -9 10q-5 5 -19 34q-7 8 -8 17q-2 10 -4 12q0 3 -1 4q-2 4 -5 13 t-4 13q-1 3 -2.5 11t-2.5 11q-4 24 -2 98q0 12 5 30.5t6 25.5q1 4 4 12.5t4 12.5q3 12 9 24q4 16 19 47q1 2 10 13q2 3 4.5 8t4.5 8q3 5 9.5 14t8.5 13q4 4 10 14t10 14q8 9 23 24q26 26 51 44q3 2 12.5 9t15.5 11q9 4 16 9q34 16 46 18q2 2 8 3.5t7 2.5q8 3 34 7q9 1 39 4 q51 4 97 3q4 0 10 -1.5t9 -1.5q4 0 8 -2q6 0 8 -1q3 0 32 -6q5 -2 15.5 -5.5t15.5 -5.5q5 -1 15 -4.5t14 -4.5q38 -17 53 -32q1 -1 0 -3.5t0 -3.5q0 -1 1 -2.5t1 -2.5q0 -8 -2 -10z" glyph-name="g" horiz-adv-x="756" unicode="g"/><glyph d="M642 0q-4 -5 -14.5 -4.5t-14.5 5.5q-3 9 2 36v76v10q-1 10 -1 45t1 48q0 3 0.5 9.5t0.5 9.5q1 0 0 11v10q0 3 1 8.5t2 8.5v21q0 7 2 27t1 31q-18 5 -64 5q-22 1 -64 -1h-17q-2 0 -9 -0.5t-10 -0.5q-2 0 -11 -0.5t-14 -0.5h-128q-27 -3 -28 -3t-4 0.5t-4 0.5h-14h-3l-2 -1 l-1 1q-5 0 -15.5 -1t-14.5 -1q-31 -1 -61 0q-12 0 -30 2q-24 2 -29 1q-2 0 -2 -8q-8 -159 -4 -312q-1 -3 1.5 -16.5t-1.5 -16.5q-5 -4 -13.5 -3t-12.5 5q-2 5 1 15q1 9 1 100q0 116 3 179t3 123v47q0 5 1 18.5t0 21.5q0 7 -2 18.5t-2 16.5q-2 56 -2 79q0 39 -1 62q0 16 1 18 q8 3 19 -2q5 -5 3 -20q0 -7 2 -23v-22v-23q0 -42 3 -86q2 -32 1 -70.5t0 -72.5q9 -4 31 -6q16 -2 58 -2q22 -1 73 3h30q10 0 30 2q21 1 63 0.5t63 0.5q8 0 34.5 0.5t40.5 1.5q1 0 4 0.5t4 0.5t3 -0.5t3 -0.5q5 0 15 0.5t15 0.5q38 0 57 2q1 13 1.5 36t0.5 31q0 1 -0.5 6.5 t-0.5 8.5q1 1 1 2q-1 2 -1 12q0 20 0.5 46t-0.5 47q0 5 -1.5 15.5t-2.5 16.5q0 5 0.5 17.5t0.5 18.5q2 39 1 50q-1 9 3 13q7 5 22 -2q0 -2 1 -4t1 -3q0 -4 -2 -8q-3 -40 -2 -77q1 -23 1.5 -45.5t1.5 -46.5q1 -15 1 -43q0 -3 -0.5 -8.5t-0.5 -9.5q1 -13 1 -45q1 -12 -0.5 -34 t-1.5 -30q2 -12 1 -18q0 -5 -2 -15q0 -5 -0.5 -22t-1.5 -27q0 -9 -2 -21q-3 -73 -1 -178l1 -3l-1 -1v-2q0 -2 2.5 -12t1.5 -15q3 -28 -2 -34z" glyph-name="h" horiz-adv-x="715" unicode="h"/><glyph d="M98 2q-3 -4 -11.5 -4t-12.5 2q-2 7 1 33q1 11 1 32.5v32.5q1 21 1.5 62.5t0.5 63.5v24v1q-1 1 -1 2v9v13v10q0 10 2 26q1 13 1 40t1 40q0 2 -0.5 6t-0.5 5q0 5 0.5 23.5t0.5 25.5q0 9 -1 25t-1 25v37v39q1 13 1.5 40t0.5 40q0 27 -1 39q0 10 1 11q19 5 22 -11q2 -7 2 -35 q0 -11 -0.5 -35.5t-1.5 -34.5v-69q1 -12 1 -36.5t1 -34.5q2 -40 -2 -92v-40t-1 -41v-54q0 -75 -1 -106q-2 -29 -2 -88q0 -2 1 -13.5t-2 -12.5z" glyph-name="i" horiz-adv-x="178" unicode="i"/><glyph d="M685 703q5 1 17 -9q-2 -16 -2 -62q0 -4 -0.5 -10t-0.5 -9q2 -32 2 -48v-6q0 -1 1 -3t0 -3v-15q0 -4 1 -20t0 -25q0 -8 -0.5 -23.5t-0.5 -22.5q0 -10 -1 -12q3 -19 -1 -48q-5 -46 -6 -48q0 -22 -2 -27q0 -9 -1 -11q-2 -4 -2 -12.5v-10.5q-2 -4 -2 -5q-1 -3 -1 -8t-1 -7 q-2 -4 -2 -6q-1 -2 -1 -6q-4 -18 -14 -50q-2 -3 -3.5 -10.5t-3.5 -10.5q-5 -21 -5 -23q-6 -8 -6 -16q-6 -6 -9 -13q-2 -9 -13 -30q-1 -3 -4.5 -7t-4.5 -6q-2 -1 -4 -6t-5 -7q-1 -3 -13 -18l-1 -1v-1q-13 -13 -15 -14q-5 -7 -21 -16l-12 -6q-4 -2 -13.5 -4t-13.5 -3 q-16 -6 -54 -12q-13 0 -45.5 -2t-50.5 -1q-3 0 -8.5 0.5t-7.5 0.5h-25q-1 0 -2 0.5t-2 0.5t-2 -1h-2l-54 6q-46 4 -66 13q-26 10 -54 26q-36 22 -47 32q-2 1 -21 20q-1 2 -8 9.5t-9 12.5q-12 12 -31 48q-9 18 -20 51q-11 32 -9 58q-6 10 3 14q13 5 20 -6v-13t1 -12 q3 -30 13 -54q10 -27 21 -46q1 -3 12 -19q6 -8 43 -48q2 -1 17 -12t24 -15q20 -14 43 -24q29 -15 83 -18q30 -4 46 -5q87 -4 139 3q23 4 38 7q9 1 24 7q18 7 25 13q2 1 3.5 3t3.5 3q2 0 5 5q1 1 5 4.5t6 5.5q1 1 3 5q1 1 3.5 4t3.5 4l3 6l12 18q5 9 21 40q7 17 16 45 q1 6 6.5 21.5t7.5 25.5q5 17 11 51q1 4 2 13t2 14t1.5 14t0.5 14q3 30 7 85q3 36 3 37q-1 5 1 20q0 2 -1 4t-1 4t1 6.5t1 6.5v1q-1 3 0 5q0 5 -1 16t-1 16q0 22 -1 32q-1 32 -1 106q0 26 2 29q1 0 2.5 0.5t2.5 0.5z" glyph-name="j" horiz-adv-x="748" unicode="j"/><glyph d="M709 1q-6 -1 -28 7q-8 14 -9 16q-3 2 -27 26l-15 12q-1 1 -4 3.5t-5 5t-4 4.5q-5 4 -27 26q-23 20 -27 25q-5 4 -14.5 13t-13.5 12l-2 2t-2 1q-11 9 -17 16q-2 2 -5.5 5t-5.5 4q-2 2 -7 6t-7 6q-36 30 -38 32q-1 0 -5 4q-3 2 -11 8q-2 1 -5.5 4t-4.5 5q-2 2 -6 4.5 t-6 3.5q-9 9 -14 13q-1 1 -14 11q-1 1 -4 2.5l-5 2.5q-1 1 -3.5 4t-5 5t-4.5 4l-5 2.5t-4 2.5l-1 1q-1 2 -2 3l-4 2q-4 4 -7 6l-6 6q-3 2 -8.5 6t-7.5 6q-2 1 -6.5 5.5t-7.5 5.5q-4 6 -14.5 14t-13.5 11q-10 5 -14 12q-4 1 -8 6t-7 6q-2 3 -7 7t-6 5l-15 12l-9 -6 q-22 -14 -25 -16q-2 -1 -4 -3t-4 -3q-1 -1 -3 -1l-1 -2l-4 -2l-2 -2q-1 -2 -2 -3t-2 -1t-2 -1q0 -2 -1 -3q-4 -4 -4 -5q-6 -1 -15 -10l-3 -1q-1 0 -2.5 -2t-2.5 -3q0 -1 -4 -3q-3 -2 -8 -7.5t-8 -7.5l-4 -2l-3 -3t-4 -3.5t-3 -3.5q0 -14 -2 -82t-4 -104q0 -6 -0.5 -17 t-0.5 -16q0 -4 -1 -17t0 -18q3 -29 1 -35q5 -20 2 -29q-8 -6 -10 -6q-10 0 -16 8q-1 2 -1 7t2 7q-2 37 0.5 111t2.5 95q0 2 1.5 31.5t1.5 44.5q2 11 0.5 79.5t-1.5 78.5q-2 50 -4 74q0 9 1.5 27t0.5 29q-1 13 -1 36v38q0 3 0.5 8t0.5 8t-0.5 8t-0.5 8q0 1 -1 3.5t-0.5 4.5 t2.5 4q3 3 18 -3q3 -7 5 -49q0 -8 -1 -24t0 -23q0 -10 -0.5 -37t0.5 -38q2 -14 2 -21q0 -3 -0.5 -7t-0.5 -6q0 -1 3 -61v-9.5v-12v-10.5q1 -9 1 -27q0 -20 1 -24q3 -2 6.5 1.5t5.5 3.5q2 2 5 4.5t4 3.5q14 10 17 18q9 3 27 19q3 1 6.5 3.5t4.5 3.5t3 2t3 2l4 4l6 3q2 1 4 3 t4 3q1 1 3.5 2.5t3.5 2.5q6 4 20 13t21 15q18 13 56 37q3 3 7 5q3 2 8.5 5t7.5 5l4 2l3 3q1 0 2.5 1t3 1.5t2.5 1.5l3 3q2 2 8 5l8 4l3 3q2 2 5.5 4t5.5 4q2 1 3.5 2.5t3.5 2.5q7 4 21 14t20 14l4 2l3 3q1 1 4 2t4 2t3.5 2.5t3.5 2.5q3 2 8 5t8 5q2 0 4 2q3 2 15.5 10 t18.5 11q1 1 4 2.5t4 2.5q1 0 8 5q1 0 2 1l6 3q11 6 21 15q14 8 21 13q3 1 9 5q2 0 3 1l8 8q9 2 21 9l5 5q9 5 10 9q4 4 12.5 6t14.5 -3q9 0 9 -8q1 -4 -8 -11q0 -1 -10 -7q-30 -12 -41 -23q-2 0 -23 -11q-6 -4 -11 -7q-12 -9 -13 -10t-4 -2.5t-4 -2.5q-2 -1 -8.5 -4.5 t-9.5 -5.5q-22 -13 -29 -16q-7 -7 -19 -12l-9 -6q-3 -2 -12.5 -8.5t-15.5 -9.5q-26 -18 -34 -26q-8 -4 -43 -26q-2 -2 -5.5 -4.5t-5.5 -3.5q-1 -1 -4 -2.5t-4 -2.5q-3 -1 -10.5 -6t-11.5 -7q0 -1 -3 -1q-4 -2 -18.5 -12.5t-23.5 -15.5q-6 -6 -20 -15t-20 -15 q4 -6 14.5 -14.5t14.5 -12.5q9 -9 14 -13q2 -2 7.5 -6t8.5 -6q8 -8 30 -26q20 -16 31 -23q9 -9 15 -13q1 -1 3.5 -3t3.5 -4l6 -3q2 -2 4 -3l4 -4q1 0 2.5 -1t2.5 -1q2 -1 4 -3t4.5 -5t3.5 -4q2 -1 4 -3q3 -2 15 -12t20 -15q4 -6 15 -13t15 -11q3 -3 9.5 -8t9.5 -8l3 -3l1 -2 q0 -1 2 -1h1l5 -5l6 -6q9 -6 10 -7l3 -3l1 -2q0 -1 1 -1h2q2 0 2 -2l8 -8t10 -9q1 0 3.5 -2.5t4.5 -3.5q0 -2 3 -3.5t3 -3.5q33 -27 58 -53q6 -4 8 -6q6 -5 23 -21t27 -24q3 -2 7 -7t8 -7q8 -4 12.5 -12t-1.5 -17z" glyph-name="k" horiz-adv-x="724" unicode="k"/><glyph d="M598 11v-2q-3 -7 -14 -7h-7q-4 0 -12.5 -1t-12.5 -1t-12 0.5t-13 0.5h-37q-28 3 -36 2q-8 0 -24.5 -2t-23.5 -2h-49q-34 2 -49 2q-3 0 -9 -0.5t-9 -0.5h-68q-3 0 -9.5 -2t-9.5 -2t-8 1.5t-9 0.5h-27q-3 0 -11 -1t-11 -1q-6 0 -18 1t-18 1q-3 0 -9.5 -1t-9.5 0q-4 0 -15 9 q-1 1 0 9.5t1 9.5q-2 8 -2 16q2 13 2 62v9q0 15 1 46t1 47q0 43 3 86q1 14 1 41.5v41.5q0 13 3.5 73.5t3.5 92.5v63.5t-1 61.5v10t-1 10q-3 17 -2 18q10 2 11 2l11 -3q1 -1 1 -9q0 -5 2 -15.5t2 -15.5q0 -27 1 -41v-46v-44q-1 -31 -4 -89.5t-4 -80.5q0 -2 1 -9.5t0 -11.5 q-3 -102 -3 -109v-12.5v-15.5v-11v-5q0 -14 -2 -42q0 -3 0.5 -10.5t0.5 -11.5q0 -10 -0.5 -32.5t-0.5 -34.5q0 -4 1 -11t1 -10l-1 -3q0 -4 1 -6q1 -1 2 -3.5t1 -4.5q3 -2 19 -2q3 0 9.5 -0.5t10.5 -0.5q7 0 19 2h22q3 0 9 1.5t8 1.5q3 1 10.5 -0.5t10.5 -1.5q6 -1 16.5 0 t14.5 1h89q0 -1 1 -1h1q2 1 3 1q42 -2 62 0q5 1 15 1t15 1q44 2 67 2h18q6 1 18 1h19q2 0 4.5 1t3.5 1h3l1 -1q1 0 2 0.5t2 0.5q2 0 8 -2h4t4 -1l1 -2q9 -5 10 -10z" glyph-name="l" horiz-adv-x="599" unicode="l"/><glyph d="M1274 704q3 -7 3 -30q0 -42 1 -64q3 -42 3 -94q0 -5 0.5 -15t0.5 -16v-30q0 -2 1 -11.5t0 -14.5v-24v-49q2 -34 3 -52q0 -13 0.5 -40.5t0.5 -39.5q-1 -4 -1 -11q-2 -28 0 -60q0 -11 0.5 -31t1 -36.5t1.5 -31.5q-3 -5 -1.5 -25t0.5 -26q-2 0 -5 -2.5t-6 -2.5 q-1 0 -4.5 1.5t-5.5 1.5q-1 1 -1 20v71q0 9 -1 25.5t-1.5 30t-0.5 25.5q0 14 0.5 42t0.5 41v47q0 27 -1 41t-1 86q0 31 -4 115t-3 130q-2 2 -5 -1q-2 -2 -3 -2q-1 -2 -7 -7.5t-8 -10.5q-4 -3 -13 -14q-1 -1 -2.5 -3t-3.5 -4q-2 -4 -5 -7l-8 -8q-1 -1 -5.5 -5t-5.5 -8 q-17 -17 -20 -25q-1 0 -5 -2t-5 -4l-3 -6t-4 -5q0 -1 -1 -1l-2 -1q-8 -11 -10 -12q-1 0 -6 -8q-9 -9 -27 -29q-4 -2 -5 -4q-1 -1 -1 -3l-7.5 -7.5t-8.5 -9.5q-2 -3 -8 -9q-11 -11 -13 -14q-12 -9 -23 -25q-1 -2 -4 -5.5t-5 -5.5l-9 -9q-2 -2 -4.5 -5.5t-3.5 -4.5l-18 -21 q-3 -6 -8 -10q-6 -8 -9 -9q-12 -24 -41 -51q-2 -3 -6.5 -10t-6.5 -11q-1 -1 -3.5 -2.5t-3.5 -2.5q-1 0 -2.5 -2.5t-3.5 -2.5t-3.5 -3t-3.5 -3l-3 -2q-2 -2 -4 -2q0 -3 -2 -4q-2 -2 -1 -4q-1 -2 -5 -4q-4 -7 -5 -13q-10 -8 -14 -14l-12 -6q-1 -3 -8 -8q-1 -2 -4.5 -6t-4.5 -7 q-6 -11 -7 -13q0 -2 -1 -3t-2.5 -1.5t-2.5 -1.5t-2.5 -3.5t-3 -4.5t-2.5 -4q-3 -2 -8 -7.5t-9 -7.5q-1 -4 -5.5 -9t-5.5 -8l-1 -2q-1 -2 -2 -3q-2 -1 -4.5 -5t-4.5 -5q-1 -2 -4 -5l-4 -4q-1 -2 -9 -10q0 -1 -8 -9q-2 -4 -8 -10t-8 -10q-4 -2 -9.5 -9.5t-7.5 -9.5q0 -1 -6 -7 q-2 -4 -8 -14q-3 -1 -5 -4.5t-4 -4.5q-21 -37 -41 -30q-3 1 -6 4l-1 1q0 2 -1 2q0 2 -2 2q-5 11 -7 12q-2 4 -8 11.5t-8 10.5l-7 9l-2 2l-3 6l-2 1q-1 0 -1 1l-1 1v2q-1 2 -3.5 4.5l-3.5 3.5q-1 2 -3 4q-1 1 -3 4.5t-4 5.5q-4 5 -15 20t-17 23q-3 6 -8 11q-1 1 -2 3t-2 3 l-3 6q-1 1 -3 3.5t-3 3.5q0 1 -1 2t-1 2q-1 1 -2 3t-2 3l-3 3q0 2 -1 3l-5 5l-3 6q-10 15 -25 31q-5 9 -16.5 23t-15.5 20q-8 9 -22 26t-25.5 30t-23.5 24q-1 2 -9 10q-4 5 -12 13t-10 11q-16 17 -34 35t-43 41.5t-36 34.5q-4 4 -24 22q-3 4 -11 12q-9 9 -10 11 q-7 5 -19 18.5t-19 18.5q-2 3 -7 8.5t-7 7.5q-2 0 -2 1v2q-2 0 -3 1l-9 9q-2 2 -5 5.5t-4 4.5q-1 2 -5 5t-5 5q-2 1 -4.5 4.5t-3.5 5.5l-9 9q-7 9 -10 10q0 -25 2 -67q2 -21 -1 -64t-2 -65q1 -4 1 -12q0 -1 -0.5 -9t-0.5 -10v-11l1 -3q0 -2 -1 -7.5t-1 -8.5q0 -1 1 -5t1 -6 q1 -2 0 -6t-1 -5q0 -3 1 -10.5t0 -12.5q2 -16 3 -49.5t3 -52.5q0 -6 -0.5 -18t0.5 -19q0 -2 -1 -17t0 -20q0 -6 -0.5 -16t-0.5 -15l3 -72q0 -22 1 -33q2 -29 2 -35q-2 0 -8 -6q-10 0 -12 2l-3 8q0 9 -0.5 25.5t-1 30t-1.5 25.5q-1 13 -1 40.5t-1 41.5q-1 13 0 44.5t1 42.5 q-5 132 -5 160q0 14 1 41.5t1 41.5v79q-2 26 -2 40q-1 6 -1 20v20q0 3 -1.5 11.5t-2 12.5t0.5 12q8 4 13 3q2 -2 6.5 -0.5t5.5 -0.5q7 0 5 -8q25 -36 78 -89q24 -26 37 -39q6 -7 19 -19.5t18 -18.5q3 -1 6 -5t5 -5q1 -1 3 -2.5t3.5 -3t2.5 -3.5q8 -6 22 -20l17 -17 q4 -2 10 -9t10 -9q1 -1 3.5 -4t3.5 -4q2 -2 4.5 -5t6.5 -6.5t6 -5.5l11.5 -11.5l11.5 -11.5q2 -2 6.5 -7t7.5 -8q9 -9 14 -13q2 -2 6.5 -7.5t7.5 -8.5l2 -2q2 -1 3 -2t2 -3t2 -3l3 -3l2 -1q1 -1 2.5 -3t3 -4.5t2.5 -3.5q10 -9 19 -19q12 -14 18 -20q16 -24 34 -42 q0 -2 8 -12q2 -2 4 -5t4 -5q1 -3 6 -8q1 -1 1 -3q1 -1 3 -1q0 -3 1 -3l2 -2q0 -1 2 -5l2 -2q1 -1 3.5 -4.5t3.5 -4.5q4 -6 11.5 -17t11.5 -17q2 -4 7.5 -11t7.5 -12q15 -21 16 -22q0 -2 3 -5.5t4 -6.5q6 -6 8 -10q1 -2 7.5 -9.5t8.5 -13.5q6 -4 11 -13q0 -1 1 -2t3 -2.5 t3 -2.5q0 -3 3.5 -6.5t3.5 -4.5q2 -1 4.5 -5t5.5 -4q3 1 5.5 5.5t3.5 5.5q6 6 6 14q15 13 18 20q2 2 5.5 6t6.5 7.5t6 7.5q6 6 17.5 19.5t18.5 20.5l24 33q3 3 8.5 9t10 11t8.5 10q2 2 7.5 10.5t9.5 11.5q1 4 8 11q1 1 3.5 5t4.5 6q1 3 10 12q4 6 17 19q5 5 14 14.5t14 14.5 q3 4 9 10t9 10q4 3 9.5 10t8.5 10q13 15 16 23q8 7 17 19q7 7 18.5 22t15.5 20q3 4 9.5 10t9.5 10q2 4 7.5 10t7.5 9q1 0 1 3q2 2 8.5 9t9.5 11q4 3 10 10t9 10q38 38 55 59q10 10 14 16l12 15q2 3 8 7q0 3 1 3q1 1 2.5 3t2.5 3q1 2 3.5 5t4.5 5.5t4 4.5q5 5 17.5 18.5 t19.5 20.5q3 5 11 13q7 7 7 8q1 1 7.5 8t11.5 9q1 0 5 2q12 -2 17 -8z" glyph-name="m" horiz-adv-x="1355" unicode="m"/><glyph d="M1189 52q1 0 1 7q-1 27 -4 76t-4 68q0 35 -3 73q0 2 -6 70q-1 10 -0.5 35.5t0.5 35.5q-1 25 1 73q0 12 1 37t1 37q3 45 3 46q0 2 -0.5 4t-0.5 4t1 8.5t0 9.5q0 6 -3 51q0 2 -1 7.5t2 6.5q4 2 16 2q4 -3 6 -16q4 -21 4 -62q0 -20 -4 -66q-1 -13 -1.5 -36t-0.5 -31 q-1 -17 -1 -50v-51q0 -3 -1 -13.5t0 -15.5q0 -8 2 -20.5t2 -16.5q1 -7 1.5 -20t0.5 -20q0 -9 1.5 -27t2.5 -28v-21q0 -9 2 -35.5t2 -40.5q0 -6 1 -24.5t2 -30.5q2 -12 2 -18q0 -11 2 -21q1 -15 5 -19q2 -4 2 -6v-2q-1 -5 -3 -5q-1 -1 -2 -1h-2q-1 -1 -3.5 -1t-3.5 -2 q-1 -1 -4 0t-4 2q-3 3 -11 16q-5 5 -17 11q-2 3 -7.5 6.5t-7.5 5.5l-33 21q-8 5 -22 13t-25.5 15t-21.5 14q-14 7 -38 20.5t-32 18.5q-65 32 -73 36q-5 3 -17.5 9t-18.5 10q-5 1 -11 4.5t-8 4.5q-2 2 -8.5 5t-8.5 5q-14 7 -39 23.5t-29 18.5q-51 32 -131 87q-6 3 -17 10 t-17 10q-2 3 -8.5 6.5t-8.5 5.5q-20 11 -60 34.5t-60 35.5q-7 3 -19 10t-17 9q-1 2 -4.5 3.5t-3.5 3.5q-2 0 -4.5 2t-4.5 2q-2 2 -8 5t-9 5q-4 2 -11 6t-12.5 7.5t-9.5 7.5q-12 6 -34 20q-5 3 -29.5 18.5t-38.5 23.5q-6 5 -18 10q-4 4 -16 10q-54 33 -69 41q-3 3 -18 10 q-3 2 -9 5.5t-7 4.5q-2 1 -14.5 9t-21.5 10q-2 0 -2 -2.5t0.5 -5.5t-0.5 -5q-1 -16 1 -80q3 -70 2 -83q0 -18 -1 -27q0 -17 -3 -24q4 -48 -1 -72q4 -7 0 -21q2 -17 0 -90q0 -2 0.5 -4t0.5 -4v-37.5t-1 -39.5q0 -2 0.5 -4t0.5 -3v-18q0 -2 -0.5 -6t-0.5 -6q2 -8 2 -13v-25 q2 -14 2 -20q1 -1 0 -3l-1 -2q2 -8 2 -13q0 -1 0.5 -4.5t1.5 -4.5l-2 -2q1 -4 1.5 -12.5t0.5 -12.5q3 -25 -2 -34q0 -4 -2 -2t-2.5 2t-2.5 -1q-6 -2 -11 -2q-2 16 -3 46.5t-2 40.5q-2 33 -5 266q0 7 0.5 14.5t1.5 16.5t1 14v59q0 12 2 42q1 40 -3 118q-2 23 1 43q0 9 1 14 q0 3 -1 10t0 11t4 8h6q1 -1 2 0l1 1h12q6 -2 23 -12q3 -1 7 -3.5t7 -3.5q12 -8 29 -16q1 -1 3 -1q1 -2 7 -6q2 0 3 -1q4 -2 7 -5q2 -1 6 -2.5t6 -2.5l2 -2q0 -1 3 -1l4 -4q1 -1 3 -1q9 -6 10 -7q2 -1 8 -5q1 -1 3 -1.5t4 -1.5l4 -2l4 -4l1 -1h2q2 -1 10 -6q8 -4 13 -9 q11 -5 29 -16t27 -16q9 -6 27 -17t27 -17t27.5 -17t27.5 -16q10 -4 28 -15.5t29 -16.5q2 -2 28 -16q1 -1 7 -4.5t10 -6.5q1 0 5 -2l6 -3q2 -2 6.5 -5t6.5 -4q12 -5 15 -7q12 -7 14 -8q5 -4 15 -8q12 -9 13 -9q0 -1 7 -4q6 -4 7 -4q6 -6 26 -17q4 -3 13 -8.5t14 -8.5 t13.5 -9.5t12.5 -9.5q6 -3 14.5 -9.5t12.5 -8.5q2 -2 6.5 -4.5t5.5 -4.5q2 -2 7 -4.5l7 -3.5q27 -18 81 -52q4 -1 14 -8q4 -1 7.5 -4t6.5 -3q4 -3 14 -8.5t14 -8.5q4 -1 15 -7q1 -1 7 -2.5t7 -4.5q6 -2 16 -7t15 -7l3 -3q9 -3 10 -4q2 -1 4.5 -2t5.5 -2t5 -2q7 -4 8 -4 q1 -4 5 -6q7 -1 15.5 -6t11.5 -6q4 -3 12 -7t12 -7q3 -2 12 -6.5t13 -7.5q3 -2 12 -6.5t12 -7.5q3 -1 6.5 -4t5.5 -4q12 -5 34 -19q2 -2 4 -2q4 -4 6 -5l5 -2.5t4 -2.5q2 -1 6 -5q8 -4 11 -7q0 -2 2.5 -2.5t2.5 -1.5q6 -3 7 -3z" glyph-name="n" horiz-adv-x="1289" unicode="n"/><glyph d="M535 -3q-1 0 -4 0.5t-4 0.5q-16 0 -24 -1q-3 0 -8 -1t-7 -1t-7.5 0.5t-8.5 0.5q-2 0 -8 -0.5t-8 -0.5q-3 0 -8.5 1t-8.5 1q-1 0 -3 -1h-1h-5q-4 1 -6 1q-12 1 -35 1q-6 0 -17.5 1t-16.5 2q-11 1 -32 4t-31 4q-2 2 -9 2t-9 1q-1 0 -3.5 1.5t-4.5 0.5q-1 -1 -4 -1t-4 1 q-12 3 -21 9q-17 4 -23 8q-7 3 -21 11l-18 12q-4 2 -18 14q-4 3 -25 21q-2 2 -5.5 6t-5.5 6q-1 1 -1 2t-1 2q-7 7 -7 9q-6 5 -19 28l-6 9q-4 7 -10.5 21t-9.5 21q-12 34 -15 46q-19 74 5 163q1 5 4.5 23.5t6.5 27.5q7 29 16 45q2 9 19 43q5 7 17.5 26t20.5 29t14 16 q23 25 30 31q8 6 23.5 15.5t19.5 11.5q10 6 15 8q4 2 11 4t11 3q1 1 2 1h3q6 2 10 4q3 1 7.5 2t10.5 2t9 2l24 3q1 0 11 2q33 4 73 1q2 0 6.5 -1t6.5 0q10 1 32 3h2q0 1 1 1t21 -1t31 -2h5q4 1 4 0q1 0 3 -1t3 -1t25 1t25 1h9q8 1 17 1.5t19 1t16 0.5q1 0 1 -1h2 q22 -2 32 -3q2 -1 6.5 0t6.5 1q40 3 73 -1q10 -2 11 -2l24 -3q3 -1 9 -2t10.5 -2t7.5 -2q4 -2 10 -4h3l2 -1q4 -1 11 -3t11 -4q5 -2 15 -8q4 -2 19.5 -11.5t23.5 -15.5q7 -6 30 -31q6 -6 14 -16t20.5 -29t17.5 -26q17 -34 19 -43q9 -16 16 -45q3 -9 6.5 -27.5t4.5 -23.5 q24 -89 5 -163q-3 -12 -15 -46q-4 -7 -10.5 -21t-9.5 -21l-6 -9q-13 -23 -19 -28q0 -2 -7 -9q-1 -1 -1 -2t-1 -2q-1 -2 -5.5 -6t-5.5 -6q-21 -18 -25 -21q-14 -12 -18 -14l-18 -12q-14 -8 -21 -11q-6 -4 -23 -8q-9 -6 -21 -9q-1 -1 -4 -1t-4 1q-2 1 -4.5 -0.5t-3.5 -1.5 q-2 -1 -9 -1t-9 -2q-10 -1 -31 -4t-32 -4q-5 -1 -17 -2t-17 -1q-23 0 -35 -1q-2 0 -6 -1h-5h-1q-2 1 -3 1q-3 0 -8.5 -1t-8.5 -1q-2 0 -8 0.5t-8 0.5q-3 0 -8.5 -0.5t-7.5 -0.5t-7 1t-8 1q-8 1 -24 1h-12t-18.5 -0.5t-11.5 -0.5zM567 17q54 -2 80 -2q2 0 77 3q52 4 74 8 q48 8 66 16q1 0 19 9q3 1 8.5 4t8.5 5t8.5 6t8.5 6q10 6 15 11q2 1 4.5 3t4.5 3q0 1 2.5 3t3.5 5q17 16 38 42q12 19 28 53q1 1 1 3t1 3q2 1 2 2q1 1 1.5 4.5t0.5 4.5l2 2v3l2 2q0 2 0.5 5t1.5 5q2 0 2 2q1 2 1 6q1 2 1 4q4 9 7 25q4 26 2 72q-12 72 -21 106q-16 59 -35 91 q-2 4 -11 17.5t-14 20.5q-4 7 -14 18.5t-14 16.5q-6 5 -18 17q-8 8 -13 12l-2 1l-2 1l-1 2q-3 1 -16 9q-26 16 -68 27q-13 3 -84 6q-178 0 -193 2q-63 1 -64 1l-1 -1q-17 -2 -48 0.5t-40 2.5q-48 -2 -84 -11q-42 -11 -68 -27q-13 -8 -16 -9l-1 -2l-2 -1l-2 -1q-5 -4 -13 -12 q-12 -12 -18 -17q-4 -5 -14 -16.5t-14 -18.5q-5 -7 -13.5 -20.5t-11.5 -17.5q-19 -32 -35 -91q-9 -34 -21 -106q-2 -46 2 -72q3 -16 7 -25q0 -1 0.5 -3t1 -4.5t2.5 -4.5q1 -2 1.5 -5t0.5 -5q2 -1 2 -2v-3q2 -1 2 -2t0.5 -4.5t1.5 -4.5l2 -2q1 -1 1 -3t1 -3q16 -34 28 -53 q21 -26 38 -42q1 -3 4 -6l2 -2q2 -1 4.5 -3t4.5 -3q5 -5 15 -11q3 -2 8.5 -6t8.5 -6q2 -2 8.5 -5t8.5 -4q18 -9 19 -9q18 -8 66 -16q22 -4 74 -8q75 -3 77 -3q26 0 80 2h30z" glyph-name="o" horiz-adv-x="1104" unicode="o"/><glyph d="M88 221v-103q0 -17 0.5 -49.5t0.5 -48.5q-1 -4 2 -12.5t-1 -10.5q-8 -6 -19 -3q-3 4 -3.5 8t0.5 10.5t1 8.5q-1 13 -1 40q-1 19 -1 127q0 30 2 84q0 52 1 77l3 165v12q-1 19 -1 72q-3 75 -4 82q-1 3 -0.5 5t1.5 3t2 3l2 4q4 3 10 3.5t15 -0.5t12 -1q4 0 15.5 1t17.5 0 q27 -2 49 1q16 2 51 2q48 0 72 -3q14 -2 62 -17q33 -13 55 -29l1 -2h2q3 -2 9 -8l5 -5q2 0 3 -1q2 -2 5 -5.5t4 -4.5q2 -3 6 -7q1 -1 1 -2t1 -2q1 -2 3 -4l3 -2l1 -3q1 -2 2 -3q13 -20 18 -40q17 -42 20 -90q3 -45 -10 -85q0 -1 -1.5 -2.5t-1.5 -2.5q-1 -2 -1 -6 q0 -1 -2 -2.5t-2 -2.5q-4 -10 -13 -25q-28 -43 -60 -63q-4 -2 -55 -25q-4 0 -9.5 -2t-6.5 -2q-2 0 -8 -1.5t-9 -2.5q-2 0 -8 -1.5t-8 -2.5q-8 -2 -24.5 -5.5t-24.5 -5.5q-6 -1 -17.5 -2.5t-17.5 -2.5q-14 -2 -40 -3t-34 -2q-51 -4 -75 -5zM122 239q7 1 20.5 1t20.5 1 q27 1 74 7q38 4 53 8q8 2 25 5.5t25 5.5q3 1 8.5 2.5t8.5 2.5q10 2 16 4q4 1 11 4.5l9 4.5q27 13 33 19q2 1 5.5 4t5.5 4q6 7 19 20v2q0 2 1 2q1 1 2.5 2t2.5 2.5t2 2.5t1 2q1 2 1 3l2 1q1 1 1 3q12 18 16 29q17 42 14 86q-2 63 -40 134q-3 3 -9 11.5t-10 11.5q-2 3 -11 9 l-2 2q-11 9 -13 10q-1 1 -4 3t-4 3q-7 4 -23 12q-2 1 -6 2t-6 2q-5 4 -11 5q-5 2 -21 4q-3 1 -9 4h-6q-2 0 -4 2q-8 2 -46 4q-17 1 -71 -1q-23 -2 -69 -2h-5q-14 1 -41 -1q0 -9 1 -27t1 -27q0 -7 0.5 -24t1.5 -24q1 -1 0 -3t-1 -3q2 -57 -0.5 -169t-1.5 -163q7 -3 33 -3z " glyph-name="p" horiz-adv-x="550" unicode="p"/><glyph d="M834 62v-2l-2 -4q-2 -3 -4 -4q-4 -1 -7 -6q-2 -2 -4.5 -4t-5 -5t-4.5 -5q-33 -21 -35 -22q-2 1 -6 -2l-4 -2q-2 -1 -14 -4.5t-18 -7.5q-24 -4 -57 -4q-6 0 -25.5 2t-29.5 2q-6 4 -18 10t-17 9q-2 1 -16 9q-3 1 -7.5 4.5t-8.5 4.5q-3 0 -15 -6q-10 -4 -15 -7 q-25 -10 -52 -16q-11 -1 -28 -5q-2 0 -4.5 -0.5t-5.5 -1.5t-5 -1q-38 -6 -93 3q-6 1 -33 4.5t-40 6.5q-27 5 -71 28q-18 8 -49 39q-21 21 -34 42q0 1 -1 3.5t-2 3.5l-2 2t-1 2v2q0 1 -1 2q-2 0 -2 1q-2 5 -11 22t-13 27q-9 25 -20 67q-7 37 -9 79q0 36 5 81l6 39q6 36 11 54 q3 12 14 50q5 6 11.5 18.5t8.5 15.5v1q0 1 1 1l2 3q2 3 3 4l2 1q2 4 11 14q12 14 19 20q30 24 50 32l12 9q1 1 4 2.5t5.5 2.5t4.5 2t7.5 2.5t7.5 2.5q11 4 15 5q52 15 66 17q3 0 48 2q2 0 8 0.5t9 0.5t9.5 -1t10.5 -1q5 -1 14 0t11 1q1 0 22 -3q7 -1 20 -4.5t20 -5.5 q26 -7 38 -14q24 -10 33 -17l21 -18q2 -2 6 -4q6 -6 11 -10q11 -9 42 -45q4 -10 16 -26q24 -51 26 -58q1 -7 3.5 -18t3.5 -17q1 -5 12 -74q1 -10 1.5 -29.5t0.5 -29.5q0 -3 1 -9t1 -10q0 -3 -0.5 -10.5t-0.5 -11.5t0.5 -11.5t0.5 -10.5q0 -5 -2.5 -18t-1.5 -19 q-4 -9 -8.5 -27.5t-7.5 -27.5l-3 -6q-2 -4 -5.5 -13.5t-5.5 -14.5q0 -1 -2 -3t-2 -3q-4 -8 -6 -13q-2 -2 -4 -6t-6 -7q0 -2 -2 -4t-5 -5.5t-4 -5.5q-18 -21 -24 -25q-1 -1 -3 -3.5t-4 -4.5q-2 0 -3 -1q-2 -1 -5.5 -4t-6.5 -5l-6 -3q-6 -4 -10 -8q0 -2 10 -8l5 -5 q13 -7 30 -14q40 -10 90 -7q25 3 39 11q3 1 10.5 4t10.5 4q6 3 15.5 10t13.5 10l6 6q1 1 5 6t7.5 7.5t7.5 2.5q7 0 11 -6q2 0 2 -3zM579 71q3 3 11 9.5t12 9.5q5 5 9 11q1 1 3 4q4 3 10 9l1 2q1 2 1 3l3 3l2 4q31 53 40 106q1 3 1.5 6t0 6t0.5 6q2 6 2 9q4 21 1 60l-3 51 q0 18 -1 26q0 3 -1 7t-1 5v15q-1 19 -8 51t-9 43q-4 6 -16 32q-3 6 -10 16t-9 15q-1 1 -2 1q-6 8 -8 10l-36 39q-3 1 -8.5 6.5t-10.5 6.5q-2 3 -8.5 7.5t-8.5 6.5q-21 9 -23 10q-7 3 -19 7q-2 0 -6 2t-6 2t-6.5 1t-6.5 1q-1 0 -3 1t-3 1q-12 4 -18 4q-12 1 -38 1 q-3 0 -9.5 0.5t-10.5 0.5q-2 1 -5 0t-4 -1q-15 0 -17 -1q-4 -4 -6 -3q-9 5 -26 1q-24 -4 -28 -7q-2 1 -5 3t-5 3h-5q-5 0 -15 -3.5t-11 -3.5q-3 0 -6 -1t-6.5 -2.5t-5.5 -2.5t-8.5 -3.5t-10.5 -4.5q-6 -2 -16.5 -8.5t-16.5 -9.5q-3 -2 -10 -7t-11 -7q-6 -5 -27 -23 q-5 -5 -8 -11q-9 -7 -19.5 -26.5t-12.5 -22.5q-18 -51 -26 -95q-20 -119 -4 -193q14 -65 40 -112q15 -30 32 -47q17 -19 20 -22l8 -8q9 -8 14 -11l6 12q6 8 6 10q21 23 48 34q37 12 48 14q9 2 27.5 4t27.5 4q69 -6 163 -57q5 -3 15.5 -10t15.5 -10q9 -6 11 -6q5 3 13 9t12 8 zM289 20q9 0 13 -1q6 -1 19 -3t20 -2q43 -5 53 -5q13 0 39 4l36 6q2 2 3 2h5q1 1 3.5 2t3.5 1q3 1 9.5 2t9.5 2q0 2 3 2q22 9 27 12l1 1v1q-11 10 -43 26q-11 8 -41 21q-9 6 -22 11q-4 0 -6 1q-1 0 -2.5 1.5t-2.5 1.5q-11 4 -24 7q-32 8 -40 8q-4 0 -13 -1.5t-10 -1.5 q-3 0 -11 -1t-11 -2q-19 -2 -43 -10q-24 -11 -27 -13l-3 -3q-1 -1 -3 -1t-2 -1l-6 -6l-3 -3l-2 -1q-1 -1 -1 -3l-2 -1q-1 -1 -2 -1l-1 -2q-1 -2 -2 -2q-4 -7 -5 -9l-2 -3q-3 -4 -2 -7q47 -24 87 -29z" glyph-name="q" horiz-adv-x="746" unicode="q"/><glyph d="M923 1q-13 -8 -23 5q-2 1 -6.5 2.5t-8 3t-6.5 3.5t-19 10q-15 9 -20 10q-7 5 -22 13t-16 9q-6 3 -18.5 10t-18.5 10q-12 5 -13 6q-4 1 -10.5 4.5t-8.5 4.5q-24 9 -32 16q-4 1 -11 4.5l-9 4.5q-13 6 -40 19.5l-41 20.5q-6 4 -10 5q-3 2 -10 5.5t-10 5.5q-12 6 -20 9 q-12 5 -29 16q-7 3 -20.5 9.5t-20.5 9.5q-14 6 -20 10q-14 6 -20 10q-15 5 -41 19q-4 2 -12.5 6t-15 7.5t-11.5 7.5q-5 3 -17.5 11t-19.5 12q-1 1 -5 2t-6 2t-12.5 7.5t-17.5 7.5t-19.5 0t-18.5 0t-16 1q-3 0 -10.5 -0.5t-11.5 -0.5q-8 0 -29 -1t-31 -2q-7 0 -25 1.5 t-27 0.5q-2 -2 -2 -16q-2 -30 -2 -46q-1 -22 -1 -66q0 -11 -1.5 -66t0.5 -66q3 -45 3 -46q0 -11 -2 -14q-7 -4 -16 -3q-4 3 -5 7t-1 11.5v9.5q-1 18 -1 55q0 12 1 53t0 61q0 4 0.5 10t0.5 8v22q1 4 1 23q0 15 1 43.5t1 42.5q0 15 1 63t0 74q0 114 -1 136q-2 53 4 87 q1 1 22 1q5 0 18 1t21 1q9 0 109 -5q62 -5 120 -2q3 0 9.5 -0.5t9.5 -0.5q6 0 18 2q73 2 122 -2q11 -1 24 -1t28.5 0.5t24.5 0.5q27 -2 39 -1q9 0 37 1t42 0q2 0 5 -1t5.5 -1.5t4.5 -0.5q15 -2 16 -3q14 -3 27 -9q18 -8 46 -26q6 -3 25 -20q6 -6 9 -10q2 -1 5 -4l1 -3 q1 -2 2 -3q0 -1 1 -1l2 -1q5 -7 11 -20q24 -44 15 -96q-9 -43 -23 -66q-1 -1 -1 -3t-1 -2l-4.5 -4.5t-4.5 -5.5q-8 -10 -13 -14q-2 -3 -6.5 -7t-5.5 -6q-4 -5 -14 -13q-34 -25 -67 -32q-9 0 -11 -1l-2 -2q-1 0 -5.5 -1t-7.5 -2t-11 -1.5t-11 -1.5q-9 -4 -26.5 -4.5 t-20.5 -0.5h-16q-3 0 -8 -1t-7 -1h-31h-3.5h-3.5h-3q-4 0 -10.5 -1t-11.5 -1q-4 -1 -12.5 0.5t-11.5 1.5q-7 0 -21 -1t-21 -1t-20.5 -1.5t-19.5 -1.5q-3 0 -9 0.5t-9 0.5t-9.5 0.5t-10.5 0.5q-15 -3 -17 -3q0 -1 -9 0h-9q-10 -2 -14 -2q-2 -1 -6 0t-6 1q-1 0 -4 -0.5 t-5 -0.5q-3 0 -10 -0.5t-10 -1.5q0 -2 8 -7q8 -4 21.5 -13.5t21.5 -13.5q2 -2 8.5 -4.5t9.5 -5.5q152 -72 226 -110q80 -38 142 -70q6 -3 18.5 -9t16.5 -8l42 -24q50 -26 61 -31q11 -3 18 -10q1 -3 -1 -11zM211 336q4 0 11.5 -0.5t9.5 -0.5t4 0.5t4 0.5q5 0 15 -0.5t16 -0.5 h56q10 1 30 2.5t29 1.5q25 2 82.5 2.5t84.5 3.5q8 2 14 2q4 1 11.5 0t10.5 -1q37 0 65 4q13 0 26.5 1.5t29.5 4t26 3.5q51 16 69 30q24 18 48 50q1 3 2.5 6t3.5 6.5t3 5.5q4 10 10 32q6 26 5 38q-1 59 -42 96q-43 36 -88 48q-1 0 -31 3q-4 0 -12.5 1t-12.5 1q-10 1 -29 0 t-25 -1q-17 0 -51 2q-10 1 -28 -0.5t-25 -1.5q-3 0 -9 1t-10 1q-6 1 -19 1q-79 4 -121 -4q-5 2 -37 2h-37l-36 3q-24 2 -37 2q-12 0 -34.5 1.5t-35 2t-31 0t-35.5 -2.5q0 -73 1 -82q0 -7 -1 -21t0 -22q2 -14 2 -109.5v-110.5q10 -1 118 -1z" glyph-name="r" horiz-adv-x="926" unicode="r"/><glyph d="M585 600v-1q1 -4 -2 -4.5t-9 -0.5q-12 -3 -16 12q0 3 -2 5.5t-5.5 5t-4.5 4.5q-8 8 -33 26q-1 1 -3.5 3t-3.5 2q-1 1 -3.5 2.5t-3.5 2.5l-2 1l-4 2l-3 3q-2 0 -4 2q-2 0 -6 2.5t-7 3.5q-23 10 -25 10q-4 1 -12.5 2t-9.5 1q-12 5 -22 5q-7 1 -46 1q-32 0 -48 -2t-45 -11 q-3 0 -3 -2h-6q-20 -4 -66 -23q-4 -3 -17.5 -10t-19.5 -12q-5 -4 -14 -13l-1 -2q-4 -2 -5 -3q-2 -4 -10 -12t-10 -12q-6 -9 -8 -14q-3 -9 -5 -36q-3 -42 25 -88q2 -3 9 -8.5t10 -8.5q5 -5 9 -7q3 -2 7 -6q2 -2 5.5 -4.5t5.5 -4.5t6 -3.5t7 -3.5q10 -2 19 -5q2 -1 5.5 -2.5 t6.5 -3t6 -3.5q9 -4 40 -13q15 -5 48.5 -14t38.5 -11q30 -9 42 -11q1 0 4 -0.5t4 -1.5l5 -3h4q5 -1 15 -5q34 -7 68 -24q30 -20 46 -36q17 -17 33 -47q0 -2 2 -7t3 -8q3 -6 6 -10q6 -11 3 -40q1 -11 -5 -49q-4 -15 -12 -30q-2 -4 -7.5 -10t-7.5 -9q-2 -5 -16 -17 q-16 -17 -41 -28q-2 -1 -8.5 -2t-9.5 -3q-13 -9 -33 -11q-33 -8 -98 -12q-21 0 -96 5q-16 2 -23 2q-4 1 -11.5 3t-10.5 2q-17 2 -41 8q-4 1 -18.5 5.5t-21.5 6.5q-14 4 -19 7q-2 1 -5.5 3t-4.5 2q-1 2 -5 2l-4 1q-2 1 -6 4.5t-5 4.5q-8 3 -25 20q-1 2 -4.5 6t-4 6t0.5 7 q15 7 20 1q3 -4 8.5 -9t7.5 -7l18 -12q42 -22 74 -28q4 0 7 -1q4 -2 16 -4t13 -2q18 -5 72 -12q134 -6 202 23q2 0 5.5 3t4.5 4t7.5 3.5t9.5 5.5h1l1 1q11 6 27 26l3 6q2 2 5 3q4 8 8 15q1 1 2 3.5t2 3.5q0 11 2 17q1 3 2 8t1 8q7 42 -12 79q-4 4 -5 8q0 1 -1 1l-2 1 q-3 10 -4 11q-2 2 -6 6.5t-6 6.5q-2 3 -6 7q-26 24 -31 27q-12 8 -33 15q-35 12 -93 26q-6 1 -94 27q-11 6 -22 7q-3 1 -10.5 3t-11.5 3q-43 17 -46 19q-40 19 -67 53q-27 33 -31 66q-2 14 -2 38q3 17 4 18q1 2 1.5 6t0.5 6l3 6q1 3 1 7q7 16 16 21q10 12 36 36q4 2 18 12.5 t23 13.5q1 1 9.5 4t15.5 7q12 4 22 7q5 1 13 3.5t11 3.5q6 1 17 3.5t14 2.5q36 7 106 7q27 0 51 -6q1 0 1 -1l2 -1q3 -1 11 -1q23 -6 53 -22q30 -17 61 -48q2 -3 9 -11.5t9 -13.5v-3z" glyph-name="s" horiz-adv-x="641" unicode="s"/><glyph d="M1043 693q-1 -14 -24 -14h-34q-5 0 -13 1t-13 1q-5 1 -14.5 0t-12.5 -1t-13 1t-15 0q-6 0 -18 -2q-9 -1 -24.5 0t-21.5 1q-22 0 -66.5 -1.5t-66.5 -1.5h-10q-23 -2 -50.5 -2.5t-61 -0.5h-50.5q0 -15 1 -46.5t1 -45.5v-126q0 -7 -1.5 -21t-2.5 -22v-1v-4v-4q-1 -18 -1 -60 t-2 -61q0 -14 -1 -21q0 -42 -2 -65q0 -3 -1 -9.5t-1 -10.5l1 -11q0 -10 -1 -10v-22q0 -3 -0.5 -9.5t-0.5 -9.5v-64v-3l-1 -2q0 -2 0.5 -6.5t0.5 -7.5q0 -2 -0.5 -7.5t-0.5 -8.5q2 -12 -3 -23q-10 -4 -20 0q-1 2 -1 21q2 14 2 20q1 14 1 40q1 29 1 86q1 15 3 44.5t2 43.5 l-1 1q1 1 1 11v13q0 8 1 29t1 31v12.5v15v12.5q6 123 6 130q0 34 -2 92.5t-2 77.5q-28 2 -132 2q-16 0 -63 1t-71 0q-5 0 -15 0.5t-16 0.5h-100q-5 0 -28.5 -1t-36.5 0q-28 0 -33 1q-11 2 -13 5q-4 7 -2 13q1 3 3.5 4t6 0t4.5 -1h79q11 0 31.5 0.5t30.5 0.5q21 -1 63 -1h62 q20 -1 118 -1q14 0 39.5 -0.5t46 -0.5t38.5 1q18 0 59.5 -1t63.5 0l60 3q41 0 61 2q16 1 92 1q4 0 13 1t14 1q2 0 6.5 -0.5t6.5 -0.5q7 0 21.5 0.5t22.5 0.5q15 -1 44 -1h16q4 0 13 1.5t14 0.5q3 0 4.5 -1.5t3 -4t2.5 -3.5q1 0 1 -1t1 -2z" glyph-name="t" horiz-adv-x="1044" unicode="t"/><glyph d="M1043 -16l-191 -1q-4 0 -11 0.5t-10 0.5q-6 0 -16.5 0.5t-15.5 0.5q-26 0 -78 6q-2 0 -4.5 0.5t-3.5 0.5t-3 0.5t-3 0.5q-4 1 -11 0t-11 0q-2 1 -7 1q-10 2 -30 4q-7 1 -38 5.5t-47 8.5q-9 2 -29.5 8t-29.5 8q-22 7 -49 19l-12 6q-1 1 -3 1t-3 1q-14 6 -68 38 q-9 7 -27 19q-1 1 -11.5 8t-14.5 12q-9 6 -18 15q-34 32 -52 50q-2 1 -5.5 5.5t-5.5 5.5q-1 3 -5.5 6.5t-5.5 6.5q-7 6 -14 14t-15 18.5t-13 15.5q-4 5 -8.5 16t-8.5 16q-1 1 -8 15q-21 38 -23 45q-1 2 -3 7.5t-4 7.5q-7 19 -23 57q0 3 -1 4q-3 9 -4 11q-1 3 -3.5 8.5 t-3.5 8.5q-6 24 -7 27q-4 9 -5 16q-5 13 -15 60q-3 14 -5 51q-1 5 -1 31q0 23 1 26q0 2 -1 6t-1.5 7.5t-0.5 7.5q2 1 0.5 3.5t-1.5 4.5q2 5 4 7q12 1 17 -5.5t3 -17.5v-52q0 -1 -0.5 -4t-0.5 -4.5v-2.5q1 -44 13 -94q1 -5 18 -61q2 -10 10 -28q0 -2 1 -4l2 -4q1 -1 1 -3.5 t1 -3.5l6 -12q1 -1 1 -4t1 -5q4 -8 7 -13q11 -27 14 -34q2 -5 6.5 -13.5t6.5 -12.5q1 -2 3 -6.5t4 -6.5q4 -8 7 -12q11 -23 37 -52q3 -4 6.5 -8t8 -8.5t6.5 -7.5q3 -5 11 -11q7 -7 12 -11q8 -7 22 -23q2 -1 5.5 -5.5t5.5 -5.5q2 -2 6 -5t6 -5q1 -1 9.5 -9t15.5 -11 q2 -2 25 -20q2 -1 22.5 -14.5t32.5 -19.5q27 -16 60 -29l33 -12q25 -8 34 -10q4 -1 11 -1q2 -2 4 -2h5q3 -1 9 -2.5t9 -2.5q6 -1 18 -4t18 -4q3 0 10 -1t10 -1q4 0 10 -2q37 -5 48 -7q31 -5 61 -6q14 -2 20 -2q3 -1 8.5 0t7.5 1q4 0 15 -1t16 0q9 1 28.5 -0.5t26.5 -1.5 q20 -2 76.5 -0.5t76.5 0.5q6 0 25.5 1t29.5 0q5 -1 15.5 0.5t15.5 1.5q2 0 7.5 -1t8.5 0q6 0 20 2q30 1 61 6q11 2 48 7q6 2 10 2q3 0 10 1t10 1q6 1 18 4t18 4q3 1 9 2.5t9 2.5h5l15 3q9 2 34 10q4 1 11 3.5t12.5 4.5t9.5 4q33 13 60 29q12 6 32.5 19.5t22.5 14.5 q3 2 11.5 9.5t13.5 10.5q4 3 11.5 10t13.5 10q2 2 12 10q2 1 5.5 5t5.5 6q14 16 22 23q5 4 12 11q8 6 11 11l21 24q26 29 37 52q3 4 7 12q1 2 3.5 6.5t3.5 6.5q2 4 6.5 12.5t6.5 13.5q3 7 14 34q4 8 9 22l6 12q0 1 1 3.5t1 3.5q0 2 1 4.5t2 3.5q8 18 10 28q17 56 18 61 q12 53 12 102q1 11 0 31.5t-1 27.5q-2 12 1.5 17.5t15.5 4.5q7 -2 8 -6q1 -2 -0.5 -5t-1.5 -5q1 -3 0 -9.5t-1 -9.5v-26q0 -21 -1 -31q-1 -6 -2 -24t-3 -27q-12 -57 -15 -64q-1 -7 -5 -16q-1 -3 -7 -27q-1 -3 -3.5 -8.5t-3.5 -8.5q-1 -2 -2.5 -7.5t-2.5 -7.5 q-3 -7 -10.5 -26.5t-12.5 -30.5q-1 -1 -3 -6.5t-4 -8.5q-2 -7 -23 -45q-7 -14 -8 -15q-4 -5 -9.5 -14t-8.5 -14q-5 -5 -13 -15.5t-15 -18.5t-14 -14q-1 -3 -5.5 -6.5t-5.5 -6.5q-2 -1 -5.5 -5.5t-5.5 -5.5q-18 -18 -52 -50q-9 -9 -18 -15q-3 -4 -7.5 -7t-10 -7t-8.5 -6 q-18 -12 -27 -19q-55 -32 -70 -39q-1 0 -3 -1t-3 -1l-12 -6q-19 -9 -50 -18q-9 -2 -27.5 -6.5t-27.5 -6.5q-23 -6 -85 -17q-20 -2 -30 -4q-2 0 -6 -2q-4 0 -11.5 -1t-11.5 -2q-2 0 -6.5 -1t-7.5 -1q-52 -6 -78 -6q-5 0 -15.5 -1t-16.5 -1q-4 0 -14 0.5t-13 0.5z" glyph-name="u" horiz-adv-x="1890" unicode="u"/><glyph d="M1804 690q1 -9 -11 -14q-7 -3 -19 -13t-19 -13q-68 -54 -101 -81q-13 -11 -26 -20q-6 -9 -24 -21q-17 -14 -49 -42t-96 -86q-15 -12 -16 -13l-7 -7q-1 -1 -3 -1l-1 -2q-8 -6 -12 -10t-16 -12q0 -1 -2 -2l-2 -1l-2 -1q-1 -1 -2 -1q-2 -1 -4 -3.5t-4 -3.5q0 -1 -3 -1 q-8 -8 -26.5 -22t-25.5 -21q-9 -8 -27 -18q-19 -17 -24 -20q-4 -3 -12.5 -9t-12.5 -9q-2 -1 -5 -3.5t-5.5 -4.5t-4.5 -4q-4 -2 -10 -6.5t-7 -5.5q-2 -3 -7 -7t-8 -6q-3 -3 -14.5 -11.5t-16.5 -14.5q-4 -4 -32 -24q-6 -5 -16.5 -14t-14.5 -12q-12 -10 -16 -14l-15 -12 q-4 -3 -11.5 -10t-11.5 -11q-3 -2 -7 -6q-9 -8 -28.5 -22t-23.5 -17q-1 -3 -5 -7t-5 -6q-2 -1 -6.5 -6t-7.5 -6q-3 -2 -8.5 -7.5t-9.5 -8.5t-7 -3q-6 0 -18 10q-3 1 -7.5 5.5t-7.5 5.5q-2 1 -7.5 4t-8.5 5q-2 1 -5 3.5t-5.5 4.5t-4.5 4q-12 7 -14 11q-3 1 -7.5 5t-8.5 5 q-1 1 -31 21q-7 5 -17 13q-1 0 -1 1l-1 2l-6 3q-1 1 -3 1.5t-3 3.5q-2 0 -3 1t-3 2.5t-4.5 3t-3.5 2.5l-4 4q-7 4 -14 9q-3 2 -11 8l-6 3l-1 1q0 2 -1 2q-1 1 -4.5 2.5t-4.5 2.5q-43 30 -89 65q-4 3 -14.5 10.5t-15.5 11.5q-9 5 -16 10q-2 2 -7 5.5t-7 5.5q-18 15 -60 44 q-4 3 -11.5 8.5t-11.5 8.5q-2 2 -6 4l-2 2q-2 1 -3 2q-6 3 -7 4q0 1 -2 3q0 1 -1 1h-2q-2 3 -5 5q-2 2 -3 2q-5 5 -7 5q-1 1 -13 10q-1 1 -7 4.5t-9 6.5q-4 4 -14 12q-1 1 -9 7q-1 1 -3 2l-2 1q-1 1 -4 3.5t-4 3.5q-3 3 -9.5 7t-9.5 7q-1 1 -17 14h-2t-2 1q-2 4 -8 8 q-1 1 -3 1q-3 2 -9 8q-6 4 -9 7q-31 24 -41 31q-12 11 -29 21q-1 1 -14 11h-1q-1 0 -2 1l-1 2l-12 9q-6 4 -15 12.5t-13 11.5q-2 2 -7.5 6t-6.5 5q-2 1 -4.5 4t-5 5t-5.5 3q-4 4 -13.5 11t-13.5 12q-20 16 -29 23q-48 36 -60 44q-5 3 -15.5 9t-15.5 9q-5 5 -17 9 q-1 1 -4.5 4t-5 6t-1.5 7q9 3 13 2.5t12 -4.5t12 -5q1 -2 8 -5l3.5 -3.5t4.5 -3.5t6.5 -4.5t7.5 -5.5q27 -19 30 -22q3 0 11 -8q2 -1 8.5 -5.5t9.5 -7.5q49 -39 58 -45q2 -2 8 -7t9 -7q2 -1 5.5 -5.5t5.5 -5.5q2 0 3 -1t4.5 -4t5.5 -5q9 -6 11 -8l18 -15q1 0 11 -8 q4 -3 15 -11.5t17 -13.5q2 -1 6 -3.5t6 -4.5l1 -1q0 -2 1 -2h1q2 0 2 -1l1 -2q0 -1 1 -1h1q1 0 2 -1q2 -1 4 -3.5t4 -3.5q1 0 2.5 -1t2.5 -2q0 -1 4 -3q1 -2 5 -4q2 -2 6 -5t7 -6q1 -1 4 -2.5t4 -2.5q2 -1 19 -16q1 -1 6 -4.5t8 -5.5q3 -3 10 -8.5t11 -8.5q6 -4 8 -6 q4 -2 5 -3q3 -3 9 -7q1 -1 3.5 -3t4.5 -3q3 -3 11.5 -9t12.5 -10q2 -1 6 -4.5t5 -3.5q1 -1 3 -2l3 -2q6 -4 8 -6l3 -2q4 -3 6 -5q8 -6 10 -8q9 -6 45 -32q5 -3 14 -10.5t16 -10.5q6 -5 34 -24q2 -2 5.5 -5t4.5 -4q2 -2 6 -4t6 -4q3 -3 5 -4l6 -3l1 -2h2l1 -2q9 -5 16 -11 q1 -1 7 -5l1 -1l6 -3l1 -2q0 -1 1 -1q1 -1 3 -1q2 -2 8 -6t9 -7l6 -3q2 -1 4 -3.5t3 -3.5l1 -1h1l1 -1l6 -3l2 -3q0 -1 2 -1h2q0 -3 2 -3q0 -1 3 -1q0 -2 1 -2q3 -2 10 -7t11 -7q4 -3 14.5 -9.5t15.5 -10.5q5 -3 23 -16q4 -3 11.5 -9t11.5 -8q30 -18 46 -28q4 -2 12.5 -7 t12.5 -8q22 -14 23 -14q2 -1 8 -4.5t8 -5.5q7 2 14 10t11 10q4 5 13 11.5t12 8.5q31 22 49 40q4 3 23 21q2 2 11 8.5t13 11.5q10 6 26 20t24 20q8 8 13 12l2 2q0 1 2 1h1l4 4t5 4q0 1 5 3q5 5 9 8q1 1 7.5 6.5t10.5 8.5q0 2 2 2l12 8q4 4 13 10.5t12 9.5q11 5 27 18.5 t25 18.5q4 4 12 10t12 10q2 2 6.5 5t6.5 4q1 1 5 4.5t7 5.5q1 2 4 4t5 4q2 1 6.5 4.5t6.5 4.5q0 2 1 2l14 11q10 6 13 9q16 12 24 20q21 18 23 21q7 5 13 10q18 16 52 48q1 1 6.5 5t7.5 6t6 6.5t6 6.5q1 1 3 2.5t4.5 3t3.5 2.5q5 5 17 13q4 6 16 14q5 4 16 14t16 14 q9 8 27 22q4 4 7 6q2 2 7.5 6t7.5 5q5 6 13 10l5 5t7 5q3 4 19 15q5 5 9 7l8 8l12 9q2 2 10.5 10t13.5 10q2 3 6.5 6.5t5.5 4.5q6 8 18.5 7t13.5 -11z" glyph-name="v" horiz-adv-x="1805" unicode="v"/><glyph d="M847 467q1 0 12 -23q0 -1 1 -5t2 -5l4 -4q4 -9 13 -21.5t11 -15.5q1 -1 3.5 -6t5.5 -9q1 -1 3 -7q1 0 5 -6q10 -16 11 -18q6 -10 8 -14q7 -15 12 -21q2 -2 35 -58q2 -4 27 -52t38 -72q2 -1 6 -9l6 -12q4 -7 11.5 -20.5t10.5 -18.5q9 -18 12 -20q2 1 11 14q3 3 7 12 q10 20 16 30q5 8 6 16l2 2q2 3 2 5q7 9 12 22q2 5 8 13q3 5 3 12q1 2 3.5 4.5t2.5 4.5q1 2 3.5 8.5t4.5 9.5q4 5 8 15.5t5 12.5q1 3 3 10.5t4 11.5t5 7q2 2 4 7.5t3 7.5q3 5 5 6q1 3 4 6q3 5 7.5 15t5.5 12q6 11 12 23.5t11 22.5t14 21q2 3 3.5 8.5t5.5 8.5q1 3 4 7t4 7 t7.5 15t8.5 17q1 2 6 9.5t7 12.5q1 5 9 20q3 3 6 11t5 11q6 8 7 12q5 9 14 27q6 10 7 12l3.5 7t4.5 7q4 9 8 19t9 19q1 2 4 6t5.5 7.5t4.5 7.5q4 4 4 12q0 3 8.5 16.5t9.5 15.5q2 6 5 11q8 12 12 14q16 9 19 -1q3 -5 2 -10q1 -5 -2 -11t-5 -7q-1 0 -8 -10q-2 -3 -5.5 -9 t-6.5 -10q-3 -3 -6 -10t-5 -10q-1 -1 -2 -4.5t-2 -4.5q-2 -1 -3.5 -5.5t-4.5 -5.5q-8 -17 -17 -29q-2 -4 -3 -7.5t-4 -8.5q-13 -22 -19 -41q-3 -8 -11.5 -21t-11.5 -19l-6.5 -13t-8 -15.5t-6.5 -13.5q-2 -2 -5.5 -9t-6.5 -11q-4 -12 -10 -20q-3 -9 -11.5 -21.5t-10.5 -16.5 q-4 -5 -7 -14l-4 -12q-2 -3 -4 -5.5t-2 -3.5q-4 -8 -6 -10t-5 -8q-1 -6 -5.5 -13.5t-5.5 -11.5l-7 -12q-16 -26 -17 -36q-1 -2 -4 -4.5t-3 -4.5t-2 -5.5t-2 -5.5q0 -3 -1 -6l-3 -3q0 -1 -3 -8t-6 -11l-2 -4q0 -1 -0.5 -3t-1.5 -3q0 -1 -2 -3q0 -1 -0.5 -3t-1.5 -3 q-1 -3 -5 -9t-5 -8q-3 -7 -17 -38q-1 -2 -8 -18q-1 -1 -4 -7t-6 -9q-1 -2 -5.5 -8t-6.5 -10l-3 -6t-4 -7.5t-3 -6.5v-8q-1 -3 -1 -10.5t-1.5 -12t-6.5 -6.5q-12 -5 -21 4q-5 4 -6.5 13t-3.5 13q-7 13 -21.5 40.5t-21.5 43.5q-13 24 -36 70.5t-28 55.5q-1 3 -6 9t-7 9 q-2 4 -5 11t-5 11q-32 51 -36 59q-7 9 -19 28q-2 2 -4.5 7t-4.5 7q-6 12 -9 15q-2 2 -6 7.5t-5 6.5v3l-2 1q-2 2 -3 7t-2 6q-2 2 -4 5t-4.5 7t-3.5 6q-4 5 -16 32q-3 7 -10 21t-10 22q-5 13 -11 21q-2 2 -4 7.5t-4 8.5q-1 3 -3 7l-3 6q-1 1 -5 9q-1 1 -8 10.5t-9 13.5 q-4 7 -9 12.5t-8 11.5q-15 26 -26 36q-10 -12 -12 -21l-1 -2q-2 -1 -2 -2q-2 -3 -7.5 -15.5t-8.5 -18.5q-10 -16 -11 -19q-2 -4 -7 -15t-8 -16q-2 -11 -11 -31t-10 -24q-1 -2 -1 -4q-9 -24 -10 -28q-2 -4 -5 -13l-4 -12q-4 -4 -4 -7q0 -1 -0.5 -4t-1.5 -4q-1 -2 -1 -4 q-1 -3 -4.5 -10t-4.5 -11q0 -1 -0.5 -4t-1.5 -4q-1 -2 -3 -4q-2 -5 -3 -13q-1 -1 -1 -2q-1 -2 -1 -3q-3 -11 -13.5 -36.5t-14.5 -38.5q-1 -2 -3.5 -14.5t-7.5 -18.5q-1 -1 -2 -3.5t-1.5 -6t-1.5 -5.5q-3 -7 -7 -17q-3 -8 -10 -33q-7 -28 -10 -37q-7 -20 -15 -38 q-8 -24 -14 -40q-1 -3 -4 -8.5t-5 -10t-3 -8.5q-2 -5 -7 -13t-7 -13q-1 -2 -3 -8.5t-4 -9.5q-2 -2 -4.5 -10t-6.5 -10q-12 -4 -18 11q-4 10 -17.5 27t-14.5 18q-2 3 -3.5 9t-2.5 7q-8 13 -20 35q0 1 -3 4q-4 6 -10 12l-12 21q-1 1 -23 34q-14 23 -20 31q-4 6 -5 9q-2 0 -2 4 q-3 3 -3 4q-2 2 -4.5 7.5t-3.5 6.5l-1 1q-1 1 -1 2q-1 1 -3 4.5t-3 4.5l-3 6t-3.5 6.5t-3.5 6.5t-3 7q-3 3 -7 11q-2 2 -3 6t-2 5q-12 20 -27 46q-1 1 -6.5 9t-7.5 14q-3 2 -8 11t-6 11q-4 9 -13 23t-13 21q-5 10 -23 42t-27 50q-12 25 -51 93q-11 13 -14 21l-7 14 q-5 5 -7 9q-3 5 -8.5 15t-8.5 15q-7 10 -2 13q9 5 18 -9l14 -21q4 -6 11.5 -20.5t11.5 -20.5q50 -83 52 -87q6 -10 22 -41t27 -48q2 -3 5.5 -10t5.5 -10q8 -16 12 -22q15 -27 49 -81q0 -1 2.5 -4t2.5 -4q1 -2 2 -4.5t2 -4.5q2 -2 4.5 -7.5t4.5 -8.5l3 -3q1 -2 3.5 -6t3.5 -7 q1 -2 3.5 -8t4.5 -9q1 -1 4.5 -6t5.5 -9q1 -2 5 -8l1.5 -3t0.5 -2q2 -3 8 -11q4 -9 19 -31l3 -9q2 -2 8 -11q11 -17 13 -20q4 -7 13 -20t14 -20q3 -5 12 -19.5t15 -20.5q0 -1 26 -41q4 1 5.5 3.5t3 5.5t1.5 4q1 6 7 14q2 2 6 15q1 2 3.5 6t2.5 6t3 14q1 2 3.5 5.5t3.5 5.5 q21 49 26 73q1 6 4 17.5t5 17.5q1 4 3.5 12.5t4.5 12.5q2 8 8 21q3 10 7 17q0 4 2 4q0 1 0.5 4.5t1.5 4.5q2 2 2 3l1 3q0 7 4 12q6 22 9 27q1 5 5.5 14.5t6.5 16.5q1 6 5.5 15t5.5 14q1 2 4 10.5t5 12.5q1 3 3 11q0 1 2 2.5t2 2.5q0 4 1 5q1 6 5 11q3 10 3 11q0 3 1 5.5 t2.5 5t2.5 4.5q2 2 2 6q0 2 2 7t2 6l15 39t15 38q6 11 13.5 26.5t12.5 26.5q5 10 9 20q5 16 12 29l2 6q2 5 4 7q8 11 19 7q7 0 9 -2q8 -8 8 -10l1 -4q2 -3 4 -5q4 -5 22 -36q1 -1 4.5 -6t4.5 -8q0 -1 1.5 -3t3.5 -4.5t3 -3.5l9 -12q4 -8 8 -15.5t7 -13.5q8 -14 13 -24 q5 -9 16 -32q8 -17 10 -23q6 -6 6 -13q2 -3 11 -18z" glyph-name="w" horiz-adv-x="1461" unicode="w"/><glyph d="M1063 694q-1 -8 -8 -15q-1 0 -4 -1t-5 -2q-1 -1 -2.5 -3t-2.5 -3q-6 0 -12.5 -4.5t-10.5 -5.5q-2 -2 -6 -6.5t-5 -5.5q-12 -3 -20 -8l-10 -5q-2 -2 -7.5 -6t-7.5 -7t-8 -6.5t-8 -6.5q-9 -7 -22 -13h-1q-1 0 -1 -1q-3 -3 -6 -4q-9 -6 -13 -9q-1 0 -1 -1l-1 -2l-1 -1h-2 q-5 -2 -11 -7l-4 -4l-6 -3q-1 -1 -7 -4.5t-10 -5.5q-1 0 -4.5 -3t-5.5 -4l-6 -3q-2 -1 -7 -6q-1 -1 -3.5 -2.5t-5.5 -3l-5 -2.5l-1 -2l-3 -3l-6 -3q-1 -1 -5 -2.5t-6 -3.5l-2 -2q-1 -1 -3 -2t-5 -2t-4 -2q-3 -2 -13 -7q-6 -4 -20 -14.5t-25 -18t-23 -12.5q-2 -1 -6.5 -5.5 t-6.5 -5.5q0 -1 -1 -1h-2q-2 -2 -4 -3q-34 -20 -38 -23q-7 -5 -22 -13t-19 -11l-4 -4q-1 0 -3 -1t-3 -1l-2 -1q-2 -1 -3 -2q-24 -14 -25 -14q-12 -10 -20 -13q-2 1 -3 -1t-2 -2q0 -1 -5 -3q-1 -1 -4 -3t-4 -4q1 -3 3 -5t5 -4t4 -3q4 -4 14 -10q2 -3 6.5 -6.5t5.5 -4.5 q2 -2 6.5 -5t6.5 -5l15 -12l4 -4q2 -2 9.5 -7t10.5 -9q3 -1 6.5 -5t5.5 -5q4 -3 12.5 -10.5t14.5 -10.5q6 -6 16 -14q1 -1 7 -4q1 -1 5 -4.5t6 -5.5q1 0 1 -0.5v-1.5q1 -1 4 -3t5 -4q18 -14 34 -28q1 0 5 -4q3 -2 9.5 -7.5t7.5 -6.5l2 -1q1 -1 16 -13q1 0 6.5 -5.5t9.5 -7.5 l5 -5q6 -4 7 -5l5 -5q4 -3 13.5 -10.5t14.5 -11.5q4 -2 10 -8q6 -3 10 -7q2 -2 2 -3q2 -1 8 -5q4 -4 7 -6q1 -1 3 -1l1 -2q0 -1 1 -1q1 -1 3.5 -3t3.5 -3t3.5 -3t4.5 -3q0 -1 1 -1h2l1 -1q1 -1 1 -2q2 -2 8 -5.5t8 -6.5q2 -1 6 -4t6 -4q0 -2 1 -2q11 -5 12 -12 q-1 -2 -3 -5.5t-2 -4.5q-16 -4 -33 13q-3 1 -7 5t-7 5q-1 1 -52 43q-2 1 -6.5 5t-7.5 5q-8 8 -25.5 21.5t-25.5 21.5q-11 8 -28.5 22.5t-24.5 20.5q-2 2 -7.5 6t-6.5 5q-8 8 -13 10q-8 8 -26 22q-5 6 -26 22l-3 3q-1 1 -2 1t-2 1q-2 1 -6 5.5t-6 5.5l-4 2q-2 2 -2 4 q-10 6 -14 10l-3 3q-6 4 -7 5l-1 2q-5 3 -14 11t-14 11q-4 4 -14 10q-10 10 -13 11q-1 2 -6 5t-6 6q-3 1 -7 4.5t-8 4.5q-5 -1 -11.5 -6.5t-10.5 -6.5q-6 -5 -20 -15q-2 0 -5.5 -2.5t-6.5 -3.5q-1 -2 -5 -4t-5 -3q-1 0 -8 -5q-9 -6 -13 -10q-4 -1 -10.5 -6t-10.5 -7 q-3 -2 -31 -22q-25 -13 -32 -20q-3 0 -4.5 -1.5l-3.5 -3.5l-3 -3q-8 -5 -9 -8q-5 -3 -15.5 -10.5t-16.5 -10.5q-1 -2 -5 -3.5t-5 -3.5q-4 -2 -10.5 -7t-10.5 -7q-2 -2 -6 -5t-7.5 -5.5t-7.5 -4.5q-2 -2 -6.5 -4.5t-5.5 -3.5q-2 -2 -19 -13q-10 -8 -26 -26q-4 -1 -8.5 -4.5 t-7.5 -4.5q-2 -2 -8 -5t-8 -5l-11 -8q-11 -8 -16 -13l-15 -15q-3 -1 -33 -26q-6 -4 -10 -8q-2 -2 -5 -8t-6 -8q-17 4 -18 13q0 5 5.5 8.5t6.5 4.5q6 7 13 13q8 8 26 22q4 3 13.5 11t14.5 11q3 3 13.5 10t14.5 12q16 8 23 14l1 2q0 1 1 1q1 1 3 1q1 1 1 2q0 2 1 2q2 0 3 1 q2 1 5 4.5t5 4.5q2 2 4.5 4t5.5 4.5t5 3.5l1 2q0 1 1 1q1 1 3 1q3 3 11 8t11 8q5 3 14.5 9.5t15.5 9.5q4 5 14.5 11t14.5 11q6 3 15.5 10t14.5 10q9 8 29 20q5 4 15.5 10.5t14.5 9.5q10 7 30 20t29 20q4 2 14 9t17 10q2 3 14 10q1 1 6.5 5t7.5 6q-1 2 -13 12q-1 1 -6.5 5 t-7.5 6q-2 1 -13 9.5t-16 13.5q-4 1 -8.5 5.5t-7.5 5.5q-6 6 -14 11q-9 8 -29.5 22.5t-29.5 21.5q-30 22 -46 32q-30 22 -46 31q-4 5 -16 11q-5 5 -15 10q-1 1 -12 8l-3 3q-1 1 -2 1q-2 1 -3 1l-3 3q-1 1 -4 3l-3 3q-2 0 -3 1q-2 1 -28 19l-45 33q-17 14 -45 32q-6 5 -17 12 t-14 9q-2 1 -4.5 3t-3.5 2l-7 5q-2 1 -4.5 3t-4.5 2l-5 8q4 13 17 6q4 -1 9 -4.5t8 -4.5q1 -1 22 -14q6 -4 10 -7q15 -9 18 -11q4 -4 10 -7q2 -1 5 -4t5 -4q6 -2 8 -4q2 -1 6 -5q37 -28 54 -39q6 -5 20 -15q6 -3 7 -4q2 -1 4 -3l4 -2q8 -6 13 -9l4 -2q1 -1 1 -3q5 -2 29 -18 q22 -14 32 -22q3 -3 10 -7t9 -5t5.5 -4t5.5 -4q1 -1 6.5 -5t8.5 -6q1 -1 4.5 -3t5.5 -4q1 -1 4 -3q31 -23 34 -25q6 -4 16.5 -12t14.5 -11q2 -1 10.5 -7t12.5 -10l3 -3q1 -1 2 -1t2 -1q2 -2 7 -6.5t8 -6.5q1 0 6.5 -4t7.5 -7q6 -3 15.5 -11t15.5 -11q3 1 8.5 3.5t6.5 3.5 q17 11 20 13t22 13q2 1 6 3.5t6 3.5q5 5 17 11.5t17 10.5q4 1 9.5 5t7.5 5q2 2 8 5t9 6q1 0 2.5 1t3 2.5t2.5 1.5q1 1 2 1q2 1 3 1l1 2h2l1 2h2l1 2h2l1 2l15 9q10 5 12 8q2 1 7.5 5t9.5 5q2 3 8.5 7t7.5 5q27 17 49 32l3 1q3 1 4 2l1 2h2l1 2h2l1 2q6 2 12 6t13 9t12 8 q1 1 7 4.5t9 5.5q11 7 65 43q3 2 8.5 6t8.5 6q1 1 7 4.5t8 6.5q2 0 7 6q2 2 9 4q0 2 2 2q2 2 7 5t6 4q2 0 3 1q1 0 2 1q2 2 3 2q2 0 2 2q1 1 3.5 2t3.5 1q11 8 14 10q2 1 10 6t11 8q4 1 10 6l6 4q2 2 3 2q11 1 17 -8z" glyph-name="x" horiz-adv-x="1074" unicode="x"/><glyph d="M817 717v-2q-2 -4 -7.5 -9.5t-6.5 -7.5q-2 -2 -4.5 -5.5t-5 -5.5t-5.5 -3q-1 -4 -4 -7.5t-7.5 -7.5t-6.5 -6t-4 -6q-13 -13 -14 -15q-2 -1 -7 -5t-7 -5q-1 -3 -2.5 -5t-4 -4.5l-3.5 -3.5q-3 -2 -6.5 -7t-4.5 -6q-2 0 -5 -3t-6 -4q-2 -4 -7 -9l-7 -7q-5 -9 -7 -11 q-1 -1 -6 -5.5t-10 -4.5q-2 -4 -7.5 -9.5t-6.5 -7.5q-11 -13 -12 -16q-7 -5 -18 -16q-1 -1 -2 -2.5t-3 -3t-3 -2.5q-5 -5 -7 -8q-3 -2 -5.5 -5t-5 -7t-4.5 -6l-8 -8l-3.5 -3.5t-4.5 -3.5q-1 -4 -6 -10t-6 -10q-3 -2 -7.5 -7t-7.5 -7q-4 -6 -12.5 -15.5t-9.5 -11.5 q-2 -4 -5 -7.5t-7 -7.5l-6 -6l-10 -10q-1 -2 -3.5 -5.5t-3.5 -6.5q-3 -2 -9 -9t-10 -9q-2 -4 -8 -12q-2 -3 -6.5 -8.5t-6.5 -8.5q-18 -20 -22 -27q1 -7 2.5 -19t2.5 -22t1 -20q3 -47 0 -59q0 -14 -0.5 -67t1.5 -68q3 -15 3 -20q2 -13 -3 -20q-1 2 -4 1t-5 -1q-13 0 -10 16 q-4 58 -3 90q0 7 0.5 22t0.5 23t1 23t1 22q0 3 -1 9.5t-1 9.5q-1 7 -0.5 19t0.5 18q-1 9 -3.5 24.5t-3.5 22.5l-2 4q-3 5 -2 9q-16 18 -50 52q-4 5 -13.5 13.5t-12.5 12.5q-3 3 -11.5 12t-14.5 13l-9 9l-3 3l-1 2q-1 1 -4 1q0 3 -1 3q-5 6 -17 18q-5 5 -14 13.5t-13 12.5 l-2 2q-2 1 -3 2t-1 3l-2 2q-6 7 -19 18.5t-17 15.5l-18 18q-3 3 -9.5 8t-9.5 8l-2 3q-2 3 -4 4q-1 0 -1 1l-2 1l-2 2q-1 2 -2 3q-4 2 -5 3q-3 2 -9 8.5t-9 8.5q-2 2 -8.5 8t-9.5 9q-35 35 -52 54q-22 24 -33 37q-2 1 -6 6t-7 6q-1 1 -5.5 6t-4.5 10q6 1 9 2t7.5 -2t6 -4.5 t5.5 -6t5 -5.5q6 -3 14.5 -13.5t11.5 -12.5q3 -4 7 -8.5t9 -10t8 -8.5q8 -10 26 -26q23 -24 61 -57l19 -19q5 -3 6 -4q3 -2 8 -7l7 -7q3 -3 10 -9.5t10 -9.5q45 -45 53 -54q3 0 3 -2q1 0 1 -3q1 -1 3.5 -2t3.5 -2l4 -4l5.5 -5.5l4.5 -4.5q23 -22 64.5 -64.5t51.5 -52.5 q2 0 4.5 3t3.5 3q2 5 7 10.5t6 8.5l1 2q1 2 2 2l3 3q0 1 1 2t1 2l12 12q1 1 5 6.5t6 7.5q1 2 7 8q5 7 7 7q2 4 7 8.5t6 7.5q4 4 23.5 26.5t28.5 36.5q10 12 14 15q1 1 2.5 3t3 4.5t2.5 3.5q10 12 16 18l1 2h2q1 1 2.5 3.5t3.5 4.5t7 6.5t8.5 8t6.5 7.5l12 15 q13 10 33.5 32.5t30.5 31.5q9 10 30.5 31.5t32.5 33.5q3 4 10 11l9 12q3 1 6.5 5.5t4.5 5.5t2.5 3.5t3.5 4t5 1.5q1 -1 4 -2q7 -3 6 -10q2 -2 2 -3z" glyph-name="y" horiz-adv-x="818" unicode="y"/><glyph d="M697 683q-1 -3 -12 -12q-3 -3 -8 -5q-6 -9 -20 -22t-18 -18q-3 -2 -9.5 -9t-11.5 -9q-1 -1 -5 -4t-5 -6l-4 -3q-5 -3 -6 -6q-1 0 -11 -8q-1 -3 -5.5 -5.5t-5.5 -3.5q-1 -4 -10 -10q-2 -1 -5 -3.5t-5 -4.5q-13 -15 -20 -18q-1 -2 -4.5 -5.5t-4.5 -5.5q-2 0 -2.5 -2.5 t-1.5 -2.5q0 -1 -2.5 -2t-1.5 -3q-3 -1 -7 -4t-7 -4q-1 -2 -5.5 -6.5t-5.5 -8.5q-3 -2 -7.5 -6t-6.5 -6q-17 -15 -24 -27q-2 -2 -7 -4.5t-7 -4.5q-1 -1 -2.5 -4.5t-3 -5.5t-4.5 -2q-14 -14 -25 -22q-2 -3 -8 -7q-1 -1 -4 -6q3 2 4 1q-7 -3 -8 -9q-4 -2 -14 -12 q-8 -10 -13 -13q-1 -1 -2.5 -5t-2.5 -6q-5 -4 -9.5 -8.5t-10 -10.5t-8.5 -9q-3 -2 -6.5 -8t-6.5 -8q-3 -4 -9.5 -11t-9.5 -10q-6 -8 -20 -22q-2 -3 -6.5 -7.5t-6.5 -7.5q-1 -1 -6 -8q-3 -4 -11.5 -12t-12.5 -12q-1 0 -3 -2t-4 -3q-19 -22 -21 -23l-4 -5l-4 -4 q-13 -17 -22 -23q-2 -6 -13 -19l-16 -16q-1 -3 -8 -8q-5 -10 -7 -12l-1 -1q-1 -1 -1 -2l-2 -1q-2 -1 -3 -2t-1 -3l-18 -18v-1l-1 -1q-2 -2 -7 -8t-8 -9l-18 -18q-1 -4 -5.5 -9.5t-5.5 -10.5q6 0 42 5q13 1 39 -2.5t39 -2.5q14 0 54.5 2t63.5 2h57t59 -1q12 -1 38 -1 q14 -1 40 -1q13 0 38 -1t38 -1h138h6t6.5 -1t4.5 -3q5 0 5.5 -5t1.5 -6q0 -2 -3 -2t-2 -3q1 -2 -0.5 -2.5t-2.5 0.5h-2q-1 0 -2 -1t-3 0q-35 -1 -83 4q-4 1 -10 -1t-10 -2q-3 0 -17 2q-9 1 -27 0t-27 0q-7 0 -22 1.5t-23 1.5h-3l-2 -1q-9 0 -27 1t-26 1q-35 0 -52 1 q-3 0 -9 1t-8 1q-4 1 -11.5 0t-9.5 -1q-59 0 -66 1q-9 -1 -95 -4h-67q-4 0 -12 2t-13 1q-1 0 -3 -1t-3 -1q-23 -2 -34 -1q-7 0 -11 2q-1 1 -3.5 2t-5 2.5t-3.5 3.5q-1 5 4 10.5t5 6.5q1 3 4.5 8t4.5 8l9 9q7 7 7 8q6 5 15.5 16.5t15.5 16.5l6.5 6.5t6.5 10.5q6 6 16 16.5 t15 15.5q5 10 17.5 24t16.5 21q5 3 8 8q5 6 9 9t9 8q2 3 7.5 8.5l7.5 7.5q3 0 5 4q2 3 4 3q2 2 6 7t7 8q2 2 6.5 7t6.5 7q4 4 12.5 14t13.5 15q2 3 15 17q13 16 15 17q2 4 7.5 9t6.5 8q3 1 5 4t4 4q2 4 5 7q0 1 1 2l1 2q0 1 1 1t2 1q4 6 5 7q0 1 2.5 3t2.5 4q13 11 15 16 q5 4 7.5 7.5t8.5 8.5q2 2 4.5 5t5 6.5t4.5 5.5l2 1q1 0 1 1q-4 -7 -7 -10l5.5 5.5l6.5 6.5l6 6q4 4 17.5 18.5t21.5 21.5q0 1 1.5 2t3.5 1.5t3 1.5q0 2 2 4l4 4q28 28 35 32q1 2 4 5.5t4 6.5q2 1 5 4.5t6 4.5q8 8 9 10q3 1 10 10q7 5 21.5 17t21.5 18q8 9 41 37l14 14t15 16 q1 1 4.5 3.5t4.5 5.5q-13 6 -57 4q-2 0 -6 0.5t-6 0.5q-1 0 -3 -0.5t-3 -0.5t-2 1.5t-2 0.5q-15 -3 -34 -1q-5 2 -27 0q-1 0 -2.5 0.5t-2.5 0.5q-3 0 -11 -2h-76q-6 0 -17.5 -0.5t-17.5 -0.5q-5 0 -16.5 0.5t-17.5 0.5q-7 0 -21 -1t-21 -1q-4 0 -14 1.5t-17 0.5h-8h-26.5 h-31.5h-27q-140 -3 -170 -2q-9 1 -12 11q1 5 8 7l1 -1h3q8 1 19 1.5t24.5 1t20.5 0.5q15 1 43 1h43t42.5 0.5t42.5 0.5q6 0 19.5 -1.5t21.5 -0.5q68 2 137 0q1 0 3 0.5t3 0.5h41q17 0 50.5 1t51.5 1q9 0 25 -1t25 -1h52q7 -5 10 -17zM392 397q-1 -2 0 -1q2 1 3 1h-3z" glyph-name="z" horiz-adv-x="744" unicode="z"/><glyph d="M284 732q-12 -1 -66 -15q-27 -16 -41 -33t-23 -33q-5 -10 -7 -12q-2 -7 -11 -27q-4 -12 -11 -27l-3 -18q-3 -16 -8 -92q-1 -13 -1 -38q0 -2 -1 -6t-1 -6v-7q-2 -10 -2 -11t-2 -6.5t-2 -9.5q0 -6 -8 -20q-4 -7 -15 -21q1 -2 11 -9q2 -2 5.5 -7.5t4.5 -6.5q18 -36 17 -92 q0 -23 -1 -34q0 -3 -1 -8.5t-1 -7.5q-1 -6 -1 -18q0 -1 -0.5 -3.5t-0.5 -4.5t0.5 -4.5t0.5 -3.5q-2 -35 2 -58q1 -2 5.5 -19t8.5 -24q2 -4 20 -22q2 0 6 -5q21 -14 43 -21q15 -5 45 -13q19 -5 41 -6q6 0 7 -3.5t-2 -6.5t-6 -3q-9 1 -15 1t-16 2q-9 1 -24 5q-2 0 -5.5 2 t-5.5 2q-2 1 -6 1q-29 9 -43 16q-2 1 -14 8q-26 17 -33 25q-1 2 -5.5 8t-6.5 9t-13 36q0 4 -0.5 11t-1.5 11q0 1 -1.5 8.5t-1.5 11.5q0 3 0.5 8t0.5 7t-0.5 7t-0.5 8q0 10 2.5 34.5t2.5 37.5q0 25 -1 37q-1 6 -2.5 17.5t-1.5 16.5q-6 19 -16 30q-5 2 -5 3q-8 6 -13 8 q-10 4 -10 9t3.5 8t9 4.5t7.5 3.5q10 15 12 19q5 9 9 40q2 10 2 15q0 3 -0.5 7.5t-0.5 6.5q0 6 0.5 13.5t1.5 16.5t1 14q2 28 3 43q2 26 5 38t22 57q9 20 11 24q1 2 5 7.5t6 8.5q4 2 5 7q1 1 5 7q3 4 23 22q13 12 26 18q20 9 48 16q4 1 38 1q1 0 3 -1t3.5 -1.5t3.5 -2t2 -3 t-1 -4.5q-3 -6 -19 -3z" glyph-name="braceleft" horiz-adv-x="326" unicode="{"/><glyph d="M77 -120q-5 2 -7 12v5.5v6.5v5q0 5 0.5 10.5t2 12t1.5 8.5v20v20q0 7 0.5 20t0.5 20q0 12 -0.5 36.5t-0.5 36.5q-1 22 -1 132.5t-2 137.5q-1 51 -1 213q-3 132 -3 146v20q0 22 -1 33q0 11 5 12q7 1 11.5 0t6 -5t1.5 -7.5t-0.5 -10.5t-0.5 -10q0 -9 -0.5 -26t-0.5 -23 q0 -7 1 -37.5t1 -38.5v-2q-1 -2 -1 -3q0 -4 1 -12t1 -13q1 -19 1 -79.5v-81.5v-22q0 -33 1 -50q2 -34 2 -220q0 -34 1 -50q1 -14 1 -50q0 -30 -2 -100q0 -17 2 -47q-2 -1 -2.5 -7t-2.5 -8q-10 -5 -15 -4z" glyph-name="bar" horiz-adv-x="163" unicode="|"/><glyph d="M48 -30q-13 3 -10 11q2 2 3.5 2t5.5 -1.5t6 -1.5q32 -1 66 15q20 10 41 35q5 6 12 19.5t8 15.5q1 1 1.5 3t1.5 3.5t1.5 3t1.5 2.5q4 12 12 27q1 6 5 15t4 14q1 3 1 8.5t1 8.5q3 17 5 92q1 7 0.5 19.5t-0.5 18.5q0 2 1 6t1 6q0 1 -0.5 3.5t-0.5 3.5t1 2t1 2v7q3 12 2 16 q5 8 9 21q2 3 6.5 10.5t7.5 10.5q-5 6 -11 11l-11 11q-19 36 -20 92v34q0 2 1 8t1 8v18q0 2 0.5 4t0.5 4t-0.5 5t-0.5 4q0 33 -4 57q-11 32 -16 42q-6 8 -20 22q-3 1 -6 4q-21 13 -45 20q-21 6 -44 7q-42 0 -44 7q-3 11 34 11q16 0 25 -2q6 -2 10 -3q2 -1 6 -1 q34 -11 44 -15q2 -1 14 -8q24 -14 34 -23q2 -3 6 -8.5t6 -8.5q15 -24 15 -37q0 -7 2 -21q0 -3 2 -9t2 -10q0 -3 -0.5 -8t-0.5 -7q2 -10 2 -15q0 -10 -2 -35t-1 -38q0 -6 0.5 -18t1.5 -18q4 -25 5 -34q8 -20 17 -30l6 -3q5 -4 13 -7q10 -4 10 -9q-1 -6 -9.5 -11t-9.5 -6 q-2 -3 -5.5 -9.5t-6.5 -9.5q0 -1 -3 -16t-4 -24q-2 -10 -2 -15q0 -3 0.5 -7.5t0.5 -6.5q1 -8 0 -23.5t-1 -20.5q-1 -7 -1.5 -21.5t-0.5 -21.5t-2 -19t-2 -18q0 -10 -2.5 -19t-9.5 -23t-8 -17q-4 -14 -10 -25q-1 -1 -5 -6.5t-5 -8.5q-5 -5 -5 -8q-1 -1 -5 -7q-7 -11 -22 -22 q-9 -9 -27 -17q-21 -11 -40 -15q-24 -6 -41 -2z" glyph-name="braceright" horiz-adv-x="324" unicode="}"/><glyph d="M514 394q14 -7 9 -14q0 -4 -2 -5.5t-6 -2t-6 -1.5q-3 0 -9.5 -2t-10.5 -2q-6 -3 -19.5 -6.5t-16.5 -4.5q-8 -1 -29 -4t-34 -4q-4 0 -11 -0.5t-11 -0.5q-5 0 -17 1.5t-14 1.5q-38 4 -58 8q-2 1 -7 2t-7 2q-14 3 -33 8h-4l-2 2l-15 3q-2 1 -6 2t-6 2q-8 2 -58 10 q-22 3 -46 -4q-3 -2 -9 -4.5t-9 -3.5q-15 -8 -18 -7q-9 2 -9 9q0 5 12 12q14 9 16 10q20 9 45 9t41 -3t47 -12.5t38 -11.5q2 -1 53 -9q2 0 7 -0.5t7 -1.5q2 0 4 -1t3 -1h8q4 -2 6 -2h8q10 -2 14 -2q16 -1 37 2q40 3 65 11q4 1 11.5 3t11.5 3q10 3 13 4l3 1l1 2q7 3 13 2z " glyph-name="asciitilde" horiz-adv-x="575" unicode="~"/><glyph glyph-name="uni00A0" horiz-adv-x="300" unicode=""/><glyph d="M68 336q0 24 2 70q3 36 3 92q0 24 1 27q9 9 23 6q3 -3 3 -7.5t-0.5 -10.5t-0.5 -10q0 -2 -0.5 -7t-1.5 -11.5t-1 -9.5q-2 -9 -2 -36.5v-31.5q0 -3 -1 -10.5t-1 -11.5t-0.5 -12t-0.5 -12q0 -1 0.5 -1t0.5 -1q-2 -14 -2 -45v-2q1 -2 1 -3q0 -7 -1.5 -20.5t-1.5 -19.5 q0 -29 4 -77q3 -28 1 -64q0 -6 -1.5 -18t-1.5 -18q-1 -29 -1 -86q-1 0 -6.5 -2t-9.5 -2q-2 2 -4 2q-2 4 -2 22q0 45 1 65q0 5 1 14t1.5 16.5t0.5 14.5t-1 21t0 22q-1 7 -1.5 15t-1 18t-0.5 15q-1 10 0 55t1 54zM76 626q0 4 -1 34t0 37q4 4 18 4q4 -3 4 -20q-1 -21 3 -55 q-4 -5 -12.5 -5t-11.5 5z" glyph-name="exclamdown" horiz-adv-x="167" unicode=""/><glyph d="M327 765q1 -1 5.5 -1.5t5.5 -2.5q0 -46 3 -67q46 -5 59 -9q3 -1 9 -5q2 -1 5.5 -1t5.5 -1q6 -2 7 -3q5 0 7 -1q1 0 11.5 -5t16.5 -6q34 -18 46 -28q9 -10 19 -19q1 -2 10 -7.5t8 -12.5q-9 -9 -26 6q-1 2 -8 9q-1 2 -4.5 4t-3.5 5q-3 1 -6.5 4.5l-4.5 4.5t-4.5 3t-4.5 5 q-7 3 -26 12q-3 2 -7 3.5t-9 3t-8 2.5q-4 0 -10 2t-7 2q-11 3 -12 4q-46 10 -63 7q-3 -16 1 -39q0 -7 3 -40q1 -6 2 -20t1 -20q9 -104 4 -228q-1 -10 -2.5 -30.5t-1.5 -29.5q-1 -15 -1 -40q-2 -28 -2 -41q0 -6 0.5 -20t0.5 -21q0 -10 -1 -53.5t0 -69.5q5 -2 12.5 -2.5 t17.5 -0.5h15q5 1 21 3.5t26 4.5q29 7 63 24q3 2 9.5 8t8.5 8q5 4 13 5t13 -4q3 -8 -7 -20q-4 0 -4 -1l-2 -2q-3 -2 -9 -5q-13 -9 -38 -18q-17 -7 -42 -14q-26 -5 -47 -8q-8 -1 -25 -0.5t-23 0.5q-2 -20 1 -54q0 -2 1 -5t1 -4q2 -10 -3 -15q-11 -8 -22 3q-6 74 -7 77 q-5 4 -21 4q-26 7 -40 8q-5 3 -28 10q-4 3 -16.5 7.5t-17.5 7.5q-22 11 -31 20q-4 1 -8 5t-7 5q-30 28 -37 33q-5 7 -13.5 18.5t-10.5 15.5q-18 39 -20 43q0 1 -5.5 12t-7.5 17q-1 8 -3 20q0 2 -3 14t-4 18q-1 10 0 33t-1 35q9 66 24 103l3 6q2 4 6 14t8 18.5t7 16.5 q0 1 1 3t1 3l2 1v2q0 2 1 3q1 3 4.5 9t4.5 8q8 16 15 23q5 12 17.5 31t16.5 27q10 7 26.5 24t26.5 24q4 3 10.5 7t11.5 7t10 5q5 5 17 11t16 9q6 1 19 5t22 5q1 9 -1 36t2 35q1 0 6 0.5t6 1.5zM311 671h-1l-1 -1h-2q-11 -2 -42 -14q-11 -6 -33 -20q-23 -17 -57 -53 q-5 -10 -15.5 -23.5t-12.5 -17.5q-7 -11 -11 -21q-11 -22 -16 -33q-31 -63 -36 -83q-4 -9 -8 -33q-1 -5 -3.5 -18.5t-2.5 -20.5q-5 -51 4 -93q2 -8 5.5 -24t4.5 -21q24 -52 36 -66q24 -33 51 -52q59 -50 146 -55q4 30 4 86.5t2 78.5q1 14 1 41.5t1 42.5q0 10 2.5 37.5 t2.5 41.5q0 138 -2 166q-1 22 -5 81q-6 30 -8 58q0 15 -4 16z" glyph-name="cent" horiz-adv-x="590" unicode=""/><glyph d="M483 534q-6 -1 -7.5 -1.5t-3.5 5t-3 7.5q-1 3 -4 7t-3 7q-5 15 -7 17q-1 3 -4 8.5t-4 7.5q-4 4 -12 13t-12 13q0 2 -2.5 4t-2.5 3l-6 6q-2 1 -6 5.5t-8 5.5q-14 14 -62 35q-3 0 -5 0.5t-5 1.5t-5 1q-3 0 -8.5 3t-8.5 3q-51 2 -106 -28q-19 -19 -40 -37q-18 -32 -20 -36 q-2 -3 -16 -40q-1 -4 -3 -11.5t-4 -11.5q0 -5 -0.5 -14t-1.5 -14l-3 -27q0 -8 2 -22q1 -5 12 -57q18 -51 26 -66q8 -1 24.5 -2t24.5 -2q4 0 14 -2h17.5t17.5 -1q4 0 15.5 -1t17.5 0q14 2 22 0q15 -5 16 -11q-1 -10 -18 -12q-3 1 -9 1h-9q-4 0 -5 1l-58 3q-6 1 -16 1 q-29 5 -43 4q-1 -2 -0.5 -3t2 -3.5t1.5 -3.5q0 -2 2 -5t2 -5l9 -21q22 -53 25 -64q20 -75 3 -135q0 -2 -2 -8.5t-2 -9.5q4 0 20 11q4 1 15.5 4.5t18.5 5.5q10 0 11 1q10 -2 26.5 -2.5t23.5 -1.5q13 -4 18 -5q4 -2 5 -2q11 -4 20 -8q1 -1 4 -1.5t4 -0.5t5 -2l6 -3q4 -1 16 -5 q3 -1 7.5 -3t6.5 -3t7 -2t7 -3q26 -5 51 4q5 1 13 6t13 6q2 1 4.5 5t5.5 5q5 5 13 6q10 2 14 -4q5 -18 -12 -22q-2 -2 -7 -4.5t-6 -4.5l-29 -13q-1 0 -16 -3h-6q-6 -3 -11 -3q-7 -1 -19 1t-41 12q-2 1 -6.5 2.5t-6.5 2.5q-4 1 -12 5q-10 2 -13 4q-1 0 -13 5q-4 2 -12.5 4 t-12.5 4q-9 2 -38 2q-14 1 -34 -5q-2 -3 -8 -5t-8 -4q-22 -11 -32 -20q-2 -1 -8 -3t-9 -4q-2 -1 -7.5 -7t-10.5 -7t-13 7q-7 7 -5 10q0 4 2 6t6.5 3t6.5 2q1 1 2.5 4.5t3.5 5.5q1 2 4 4t4 3q6 14 10 21q1 5 5 17t5 19v9q0 2 1 7.5t1 8.5t-0.5 12.5t-0.5 14.5q0 3 -1 8 t-1.5 9t-0.5 7q-4 17 -5 23q-11 36 -13 39q-2 8 -15 38q0 1 -6.5 15.5t-10.5 21.5q-61 4 -83 2q-10 -1 -15 1q-6 2 -5 9q3 8 15 7q12 0 37.5 1.5t40.5 0.5q-2 8 -10 23q-1 5 -4.5 14t-4.5 13q-11 38 -13 44q-1 4 -2 9.5t-2 12.5t-2 11v24v24q0 3 2 12.5t2 15.5l3.5 10.5 t4.5 10.5q1 1 1 4.5t1 5.5l2 1q2 6 3 10q13 28 16 39q6 14 16 24q16 14 45 43q3 2 10.5 5t11.5 5q8 2 13 4q1 0 4 2.5t5 3.5q12 3 23 5q7 3 30 5h1q6 0 15.5 -2t20.5 -1l9 -2l8 -2q3 0 8 -2t8 -3q2 -2 12.5 -8t15.5 -10q6 -2 15 -9t14 -9q1 -3 5 -6t5 -5q4 -4 12 -10 q3 -6 10 -13t10 -11q4 -4 10 -12l9 -12q2 -5 7.5 -13.5t7.5 -13.5q0 -2 1 -8t-1 -7v-4t0.5 -3t0 -2.5t-2.5 -2.5z" glyph-name="sterling" horiz-adv-x="581" unicode=""/><glyph d="M645 713q11 2 14 -5q1 -5 -1 -9t-6 -9t-5 -8q-4 -4 -16 -21l-2 -2t-2 -1q-4 -6 -8 -10q-1 -2 -3.5 -5.5t-4.5 -5.5q-1 -1 -5 -7q-3 -4 -11 -14q-5 -8 -17 -24t-17 -23q-6 -5 -12 -12t-12.5 -16.5t-10.5 -14.5q-46 -60 -68 -91q-6 -8 -17 -23t-17 -23q-3 -3 -8.5 -10.5 t-9.5 -10.5q-1 -2 -7.5 -10t-8.5 -13q2 -2 12 -2q16 -1 49.5 -1.5t43.5 -0.5q18 -1 110 -1q1 2 6 0.5t6 -1.5q8 -5 9 -7q0 -4 -2 -6t-5 -4t-4 -4q-5 1 -30 1q-9 0 -30 0.5t-32 0.5q-5 0 -15 1t-15 1q-20 1 -62 1q-7 0 -29 1t-33 0q-2 0 -2.5 -1t-1 -3t-1.5 -3q-2 -1 -2.5 -4 t-1.5 -4q0 -4 -1 -11.5t0 -10.5q19 -1 59 -1.5t59 -1.5q87 -4 115 -3q12 -2 16 -2l1 1q1 -1 5.5 -1.5t5.5 -2.5q6 -2 6 -5q-1 -8 -7.5 -10.5t-14.5 -1.5t-16 -1q-9 3 -29 3q-10 1 -30 1q-54 3 -55 3q-2 0 -4 -0.5t-4 -0.5q-49 3 -110 3q-1 -10 1 -32t0 -34q-4 -44 -6 -67 q-2 -27 -4 -103q0 -25 -7 -29q-8 0 -9 3q-4 0 -8 4q-1 1 0 7.5t1 7.5q-1 0 -1 2q1 2 1 13q1 16 2.5 50t3.5 50q2 21 1 65t2 61q-29 2 -86 4t-79 3q-8 0 -22.5 1.5t-21.5 1.5q-4 0 -18 -1t-21 -1q-18 -2 -22 7q0 1 -0.5 3.5t-0.5 4.5q2 3 21 3q5 0 18 1t20 1q13 0 33 -2 q22 0 31 -3q26 1 77.5 -0.5t71.5 -1.5q7 15 3 36q-5 2 -33 2q-6 0 -17 -0.5t-17 -0.5q-133 3 -135 3q-8 0 -25.5 -0.5t-26.5 -0.5h-6.5t-8.5 2q-5 5 -5 14q3 1 31 1q6 0 16.5 0.5t15.5 0.5h64h10q7 1 27.5 0t26.5 -1q52 0 61 1q1 2 0 4t-3.5 4.5l-3.5 3.5q-4 3 -10 11 l-60 66l-21 21q-1 3 -5 6.5t-5 4.5q-2 1 -4.5 5t-5.5 5q-7 10 -22 26t-18 19q-18 20 -27 31q-4 4 -14 16l-1 1q-1 1 -2 1q-2 2 -5.5 7t-4.5 7q-14 12 -20 19t-19 20l-20 20q-13 13 -37 41q0 2 -3 6.5t-2 7.5q15 7 27 -13q6 -5 15 -15t12 -14l8 -8q8 -9 13 -13l2 -2t1 -2 t2 -1t2 -1v-1q0 -2 1 -2q1 -2 7 -7.5t9 -8.5q4 -5 16.5 -18t18.5 -21q17 -19 20 -24q4 -2 11 -11q8 -6 10 -11q10 -9 42 -46l48 -51l2 -2t1 -2q1 -2 6 -6t7 -7q2 -2 2 -4q9 -8 19 -19q4 -4 10 -12q14 -16 21 -23q11 -8 13 -8q3 0 5.5 0.5t4 1.5l3 2t2.5 2q1 2 4.5 5t4.5 5 q6 8 18 22q3 4 9 10q1 2 3.5 6t4.5 6q8 9 43 56l3 3q1 1 5 7q0 1 1 2l1 2q1 2 12 13q0 1 2 5q1 1 3.5 4.5t4.5 5.5q4 6 10 14q2 3 8.5 10t8.5 12q3 3 8 11t9 11q8 10 18 22q6 6 9 10l1 1v1q0 1 1 1l1 2l1 1l3 6l2 1v2l2 1v3q2 0 4 2q0 2 1 3l5 5q7 8 21 28q0 1 13.5 18 t17.5 28q4 2 8.5 8t7.5 8z" glyph-name="yen" horiz-adv-x="661" unicode=""/><glyph d="M70 503q-5 -6 -18 -2q-3 4 -1 15q0 10 1 28.5t1.5 33.5t0.5 28q0 6 1 18t1 18q0 7 -1.5 23t-0.5 24q7 9 18 5q2 -1 3 -5t2 -5q0 -2 -0.5 -6t-1.5 -7q4 -11 2 -34q-1 -21 -3 -67t-4 -67zM70 4q-5 -6 -18 -2q-3 4 -1 15q0 10 1 28.5t1.5 33.5t0.5 28q0 6 1 18t1 18 q0 7 -1.5 23t-0.5 24q7 9 18 5q2 -1 3 -5t2 -5q0 -2 -0.5 -6t-1.5 -7q4 -11 2 -34q-1 -21 -3 -67t-4 -67z" glyph-name="brokenbar" horiz-adv-x="128" unicode=""/><glyph d="M544 57q13 -25 14 -28l2 -8q1 -8 3 -10q6 -11 3 -40q1 -11 -5 -49q-5 -15 -12 -30q-2 -4 -7.5 -10t-7.5 -9q-2 -5 -16 -17q-16 -17 -41 -28q-2 -1 -8.5 -2t-9.5 -3q-13 -9 -33 -11q-33 -8 -98 -12q-21 0 -96 5q-16 2 -23 2q-4 1 -11.5 3t-10.5 2q-17 2 -41 8 q-4 1 -18.5 5.5t-21.5 6.5q-14 4 -19 7q-1 1 -5 3t-5 2q-1 2 -5 2l-4 1q-2 1 -6 4.5t-5 4.5q-8 3 -25 20q-1 2 -4.5 6t-4 6t0.5 7q15 7 20 1q3 -4 8.5 -9t7.5 -7l18 -12q42 -22 74 -28q4 0 7 -1q4 -2 15.5 -4t13.5 -2q18 -5 72 -12q134 -6 202 23q2 0 5 3t5 4q1 1 7.5 3.5 t9.5 5.5q1 0 1 0.5t1 0.5q11 6 27 26l3 6q2 2 5 3q4 8 8 15q0 2 2 3.5t2 3.5q0 11 2 17q0 3 1 8t2 8q7 42 -12 79q-3 4 -5 8q0 1 -1 1l-2 1q-3 10 -4 11q-2 2 -6 6.5t-6 6.5q-2 3 -6 7q-26 24 -31 27q-12 8 -33 15q-35 12 -93 26q-6 1 -94 27q-11 6 -22 7q-3 1 -10.5 3 t-11.5 3q-42 17 -46 19q-40 19 -67 53q-27 33 -31 66q-2 14 -2 38q3 17 4 18q1 2 1.5 6t0.5 6l3 6q1 3 1 7q10 23 23 34q7 6 19 18l17 17q-2 1 -18 14q-3 3 -10.5 9t-12.5 11.5t-8 11.5q-2 3 -4 11q0 2 -2 6.5t-3 7.5q-1 4 -1 28q0 3 3 10.5t3 11.5q0 3 6 14q0 1 1 4.5 t2 5.5q2 4 8.5 11.5t9.5 12.5q2 3 16 20q3 3 8.5 6t7.5 5t7.5 5.5t8.5 5.5q0 1 17 10q14 10 21 12q2 0 6.5 2t5.5 2q6 2 9 2q8 3 21 5q14 0 20 1q1 0 5 -0.5t6 -0.5q11 0 34 -1t33 -1q9 0 20 -3.5t17 -3.5q3 0 29 -9q6 -4 24 -12q8 -3 18 -7t18 -7.5t16 -7.5q20 -13 27 -23 q9 -12 11 -15q6 -3 8 -6l6 -6q1 -1 3 -5q7 -5 8 -8q1 -1 2 -4l1 -3v-1q2 -1 1 -5q-1 -9 -10 -12q-13 -4 -25 23q0 1 -2.5 4t-3.5 5t-3 3.5t-4 3.5l-3 3q-1 0 -1 1q-1 0 -4 3.5t-5 4.5q-2 2 -4.5 3t-3.5 3q-3 2 -15 8q-2 1 -5 5t-4 5q-7 5 -15 7q-1 0 -7 3t-10 4q-20 5 -32 9 q-6 3 -17 6t-15 5q-11 4 -40 6q-6 2 -18 3q-4 0 -12 0.5t-12 0.5h-14q-3 -1 -10.5 -1.5t-14.5 -1.5t-12 -4q-15 -4 -20 -7q-3 -3 -11.5 -5t-10.5 -3q-6 -3 -14 -9.5t-13 -8.5q-6 -2 -19 -18q-15 -15 -18 -20q-4 -7 -7 -17q-2 -3 -3.5 -9.5t-2.5 -9.5q-2 -3 -2 -9v-7 q-2 -10 4 -27q2 -6 12 -18q2 -1 4 -4t3 -4q5 -7 18 -16t15 -10q2 0 4 -1.5t3 -1.5q3 -2 13 -6q2 0 7 -2t7 -3q2 0 4.5 -2t3.5 -2q5 -1 13 -6q12 -4 16 -4t10 -4t9 -5t5.5 -2t4.5 -1.5t3 -0.5q2 -1 4.5 -2.5t5 -2.5t5.5 -1q8 -2 10 -3q8 -3 20 -7q8 -1 37 -12q13 -6 14 -9 q4 -2 9.5 -3.5t6.5 -2.5q7 -3 19 -9l16 -8q3 -2 14 -5.5t15 -7.5q8 -4 18 -14q2 -1 10 -6q3 -2 5 -3q16 -11 22 -13q1 -1 9.5 -5t13.5 -9q5 -1 17 -11q3 -2 12 -16q2 -3 5 -7t4 -6l2 -1l1 -1q1 -1 1 -2q1 -2 2.5 -4.5t2.5 -4.5q3 -3 4 -3q0 -3 2.5 -5.5t2.5 -3.5q1 -1 6 -10 q1 -2 1.5 -6.5t0.5 -5.5v-6t1 -8t2.5 -8.5t1.5 -7.5q1 -5 1 -11.5t-0.5 -15.5t-0.5 -15q0 -2 0.5 -4t0.5 -4t1 -5.5t0.5 -7t-2.5 -7.5q-1 -1 -2.5 -5t-3.5 -6t-2.5 -7t-1.5 -7q-3 -4 -7.5 -10.5t-7.5 -10.5q-2 -3 -4.5 -14t-3.5 -13zM522 81q2 -2 3 2q1 3 2 4l3 6q1 3 2 4 q1 2 3 4.5t2 3.5q2 5 4.5 13t3.5 10q1 6 1 13l3 7q3 6 4 10q0 3 -0.5 8t-0.5 7v2l1 1l-1 4q-2 5 -1 7q1 0 1 1q-2 4 -2 5t0.5 10.5t-0.5 11.5q-3 9 -6.5 17t-4.5 15q-1 3 -3.5 8l-3.5 7q-10 13 -13 15q-1 1 -4 3t-5 3l-5.5 5.5l-5.5 5.5q-3 2 -6 5q-12 5 -19 12q-8 9 -17 13 q-16 6 -21 10q-41 32 -66 41q-20 5 -34 12q-31 15 -37 17q-2 1 -10 3q-4 1 -12 5q-1 0 -6 0.5t-8 1.5l-3 2q-4 3 -6 4q-4 2 -16 3.5t-17 2.5q-1 0 -2.5 1t-2.5 1q-1 1 -4 1q-2 1 -3.5 3t-2.5 2h-2q-2 0 -2 1q-6 3 -11 5q-2 1 -10 2.5t-15.5 4t-10.5 6.5q-1 -1 -15.5 -11 t-17.5 -13l-1 -2q-4 -2 -5 -3q-2 -4 -10 -12t-10 -12q-6 -9 -8 -14q-3 -9 -5 -36q-3 -42 25 -88q2 -3 9 -8.5t10 -8.5q5 -5 9 -7q3 -2 7 -6q2 -2 5.5 -4.5t5.5 -4.5t6 -3.5t7 -3.5q10 -2 19 -5l18 -9q9 -4 40 -13q15 -5 48.5 -14t38.5 -11q30 -9 42 -11q1 0 4 -0.5t4 -1.5 l5 -3h4q5 -1 15 -5q34 -7 68 -24q11 -7 49 -38z" glyph-name="section" horiz-adv-x="602" unicode=""/><glyph d="M125 769q4 -6 -3 -23q-2 -5 -5.5 -10t-4.5 -6q-1 -3 -10 -7q-4 0 -4 -1q-12 -1 -24 4q-2 0 -4 2.5t-4 2.5l-2 2q-2 1 -3 2q-8 1 -11 18v12q0 2 2.5 5.5t2.5 6.5q0 1 2.5 2t1.5 3q1 0 1 2l1 2q1 0 5 5t7 7q5 3 18 3q16 -2 21 -5q9 -12 10 -13q3 -6 3 -14zM351 769 q4 -6 -3 -23q-2 -5 -5.5 -10t-4.5 -6q-1 -3 -10 -7q-4 0 -4 -1q-12 -1 -24 4q-2 0 -4 2.5t-4 2.5l-2 2q-2 1 -3 2q-8 1 -11 18v12q0 2 2.5 5.5t2.5 6.5q0 1 2.5 2t1.5 3q1 0 1 2l1 2q1 0 5 5t7 7q5 3 18 3q16 -2 21 -5q9 -12 10 -13q3 -6 3 -14z" glyph-name="dieresis" horiz-adv-x="403" unicode=""/><glyph d="M724 367v-14v-16.5v-13.5q0 -3 -0.5 -6.5t-1.5 -8t-1 -6.5q-1 -7 -3.5 -20t-3.5 -19q0 -3 -0.5 -10.5t-1.5 -10.5l-3 -9q-1 -4 -3.5 -13t-4.5 -14q-2 -7 -7 -18t-6 -15q0 -1 -1 -5t-2 -5q-6 -15 -20 -32q-1 -3 -3.5 -5.5l-5.5 -5.5t-4 -5q-1 -1 -1 -3l-3 -2l-3 -3 q0 -1 -1 -2t-2 -2.5t-2 -2.5l-2 -2q-2 -3 -3 -4q-1 0 -2 -2l-1 -2h-1q-1 0 -2 -1t-1 -2q-2 -2 -8.5 -10.5t-11.5 -11.5q-3 -2 -9.5 -6t-9.5 -6q-2 0 -10 -6q-2 0 -10 -6q-8 -3 -19 -9q-1 -2 -2 -2h-3l-3 -3q-2 -1 -5 -2t-4 -2q-16 -9 -29 -12q-24 -8 -58 -11q-32 -4 -50 -4 q-41 0 -95 15q-58 13 -83 26q-22 10 -53 35q-6 6 -18 20q-6 5 -16 17q-2 2 -4 5t-4.5 7t-3.5 6q-7 8 -13 19l-2.5 5l-2.5 5l-2 2q-10 20 -14 29l-3 6q0 2 -2 2l-3 9q0 4 -1 6q-1 4 -4 8q-2 4 -10 39q0 1 -5.5 20.5t-7.5 30.5q-8 56 0 103q2 7 5 21t5 21q32 64 34 67q1 2 4 6 t5 7.5t3 7.5q2 2 5.5 7.5t5.5 7.5q2 3 8.5 10.5t9.5 12.5q22 30 46 49q1 1 5 4.5t6 5.5q1 1 3.5 3t3.5 3l1 1q1 1 2 1l3 2q4 1 6 2q1 0 3 2t3 2q1 1 4 2l3 1l3 3q1 1 6.5 3t8.5 4q12 5 25 10q5 1 12 4q1 0 3 1t4.5 2t4.5 1q42 13 61 14q2 0 6 1q8 -1 18 -1h17h10h10.5h8.5 q21 0 55 -10q4 -1 12 -3.5t12 -3.5t13 -2.5t13 -2.5q1 0 2.5 -1.5t2.5 -1.5q13 -4 16 -6q4 -2 11 -7t8 -6q3 -2 9.5 -6t9.5 -6l4 -4q1 -1 2 -1q2 -1 3 -1l8 -8q9 -6 10 -7q3 -3 9.5 -7.5t8.5 -6.5q1 -1 3.5 -4.5t4.5 -4.5l4 -4t5 -4q1 -2 6.5 -8t6.5 -11q11 -16 13 -20 q4 -8 7 -12q4 -8 7 -12q6 -10 8 -16q5 -14 10 -26q1 -8 5 -21t5 -16q2 -10 7 -52q0 -1 1 -4t1 -5q1 0 0 -10v-11zM703 324q4 42 -3 94q-1 10 -6 28.5t-6 25.5q-1 2 -4.5 12.5t-4.5 16.5q-2 5 -27 49q-4 6 -7 11q-1 2 -4.5 5.5t-4.5 6.5q-12 15 -27 30q-4 4 -15.5 11.5 t-16.5 12.5q-13 13 -21 17q-3 1 -6.5 3.5t-5.5 3.5t-6 3.5t-6 3.5q-20 13 -60 15q-9 3 -33 5q-12 0 -18 1q-18 3 -21 2q-1 0 -4.5 -2t-7.5 -1q-7 3 -26 5q-1 0 -1 -1q-4 -2 -11.5 -1t-13.5 0q-17 -4 -65 -22q-40 -16 -58 -28q-36 -29 -53 -51q-2 -2 -10 -13t-13 -16 q-2 -2 -5.5 -7.5t-5.5 -7.5q-5 -9 -10 -16l-36 -69q-1 -4 -2.5 -8.5t-2.5 -9.5t-2 -7q0 -1 -1 -3l-1 -2v-7l-1 -2q-1 -2 -1 -3q-1 -3 -1 -11q-1 -5 -1 -14l-1 -1v-1q0 -4 -1 -9.5t-1 -8.5q0 -1 0.5 -3t0.5 -3q0 -2 -1 -4v-3t1 -5.5t1 -6.5l3 -27q5 -31 10 -48q13 -53 32 -87 q48 -89 114 -123q14 -10 42 -17q8 -1 24 -5l24 -6q17 -7 50 -9q5 -1 13 -2.5t13 -1.5q9 0 29 2q37 2 54 5q28 5 47 13q7 2 19 10q20 10 29 15q1 1 4.5 2.5t5.5 2.5q3 2 8.5 6.5t6.5 5.5q2 0 3 1q5 5 7 8l12 12q4 7 5 7q0 1 2 3q23 25 32 40q4 5 8 15q2 4 3 5l9 24q1 2 5 11 q0 2 2 6q1 3 2.5 9.5t2.5 9.5q1 2 2 6.5t2 6.5t1 6.5v6.5q1 10 5.5 34t5.5 38zM529 221q13 -10 -3 -26q-3 0 -3 -1q-1 0 -2 -2t-3 -3q-17 -19 -30 -25q-1 -1 -3 -2.5t-5 -3.5t-4 -3q-2 -1 -4.5 -2.5t-3.5 -2.5q-9 -5 -31 -17q-3 -1 -9.5 -4t-9.5 -4q-20 -6 -69 1 q-5 1 -15 2.5t-15 2.5q-26 8 -49 20q-23 11 -49 37q-3 5 -11 15t-11 15q-3 4 -13 35q-1 5 -3.5 20t-3.5 24q-4 46 4 78q0 3 1 5q0 3 1 4q1 3 1.5 7t0.5 7q0 2 2 5.5t2 5.5q1 3 2.5 8.5t2.5 8.5t2 8t2 8t4 9.5t4 8.5q0 1 2 2.5t2 2.5t0.5 3l1 4t1.5 3l3.5 7l3.5 7t12 17 t16 23q8 8 24 26q1 1 11 8q2 1 5.5 4t5.5 5q18 12 24 14q40 15 82 15q1 0 3 -0.5t4 -0.5q10 1 32 -3q9 0 13 -1q20 -2 43 -16l3 -3l2.5 -2.5t-0.5 -3.5l-2 -2t-2 -1t-4 3q-4 1 -13.5 4.5t-14.5 4.5q-14 2 -22 3q-29 4 -49 3q-18 -2 -36 -6q-22 -6 -31 -9q-5 -2 -13 -8 t-13 -8q-23 -19 -37 -36q-6 -8 -16 -24t-13 -20l-6 -12t-7 -16q-1 -2 -2 -5.5t-1 -4.5q-4 -7 -4 -9q-1 -4 -3 -10q-13 -44 -15 -67q-6 -84 27 -135q20 -29 56 -52q6 -2 25.5 -9t30.5 -10q5 0 19 -2.5t23 -2.5q15 -1 41 5q8 2 27 13q15 9 18 11q2 1 6 4t7 4q2 3 8 7l9 6 q3 3 5.5 6t5 6.5t4.5 5.5q1 2 3.5 5t3.5 4q4 5 12 4z" glyph-name="copyright" horiz-adv-x="769" unicode=""/><glyph d="M554 1q-18 -8 -26 9q-1 4 1.5 11t2.5 9q1 7 1 13.5v13.5q-6 -1 -11.5 -3.5t-12 -6.5t-9.5 -6q-6 -3 -16 -6.5t-15 -5.5q-15 -6 -16 -7l-14 -7q-3 -1 -24 -4q-9 -2 -23 -4q-82 -16 -193 2q-6 1 -29 8q-19 6 -32 15q-32 14 -46 37q-2 3 -5.5 6t-4.5 6q-14 22 -21 40t-9 29 q-2 10 -4 33v47q0 2 -0.5 5.5t-0.5 4.5q0 3 1.5 8.5t1.5 7.5q1 4 2 11t2 10q2 3 3 10q6 19 7 26q4 7 12.5 21t15 25t14.5 19q22 24 56 50q22 14 34 20q28 14 37 16q5 4 15 7q9 3 15 4q5 1 16 3.5t17 3.5q58 10 139 -6l56 -14q1 0 1 -1l2 -1q2 1 3 0q3 -1 9.5 -4t12.5 -5.5 t12 -2.5q1 23 -9 63q-2 15 -5 23q0 1 -4 14t-6 20q-14 24 -21 35q-4 6 -12 16t-11 15q-3 2 -8.5 7t-9.5 7q-3 3 -9 7q-7 2 -8 3q-2 0 -4 1q0 2 -1 2q-1 -1 -2 0q0 2 -1 2q-6 3 -9 3q-3 1 -9.5 3.5t-9.5 4.5q-72 13 -111 12q-58 -4 -84 -10l-12 -3q-2 -1 -6.5 -1t-6.5 -1 q-7 -3 -20 -6.5t-17 -4.5q-6 -2 -15.5 -8t-15.5 -8q-1 -2 -4 -4t-4 -3q-2 0 -4 -3t-4 -3q-5 -5 -7 -9q-2 0 -4 -3t-4 -3q-1 -2 -9 -13q-6 -10 -8 -15q-2 -2 -5 -6.5t-5 -6.5q-3 -11 -9 -12q-10 -2 -14 7q-1 6 5 11q5 10 6 11q4 8 12 21q5 8 17 21t14 15q6 3 15 9.5t14 9.5 q25 12 32 15q6 2 19 4.5t16 3.5q12 2 19 3q3 1 10 2.5t13.5 2.5t11.5 2q7 1 20 1q12 2 19 2q36 2 65 -1q6 0 20 -2q14 0 18 -3q3 0 9 -2t8 -2t6.5 -1t7.5 -2q2 -1 8 -3q2 0 5 -2t5 -3t4.5 -2t3.5 -1q6 -2 28 -17q6 -4 11 -7q1 -2 5 -4t5 -4q6 -5 28 -34q19 -28 23 -38 q12 -28 18 -62q3 -12 10 -68q0 -6 2 -18t2 -18q2 -29 2 -94q0 -4 0.5 -10t0.5 -9q0 -2 -1 -6t-1 -6v-15q-2 -18 -2 -26q-2 -19 0 -60v-9v-10.5v-8.5v-96q0 -1 0.5 -3.5t0.5 -3.5t-1 -2q-2 -2 -2 -3v-13q0 -14 3 -19q1 -5 -1.5 -9.5t-2.5 -5.5zM109 81q5 -9 24 -24 q13 -10 29 -16q3 -1 16 -6q21 -8 46 -12q8 -1 26 -3h29q3 0 9 -1t8 -1q37 -2 91 6q7 2 20 5t20 5q5 2 18 6t20 7q20 10 32 18q8 4 11 6q1 0 1 1l1 2l2 1l2 1l3 2q3 1 3 3q1 1 2.5 3t3 3t2.5 2q6 7 7 9q0 152 1 166q4 41 1 68l1 1v1v2l-1 2q0 1 0.5 3t0.5 3q0 6 -1 20t-1 21 q0 33 -2 39q-4 2 -12 4.5t-11 3.5q-18 10 -23 10q-1 1 -17 6q-2 0 -7 2t-7 2h-6q-4 1 -18 3.5t-22 3.5q-57 6 -91 4q-1 0 -3 -1q-81 -9 -142 -52q-25 -19 -51 -46q-5 -5 -18 -24q-1 -2 -3.5 -5.5t-3.5 -5.5q-3 -4 -4 -8q-8 -13 -9 -17q-2 -6 -6 -19.5t-4 -14.5 q-8 -29 -7 -60q0 -20 1 -30l1 -2q1 -2 1 -3v-1l-1 -2q0 -1 1 -2v-1q4 -34 19 -60q0 -3 2 -5l4 -4q0 -1 2 -3.5t4.5 -6.5t5.5 -9z" glyph-name="ordfeminine" horiz-adv-x="627" unicode=""/><glyph d="M422 209q1 -9 -8 -14q-7 0 -12.5 3.5t-11.5 10.5t-8 9q-1 2 -5 5t-6 6q-2 2 -2 4q-1 1 -2.5 2t-3.5 2t-3 2t-2.5 3.5t-3.5 3.5q-5 5 -14.5 14t-14.5 13q-4 3 -13.5 12.5t-15.5 13.5q-9 9 -29 25q-1 0 -1 2t-1 2q-2 0 -3 1l-3 3q-1 1 -3 1q0 1 -1 2t-1 2q-3 0 -4 1 q-2 2 -5.5 5t-5.5 5q-3 3 -8.5 7t-8.5 7l-2 1q-1 1 -4 3l-4.5 4.5t-6.5 4.5q-3 3 -13 9q-16 12 -16 19q0 4 9 13q1 1 3 1q1 1 3 2.5l4 3t3 3.5q7 8 24 22q2 5 10 13q8 6 13 10q14 14 22 21q32 29 90 91q4 2 10.5 8t10.5 8q3 6 10 11q1 1 2.5 3.5t3 4.5t4.5 2q12 1 18 -12 q-1 -5 -5.5 -9t-5.5 -5q-3 -2 -7.5 -6t-7.5 -6q-15 -14 -49 -50t-54 -53q-9 -10 -27.5 -26.5t-25.5 -23.5q-3 -3 -12 -11.5t-13 -14.5q2 -6 12 -14q1 -1 2 -1t2 -1q7 -7 11 -8q1 -1 40 -34q14 -12 40 -36q9 -7 26.5 -23t26.5 -24q6 -5 23.5 -22.5t27.5 -26.5q0 -1 1 -2t1 -2 zM339 624l-1 -1q0 -1 -5 -9q-2 -3 -8 -8t-9 -9q-6 -8 -16 -16q-1 -1 -2 -2.5t-2.5 -2.5t-2.5 -2l-2 -1q-1 -1 -2 -1q-1 -2 -5 -5t-5 -4q-14 -12 -22 -18l-15 -12q-2 -1 -5.5 -4t-5.5 -5t-8 -7.5t-9 -8.5q-1 -1 -4 -2.5t-4 -2.5q-5 -4 -16 -15t-18 -16l-30 -24q-5 -4 -14 -12 t-14 -12q-13 -13 -16 -15q-1 -3 -7 -7.5t-7 -7.5q0 -3 3.5 -5t4.5 -3q4 -4 9 -6q2 -2 8 -6t9 -7q24 -16 33 -27q2 -1 16 -15q7 -7 16 -13q6 -6 17 -16.5t14 -13.5q5 -5 16 -14t16 -14q11 -12 32.5 -31t29.5 -27q3 -3 11 -8t12 -10t4 -14q-3 -5 -10.5 -5t-12.5 4q-5 2 -10 8 t-8 8q-6 6 -17.5 17t-15.5 15q-8 7 -22 20.5t-22 19.5h-2v3q-3 3 -12 10t-12 10q-55 55 -67 65t-19 14q-9 8 -20 13q-3 3 -10 7.5t-9 6.5q-15 6 -16 17q2 4 9 8t8 8q2 2 8.5 7t8.5 8q2 2 17 14q2 1 7.5 7t9.5 8q2 4 8.5 8.5t8.5 7.5q7 4 19 14q8 8 26 23t25 22q14 12 18 14 q6 4 17.5 14t17.5 14q2 4 8.5 8t8.5 7q3 3 8.5 8t8.5 7q1 2 3.5 5t3.5 4l5 5t6 5.5t5 5.5q5 7 8 8q7 -1 15 -9q-1 -1 0 -2t1 -2z" glyph-name="guillemotleft" horiz-adv-x="473" unicode=""/><glyph d="M700 350q0 -6 1 -17.5t1 -17.5q-5 -72 -6 -78q-1 -8 -5 -22q0 -2 -2 -5.5t-2 -4.5q-1 -5 -5 -15q0 -1 -1 -3.5t-2 -3.5q-1 -2 -2.5 -6.5t-3 -8t-3.5 -6.5q-2 -2 -4 -6l-5 -5q0 -3 -1 -4q0 -2 -3 -2q-3 -7 -3 -8t-2 -3t-2 -3l-3 -6q-1 -1 -3 -2.5t-2 -2.5v-1q0 -1 -1 -1 q-2 -2 -6.5 -8t-5.5 -8q-4 -4 -9.5 -9t-12 -11t-10.5 -9q-1 -1 -4 -4.5t-5 -5.5q-4 -4 -22 -18q-29 -16 -31 -17q-16 -8 -43 -17l-9 -3q-8 -2 -20 -4q-33 -8 -39 -8q-22 -2 -70 2l-33 3q-22 2 -32 4q-24 5 -41 10q-57 18 -69 25q-27 14 -55 43q-20 20 -41 55q-6 10 -22 52 q-12 36 -14 58q-4 28 -2 68v19q0 3 1 8t1 7t-0.5 4t-0.5 4v10q-2 10 -2 15q0 6 2 16.5t2 12.5q0 11 1 16q0 2 2 6q0 4 1 6q2 7 7.5 24t6.5 26q0 1 2 4t2 5q0 1 1 1t2 1q1 3 5.5 16t8.5 19q3 6 17 25q3 4 8.5 12t7.5 12q10 14 36 44l2 2q4 1 10 6t10 6q8 5 60 30q52 26 97 27 q23 1 56 -4q44 -5 52 -7q6 -1 16 -5t15 -5q16 -5 44 -19q3 -1 6.5 -3t7.5 -4l6 -3q17 -10 20 -11l8 -8q2 0 4 -2.5t3 -3.5q0 -1 2 -1l2 -1l1 -1q2 0 2 -1t1 -2t1 -2q1 -1 4.5 -3.5t4.5 -5.5q1 0 9 -8q5 -5 8 -7q4 -7 13.5 -18.5t13.5 -17.5q3 -3 6 -10t6 -9q0 -2 2.5 -5 t2.5 -6q23 -40 32 -81q9 -34 9 -37q1 -1 1 -3.5t1 -4.5q0 -1 3 -16q1 -6 1.5 -17.5t0.5 -17.5zM682 302q1 42 -5 87q-2 13 -7.5 36.5t-5.5 24.5q-5 17 -10 28q-9 24 -16 39q-6 12 -9 15q0 1 -2 3q-6 12 -10 18q-10 14 -16 21q-5 8 -17 20l-19 19q-6 4 -10 8q-8 8 -10 8 q-2 2 -6.5 4t-5.5 3q-36 20 -58 27q-5 2 -18.5 6t-20.5 7q-8 0 -15.5 1t-17 2.5t-14.5 2.5q-49 3 -51 3q-5 0 -14.5 -0.5t-13.5 -1.5q-3 -1 -10 -3t-10 -3q-1 -1 -5 -1t-5 -1q-6 -2 -21.5 -10t-24.5 -10q-5 -3 -16.5 -8.5t-17.5 -9.5q-10 -4 -14 -8q0 -1 -1 -1h-2 q-1 -1 -3.5 -3t-3.5 -3t-3 -2l-2 -2l-3 -1q-1 -1 -10 -12q-8 -8 -10 -13l-2 -1q-3 -5 -15 -21.5t-18 -25.5q-1 0 -1 -1q-1 0 -3 -5q-1 -1 -20 -43q-1 -2 -2.5 -4t-1.5 -3q-1 -2 -1 -5t-1 -4q-4 -10 -5 -15q-2 -6 -3 -8q-5 -15 -12 -74q-1 -4 1.5 -12t2.5 -12q0 -3 -2 -11 q-6 -49 0 -94q2 -23 9 -41q1 -2 2.5 -9t2.5 -10q0 -1 0.5 -2.5t1.5 -2.5q0 -1 0.5 -2.5t1.5 -2.5q0 -2 1 -3q5 -14 17 -34q19 -31 24 -37q13 -13 15 -16q15 -15 23 -22q15 -11 44 -25q1 0 4 -2l3 -2q2 0 5 -1t4 -1q20 -7 35 -11q4 -2 18 -4q30 -8 100 -14q30 -2 45 -1 q3 0 10 1.5t11 2.5q8 2 22 6q7 1 21 5q12 3 19 7q36 10 68 39q6 7 20.5 19t20.5 19q14 18 32 48q4 6 10 18.5t9 16.5q0 3 8 29q5 15 6 31q4 28 3 41q0 1 0.5 4t0.5 5zM543 162q5 0 6.5 -6.5t-1.5 -10.5q-4 -3 -12 -3q-5 1 -14 10q-2 2 -6 5t-6 5q-3 2 -15 12t-20 15 q-2 3 -8 7.5t-8 7.5q-2 1 -18 12q-6 4 -17 14t-16 14q-12 11 -37 28.5t-32 23.5q-3 2 -8.5 7t-9.5 6q-17 12 -37 25q-2 1 -7.5 5.5t-10.5 5.5v-47q0 -5 -0.5 -12.5t-0.5 -11.5t0.5 -12t0.5 -12q-2 -58 -1 -73q0 -3 0.5 -7t1 -6.5t-0.5 -6t-3 -5.5q-3 -1 -9 -0.5t-9 2.5 q-1 5 -1 43q0 14 1 45.5t1 47.5v140q0 8 0.5 24t0.5 23q0 5 -1 21.5t0 25.5l3 21v17l17 5q19 6 25 7q16 4 24 5q5 0 15 0.5t14 1.5q27 3 56 -5q13 -2 20 -6l8 -4q15 -12 28 -28q22 -31 25 -66q3 -49 -14 -79q0 -1 -1 -1l-1 -2q0 -1 -2 -3.5t-3 -4.5q-9 -9 -29 -20 q-2 -1 -5 -3.5t-4 -3.5q-2 -1 -5 -1.5t-5 -0.5q-2 -1 -8 -3q-12 -2 -18 -4q-1 0 -2.5 -1t-2.5 -1q-11 -2 -24 -3q-12 -1 -45 -1q-2 -3 6 -6q1 -2 4 -4t4 -3q10 -6 15 -11q5 -3 14 -9t11 -7q6 -4 9 -7l1 -2h2q1 -1 4 -3.5t5 -3.5h1l1 -1q0 -1 2 -2q3 -1 4 -2l1 -1q2 0 2 -1 q2 -2 6 -4l2 -2q3 -2 4 -3q2 0 5 -3q14 -10 21 -18q5 -2 16 -13q2 0 3 -1q0 -1 1 -2q3 -2 11 -8q25 -20 30 -25q2 0 3 -1l2.5 -2.5l2.5 -2.5t4 -3t4 -3q4 -4 14.5 -11.5t15.5 -12.5zM279 362q27 -7 35 -8q15 0 45 2q28 4 45 11q22 9 31 17q1 2 3.5 5t4.5 5q1 1 3.5 4.5 t4.5 5.5q1 2 4.5 15.5t4.5 21.5q3 41 -12 72.5t-43 44.5q-33 16 -104 2q-16 -3 -35 -12q-2 -13 0 -64q0 -6 -0.5 -18.5t-0.5 -19.5l-1 -39q0 -39 1 -39q-1 -2 5 -2q2 0 2 -1q3 -1 7 -3z" glyph-name="registered" horiz-adv-x="746" unicode=""/><glyph d="M60 728q24 1 112 -1q9 0 28 0.5t28 0.5q10 0 28 -0.5t27 -0.5q8 2 13 2q6 0 19.5 -0.5t20.5 -0.5h56q38 -2 78 3h3q18 0 19 -12q0 -12 -11 -12q-1 -1 -9 2q-20 0 -70 -1.5t-77 -0.5q-32 1 -99 1q-9 0 -31 -2q-9 0 -20 0.5t-25 1.5t-21 1q-10 0 -32.5 0.5t-33.5 0.5 q0 1 -3 4t-3.5 5t0.5 7q0 2 3 2z" glyph-name="macron" horiz-adv-x="547" unicode=""/><glyph d="M243 618v-2q1 0 1 -1q-1 -2 -1 -22q0 -7 -6 -17q-9 -16 -12 -20q-1 -2 -5 -4.5t-5 -4.5q-2 -2 -3 -5t-2 -4q-2 -2 -5.5 -4.5t-4.5 -3.5l-2.5 -2.5t-2 -2.5t-2 -2t-2.5 -2t-19 -6q-33 -2 -44 0q-24 6 -26 7l-14 7q-9 2 -13 6q-2 1 -5 3.5t-5 3.5q-2 -1 -2 1v2q-8 4 -11 7 q-4 12 -8 40q3 42 27 74q11 16 25 24t25 9q5 1 16 0t16 0q3 1 8 -2t8 -3q5 -4 23 -10t23 -15q4 -3 9 -13q2 -5 8 -13t7 -10t1.5 -7t2.5 -8zM210 638q-2 4 -17 14q-9 11 -17 15q-5 3 -12.5 3.5t-12.5 2.5q-17 6 -30 2q-3 -3 -11 -7q-2 -2 -6.5 -5.5t-6.5 -5.5 q-28 -46 -26 -72q1 -11 5 -21q11 -13 14 -15q17 -8 40 -10h28q4 0 11.5 3.5t10.5 4.5q1 1 10 8t11 12q4 9 5 9q1 3 4 9.5t4 9.5q2 18 -1 25q0 14 -3 18z" glyph-name="degree" horiz-adv-x="288" unicode=""/><glyph d="M333 577q0 -20 2 -64v-64q0 -87 1 -126q36 -4 77 1q6 2 10 2h1l2 -1l15 3t14 2t31.5 1.5t30.5 -2.5q5 0 8 -2l1 -2l3 -3q-3 -8 -8 -10q-3 -2 -15 -2q-9 -1 -28 -1t-29 -1q-40 -5 -42 -6q-5 0 -22 0.5t-30 0.5t-19 -1q-1 -41 0 -88q0 -5 0.5 -14t0.5 -13q0 -9 -2 -27 q-1 -10 -1 -29v-28q0 -17 -3 -25q-13 -8 -23 2q2 0 1 14l-1 13q0 2 1 5.5t1 6.5q1 1 0 3t-1 3q3 24 3 57q1 28 -1 120q-8 1 -29.5 4t-33.5 4q-5 0 -15.5 -1t-16.5 -1q-82 -5 -97 -5q-2 1 -7 2t-7 3q-1 1 -3.5 3t-3 3.5t0.5 4.5q0 3 10 3q26 -2 71.5 1.5t61.5 3.5 q12 0 35 -2.5t34 -2.5q1 14 1 131q0 7 1 22t2 22q0 10 -0.5 21t-1.5 24t-1 21q0 15 4 19q8 4 17 -5zM226 24q8 0 54.5 1.5t54.5 -0.5l48 -3q9 1 24 0t20 -1q42 3 44 3q20 1 65 1q19 0 22 -2l2 -4q0 -7 -4 -15h-43t-43 -1l-36 -3q-27 -2 -64 1q-5 0 -33.5 2t-43.5 2 q-6 0 -19.5 -1.5t-20.5 -1.5h-3l-2 1q-5 0 -21 -0.5t-24 -1.5q-1 -1 -1 0l-1 1q-8 -1 -23 -1q-16 -2 -23 -3q-40 0 -48 -2l-27 -3q-4 0 -10.5 -0.5t-10.5 0t-7 2.5q-4 12 5 23q3 1 28 1q10 0 22 0.5t26.5 1.5t22.5 1q46 2 70 2z" glyph-name="plusminus" horiz-adv-x="610" unicode=""/><glyph d="M264 451q1 -2 -1 -4q-1 -1 -1 -2q-2 -1 -26 -1q-4 0 -13.5 -0.5t-15.5 -0.5q-9 0 -26 0.5t-27 0.5q-7 0 -19.5 -0.5t-18.5 -0.5q-25 0 -35 1q-15 -2 -18 -2q-10 2 -12.5 11t8.5 14q1 3 6.5 5t6.5 3q14 12 45 36.5t46 37.5q6 8 9 13l3 3q1 1 1 3t1 3q5 7 7 13q4 9 5 19 q6 26 -4 42l-3 3q-2 2 -2 8q-1 1 -6 5t-7 6l-4 2q-10 6 -14 7t-11.5 3t-10.5 3q-12 -1 -32 -7q-3 -1 -11.5 -5t-14.5 -5q-11 4 -12 12q3 4 12 8.5l11 5.5q3 1 12.5 3t14.5 4q3 0 11 1t12 0q1 0 3 -0.5t4.5 -1.5t3.5 -1q27 -7 34 -11l20 -20q7 -7 8 -9q6 -13 9 -19 q1 -11 1 -34q-1 -4 -4 -13.5t-4 -15.5l-8 -13q-1 -3 -4 -7t-4 -7q-3 -2 -17 -21q-2 -1 -22 -16q0 -1 -10 -7q-6 -6 -10 -6q-3 -6 -19 -17q-1 -1 -4.5 -4t-5.5 -4q-1 -1 -4.5 -4t-4.5 -6q2 -1 20 -1q21 2 38 0q1 0 2.5 1t2.5 0h58q16 2 22 2q1 0 8.5 -1.5t11.5 -1.5 q5 -3 6 -6q3 -1 3 -4z" glyph-name="uni00B2" horiz-adv-x="315" unicode=""/><glyph d="M51 495q6 4 16 0q4 0 8 -8q5 -3 8 -8q11 -3 26 -8q42 -2 63 15l20 20q10 19 1 44q-1 1 -6 7t-8 9q-2 1 -8 3q-12 8 -22 8q-3 1 -36 -2q-1 0 -5.5 -2.5t-7.5 -1.5q-7 0 -11 6l-3 4q-4 4 -3 8q3 5 25 5q1 0 46 13q1 1 13 15q17 24 13 40q-1 4 -4 7t-8 6t-7 5q-2 1 -14 5.5 t-19 5.5q-8 0 -21 -5t-19 -6q-1 1 -7 3.5t-7 5.5q0 3 8 5q34 11 48 9q5 0 17 -2q13 -3 14 -4q1 0 4 -1.5t4 -2.5q2 -1 5 -1l12 -8q10 -8 13 -13q1 -3 2.5 -8.5t2.5 -7.5q-1 -3 -1 -14q-1 -3 -3 -7.5t-3.5 -8.5t-2.5 -8q-2 -1 -6 -6t-7 -7q-1 -3 -5.5 -6.5t-5.5 -6.5 q3 -2 6 -3.5t7 -3t6 -2.5q2 -3 7.5 -7.5t7.5 -6.5q12 -18 17 -40q-2 -19 -6 -29q-3 -4 -7.5 -11.5t-6.5 -10.5q-5 -3 -15.5 -8.5t-15.5 -8.5q-40 -10 -60 -6q-14 2 -22 6q-3 1 -11 3.5t-12 4.5q-1 1 -6 6.5t-7 10t-1 10.5z" glyph-name="uni00B3" horiz-adv-x="271" unicode=""/><glyph d="M45 761q0 2 7 9q4 6 7 9q6 5 16 15q2 2 15.5 17.5t24.5 27.5t17 16q12 18 22 21q9 -4 9 -13q-2 -5 -8.5 -12.5t-7.5 -8.5q-6 -6 -18 -19q-37 -44 -60 -63q-2 -2 -4.5 -6t-4.5 -5q-5 -2 -10.5 2.5t-4.5 9.5z" glyph-name="acute" horiz-adv-x="185" unicode=""/><glyph d="M625 731q-4 -8 -5.5 -19.5t-1.5 -20t0.5 -24t0.5 -21.5q0 -4 -0.5 -12t-0.5 -11v-22q0 -4 -1.5 -17t-0.5 -19q0 -3 -5 -30q-2 -12 -4 -36q-1 -5 -1 -13q-3 -3 -3 -4t1 -3t0 -3q0 -2 -1 -5.5t-1 -5.5v-22v-27v-23v-68q0 -3 0.5 -10t0.5 -10q2 -15 1 -17q-7 -12 -19 -5 q-7 3 -7 25q2 57 0 90q-2 0 -4 -2q-1 -1 -6.5 -11.5t-6.5 -18.5q-2 -5 -4 -13q-3 -3 -10 -7.5t-9 -6.5q-8 -11 -17 -15q-3 -7 -20 -17q-16 -11 -33 -16q-18 -6 -28 -8q-30 -6 -66 -3q-47 3 -81 16q-8 3 -17 8q-4 0 -6 1q-8 4 -11 5q-2 1 -6 1q-15 9 -28 13q-7 5 -22 13 t-19 10q-7 6 -20.5 18t-20.5 18q-3 5 -10 13t-8 10q-1 3 -4 6.5t-4 5.5t-4 6t-4 6q-4 9 -13 27q0 1 -1 2.5t-1.5 3t-1.5 2.5v-87q0 -4 -0.5 -13t-0.5 -14v-111q1 -16 0.5 -52t1.5 -52q0 -5 2 -24t2 -29q0 -8 1 -24.5t1.5 -26t2 -22t5.5 -21.5q-2 -4 -13 -13q-13 0 -24 9 q-1 5 2 32q2 29 -1.5 82.5t-3.5 74.5q0 4 -0.5 12t-0.5 11v93.5t1 96.5v92q0 5 -0.5 15t-0.5 15q0 6 1 23.5t0 27.5q-1 25 0 49q0 4 -0.5 11.5t-0.5 11.5t0.5 12t0.5 12q0 8 2 25t2 24.5t-2 25.5q0 2 3.5 3.5t4.5 2.5q-1 2 7 5q2 -1 6 -2t5 -1q1 -16 -2 -96q-2 -64 1 -95 q4 -36 20 -80q0 -1 0.5 -2.5t1.5 -2.5q4 -12 14 -29q1 -1 2.5 -3.5t2.5 -4.5q1 -1 7 -8.5t8 -12.5l14 -14l14 -14q1 -1 3.5 -2t3.5 -2l6 -6l1 -1h1q1 -1 4.5 -3.5t5.5 -4.5q6 -4 14 -8.5t19 -9.5t17 -8q65 -26 101 -32q7 0 20.5 -1.5t19.5 -1.5q12 0 44 5q27 5 52 22l1 2 q0 1 1 1q1 1 4 1l6 6q8 8 13 12q11 9 13 12q4 5 9 17t9 17q3 6 9.5 17t9.5 17q1 6 2.5 12.5t3.5 14.5l3 12t2 11.5t1 8.5q0 2 1 6.5t1.5 8t0.5 6.5q1 10 1.5 28.5t0.5 24.5q0 9 2 25v22q0 13 4.5 53t2.5 64q-2 13 2 17q8 4 17.5 1.5t13.5 -7.5q-1 -1 0 -2z" glyph-name="uni00B5" horiz-adv-x="691" unicode=""/><glyph d="M395 678q-2 -1 -10 0t-9 1q-6 0 -19.5 0.5t-20.5 0.5q-9 0 -19 0.5t-20 0.5q-9 0 -36.5 -1t-42.5 0v-97q4 -48 4 -84q0 -7 -1.5 -24t-0.5 -26q0 -31 1 -47v-27q0 -2 1 -5t0 -6v-15.5t1 -15.5q0 -4 1.5 -12.5t2.5 -12.5q2 -19 2 -27q0 -48 -2 -78q0 -13 -1 -23 q-1 -5 -1 -15v-17q-2 -32 -2 -56q0 -2 -0.5 -4t-0.5 -4q1 -7 0 -14.5t-1 -14.5q0 -1 3 -25q1 -5 -2 -28q-2 -9 -22 -3q-2 0 -2 2t1 4.5t1 3.5q2 16 1 26q-1 4 -0.5 30t0.5 32q1 13 1 39.5t1 39.5q2 27 2 81q1 28 -2 62q-2 19 -2.5 40.5t-2.5 40.5q-1 13 -1 44q-43 0 -66 12 q-8 4 -24 14q-3 2 -11.5 6t-12.5 7q-7 5 -17 19q-16 16 -18 21q-3 7 -3.5 35t0.5 38q1 13 9 34q2 5 9 14.5t8 11.5q6 8 8 10t8.5 8t10.5 9t9.5 7t11 6t11.5 2q2 0 4.5 1t3.5 1h5q47 0 50 1q1 1 4 0t4 -1q13 7 27 0h68h165q6 0 28 -1t38 0q3 0 5.5 -6.5t-0.5 -12.5h-62 q-29 -2 -51 -1q0 -11 -0.5 -45.5t-1.5 -44.5v-69q1 -12 1 -36.5t1 -34.5q2 -40 -2 -92v-40t-1 -41v-54q0 -75 -1 -106q-2 -29 -2 -88q0 -2 1 -13.5t-2 -12.5q-3 -4 -11.5 -4t-12.5 2q-2 7 1 33q1 11 1 32.5v32.5q1 21 1.5 62.5t0.5 63.5v24v1q-1 1 -1 2v32q0 10 2 26 q1 14 1 40.5t1 39.5q0 2 -0.5 6t-0.5 5q0 5 0.5 23.5t0.5 25.5q0 9 -1 25t-1 25v37v39q1 13 1.5 51.5t0.5 51.5z" glyph-name="paragraph" horiz-adv-x="545" unicode=""/><glyph d="M87 315q-3 -2 -12 0q-9 5 -9 19v41q0 3 0.5 9.5t0.5 9.5q1 3 0 9t0 9q8 5 18 -2q0 -2 1.5 -5.5t1.5 -6.5v-6v-7.5v-6.5t1.5 -9t1.5 -10q1 -5 1 -16l-1 -1q2 -20 -4 -27z" glyph-name="periodcentered" horiz-adv-x="158" unicode=""/><glyph d="M124 9q2 0 10 -5q-1 -20 -7 -72q3 -1 9.5 3t10.5 5q18 4 42 6q33 0 50 -1q19 -7 28 -15q2 0 4 -2l1 -2q4 -2 10 -9t9 -9q0 -2 7 -14q2 -3 3.5 -9t2.5 -9q-2 -20 -3 -21q-19 -38 -36 -43q-4 -1 -11.5 -2t-11.5 -2h-41q-7 0 -15 1t-12 1q-5 0 -16.5 3t-17.5 4q-10 1 -22 8 q-3 2 -10 6t-10 6q-11 3 -23 11q-14 6 -18 11q-12 4 -17 7q0 2 -3.5 7t-2.5 11q10 5 16 4q6 0 7 -2q5 0 5 -6q4 -2 10.5 -6.5t10.5 -6.5q25 -17 48 -22q2 -2 6.5 -4t7.5 -4q4 -1 22.5 -6.5t31.5 -6.5q2 0 7 0.5t7 0.5q32 2 41 6q7 4 22 26q0 3 1.5 6.5t1.5 4.5q2 17 -17 44 q-7 2 -8 5q-17 4 -20 6h-37q-4 0 -8 0.5t-5 0.5q-9 -1 -25 -5.5t-25 -5.5q-2 -1 -9 -5.5t-13 -4.5q-4 0 -6 1.5t-5 5.5t-3 5q1 6 9 27q0 5 5 30q1 3 2.5 14.5t3.5 17.5q1 0 2.5 2t3.5 3z" glyph-name="cedilla" horiz-adv-x="348" unicode=""/><glyph d="M115 423q-3 4 -5 16q0 7 2 17v24q1 6 0 16.5t-1 13.5l3 54v30q0 4 1 13t1 14q0 2 -0.5 6t-0.5 5q0 3 1.5 19t-0.5 19q-4 0 -13 -7q-7 -2 -18.5 -10t-18.5 -10q-13 2 -16 13q2 5 9.5 8.5t9.5 4.5q9 5 39 27q9 7 14 8q8 2 17 -6q1 -4 1 -23v-12q0 -1 -0.5 -3t-0.5 -3l1 -1 v-3q-2 -16 -2 -23q-1 -5 0 -13t1 -11l-3 -36q-1 -52 2 -117q0 -2 1.5 -6t1.5 -7q2 -14 -6 -19q-5 -3 -20 2z" glyph-name="uni00B9" horiz-adv-x="192" unicode=""/><glyph d="M34 302q0 132 13 175q2 6 17 46q2 4 6 13.5t7.5 16t7.5 11.5q6 10 15 18q3 5 18 20q3 3 9 10.5t10 10.5q2 2 6 4l15 15q1 1 4 4.5t5 5.5q1 1 5 3.5t5 4.5q35 19 63 29q52 15 77 16q60 4 88 0q3 -1 9.5 -2.5t9.5 -1.5q4 -1 10.5 -2t9.5 -2q2 0 4 -2h5q2 0 4 -2 q16 -2 24 -4q7 -2 19.5 -6.5t15.5 -5.5q2 -1 6.5 -2.5t6.5 -2.5q11 -4 17 -8q1 0 2 -1l4 -1q5 -2 7 -3l1 -1l2 -2h2q1 0 2 -1q1 0 2 -1l6 -3q6 -4 10 -7q2 -1 4.5 -2.5t3.5 -2.5v-2q5 -3 15 -11q3 -2 7.5 -6t7.5 -6q5 -4 9 -9.5t8.5 -13t7.5 -11.5l2 -2l1 -1q1 -1 11 -19 q7 -12 9 -22q9 -19 16 -47q1 -4 3.5 -16.5t3.5 -19.5q5 -69 -2 -117q-10 -54 -13 -63q-5 -24 -12 -42q-2 -5 -6 -14t-6 -14q-4 -11 -11 -22q-2 -3 -6 -9.5t-6 -9.5q-23 -42 -69 -86q-10 -10 -38 -26q-16 -9 -41 -21q-18 -8 -23 -9q-56 -18 -76 -20q-2 -1 -5 -0.5t-5.5 0 t-3.5 -1.5q-1 -3 -12 -1q-6 1 -14.5 0t-14.5 -1q-2 0 -31 6q-6 1 -16.5 2.5t-15.5 2.5q-4 1 -13.5 3.5t-14.5 4.5q-57 27 -85 49q-15 15 -23 21q-3 1 -6.5 6t-7.5 8q-1 1 -4 5l-4 4q0 1 -1 2.5t-2 3.5l-2 4q-5 10 -6 11l-12 18q-2 3 -3 4q-1 0 -2 1v2v2l-1 2q-1 2 -2 2 q-4 3 -5 10q0 2 -1 3q-2 3 -4.5 8.5t-3.5 7.5q-1 1 -1.5 2t-2.5 2q-2 5 -5.5 17t-4.5 16t-3.5 11.5l-3.5 10.5q-2 9 -4 25q-4 19 -4 29zM55 297q10 -53 13 -63q15 -45 20 -55q9 -17 29 -47q6 -9 18 -22.5t16 -19.5q24 -23 43 -33q4 -3 12 -7t12 -7q2 -1 11.5 -5.5t14.5 -6.5 q16 -6 25 -7q1 0 1 -1l2 -1q11 -3 33 -5q43 -7 69 -4q7 2 21 5t21 5q3 1 10.5 2.5t10.5 2.5q4 1 10.5 3.5t8.5 3.5q5 2 13.5 5.5t11.5 4.5q32 16 46 25l4 4q1 1 3 2l1 1q1 1 3 2.5t3 2.5l24 21q14 18 21 26q10 11 20 28q19 28 28 49q19 40 29 85q12 55 12 103q2 75 -20 130 q-16 36 -30 56l-5 5q0 1 -8 11q-2 2 -8.5 9t-9.5 11q-6 2 -14 10t-14 10q-2 1 -31 16q-1 0 -2.5 1t-2.5 2t-2 1l-15 5l-12 4q-27 11 -75 20q-25 4 -51 6q-16 2 -35 0q-44 0 -81 -12q-43 -14 -66 -29q-4 -3 -31 -30q-2 -1 -16 -15l-15 -15q-36 -38 -48 -75q-1 -4 -7.5 -20 t-8.5 -25q-5 -16 -9 -54q-5 -65 -4 -116q0 -1 1 -1.5t0 -1.5z" glyph-name="ordmasculine" horiz-adv-x="729" unicode=""/><glyph d="M162 164q4 15 21 32q2 8 9.5 17.5t9.5 12.5q2 5 9 14l7 8q4 8 7 11q0 1 2 3q0 2 1 3l5 5q0 2 1 3l7 7q1 2 3 5.5t3 5.5q6 6 8 11q3 3 7 11q8 9 20 29t20 29q1 2 5 7t5 8q1 1 13 18q0 1 8 9.5t10 14.5q-3 7 -13.5 16.5t-11.5 10.5q-3 2 -7 6t-7 6q-9 12 -14 13 q-7 9 -25 27q-2 1 -6 6t-7 7l-10 10l-3 3q-2 2 -6.5 6t-6.5 7q-4 4 -17.5 18t-22.5 21q-1 0 -8 5q-13 10 -15 11q-1 1 -3 2l-1 1l-3 3q-4 4 -15 10.5t-15 10.5q-31 7 -22 27q4 3 17 -1q2 -1 6 -1q4 -2 11 -12l36 -21q5 -4 15.5 -12t14.5 -13q25 -21 57 -55q1 0 3 -3.5 t4 -4.5q1 0 2 -1l2 -1q1 0 3 -5q5 -5 14.5 -14t13.5 -13q2 -1 4.5 -4t5 -5t5.5 -3q3 -3 8.5 -9t10 -10.5t9.5 -8.5q2 -2 7.5 -6t8.5 -6q16 -9 16 -18v-3q-1 -4 -4 -6.5t-7 -5t-6 -4.5q-2 -4 -8.5 -11t-9.5 -12q-3 -3 -8.5 -11.5t-9.5 -11.5q-2 -4 -7 -10t-6 -8 q-14 -22 -16 -25q0 -1 -1.5 -3t-2.5 -3t-2 -3.5t-2 -3.5q0 -1 -2 -2.5t-2 -2.5q-7 -12 -8 -13q-12 -16 -17 -24q-4 -3 -9 -11.5t-8 -12.5q-2 -4 -8 -11.5t-7 -14.5q-3 -2 -15 -17q0 -1 -1 -3.5t-2 -3.5q0 -1 -2 -1q-1 0 -2 -1q0 -2 -1 -3q0 -1 -1.5 -2.5t-2.5 -3.5 q-6 -8 -7 -14q-7 -13 -14 -13q-7 -1 -17 11zM272 441q2 -8 -8 -18q-2 -3 -6.5 -6.5t-5.5 -5.5q-2 -4 -6.5 -11t-7.5 -10q0 -1 -5 -8l-4 -4q-6 -8 -9 -13q-4 -6 -6 -8q0 -1 -1 -1l-1 -2q0 -1 -3.5 -6.5t-5.5 -7.5l-1 -1q-3 -6 -4 -7q0 -1 -1 -1l-2 -1q-1 -1 -1 -2.5v-2.5 l-2 -1q-1 0 -1 -1l-1 -1q0 -2 -1 -2q-3 -5 -9 -13l-2 -1q-1 -1 -1.5 -3t-0.5 -3q-2 0 -2 -1v-2l-3 -1v-3q-1 -2 -9.5 -13.5t-12.5 -17.5t-14 -20q-2 0 -2 -1v-2q-1 0 -3 -1q-2 -5 -6.5 -10.5t-10 -11.5t-8.5 -9q-1 -3 -4 -8t-4 -8q-1 -7 -12 -11q-17 2 -18 12q-1 5 8 19 q2 1 6 5.5t7 5.5q3 6 10 12q1 4 5 8.5t5 5.5q14 16 19 26q7 7 13 16t13 21t11 17q35 48 38 53l18 27q2 5 9 13t9 13q-1 5 -10 14q-8 8 -12 11q-1 1 -3.5 5t-4.5 6q-2 1 -5.5 3t-5.5 4q0 2 -1 3l-7 7l-2 1q-2 1 -3 2l-2 2q-1 2 -2 3q-5 5 -17 16.5t-18 17.5q-63 55 -76 65 q-1 1 -6 4.5t-6 6.5q-9 9 -6 15q2 2 4 2t5.5 -1t5.5 -1q5 -2 10 -8.5t7 -7.5q5 -2 12 -8t11 -8q4 -4 11 -9.5t10 -8.5t18.5 -16t22.5 -21q5 -2 11.5 -9t9.5 -9q5 -5 13 -13.5t11 -11.5q2 -2 7 -5t7 -5q1 -1 2.5 -3.5t3.5 -3.5q1 -1 3 -2.5t3 -2.5q1 -2 4.5 -5t4.5 -5 q4 -1 9 -4t7 -4l4 -4t4 -5z" glyph-name="guillemotright" horiz-adv-x="428" unicode=""/><glyph d="M381 153q1 -5 -0.5 -7.5t-5.5 -4t-5 -1.5q-12 2 -19 1q-2 0 -5 -2t-6 -1q-1 -5 -1 -18q0 -12 0.5 -40t0.5 -42l1 -2q1 -1 0 -2q0 -2 1.5 -17.5t-1.5 -19.5q-9 -4 -19 3q-2 4 -2 10t1 13.5t1 11.5t-0.5 8.5t-1.5 10t-1 9.5q0 10 2 28q0 1 -1 3l-1 2q2 33 0 45 q-8 1 -22.5 2t-16.5 1q-4 1 -14.5 2t-16.5 3t-8 6v27q3 15 3 50.5t1 43.5q14 2 19 -1q3 -3 3 -20q0 -3 0.5 -10t0.5 -11q0 -3 -1.5 -11t-2 -15t-0.5 -14v-24q1 -3 13 -5q23 -4 41 -3q2 64 0 99q0 3 -1 8t-1 8t2 6q5 4 16 1q4 -5 4 -38v-20q1 -17 1 -63q6 -4 21.5 -2.5 t18.5 -2.5q0 -2 1 -3t1 -2zM297 696q0 -4 -5 -12q1 -3 -0.5 -6.5t-1.5 -6.5t-1 -7t-1 -7t-1 -8t-1 -8q-1 -6 -4 -16t-4 -15q-5 -25 -7 -33l-2 -3q-1 -2 -1.5 -5.5t-0.5 -5.5l-3 -6q0 -6 -1 -9q0 -2 -1.5 -4t-1.5 -4q-1 -3 -2.5 -12t-2.5 -12q-2 -1 -2 -2q-1 -2 -1 -6t-1 -6 t-2 -4.5t-1 -3.5q0 -6 -1 -9q0 -1 -3 -7q-3 -9 -3 -20q-6 -20 -10 -30q-5 -15 -16 -47t-17 -49q-1 -1 -1.5 -3.5t-0.5 -3.5h-3q1 0 0 -1q-1 -3 -2 -11.5t-3 -13.5v-4t-1 -4q0 -1 -1.5 -2.5t-1.5 -2.5t-1 -3.5t-1 -3.5q-1 -3 -5.5 -13.5t-5.5 -13.5q-2 -8 -7 -19q0 -1 -1 -2 l-3 -6t-2.5 -6.5t-2.5 -6.5q-1 -4 -5 -16q-2 -3 -5 -12q-4 -21 -10 -36q0 -1 -14 -37t-21 -55q-4 -15 -5 -20l-3 -9q-1 -1 -1 -6t-2 -6q-1 -4 -6 -9.5t-6 -9.5q-12 -7 -23 4q0 3 7 16q1 5 8 15q2 8 8 21.5t8 19.5q1 4 5 12t5 12q0 7 1 11q0 1 1 3q2 4 2 6q1 2 1.5 5t0.5 5 q1 2 3 4t2 3q1 2 2.5 8t3.5 11q0 2 2 4q0 2 2 6.5t3 7.5q1 1 1 2.5t1 2.5q0 1 2 3q2 6 3 8q1 3 5 12.5t6 14.5q20 62 23 70q5 15 14.5 41.5t11.5 32.5q8 28 26 83t26 85q4 26 12 60q3 24 9 42q8 34 8 35q2 3 3.5 10.5t2.5 10.5q0 2 1.5 5.5t1.5 6.5q-2 3 2 9q16 5 19 -8z M73 465q-5 -1 -17 4q-1 3 -1.5 7t0 8.5t-0.5 9.5q0 8 -3 77q-1 38 -1 113q1 1 1 4v5.5t2 2.5q10 0 14 -6q0 -6 1 -9q1 -7 1.5 -23t0.5 -21q0 -4 1 -10t1 -9q1 -12 1 -34.5v-35.5q5 -67 5 -70v-2l1 -1q1 -6 -6 -10z" glyph-name="onequarter" horiz-adv-x="432" unicode=""/><glyph d="M431 4q1 -1 0 -2t-1 -2q-7 -4 -29 -2q-1 0 -8 -1t-12 -1q-71 4 -119 0q-2 0 -7 -1.5t-8 -1.5q-2 0 -12 5q0 1 -3.5 3.5t-2.5 5.5t18 11q2 2 20 13q4 1 6 7q1 0 2 1l6 3q1 0 1 1t1 2q6 3 7 4q2 1 5 3t5 4l3 3q2 0 3 1l9 9q1 1 2 1h1l1 2q1 3 2 4q10 8 12 8q20 20 29 33 q13 28 17 42q0 44 -7 53q-3 6 -13 13q-6 4 -13 4q-2 1 -13.5 0t-13.5 -1q-16 -7 -21 -11q-4 -1 -9.5 -7t-10.5 -7q-8 0 -15 15q11 10 43 22q22 7 51 6l14 -7q6 -3 17 -12q15 -12 15 -36q0 -4 0.5 -13.5t0.5 -14.5q0 -4 -2 -11t-2 -10l-10 -20q-1 -3 -3 -6t-5 -6.5t-4 -5.5 q-3 -2 -6 -7t-5 -6q-2 -5 -15 -18l-9 -9q-9 -6 -10 -7l-3 -3t-4 -2q-1 -1 -4 -3l-2 -2l-1 -2l-5 -5t-6 -5h-3q-1 0 -3 -2t-4 -3q-1 -2 -4 -4t-4 -3t-3.5 -3t-3.5 -4q4 -2 8.5 -2.5t10 0.5t8.5 1t6 -0.5t4 -0.5t5 0.5t7 0.5q7 0 22.5 -1t23.5 -1h23q4 0 10.5 1t9.5 1l1 -1 q3 0 8 -7q1 -1 1 -3zM398 701q0 -3 -16 -46l-9 -24q-4 -10 -7 -21q-3 -7 -8.5 -22t-8.5 -21q-14 -34 -17 -44q-8 -15 -16 -45q-28 -59 -29 -61q-24 -54 -28 -62q-16 -28 -22 -40q-4 -9 -17 -41q-10 -26 -22 -43v-2t-1 -1l-2 -4l-3 -6q-3 -7 -9 -20t-8 -17q-1 -1 -1 -4t-1 -5 q-1 -3 -5.5 -11t-6.5 -13q-2 -2 -4.5 -7l-3.5 -7q-1 -1 -3 -5t-4 -6l-17 -34q-1 -2 -2 -4.5l-2 -5t-2 -5.5q-1 0 -1 -2v-3q-5 -10 -15 -26q-1 -2 -3 -8q-3 -2 -5 -5q-1 -3 -2.5 -11t-4 -12.5t-8.5 -6.5q-8 0 -10 3l-8 8q0 9 7 16l3 6t4 6q1 8 8 20q2 3 5.5 10l5.5 11 q4 6 11 19t12 20q9 27 29 62q0 3 4 8.5t5 10.5q8 18 36 79q1 1 3.5 4t3.5 5t2.5 7.5t2.5 7.5q4 7 7 14q2 4 7 16.5t10 20.5q4 7 15.5 29.5t17.5 35.5q17 46 26 64q0 1 1.5 3t2.5 4q1 1 1.5 4t0.5 4q1 2 3.5 6.5t3.5 6.5q12 24 17 55q4 8 12 26.5t12 26.5q14 32 18 44 q12 40 14 45q16 0 21 -7zM122 455q-3 1 -3 -1q-6 -1 -20 9q0 1 -1 6t-1 9q0 3 1 9t1 9q1 3 0 8t-1 7q0 4 1 13t0.5 16.5t-2.5 12.5q4 8 4 21q0 1 -1 3.5t-1 3.5q1 7 -0.5 22t-1.5 21q0 2 0.5 8t0.5 9t-1.5 15t-0.5 19q-2 2 -5.5 -0.5t-5.5 -2.5q-1 -2 -4 -4t-5 -4 q-2 -8 -9.5 -12t-13.5 5q0 2 -1.5 4.5t-0.5 4.5q0 3 1.5 5t4 4t3.5 3q1 2 4.5 5t4.5 5q17 14 21 14t12 -4q1 0 4.5 -1t5.5 -2q0 -1 1 -3t1 -3q1 -6 1 -22q0 -3 1 -7.5t1.5 -8.5t0.5 -8v-23q0 -3 1 -6.5t1 -5.5q0 -20 3 -30q-1 -7 0.5 -16t1.5 -12q-5 -17 -3 -30q0 -2 1.5 -5 t0.5 -6l-1 -1v-1q2 -5 1 -8q0 -2 3 -11q2 -28 -5 -33z" glyph-name="onehalf" horiz-adv-x="483" unicode=""/></font>
</defs>
</svg>
